<?xml version="1.0" encoding="utf-8"?>
<!-- Generator: Adobe Illustrator 22.0.0, SVG Export Plug-In . SVG Version: 6.00 Build 0)  -->
<svg version="1.1" id="aboutme_x5F_icon" xmlns="http://www.w3.org/2000/svg" xmlns:xlink="http://www.w3.org/1999/xlink" x="0px"
	 y="0px" viewBox="0 0 64 64" enable-background="new 0 0 64 64" xml:space="preserve" height="64" width="64">
<g id="qbox">
	<path fill="#DEDEDE" d="M33.9,4.6C17.7,4.6,4.5,15.1,4.5,27.9c0,11.1,9.9,20.6,23.6,22.9c3.7,5.2,11.1,12.4,11.2,12.5l0.8,0.8V50.6
		c13.5-2.3,23.2-11.8,23.2-22.7C63.3,15,50.1,4.6,33.9,4.6z"/>
	<path fill="#FFFFFF" d="M59,23.9C59,11.3,46.1,1.1,30.1,1.1S1.2,11.3,1.2,23.9c0,11.1,10.1,20.3,23.4,22.3
		c3.7,5.2,11.2,12.6,11.2,12.6V46.2C49.1,44.1,59,34.9,59,23.9z"/>
	<path fill="#231F20" d="M36.4,60l-0.8-0.8c-0.1-0.1-7.5-7.3-11.2-12.5C10.7,44.5,0.7,35,0.7,23.9c0-12.8,13.2-23.3,29.4-23.3
		S59.5,11,59.5,23.9c0,10.9-9.7,20.4-23.2,22.7V60H36.4z M30.1,1.6c-15.7,0-28.4,10-28.4,22.3c0,10.6,9.7,19.8,23,21.8h0.2l0.1,0.2
		c2.9,4.1,8.3,9.6,10.3,11.7V45.8l0.4-0.1C49,43.6,58.5,34.4,58.5,23.9C58.5,11.6,45.8,1.6,30.1,1.6z"/>
</g>
<path id="question" fill="#0000FF" d="M29.2,9.2c1.6,0,3.1,0.3,4.7,1c1.7,0.7,2.9,1.7,3.9,2.9c0.9,1.2,1.4,2.5,1.4,3.9
	c0,1.6-0.7,3-2,4.1c-0.3,0.3-1.4,0.9-3.1,1.7c-0.6,0.3-1.1,0.6-1.4,0.9c-0.3,0.3-0.6,0.7-0.8,1.1c-0.5,1-0.9,1.7-1.2,1.9
	c-0.4,0.3-1,0.4-1.9,0.4c-0.8,0-1.5-0.2-2-0.7s-0.7-1.2-0.7-2s0.2-1.6,0.6-2.4c0.1-0.2,0.6-1,1.6-2.5c0.9-1.4,1.4-2.6,1.4-3.8
	c0-0.6-0.1-1.1-0.4-1.5s-0.6-0.6-1-0.6s-0.7,0.1-0.9,0.4c-0.2,0.3-0.3,0.8-0.4,1.5c-0.1,1.4-0.6,2.5-1.4,3.2
	c-0.8,0.7-1.8,1.1-3.1,1.1c-0.9,0-1.6-0.2-2.2-0.7c-0.6-0.6-1-1.3-1-2.2c0-1.3,0.5-2.7,1.4-3.9c0.9-1.3,2.1-2.2,3.5-2.8
	C25.8,9.5,27.4,9.2,29.2,9.2z M28.7,29.1c1.2,0,2.2,0.5,3.1,1.4s1.3,1.9,1.3,3.1c0,1.2-0.4,2.3-1.3,3.2s-1.9,1.3-3.2,1.3
	c-1.2,0-2.2-0.4-3.1-1.2c-0.9-0.9-1.4-2-1.4-3.3c0-1.2,0.4-2.2,1.2-3.1C26.2,29.6,27.4,29.1,28.7,29.1z"/>
</svg>
