<?xml version="1.0" encoding="utf-8"?>
<!-- Generator: Adobe Illustrator 22.0.0, SVG Export Plug-In . SVG Version: 6.00 Build 0)  -->
<svg version="1.1" id="Layer_1" xmlns="http://www.w3.org/2000/svg" xmlns:xlink="http://www.w3.org/1999/xlink" x="0px" y="0px"
	 viewBox="0 0 1800 1800" enable-background="new 0 0 1800 1800" xml:space="preserve">
<rect x="-27" y="-27" fill="#3A3A3A" width="1854" height="1854"/>
<linearGradient id="SVGID_1_" gradientUnits="userSpaceOnUse" x1="900" y1="533" x2="900" y2="-27">
	<stop  offset="0" style="stop-color:#FF0080"/>
	<stop  offset="0.813" style="stop-color:#0000FF"/>
</linearGradient>
<rect x="-27" y="-27" fill="url(#SVGID_1_)" width="1854" height="560"/>
<g>
	<path fill="#0F0F0F" d="M-373,533.3h2555.7V418.9c0,0-58.6-8.6-115.8,5.5c-43.4,10.7-50.4,9.5-96.2-3.5
		c-55.7-15.9-167.8,28.3-244.3,38c-79.8,10.1-311.8-52.9-361.6-43.2c-26,5.1-45,39.5-122.8,33.9c-90.6-6.5-125.3-19.2-211,10.6
		l-199.2-0.5c0,0-52.4,26.7-111.2,1.8s-102-17.5-118.6-4.6c-16.5,12.9-93.7-0.9-93.7-0.9l-102,14.7l-51.5-13.8
		c0,0-92.3-19.9-177.5,3.6c-35.8,9.9-73.2,13.1-110.3,10.1l-71.4-5.7l-117.2-2.1l-21.4,20c0,0-77.2-26.2-100.6-11
		c-23.4,15.2-73.1-4.8-73.1-4.8l-59.3,18.8L-373,533.3z"/>
	<g>
		<polygon fill="#0F0F0F" points="109.2,500.4 40.9,417.7 97.4,425 7.4,328.3 78.8,350.8 10.2,270.4 78.8,295.2 -44.8,129.1 
			-168.3,295.2 -168.3,295.2 -99.7,270.4 -168.3,350.8 -96.9,328.3 -186.9,425 -130.5,417.7 -198.7,500.4 -198.7,500.4 -68.3,481.4 
			-68.3,497 -21.3,497 -21.3,481.4 		"/>
		<polygon fill="#0F0F0F" points="1020.2,495.2 977.1,425.9 1012.7,432 955.9,351 1001,369.9 957.7,302.4 1001,323.3 923,184 
			845.1,323.3 845.1,323.3 888.4,302.4 845.1,369.9 890.1,351 833.3,432 868.9,425.9 825.9,495.2 825.9,495.2 908.2,479.4 
			908.2,526.6 937.8,526.6 937.8,479.4 		"/>
		<polygon fill="#0F0F0F" points="1438.8,426.7 1408.1,377.3 1433.5,381.6 1393,323.8 1425.1,337.3 1394.2,289.2 1425.1,304 
			1369.5,204.7 1313.9,304 1313.9,304 1344.8,289.2 1313.9,337.3 1346.1,323.8 1305.6,381.6 1330.9,377.3 1300.2,426.7 
			1300.2,426.7 1358.9,415.4 1358.9,449 1380.1,449 1380.1,415.4 		"/>
		<polygon fill="#0F0F0F" points="580.8,468.4 556.7,439.2 576.7,441.8 544.9,407.6 570.1,415.6 545.9,387.2 570.1,396 526.5,337.3 
			482.9,396 482.9,396 507.1,387.2 482.9,415.6 508.1,407.6 476.3,441.8 496.2,439.2 472.1,468.4 472.1,468.4 518.2,461.7 
			518.2,481.6 534.8,481.6 534.8,461.7 		"/>
		<polygon fill="#0F0F0F" points="-200.4,464.6 -245.5,410.1 -208.3,414.9 -267.6,351.2 -220.5,366 -265.7,313 -220.5,329.4 
			-302,219.8 -383.4,329.4 -383.4,329.4 -338.2,313 -383.4,366 -336.3,351.2 -395.7,414.9 -358.5,410.1 -403.5,464.6 -403.5,464.6 
			-317.4,452.1 -317.4,489.3 -286.5,489.3 -286.5,452.1 		"/>
		<polygon fill="#0F0F0F" points="797.6,472.4 725.7,241.1 653.8,472.4 707.9,472.4 707.9,481 743.5,481 743.5,472.4 		"/>
		<polygon fill="#0F0F0F" points="688.7,473.8 652.7,358.2 616.8,473.8 643.8,473.8 643.8,478.1 661.6,478.1 661.6,473.8 		"/>
		<polygon fill="#0F0F0F" points="1202.6,469.5 1154.5,314.7 1106.4,469.5 1142.6,469.5 1142.6,475.2 1166.4,475.2 1166.4,469.5 		
			"/>
		<polygon fill="#0F0F0F" points="1251.4,466.8 1203.3,241.1 1155.2,466.8 1191.4,466.8 1191.4,475.2 1215.2,475.2 1215.2,466.8 		
			"/>
		<polygon fill="#0F0F0F" points="2182.7,411.8 2134.6,257.1 2086.5,411.8 2122.7,411.8 2122.7,417.6 2146.5,417.6 2146.5,411.8 		
			"/>
		<polygon fill="#0F0F0F" points="1603.2,151.1 1466.7,468.5 1739.8,468.5 		"/>
		<polygon fill="#0F0F0F" points="1811.8,184 1711.5,468.5 1912,468.5 		"/>
		<polygon fill="#0F0F0F" points="1723.2,219.8 1616.2,468.5 1830.2,468.5 		"/>
		<polygon fill="#0F0F0F" points="176.9,485 121.1,485 189.4,291.1 221.3,381.6 249.8,315.5 280.6,387.1 331.5,268.7 424.6,485 
			238.5,485 238.5,485 176.9,485 		"/>
		<path fill="#0F0F0F" d="M2061.4,374.1c0-52.2-60-152.3-60-152.3s-60,97.7-60,149.9c0,47.1,20.9,32.8,48.3,40v47.1h18.2v-47.1
			C2035.3,404.6,2061.4,421.2,2061.4,374.1z"/>
	</g>
</g>
<g display="none">
	
		<ellipse display="inline" fill="#4F441B" stroke="#231F20" stroke-width="2" stroke-miterlimit="10" cx="2468.1" cy="493" rx="202.6" ry="48.2"/>
	<g display="inline">
		<path fill="#443A1B" d="M2415.9,455.9c111.8-6.1,227.6,7.8,251.6,42.1l1.8,0.9c1-1.9,1.5-3.9,1.5-5.9c0-26.6-90.7-48.2-202.6-48.2
			s-202.6,21.6-202.6,48.2c0,0.4,0,0.7,0.1,1.1C2273.8,476,2317,461.3,2415.9,455.9z"/>
		<linearGradient id="SVGID_2_" gradientUnits="userSpaceOnUse" x1="2467.3936" y1="541.1739" x2="2467.3936" y2="454.5345">
			<stop  offset="4.926108e-03" style="stop-color:#4F441C"/>
			<stop  offset="1" style="stop-color:#4F441C"/>
		</linearGradient>
		<path fill="url(#SVGID_2_)" d="M2667.4,498c-23.9-34.2-139.7-48.1-251.6-42.1c-98.7,5.4-142,20.1-150.3,38.2
			c2.5,26.1,92.2,47.1,202.5,47.1c103.5,0,188.9-18.5,201.1-42.3L2667.4,498z"/>
	</g>
	
		<ellipse display="inline" fill="none" stroke="#231F20" stroke-width="2" stroke-miterlimit="10" cx="2468.1" cy="493" rx="202.6" ry="48.2"/>
	<g display="inline">
		<polygon fill="#473E1A" stroke="#231F20" stroke-width="2" stroke-miterlimit="10" points="2317.3,526.6 2308.9,493.9 
			2270.8,496.3 2270.3,539.6 		"/>
		<polygon fill="#473E1A" stroke="#231F20" stroke-width="2" stroke-miterlimit="10" points="2395.9,576.4 2362.5,521 2331.9,551 
			2345.5,612.7 		"/>
	</g>
	<path display="inline" fill="#A0A09F" d="M2208.5,503.3"/>
	<g display="inline">
		<polygon fill="#443A1B" points="2543,456 2541.5,561.3 2540,456 		"/>
	</g>
	<g display="inline">
		<polygon fill="#443A1B" points="2554.4,457.8 2552.9,572.3 2551.4,457.8 		"/>
	</g>
	<g display="inline">
		<polygon fill="#443A1B" points="2565.7,459.1 2564.2,566.8 2562.7,459.1 		"/>
	</g>
	<g display="inline">
		<polygon fill="#443A1B" points="2577.1,459.8 2575.6,583.8 2574.1,459.8 		"/>
	</g>
	<polygon display="inline" fill="#473E1A" stroke="#231F20" stroke-width="2" stroke-miterlimit="10" points="2640,491.5 
		2646.4,483.3 2681.4,515.8 2656.2,538.7 	"/>
	<g display="inline">
		<g>
			<path fill="#87762E" d="M2441,624.3c0-41.8,96.2-85,130-98.9c-7.5,1.4-12.9,1.4-17.8,2.4c-36.3,7.6-102.8,9.2-174.3-3.3l-23,46.7
				l6.6-51.5l-21.6-9.7l-25.2-9l-12.8,7.3l-23.8,14.2l14.5-14.3c-47.2,6.4-85,43.5-104.4,66.9c15.5,5.7,36.1,14.4,48.7,24.6
				c7.2,5.9,13.2,9.4,4.9,37c-4.7,15.7,11.4,41,73.5,38.5c31.8-1.3,75.6-8.8,114.6,5.7c27.1,10.1,58.6,9.2,73.9,8
				c19.5-1.5,41.1-3.8,60.8-7.3C2471,662,2441,641.8,2441,624.3z"/>
			<path fill="#736529" d="M2293.3,508.3l15.5-15.3c-6.3-24,14.1-32.7,14.1-32.7c-0.2-1.1-68,16-111.9,43.6c0,0-38.2,22.8-51.7,39
				c0,0-22.8,20.4,8.7,25.4c0,0,8.9,2.5,20.9,6.9C2208.4,551.9,2246.1,514.7,2293.3,508.3z"/>
		</g>
		<path fill="#9F8931" d="M2640.2,467.1c0,0,9.8,8.8,6.2,16.2l30.3,28.4l-35.7-21.2c-15.9,15.6-32.7,26.3-70,34.9
			c-33.7,13.9-130,57.1-130,98.9c0,17.5,29.9,37.6,124.3,57.4c24.8-4.5,46.9-10.9,58.5-20.1c21-16.6,44.2-21.8,81.8-14.9
			c16.3,3,33.1-2.7,43.6-15.5c9.6-11.7,15.4-30.8,5.3-61.4l-9-18c0,0,39.5,2.5,39.5-12C2785,539.8,2790.2,505.1,2640.2,467.1z"/>
	</g>
	<path display="inline" fill="none" stroke="#231F20" stroke-width="2" stroke-miterlimit="10" d="M2640.2,468c0,0,9.8,8.8,6.2,16.2
		l24.3,23l-29.7-16.7c-15.9,15.6-48.4,40.5-152.5,42.5c-47.7,0.9-109.7-8.4-109.7-8.4l-23,47.7l6.7-52.3l-21.7-8.9l-24.9-10.1
		l-13.2,7.5l-20.2,11.5l10.8-10.7l15.5-15.3c-6.3-24,15.3-34.3,15.3-34.3c-4.3,1.1-61.1,12.5-113.7,44.6c0,0-38.5,22.5-51.5,39
		c0,0-22.5,21,9,26c0,0,8.9,2.5,20.9,6.9c15.5,5.7,36.1,14.4,48.7,24.6c7.2,5.9,13.2,9.4,4.9,37c-4.7,15.7,11.4,41,73.5,38.5
		c31.8-1.3,75.6-8.8,114.6,5.7c27.1,10.1,58.6,9.2,73.9,8c19.5-1.5,41.1-3.8,60.8-7.3c24.8-4.5,46.9-10.9,58.5-20.1
		c21-16.6,44.2-21.8,81.8-14.9c16.3,3,33.1-2.7,43.6-15.5c9.6-11.7,15.4-30.8,5.3-61.4l-9-18c0,0,39.5,2.5,39.5-12
		C2785,540.8,2790.2,506,2640.2,468z"/>
	<g display="inline">
		<polygon fill="#443A1B" points="2426.6,453.8 2425.1,479.4 2423.6,453.8 		"/>
	</g>
	<g display="inline">
		<polygon fill="#443A1B" points="2436.7,453.8 2435.2,504.3 2433.7,453.8 		"/>
	</g>
	<g display="inline">
		<polygon fill="#443A1B" points="2445.7,453.3 2444.2,493 2442.7,453.3 		"/>
	</g>
	<path display="inline" fill="none" stroke="#231F20" stroke-width="2" stroke-miterlimit="10" d="M2617.5,493"/>
	<path display="inline" fill="none" stroke="#231F20" stroke-width="2" stroke-miterlimit="10" d="M2617.5,470.8"/>
	<g display="inline">
		<polygon fill="#443A1B" points="2361.9,459.8 2360.4,482.1 2358.9,459.8 		"/>
	</g>
	<g display="inline">
		<polygon fill="#443A1B" points="2353.7,460.8 2352.2,499.3 2350.7,460.8 		"/>
	</g>
</g>
<g display="none">
	<rect x="1200" y="1395.2" display="inline" fill="#3C563D" width="600" height="431.6"/>
	<rect x="1200" y="965.4" display="inline" fill="#425B43" width="600" height="431.6"/>
	<rect x="1200" y="533.8" display="inline" fill="#3C563D" width="600" height="431.6"/>
	<rect x="0" y="1396.1" display="inline" fill="#3C563D" width="600" height="431.6"/>
	<rect x="0" y="966.3" display="inline" fill="#425B43" width="600" height="431.6"/>
	<rect x="0" y="534.7" display="inline" fill="#3C563D" width="600" height="431.6"/>
	<rect x="600" y="1396.1" display="inline" fill="#446046" width="600" height="431.6"/>
	<rect x="600" y="966.3" display="inline" fill="#49664A" width="600" height="431.6"/>
	<rect x="600" y="534.7" display="inline" fill="#446046" width="600" height="431.6"/>
</g>
<polygon fill="#595859" points="509.5,1431.1 632.6,1431.1 663,1384 631.2,1397.9 638.1,1352.2 599.4,1391.6 586.3,1337 569,1392.3 
	527.5,1349.5 533,1397.9 483.7,1370.2 "/>
<polygon fill="#3A3A3A" points="769.3,1049 663,1049 637,1006 663,1019 663,979 694.1,1014 706,956 720.7,1007 742,966 753.1,1007 
	769.3,972 775,1020 807,998.5 "/>
<g>
	<polygon fill="#6D6E6E" points="1232.3,1002.5 1249.2,1002.5 1232.3,983 	"/>
	<polygon fill="#686868" points="1374.8,955.9 1326.3,915 1314.7,893.7 1307.7,903 1287.7,900 1293.7,919.7 1281,921.3 1271.7,907 
		1257.7,921 1269.3,945.3 1268.3,963.3 1247.3,955.3 1253,1002.5 1374.8,1002.5 	"/>
	<polygon fill="#807F7F" points="1268.3,963.3 1269.3,945.3 1257.7,921 1271.7,907 1281,921.3 1293.7,919.7 1287.7,900 1307.7,903 
		1314.7,893.7 1326.3,915 1374.8,955.9 1374.8,948.2 1346.6,914.9 1318.2,861.1 1263.5,861.1 1243,885.9 1229.3,924.3 1215.7,962.8 
		1205.4,1002.5 1232.3,1002.5 1232.3,983 1249.2,1002.5 1253,1002.5 1247.3,955.3 	"/>
</g>
<polygon fill="none" stroke="#404041" stroke-width="3" stroke-miterlimit="10" points="1346.6,914.9 1318.2,861.1 1263.5,861.1 
	1243,885.9 1229.3,924.3 1215.7,962.8 1205.4,1002.5 1232.3,1002.5 1249.2,1002.5 1253,1002.5 1374.8,1002.5 1374.8,955.9 
	1374.8,948.2 "/>
<polygon fill="#595859" points="1369.5,1015.8 1243.6,1013.3 1236.3,980.1 1258.3,987.9 1255.9,947.1 1281.1,979 1287,934.5 
	1312.8,972.7 1324.8,943.2 1339.2,975.4 1350.9,940.4 1364.9,982 1397.9,962 "/>
<polygon fill="#595859" points="1744.7,1773.1 1638.4,1773.1 1612.4,1730.1 1638.4,1743.1 1638.4,1703.1 1669.5,1738.1 
	1681.4,1680.1 1696.1,1731.1 1717.4,1690.1 1728.5,1731.1 1744.7,1696.1 1750.4,1744.1 1782.4,1722.6 "/>
</svg>
