<?xml version="1.0" encoding="utf-8"?>
<!-- Generator: Adobe Illustrator 22.0.0, SVG Export Plug-In . SVG Version: 6.00 Build 0)  -->
<svg version="1.1" id="Layer_1" xmlns="http://www.w3.org/2000/svg" xmlns:xlink="http://www.w3.org/1999/xlink" x="0px" y="0px"
	 viewBox="0 0 44.4 44.4" style="enable-background:new 0 0 44.4 44.4;" xml:space="preserve">
<style type="text/css">
	.st0{fill:#5D5D5D;}
</style>
<title>Asset 1</title>
<g>
	<path class="st0" d="M28.1,22.2L41,9.3c0.8-0.8,1.2-1.8,1.2-2.9S41.8,4.3,41,3.5s-1.8-1.2-2.9-1.2c-1.1,0-2.1,0.4-2.9,1.2l-13,12.8
		L9.3,3.4c-0.8-0.8-1.8-1.2-3-1.2l0,0c-1.1,0-2.1,0.4-2.9,1.2S2.2,5.2,2.2,6.3s0.4,2.1,1.2,2.9l12.9,12.9l-12.9,13
		c-0.8,0.8-1.2,1.8-1.2,2.9c0,1.1,0.4,2.1,1.2,2.9c0.8,0.8,1.8,1.2,2.9,1.2s2.1-0.4,2.9-1.2L22.1,28l13,13c0.8,0.8,1.8,1.2,2.9,1.2
		c1.1,0,2.1-0.4,2.9-1.2c0.8-0.8,1.2-1.8,1.2-2.9c0-1.1-0.4-2.1-1.2-2.9L28.1,22.2z"/>
	<path class="st0" d="M38,44.7c-1.8,0-3.4-0.7-4.7-1.9L22.1,31.5L11,42.7c-1.3,1.3-2.9,1.9-4.7,1.9c-1.8,0-3.4-0.7-4.7-1.9
		c-1.3-1.3-1.9-2.9-1.9-4.7s0.7-3.4,1.9-4.7l11.1-11.2L1.6,11C0.4,9.7-0.3,8.1-0.3,6.3s0.7-3.4,1.9-4.7c1.3-1.3,2.9-1.9,4.7-1.9
		c1.9,0,3.5,0.7,4.8,1.9l11.1,11.1L33.4,1.7c1.2-1.3,2.9-1.9,4.7-1.9c1.8,0,3.4,0.7,4.7,1.9C44,3,44.7,4.6,44.7,6.4
		s-0.7,3.4-1.9,4.7L31.6,22.2l11.1,11.2c1.2,1.2,1.9,2.9,1.9,4.7s-0.7,3.4-1.9,4.7C41.4,44,39.8,44.7,38,44.7z M22.1,24.5l14.8,14.8
		c0.6,0.6,1.6,0.6,2.3,0c0.3-0.3,0.5-0.7,0.5-1.1c0-0.5-0.1-0.8-0.5-1.1L24.6,22.2L39.2,7.5c0.3-0.3,0.5-0.7,0.5-1.1
		s-0.1-0.8-0.5-1.1c-0.6-0.6-1.6-0.6-2.3,0L22.2,19.8L7.5,5.2C7.3,4.9,7,4.7,6.3,4.7c-0.5,0-0.8,0.1-1.1,0.5
		C4.8,5.5,4.7,5.8,4.7,6.3c0,0.5,0.1,0.8,0.5,1.1l14.7,14.7L5.2,36.9c-0.3,0.3-0.5,0.7-0.5,1.1s0.1,0.8,0.5,1.1
		c0.6,0.6,1.6,0.6,2.3,0L22.1,24.5z"/>
</g>
</svg>
