<?xml version="1.0" encoding="utf-8"?>
<!-- Generator: Adobe Illustrator 22.0.0, SVG Export Plug-In . SVG Version: 6.00 Build 0)  -->
<svg version="1.1" id="Layer_1" xmlns="http://www.w3.org/2000/svg" xmlns:xlink="http://www.w3.org/1999/xlink" x="0px" y="0px"
	 viewBox="0 0 400 400" enable-background="new 0 0 400 400" xml:space="preserve">
<g>
	<g>
		<path fill="#FFFF00" d="M395.7,395.7H42.3V42.3h353.4L395.7,395.7L395.7,395.7z M61.3,376.7h315.4V61.3H61.3V376.7z"/>
	</g>
	<g>
		<rect x="6.2" y="6.2" fill="#FFFF00" width="334.4" height="334.4"/>
		<path fill="none" d="M342.5,342.5H4.3V4.3h338.2V342.5z M8.1,338.7h330.6V8.1H8.1V338.7z"/>
	</g>
</g>
<path d="M118.7,99v117.1c-5.9-4.3-13.4-6.8-21.5-6.8c-18.7,0-33.9,13.3-33.9,29.8s15.2,29.8,33.9,29.8s33.9-13.3,33.9-29.8V137.4
	l100.6-24.9v75.7c-5.9-4.3-13.4-6.8-21.5-6.8c-18.7,0-33.9,13.3-33.9,29.8s15.2,29.8,33.9,29.8s33.9-13.3,33.9-29.8V68.1L118.7,99z"
	/>
</svg>
