<?xml version="1.0" encoding="utf-8"?>
<!-- Generator: Adobe Illustrator 22.0.0, SVG Export Plug-In . SVG Version: 6.00 Build 0)  -->
<svg version="1.1" id="Layer_1" xmlns="http://www.w3.org/2000/svg" xmlns:xlink="http://www.w3.org/1999/xlink" x="0px" y="0px"
	 viewBox="0 0 50 50" style="enable-background:new 0 0 50 50;" xml:space="preserve">
<style type="text/css">
	.st0{fill:#040305;}
	.st1{fill:#010101;}
</style>
<path class="st0" d="M25,42.2c9.5,0,17.2-7.7,17.2-17.2c0-9.5-7.7-17.2-17.2-17.2S7.8,15.5,7.8,25C7.8,34.5,15.5,42.2,25,42.2z
	 M25,38.2c-2.7,0-5.3-0.8-7.5-2.4c0.9-1.5,3.6-5.2,9.5-7.5c1.5,4,2.2,7.4,2.5,9C28.1,37.9,26.6,38.2,25,38.2z M33.4,35.2
	c-0.3-1.6-1-4.5-2.2-7.8c0.6-0.1,1.2-0.1,1.8-0.1c2.1,0,3.9,0.4,4.8,0.6C37.2,30.7,35.6,33.3,33.4,35.2z M35.8,17.5
	c1.3,1.9,2.1,4.1,2.3,6.4c-1.2-0.2-3.3-0.5-5.6-0.5c-0.9,0-1.8,0-2.7,0.1c0-0.1,0-0.1-0.1-0.2c-0.2-0.4-0.4-0.8-0.6-1.3
	C32.6,20.5,34.7,18.6,35.8,17.5z M25,11.9c3,0,5.8,1,8.1,2.8c-0.8,0.9-2.6,2.6-5.8,3.9c-1.6-2.9-3.2-5.3-4.2-6.6
	C23.8,11.9,24.4,11.9,25,11.9z M18.8,13.4c0.8,1.1,2.5,3.6,4.2,6.5c-4.6,1.1-8.7,1.4-10.6,1.4C13.4,18,15.7,15.1,18.8,13.4z
	 M25,23.6c0.1,0.3,0.3,0.6,0.4,0.9c-5.8,2-9.5,6.5-10.9,8.5c-1.7-2.2-2.6-4.8-2.7-7.6C13.9,25.4,19.3,25.2,25,23.6z"/>
</svg>
