<?xml version="1.0" encoding="utf-8"?>
<!-- Generator: Adobe Illustrator 22.0.0, SVG Export Plug-In . SVG Version: 6.00 Build 0)  -->
<svg version="1.1" id="Layer_1" xmlns="http://www.w3.org/2000/svg" xmlns:xlink="http://www.w3.org/1999/xlink" x="0px" y="0px"
	 viewBox="0 0 50 50" style="enable-background:new 0 0 50 50;" xml:space="preserve">
<style type="text/css">
	.st0{fill:#040305;}
	.st1{fill:#010101;}
</style>
<g>
	<path class="st1" d="M40.8,16.6c-1.6-2.7-3.7-4.8-6.4-6.4c-2.7-1.6-5.7-2.4-8.9-2.4c-3.2,0-6.2,0.8-8.9,2.4
		c-2.7,1.6-4.8,3.7-6.4,6.4c-1.6,2.7-2.4,5.7-2.4,8.9c0,3.8,1.1,7.3,3.4,10.4c2.2,3.1,5.1,5.2,8.7,6.4c0.4,0.1,0.7,0,0.9-0.2
		c0.2-0.2,0.3-0.4,0.3-0.7c0,0,0-0.5,0-1.2c0-0.8,0-1.5,0-2l-0.5,0.1c-0.3,0.1-0.8,0.1-1.3,0.1c-0.5,0-1-0.1-1.6-0.2
		c-0.6-0.1-1.1-0.3-1.5-0.7c-0.5-0.4-0.8-0.8-1-1.4l-0.2-0.5c-0.2-0.4-0.4-0.7-0.7-1.2c-0.3-0.4-0.7-0.7-1-0.9L13,33.3
		c-0.1-0.1-0.2-0.2-0.3-0.3c-0.1-0.1-0.2-0.2-0.2-0.3c0-0.1,0-0.2,0.1-0.3s0.3-0.1,0.7-0.1l0.5,0.1c0.3,0.1,0.7,0.2,1.1,0.6
		c0.5,0.3,0.8,0.7,1.1,1.2c0.4,0.6,0.8,1.1,1.3,1.4c0.5,0.3,1,0.5,1.5,0.5c0.5,0,0.9,0,1.3-0.1c0.4-0.1,0.7-0.2,1-0.3
		c0.1-1,0.5-1.8,1.1-2.4c-0.9-0.1-1.7-0.2-2.4-0.4c-0.7-0.2-1.4-0.5-2.2-0.9c-0.7-0.4-1.4-0.9-1.9-1.5C15.4,29.8,15,29,14.7,28
		c-0.3-1-0.5-2.1-0.5-3.4c0-1.9,0.6-3.4,1.8-4.7c-0.6-1.4-0.5-3,0.2-4.7c0.4-0.1,1.1,0,2,0.3c0.9,0.3,1.5,0.6,1.9,0.9
		c0.4,0.2,0.7,0.5,1,0.6c1.4-0.4,2.9-0.6,4.4-0.6c1.5,0,3,0.2,4.4,0.6l0.9-0.6c0.6-0.4,1.3-0.7,2.1-1c0.8-0.3,1.4-0.4,1.9-0.3
		c0.7,1.7,0.8,3.3,0.2,4.7c1.2,1.3,1.8,2.9,1.8,4.7c0,1.3-0.2,2.5-0.5,3.5c-0.3,1-0.7,1.8-1.2,2.4c-0.5,0.6-1.1,1.1-1.9,1.5
		c-0.7,0.4-1.5,0.7-2.2,0.9c-0.7,0.2-1.5,0.3-2.4,0.4c0.8,0.7,1.2,1.8,1.2,3.3v4.9c0,0.3,0.1,0.5,0.3,0.7c0.2,0.2,0.5,0.2,0.9,0.2
		c3.6-1.2,6.5-3.3,8.7-6.4c2.2-3.1,3.4-6.5,3.4-10.4C43.1,22.2,42.4,19.3,40.8,16.6z"/>
</g>
</svg>
