<?xml version="1.0" encoding="utf-8"?>
<!-- Generator: Adobe Illustrator 22.0.0, SVG Export Plug-In . SVG Version: 6.00 Build 0)  -->
<svg version="1.1" id="Layer_1" xmlns="http://www.w3.org/2000/svg" xmlns:xlink="http://www.w3.org/1999/xlink" x="0px" y="0px"
	 viewBox="0 0 50 50" style="enable-background:new 0 0 50 50;" xml:space="preserve">
<style type="text/css">
	.st0{fill:#040305;}
	.st1{fill:#010101;}
</style>
<g>
	<path class="st1" d="M31.6,8.7H18.4c-5.4,0-9.7,4.4-9.7,9.7v13.2c0,5.4,4.4,9.7,9.7,9.7h13.2c5.4,0,9.7-4.4,9.7-9.7V18.4
		C41.3,13,37,8.7,31.6,8.7z M38,31.6c0,3.6-2.9,6.4-6.4,6.4H18.4c-3.6,0-6.4-2.9-6.4-6.4V18.4c0-3.6,2.9-6.4,6.4-6.4h13.2
		c3.6,0,6.4,2.9,6.4,6.4L38,31.6L38,31.6z"/>
	<path class="st1" d="M25,16.6c-4.7,0-8.4,3.8-8.4,8.4s3.8,8.4,8.4,8.4s8.4-3.8,8.4-8.4S29.7,16.6,25,16.6z M25,30.2
		c-2.9,0-5.2-2.3-5.2-5.2s2.3-5.2,5.2-5.2c2.9,0,5.2,2.3,5.2,5.2C30.2,27.9,27.9,30.2,25,30.2z"/>
	<circle class="st1" cx="33.5" cy="16.6" r="2"/>
</g>
</svg>
