<?xml version="1.0" encoding="utf-8"?>
<!-- Generator: Adobe Illustrator 22.0.0, SVG Export Plug-In . SVG Version: 6.00 Build 0)  -->
<svg version="1.1" id="Layer_1" xmlns="http://www.w3.org/2000/svg" xmlns:xlink="http://www.w3.org/1999/xlink" x="0px" y="0px"
	 viewBox="0 0 50 50" style="enable-background:new 0 0 50 50;" xml:space="preserve">
<style type="text/css">
	.st0{fill:#040305;}
	.st1{fill:#010101;}
</style>
<g>
	<path id="LinkedIn" class="st1" d="M40.5,28.4v11.5h-6.7V29.1c0-2.7-1-4.5-3.4-4.5c-1.8,0-2.9,1.2-3.4,2.4c-0.2,0.4-0.2,1-0.2,1.6
		v11.2h-6.7c0,0,0.1-18.1,0-20h6.7v2.8c0,0,0,0,0,0.1h0v-0.1c0.9-1.4,2.5-3.3,6-3.3C37.2,19.3,40.5,22.2,40.5,28.4z M13.2,10.2
		c-2.3,0-3.8,1.5-3.8,3.5c0,1.9,1.4,3.5,3.7,3.5h0c2.3,0,3.8-1.5,3.8-3.5C16.9,11.7,15.5,10.2,13.2,10.2z M9.9,39.8h6.7v-20H9.9
		V39.8z"/>
</g>
</svg>
