<?xml version="1.0" encoding="utf-8"?>
<!-- Generator: Adobe Illustrator 22.0.0, SVG Export Plug-In . SVG Version: 6.00 Build 0)  -->
<svg version="1.1" id="Layer_2_1_" xmlns="http://www.w3.org/2000/svg" xmlns:xlink="http://www.w3.org/1999/xlink" x="0px" y="0px"
	 viewBox="0 0 64 64" style="enable-background:new 0 0 64 64;" xml:space="preserve">
<g>
	<path style="fill:#DEDEDE;" d="M37.9,11.9c-14.1,0-25.5,11.4-25.5,25.5s11.4,25.5,25.5,25.5s25.5-11.4,25.5-25.5
		S52,11.9,37.9,11.9z M42.1,40.8c-1,1.3-2.5,2-4.2,2c-0.3,0-0.5,0-0.8-0.1l0,0c-0.5-0.1-0.9-0.2-1.3-0.4c-0.4-0.2-0.8-0.4-1.2-0.7
		l0,0l0,0c-0.4-0.3-0.7-0.7-0.9-1c-0.3-0.4-0.5-0.7-0.6-1.1v-0.1c-0.2-0.4-0.3-0.8-0.4-1.3c-0.1-1.5,0.3-2.9,1.2-4
		c1-1.3,2.5-2,4.2-2c0.2,0,0.5,0,0.7,0.1l0,0c0.5,0.1,0.9,0.2,1.4,0.4c0.4,0.2,0.9,0.4,1.3,0.7c0,0,0,0,0.1,0l0,0
		c0.4,0.3,0.7,0.7,0.9,1c0.3,0.4,0.5,0.7,0.6,1.2v0.1c0.2,0.4,0.3,0.9,0.4,1.3C43.4,38.3,43,39.7,42.1,40.8z"/>
	<path style="fill:#FFFF00;" d="M56.4,21.3L56.4,21.3c-0.9-1-2-2.1-3.1-3l-0.1-0.1l-2.4,3L44,29.7c0.7,0.5,1.3,1.2,1.8,1.9
		L57.7,23C57.3,22.4,56.9,21.9,56.4,21.3z"/>
	<path style="fill:#00FF80;" d="M47.6,14.9l-2.7,6.3l-3.1,7.1c0.8,0.3,1.5,0.8,2.2,1.4l6.8-8.5l2.4-3
		C51.4,16.9,49.5,15.8,47.6,14.9z"/>
	<path style="fill:#FF0080;" d="M60.8,28.6c-0.8-2-1.8-3.9-3.1-5.6l-11.9,8.7c0.5,0.7,0.9,1.4,1.2,2.2V34L60.8,28.6L60.8,28.6z"/>
	<path style="fill:#0000FF;" d="M41.4,13.2L41.4,13.2l-2.2,14.5c0.8,0.1,1.7,0.4,2.5,0.7l3.1-7.1l2.7-6.3
		C45.6,14.1,43.5,13.5,41.4,13.2z"/>
	<path style="fill:#0000FF;" d="M36.4,47.1c-0.8-0.1-1.7-0.3-2.5-0.7L28,59.9c2,0.9,4.1,1.5,6.2,1.8l0,0L36.4,47.1L36.4,47.1z"/>
	<path style="fill:#00FF80;" d="M34,46.4c-0.8-0.3-1.5-0.8-2.2-1.4l-9.2,11.5c1.7,1.4,3.6,2.5,5.6,3.4L34,46.4z"/>
	<path style="fill:#FFFF00;" d="M29.9,43.1L18,51.8c1.3,1.7,2.8,3.3,4.5,4.7L31.8,45C31.1,44.5,30.4,43.8,29.9,43.1z"/>
	<path style="fill:#FF0080;" d="M28.8,41C28.7,40.9,28.7,40.9,28.8,41L15,46.1v0.1c0.8,2,1.8,3.9,3,5.6l11.9-8.7
		C29.5,42.5,29.1,41.7,28.8,41z"/>
	<path style="fill:#DEDEDE;" d="M46.7,36.4c-0.1-0.8-0.2-1.5-0.5-2.2v-0.1c-0.3-0.7-0.6-1.4-1.1-2c-0.5-0.6-1-1.2-1.6-1.7l0,0
		c0,0,0,0-0.1,0c-0.7-0.5-1.4-0.9-2.1-1.1c-0.7-0.3-1.5-0.5-2.2-0.6l0,0c-0.4-0.1-0.8-0.1-1.2-0.1c-2.6,0-5.1,1.1-6.9,3.3
		c-2,2.5-2.4,5.8-1.3,8.6v0.1c0.3,0.7,0.6,1.3,1,1.9c0.4,0.6,1,1.2,1.6,1.7c0,0,0,0,0.1,0.1l0,0c0.6,0.5,1.3,0.9,2,1.2
		s1.5,0.5,2.2,0.6l0,0c3,0.4,6.1-0.7,8.2-3.2C46.3,41.1,46.9,38.8,46.7,36.4z M42.1,40.8c-1,1.3-2.5,2-4.2,2c-0.3,0-0.5,0-0.8-0.1
		l0,0c-0.5-0.1-0.9-0.2-1.3-0.4c-0.4-0.2-0.8-0.4-1.2-0.7l0,0l0,0c-0.4-0.3-0.7-0.7-0.9-1c-0.3-0.4-0.5-0.7-0.6-1.1v-0.1
		c-0.2-0.4-0.3-0.8-0.4-1.3c-0.1-1.5,0.3-2.9,1.2-4c1-1.3,2.5-2,4.2-2c0.2,0,0.5,0,0.7,0.1l0,0c0.5,0.1,0.9,0.2,1.4,0.4
		c0.4,0.2,0.9,0.4,1.3,0.7c0,0,0,0,0.1,0l0,0c0.4,0.3,0.7,0.7,0.9,1c0.3,0.4,0.5,0.7,0.6,1.2v0.1c0.2,0.4,0.3,0.9,0.4,1.3
		C43.4,38.3,43,39.7,42.1,40.8z"/>
		<path d="M47.6,36.3c-0.1-0.8-0.3-1.6-0.6-2.4v-0.1c-0.3-0.8-0.7-1.5-1.2-2.2s-1.1-1.3-1.8-1.9c0,0,0,0-0.1-0.1l0,0
			c-0.7-0.6-1.5-1-2.2-1.4c-0.8-0.3-1.6-0.6-2.5-0.7l0,0c-3.3-0.5-6.8,0.8-9,3.6c-2.3,2.8-2.7,6.5-1.5,9.7v0.1
			c0.3,0.8,0.7,1.5,1.2,2.2s1.1,1.3,1.8,1.9l0,0c0,0,0,0,0.1,0c0.7,0.6,1.4,1,2.2,1.4c0.8,0.3,1.6,0.6,2.5,0.7l0,0
			c0.4,0.1,0.9,0.1,1.4,0.1c2.9,0,5.8-1.3,7.7-3.7C47.1,41.5,47.9,38.9,47.6,36.3z M44.8,42.9c-2.1,2.5-5.2,3.6-8.2,3.2l0,0
			c-0.8-0.1-1.5-0.3-2.2-0.6s-1.4-0.7-2-1.2l0,0c0,0,0,0-0.1-0.1c-0.6-0.5-1.1-1.1-1.6-1.7c-0.4-0.6-0.8-1.3-1-1.9v-0.1
			c-1.1-2.8-0.7-6.1,1.3-8.6c1.8-2.2,4.3-3.3,6.9-3.3c0.4,0,0.8,0,1.2,0.1l0,0c0.7,0.1,1.5,0.3,2.2,0.6c0.7,0.3,1.4,0.7,2.1,1.1
			c0,0,0,0,0.1,0l0,0c0.6,0.5,1.1,1.1,1.6,1.7c0.4,0.6,0.8,1.3,1.1,2v0.1c0.3,0.7,0.4,1.4,0.5,2.2C46.9,38.8,46.3,41.1,44.8,42.9z
			"/>
		<path d="M42.9,35.4c-0.2-0.4-0.4-0.8-0.6-1.2c-0.3-0.4-0.6-0.7-0.9-1l0,0c0,0,0,0-0.1,0c-0.4-0.3-0.8-0.5-1.3-0.7
			c-0.4-0.2-0.9-0.3-1.4-0.4l0,0c-0.2,0-0.5-0.1-0.7-0.1c-1.7,0-3.2,0.7-4.2,2c-0.9,1.1-1.3,2.5-1.2,4c0.1,0.4,0.2,0.9,0.4,1.3
			v0.1c0.2,0.4,0.4,0.8,0.6,1.1c0.3,0.4,0.6,0.7,0.9,1l0,0l0,0c0.4,0.3,0.8,0.5,1.2,0.7s0.9,0.3,1.3,0.4l0,0
			c0.3,0,0.5,0.1,0.8,0.1c1.7,0,3.2-0.7,4.2-2c0.9-1.1,1.3-2.5,1.2-4C43.2,36.3,43.1,35.9,42.9,35.4
			C42.9,35.5,42.9,35.4,42.9,35.4z M41.4,40.2c-1,1-2.3,1.6-3.6,1.6c-0.2,0-0.4,0-0.6,0l0,0c-0.4,0-0.8-0.1-1.1-0.3
			c-0.4-0.1-0.7-0.3-1-0.6c0,0,0,0-0.1,0l0,0c-0.3-0.2-0.5-0.5-0.8-0.8c-0.2-0.3-0.4-0.6-0.5-0.9v-0.1c-0.6-1.4-0.4-3.1,0.6-4.4
			c1-1.1,2.3-1.6,3.6-1.6c0.2,0,0.4,0,0.6,0l0,0c0.4,0,0.8,0.1,1.1,0.3c0.4,0.1,0.7,0.3,1,0.6c0,0,0,0,0.1,0l0,0
			c0.3,0.2,0.5,0.5,0.8,0.8c0.2,0.3,0.4,0.6,0.5,0.9v0.1C42.6,37.3,42.4,38.9,41.4,40.2z"/>
	<path style="fill:#231F20;" d="M37.9,12.9c5.4,0,10.8,1.8,15.4,5.4c5.1,4.1,8.3,9.9,9,16.4s-1.2,12.9-5.3,18
	c-4.9,6.1-12,9.2-19.2,9.2c-5.4,0-10.8-1.8-15.3-5.4c-5.1-4.1-8.3-9.9-9-16.4s1.2-12.9,5.3-18C23.6,16,30.7,12.9,37.9,12.9
	 M37.9,11.9c-7.8,0-15.1,3.5-19.9,9.6c-4.3,5.3-6.2,12-5.5,18.7s4,12.8,9.4,17.1c4.5,3.6,10.1,5.6,15.9,5.6
	c7.8,0,15.1-3.5,19.9-9.6c4.3-5.3,6.2-12,5.5-18.7s-4-12.8-9.4-17.1C49.2,13.8,43.7,11.9,37.9,11.9L37.9,11.9z"/>
</g>
<g>
	<path style="fill:#FFFF00;" d="M9.1,6.1v15.2v0.6v6c-0.5-0.2-1.1-0.3-1.7-0.3c-0.5,0-1,0.1-1.5,0.2c-2.6,0.6-4.3,2.7-3.8,4.7
		c0.2,1.5,2,2.6,4.1,2.6c0.5,0,0.9-0.1,1.4-0.2c2.2-0.6,3.8-2.3,3.8-4l0.1-9.6v-8.8l13.2-2.4v5.3v0.3v5.2v0.4v3.6
		c-0.6-0.2-1.2-0.3-1.8-0.3c-0.5,0-1,0.1-1.5,0.2c-2.6,0.7-4.3,2.8-3.8,4.8c0.4,1.6,2.1,2.6,4.1,2.6c0.5,0,1-0.1,1.5-0.2
		c2.4-0.6,3.9-2.2,3.9-4.2v-6.5v-0.4v-6.4V14V3.2L9.1,6.1z"/>
	<path d="M28.1,2l-1.2,0.2l-18.1,3L8,5.3v0.9v20.5c-0.2,0-0.5,0-0.7,0c-0.6,0-1.2,0.1-1.7,0.2c-3.1,0.8-5.1,3.4-4.5,5.9
		c0.3,1.9,2.5,3.4,5.1,3.4c0.6,0,1.1-0.1,1.7-0.2c2.2-0.6,4-2.1,4.5-4v-1l0.1-17.5l11.3-2.1v4.8v0.5v0.6v3.9v0.1v2.4
		c-0.3,0-0.5,0-0.8,0c-0.6,0-1.2,0.1-1.7,0.2c-3.1,0.8-5.1,3.5-4.5,6c0.5,2,2.5,3.4,5.1,3.4c0.6,0,1.2-0.1,1.7-0.2
		c2.8-0.7,4.6-2.8,4.6-5.2v-6.6v-0.1v-6.3v-0.5v-0.5V3.2V2H28.1z M27.1,14.4v0.5v0.6v5.8v0.1v6.4c0,2-1.5,3.6-3.9,4.2
		c-0.5,0.1-1,0.2-1.5,0.2c-2,0-3.7-1-4.1-2.6c-0.5-2,1.2-4.1,3.8-4.8c0.5-0.1,1-0.2,1.5-0.2c0.6,0,1.2,0.1,1.8,0.3v-3.5v-0.1v-4.5
		v-0.6v-0.5v-5.5l-13.2,2.4v8.7v0.1L11.4,31c0,1.7-1.6,3.4-3.8,4c-0.5,0.1-0.9,0.2-1.4,0.2c-2.1,0-3.9-1.1-4.1-2.6
		c-0.5-2,1.2-4.1,3.8-4.7c0.5-0.1,1-0.2,1.5-0.2c0.6,0,1.2,0.1,1.7,0.3v-6.6v-0.1V6.1l18-2.9C27.1,3.2,27.1,14.4,27.1,14.4z"/>
</g>
</svg>
