<?xml version="1.0" encoding="utf-8"?>
<!-- Generator: Adobe Illustrator 22.0.0, SVG Export Plug-In . SVG Version: 6.00 Build 0)  -->
<svg version="1.1" id="Capa_1" xmlns="http://www.w3.org/2000/svg" xmlns:xlink="http://www.w3.org/1999/xlink" x="0px" y="0px"
	 viewBox="0 0 511.6 511.6" enable-background="new 0 0 511.6 511.6" xml:space="preserve">
<g>
	<g id="_x32__17_">
		<g>
			<path d="M120.6,306.1c-0.2-0.8-0.6-1.5-0.8-2.3h-32c1.8,9.5,4.3,18.8,7.6,27.7L120.6,306.1z M263.8,0
				C202,0,151.8,50.1,151.8,111.9l0,164.8L367.5,70.4C351,29.2,310.9,0,263.8,0z M432.9,48.2L55.8,409.2l22.8,22.5L455.8,70.9
				L432.9,48.2z M263.8,415.7c-31,0-60.2-10.2-84.5-26.9l-22.5,22.8c26.1,19.4,57.3,32.3,91,35.4v32.7h-16c-8.8,0-16,7.2-16,16
				c0,8.8,7.2,16,16,16h64c8.8,0,16-7.2,16-16c0-8.8-7.2-16-16-16h-16v-32.7c78.9-7.1,145.8-66.4,159.9-143.2h-32
				C393.1,367.8,332.2,415.7,263.8,415.7z M375.7,271.8v-84.1L195.6,360c18.9,14.7,42.4,23.7,68.2,23.7
				C325.6,383.7,375.7,333.6,375.7,271.8z"/>
		</g>
	</g>
</g>
</svg>
