<?xml version="1.0" encoding="utf-8"?>
<!-- Generator: Adobe Illustrator 22.0.0, SVG Export Plug-In . SVG Version: 6.00 Build 0)  -->
<svg version="1.1" id="Capa_1" xmlns="http://www.w3.org/2000/svg" xmlns:xlink="http://www.w3.org/1999/xlink" x="0px" y="0px"
	 viewBox="0 0 511.6 511.6" enable-background="new 0 0 511.6 511.6" xml:space="preserve">
<g>
	<path d="M506.2,42c-3.6-3.6-7.9-5.4-12.9-5.4h-36.5c-4.9,0-9.2,1.8-12.8,5.4c-3.6,3.6-5.4,7.9-5.4,12.9v193.6
		c-1-2.1-2.2-3.9-3.7-5.4L232.1,40.3c-3.6-3.6-6.7-4.9-9.1-3.7c-2.5,1.1-3.7,4.2-3.7,9.1v202.7c-0.9-2.1-2.2-3.9-3.7-5.4L12.8,40.3
		c-3.6-3.6-6.7-4.9-9.1-3.7C1.2,37.7,0,40.7,0,45.7v420.3c0,4.9,1.2,8,3.7,9.1c2.5,1.1,5.5-0.1,9.1-3.7l202.7-202.7
		c1.5-1.7,2.8-3.5,3.7-5.4v202.7c0,4.9,1.2,8,3.7,9.1s5.5-0.1,9.1-3.7l202.7-202.7c1.5-1.7,2.8-3.5,3.7-5.4v193.6
		c0,4.9,1.8,9.2,5.4,12.8c3.6,3.6,7.9,5.4,12.8,5.4h36.5c4.9,0,9.2-1.8,12.9-5.4c3.6-3.6,5.4-7.9,5.4-12.8v-402
		C511.6,49.9,509.8,45.6,506.2,42z"/>
</g>
</svg>
