<?xml version="1.0" encoding="utf-8"?>
<!-- Generator: Adobe Illustrator 22.0.0, SVG Export Plug-In . SVG Version: 6.00 Build 0)  -->
<svg version="1.1" id="Layer_1" xmlns="http://www.w3.org/2000/svg" xmlns:xlink="http://www.w3.org/1999/xlink" x="0px" y="0px"
	 viewBox="0 0 44.4 44.4" style="enable-background:new 0 0 44.4 44.4;" xml:space="preserve">
<style type="text/css">
	.st0{fill:#5D5D5D;}
</style>
<title>Asset 1</title>
<g>
	<path class="st0" d="M38.2,18.2h-12v-12c0-2.2-1.8-4-4-4s-4,1.8-4,4v12h-12c-2.2,0-4,1.8-4,4s1.8,4,4,4h12v12c0,2.2,1.8,4,4,4
		s4-1.8,4-4v-12h12c2.2,0,4-1.8,4-4S40.4,18.2,38.2,18.2z"/>
	<path class="st0" d="M22.2,44.7c-3.6,0-6.5-2.9-6.5-6.5v-9.5H6.2c-3.6,0-6.5-2.9-6.5-6.5s2.9-6.5,6.5-6.5h9.5V6.2
		c0-3.6,2.9-6.5,6.5-6.5s6.5,2.9,6.5,6.5v9.5h9.5c3.6,0,6.5,2.9,6.5,6.5s-2.9,6.5-6.5,6.5h-9.5v9.5C28.7,41.8,25.8,44.7,22.2,44.7z
		 M6.2,20.7c-0.8,0-1.5,0.7-1.5,1.5c0,0.8,0.7,1.5,1.5,1.5h14.5v14.5c0,0.8,0.7,1.5,1.5,1.5c0.8,0,1.5-0.7,1.5-1.5V23.7h14.5
		c0.8,0,1.5-0.7,1.5-1.5c0-0.8-0.7-1.5-1.5-1.5H23.7V6.2c0-0.8-0.7-1.5-1.5-1.5c-0.8,0-1.5,0.7-1.5,1.5v14.5H6.2z"/>
</g>
</svg>
