<?xml version="1.0" encoding="utf-8"?>
<!-- Generator: Adobe Illustrator 22.0.0, SVG Export Plug-In . SVG Version: 6.00 Build 0)  -->
<svg version="1.1" id="Capa_1" xmlns="http://www.w3.org/2000/svg" xmlns:xlink="http://www.w3.org/1999/xlink" x="0px" y="0px"
	 viewBox="0 0 511.6 511.6" enable-background="new 0 0 511.6 511.6" xml:space="preserve">
<g>
	<path d="M5.4,469.7c3.6,3.6,7.9,5.4,12.9,5.4h36.5c4.9,0,9.2-1.8,12.8-5.4c3.6-3.6,5.4-7.9,5.4-12.9V263.2c1,2.1,2.2,3.9,3.7,5.4
		l202.7,202.7c3.6,3.6,6.7,4.9,9.1,3.7c2.5-1.1,3.7-4.2,3.7-9.1V263.2c1,2.1,2.2,3.9,3.7,5.4l202.7,202.7c3.6,3.6,6.7,4.9,9.1,3.7
		c2.5-1.1,3.7-4.2,3.7-9.1V45.7c0-4.9-1.2-8-3.7-9.1c-2.5-1.1-5.5,0.1-9.1,3.7L296.1,243c-1.5,1.7-2.8,3.5-3.7,5.4V45.7
		c0-4.9-1.2-8-3.7-9.1s-5.5,0.1-9.1,3.7L76.8,243c-1.5,1.7-2.8,3.5-3.7,5.4V54.8c0-4.9-1.8-9.2-5.4-12.8c-3.6-3.6-7.9-5.4-12.8-5.4
		H18.3c-4.9,0-9.2,1.8-12.9,5.4C1.8,45.6,0,49.9,0,54.8v402C0,461.8,1.8,466,5.4,469.7z"/>
</g>
</svg>
