<?xml version="1.0" encoding="utf-8"?>
<!-- Generator: Adobe Illustrator 22.0.0, SVG Export Plug-In . SVG Version: 6.00 Build 0)  -->
<svg version="1.1" id="Layer_1" xmlns="http://www.w3.org/2000/svg" xmlns:xlink="http://www.w3.org/1999/xlink" x="0px" y="0px"
	 viewBox="0 0 64 64" style="enable-background:new 0 0 64 64;" xml:space="preserve">
<g>
	<g id="movedown">
		<g>
			<g>
				<g>
					<g>
						<g>
							<g>
								<defs>
									<polygon id="SVGID_1_" points="24,16.2 24,62.4 58.2,62.4 58.2,29 45.5,16.2 									"/>
								</defs>
								<clipPath id="SVGID_2_">
									<use xlink:href="#SVGID_1_"  style="overflow:visible;"/>
								</clipPath>
								<g style="clip-path:url(#SVGID_2_);">
									<rect y="-21.2" style="fill:#FFFFFF;" width="62.8" height="62.8"/>
								</g>
							</g>
						</g>
						<g>
							<g>
								<defs>
									<polygon id="SVGID_3_" points="24,16.2 24,62.4 58.2,62.4 58.2,29 45.5,16.2 									"/>
								</defs>
								<clipPath id="SVGID_4_">
									<use xlink:href="#SVGID_3_"  style="overflow:visible;"/>
								</clipPath>
								<g style="clip-path:url(#SVGID_4_);">
									<rect y="41.6" style="fill:#FFFFFF;" width="62.8" height="62.8"/>
								</g>
							</g>
						</g>
					</g>
					<path d="M58.7,62.9H23.5V15.7h22.2l13.1,13.1v34.1C58.8,62.9,58.7,62.9,58.7,62.9z M24.5,61.9h33.3V29.2L45.3,16.7H24.5V61.9z"
						/>
				</g>
				<g>
					<rect x="51.3" y="13.6" transform="matrix(0.7071 -0.7071 0.7071 0.7071 -0.872 43.2725)" width="1" height="18.1"/>
				</g>
			</g>
			<g>
				<path d="M58.2,29.5H45.4L45,29V16.2l0.9-0.4l12.8,12.8L58.2,29.5z M46,28.5h11.1L46,17.4V28.5z"/>
			</g>
			<g>
				<g>
					<g>
						<circle style="fill:#00FF80;" cx="40.4" cy="36.2" r="5.9"/>
					</g>
					<g>
						<path d="M40.4,30.8c3,0,5.4,2.4,5.4,5.4s-2.4,5.4-5.4,5.4S35,39.2,35,36.2C34.9,33.2,37.4,30.8,40.4,30.8 M40.4,29.8
							c-3.6,0-6.4,2.9-6.4,6.4c0,3.6,2.9,6.4,6.4,6.4s6.4-2.9,6.4-6.4C46.8,32.7,43.9,29.8,40.4,29.8L40.4,29.8z"/>
					</g>
				</g>
				<g>
					<g>
						<g>
							<path style="fill:#0000FF;" d="M44.9,33.2l-0.2,0.1l-0.9,0.1l-0.2,0.4l-0.2-0.1L42.7,33l-0.1-0.3l-0.1-0.3L42.1,32l-0.5-0.1
								v0.2L41,32.4L40.9,33l-0.4,0.1v0.4l0.6,0.1l0.1-0.6l0.5,0.1l0.2,0.1h0.4l0.2,0.5l0.6,0.7v0.3l-0.5-0.1l-1,0.4L41,35.8
								l-0.1,0.3h-0.2l-0.4-0.2l-0.4,0.2l0.1,0.4l0.5,0.2l0.3,0.1l0.3,0.3l0.4-0.1l0.5,0.1l0.6,0.2h0.3l0.5,0.6l0.9,0.6l-0.6,1.2
								L43.1,40l-0.2,0.7L42,41.3l-0.1,0.4c2.4-0.6,4.2-2.7,4.2-5.3C45.8,35.1,45.5,34.1,44.9,33.2z"/>
						</g>
						<g>
							<path style="fill:#0000FF;" d="M41,39.1l-0.4-0.7l0.4-0.8l-0.4-0.1l-0.4-0.4l-0.9-0.2L39,36.2l-0.9-0.7v-0.9l-0.6-0.9
								l-0.9,0.2H36l-0.3-0.2v-0.2c-0.5,0.8-0.7,1.7-0.7,2.7c0,3,2.4,5.4,5.4,5.4c0.2,0,0.5,0,0.7,0L41,41l0.2-1
								C41.2,39.9,41,39.1,41,39.1z"/>
						</g>
						<g>
							<path style="fill:#0000FF;" d="M36.9,32.5l1-0.1l0.4-0.2l0.5,0.1h0.8l0.3-0.4l0.4,0.1l1-0.1l0.3-0.3l0.4-0.3l0.5,0.1h0.2
								c-0.7-0.3-1.5-0.5-2.3-0.5c-1.7,0-3.2,0.8-4.2,2l0,0L36.9,32.5z"/>
						</g>
					</g>
				</g>
			</g>
			<g>
				<path style="fill:#0000FF;" d="M53.4,45.4H27.8c-0.3,0-0.5-0.2-0.5-0.5s0.2-0.5,0.5-0.5h25.6c0.3,0,0.5,0.2,0.5,0.5
					S53.7,45.4,53.4,45.4z"/>
			</g>
			<g>
				<path style="fill:#0000FF;" d="M53.4,48.7H27.8c-0.3,0-0.5-0.2-0.5-0.5s0.2-0.5,0.5-0.5h25.6c0.3,0,0.5,0.2,0.5,0.5
					S53.7,48.7,53.4,48.7z"/>
			</g>
			<g>
				<path style="fill:#0000FF;" d="M53.4,52H27.8c-0.3,0-0.5-0.2-0.5-0.5s0.2-0.5,0.5-0.5h25.6c0.3,0,0.5,0.2,0.5,0.5
					S53.7,52,53.4,52z"/>
			</g>
			<g>
				<path style="fill:#0000FF;" d="M53.4,55.3H27.8c-0.3,0-0.5-0.2-0.5-0.5s0.2-0.5,0.5-0.5h25.6c0.3,0,0.5,0.2,0.5,0.5
					S53.7,55.3,53.4,55.3z"/>
			</g>
		</g>
		<g>
			<path style="fill:#0000FF;" d="M53.4,58.6H27.8c-0.3,0-0.5-0.2-0.5-0.5s0.2-0.5,0.5-0.5h25.6c0.3,0,0.5,0.2,0.5,0.5
				S53.7,58.6,53.4,58.6z"/>
		</g>
	</g>
	<g>
		<g>
			<g>
				<g>
					<g>
						<g>
							<g>
								<defs>
									<polygon id="SVGID_5_" points="14.9,8.9 14.9,55.1 49.1,55.1 49.1,21.7 36.4,8.9 									"/>
								</defs>
								<clipPath id="SVGID_6_">
									<use xlink:href="#SVGID_5_"  style="overflow:visible;"/>
								</clipPath>
								<g style="clip-path:url(#SVGID_6_);">
									<rect y="-21.2" style="fill:#FFFFFF;" width="62.8" height="62.8"/>
								</g>
							</g>
						</g>
						<g>
							<g>
								<defs>
									<polygon id="SVGID_7_" points="14.9,8.9 14.9,55.1 49.1,55.1 49.1,21.7 36.4,8.9 									"/>
								</defs>
								<clipPath id="SVGID_8_">
									<use xlink:href="#SVGID_7_"  style="overflow:visible;"/>
								</clipPath>
								<g style="clip-path:url(#SVGID_8_);">
									<rect y="41.6" style="fill:#FFFFFF;" width="62.8" height="62.8"/>
								</g>
							</g>
						</g>
					</g>
					<path d="M49.6,55.6H14.4V8.4h22.2l13.1,13.1L49.6,55.6L49.6,55.6z M15.4,54.6h33.3V21.9L36.2,9.4H15.4V54.6z"/>
				</g>
				<g>
					<rect x="42.3" y="6.3" transform="matrix(0.7071 -0.7071 0.7071 0.7071 1.6937 34.7857)" width="1" height="18.1"/>
				</g>
			</g>
			<g>
				<path d="M49.1,22.2H36.3l-0.5-0.5V8.9l0.9-0.4l12.8,12.8L49.1,22.2z M36.9,21.2H48L36.9,10.1V21.2z"/>
			</g>
			<g>
				<g>
					<g>
						<circle style="fill:#00FF80;" cx="31.3" cy="28.9" r="5.9"/>
					</g>
					<g>
						<path d="M31.3,23.5c3,0,5.4,2.4,5.4,5.4s-2.4,5.4-5.4,5.4s-5.4-2.4-5.4-5.4S28.3,23.5,31.3,23.5 M31.3,22.5
							c-3.6,0-6.4,2.9-6.4,6.4c0,3.6,2.9,6.4,6.4,6.4s6.4-2.9,6.4-6.4S34.8,22.5,31.3,22.5L31.3,22.5z"/>
					</g>
				</g>
				<g>
					<g>
						<g>
							<path style="fill:#0000FF;" d="M35.8,25.9L35.6,26h-0.8l-0.2,0.4l-0.2-0.1l-0.7-0.6l-0.1-0.3l-0.1-0.3L33,24.7l-0.5-0.1v0.2
								L32,25.1l-0.1,0.6l-0.4,0.1v0.4l0.6,0.1l0.1-0.6l0.5,0.1l0.2,0.1h0.4l0.2,0.5l0.6,0.7v0.3l-0.5-0.1l-0.9,0.5l-0.6,0.8
								L32,28.9h-0.2l-0.4-0.2L31,28.9l0.1,0.4l0.5,0.2l0.3,0.1l0.3,0.3l0.4-0.1l0.5,0.1l0.6,0.2H34l0.5,0.6l0.9,0.6l-0.6,1.2
								l-0.6,0.3L34,33.5l-0.9,0.6L33,34.5c2.4-0.6,4.2-2.7,4.2-5.3C36.7,27.8,36.4,26.8,35.8,25.9z"/>
						</g>
						<g>
							<path style="fill:#0000FF;" d="M31.9,31.8L31.5,31l0.4-0.8l-0.4-0.1l-0.4-0.4l-0.9-0.2l-0.3-0.6L29,28.2v-0.9l-0.6-0.9
								l-0.9,0.2h-0.6l-0.3-0.2v-0.2c-0.5,0.8-0.7,1.7-0.7,2.7c0,3,2.4,5.4,5.4,5.4c0.2,0,0.5,0,0.7,0l-0.1-0.7l0.2-1
								C32.1,32.6,31.9,31.8,31.9,31.8z"/>
						</g>
						<g>
							<path style="fill:#0000FF;" d="M27.8,25.2l1-0.1l0.4-0.2l0.5,0.1h0.8l0.3-0.4l0.4,0.1l1-0.1l0.3-0.3l0.4-0.3l0.5,0.1h0.2
								c-0.7-0.3-1.5-0.5-2.3-0.5c-1.7,0-3.2,0.8-4.2,2l0,0L27.8,25.2z"/>
						</g>
					</g>
				</g>
			</g>
			<g>
				<path style="fill:#0000FF;" d="M44.3,38.1H18.7c-0.3,0-0.5-0.2-0.5-0.5s0.2-0.5,0.5-0.5h25.6c0.3,0,0.5,0.2,0.5,0.5
					S44.6,38.1,44.3,38.1z"/>
			</g>
			<g>
				<path style="fill:#0000FF;" d="M44.3,41.4H18.7c-0.3,0-0.5-0.2-0.5-0.5s0.2-0.5,0.5-0.5h25.6c0.3,0,0.5,0.2,0.5,0.5
					S44.6,41.4,44.3,41.4z"/>
			</g>
			<g>
				<path style="fill:#0000FF;" d="M44.3,44.7H18.7c-0.3,0-0.5-0.2-0.5-0.5s0.2-0.5,0.5-0.5h25.6c0.3,0,0.5,0.2,0.5,0.5
					S44.6,44.7,44.3,44.7z"/>
			</g>
			<g>
				<path style="fill:#0000FF;" d="M44.3,48H18.7c-0.3,0-0.5-0.2-0.5-0.5s0.2-0.5,0.5-0.5h25.6c0.3,0,0.5,0.2,0.5,0.5
					S44.6,48,44.3,48z"/>
			</g>
		</g>
		<g>
			<path style="fill:#0000FF;" d="M44.3,51.3H18.7c-0.3,0-0.5-0.2-0.5-0.5s0.2-0.5,0.5-0.5h25.6c0.3,0,0.5,0.2,0.5,0.5
				S44.6,51.3,44.3,51.3z"/>
		</g>
	</g>
	<g id="moveup">
		<g>
			<g>
				<g>
					<g>
						<g>
							<g>
								<defs>
									<polygon id="SVGID_9_" points="5.8,1.6 5.8,47.8 40,47.8 40,14.4 27.3,1.6 									"/>
								</defs>
								<clipPath id="SVGID_10_">
									<use xlink:href="#SVGID_9_"  style="overflow:visible;"/>
								</clipPath>
								<g style="clip-path:url(#SVGID_10_);">
									<rect y="-21.2" width="62.8" height="62.8"/>
								</g>
							</g>
						</g>
						<g>
							<g>
								<defs>
									<polygon id="SVGID_11_" points="5.8,1.6 5.8,47.8 40,47.8 40,14.4 27.3,1.6 									"/>
								</defs>
								<clipPath id="SVGID_12_">
									<use xlink:href="#SVGID_11_"  style="overflow:visible;"/>
								</clipPath>
								<g style="clip-path:url(#SVGID_12_);">
									<rect y="41.6" width="62.8" height="62.8"/>
								</g>
							</g>
						</g>
						<path d="M27.5,1.1H5.3v47.2h35.2l0.1-34.1L27.5,1.1z M39.6,47.3H6.3V2.1h20.8l12.5,12.5V47.3z"/>
					</g>
					<g>
						<g>
							<g>
								<defs>
									<polygon id="SVGID_13_" points="5.8,1.6 5.8,47.8 40,47.8 40,14.4 27.3,1.6 									"/>
								</defs>
								<clipPath id="SVGID_14_">
									<use xlink:href="#SVGID_13_"  style="overflow:visible;"/>
								</clipPath>
								<g style="clip-path:url(#SVGID_14_);">
									<rect y="-21.2" style="fill:#FFFFFF;" width="62.8" height="62.8"/>
								</g>
							</g>
						</g>
						<g>
							<g>
								<defs>
									<polygon id="SVGID_15_" points="5.8,1.6 5.8,47.8 40,47.8 40,14.4 27.3,1.6 									"/>
								</defs>
								<clipPath id="SVGID_16_">
									<use xlink:href="#SVGID_15_"  style="overflow:visible;"/>
								</clipPath>
								<g style="clip-path:url(#SVGID_16_);">
									<rect y="41.6" style="fill:#FFFFFF;" width="62.8" height="62.8"/>
								</g>
							</g>
						</g>
						<path d="M27.5,1.1H5.3v47.2h35.2l0.1-34.1L27.5,1.1z M39.6,47.3H6.3V2.1h20.8l12.5,12.5V47.3z"/>
					</g>
					<g>
						<g>
							<g>
								<defs>
									<polygon id="SVGID_17_" points="5.8,1.6 5.8,47.8 40,47.8 40,14.4 27.3,1.6 									"/>
								</defs>
								<clipPath id="SVGID_18_">
									<use xlink:href="#SVGID_17_"  style="overflow:visible;"/>
								</clipPath>
							</g>
						</g>
						<g>
							<g>
								<defs>
									<polygon id="SVGID_19_" points="5.8,1.6 5.8,47.8 40,47.8 40,14.4 27.3,1.6 									"/>
								</defs>
								<clipPath id="SVGID_20_">
									<use xlink:href="#SVGID_19_"  style="overflow:visible;"/>
								</clipPath>
							</g>
						</g>
					</g>
				</g>
				<g>
					<rect x="33.2" y="-1" transform="matrix(0.7071 -0.7071 0.7071 0.7071 4.1896 26.2114)" width="1" height="18.1"/>
				</g>
			</g>
			<g>
				<path d="M40,14.9H27.2l-0.5-0.5V1.6l0.9-0.4L40.4,14L40,14.9z M27.8,13.9h11.1L27.8,2.8V13.9z"/>
			</g>
			<g>
				<g>
					<g>
						<circle style="fill:#00FF80;" cx="22.2" cy="21.6" r="5.9"/>
					</g>
					<g>
						<path d="M22.2,16.2c3,0,5.4,2.4,5.4,5.4S25.2,27,22.2,27s-5.4-2.4-5.4-5.4S19.2,16.2,22.2,16.2 M22.2,15.2
							c-3.6,0-6.4,2.9-6.4,6.4s2.9,6.4,6.4,6.4s6.4-2.9,6.4-6.4S25.7,15.2,22.2,15.2L22.2,15.2z"/>
					</g>
				</g>
				<g>
					<g>
						<g>
							<path style="fill:#0000FF;" d="M26.7,18.6l-0.2,0.1l-0.9,0.1l-0.2,0.4l-0.2-0.1l-0.7-0.6l-0.1-0.3l-0.1-0.3l-0.4-0.4
								l-0.5-0.1v0.2l-0.5,0.3l-0.1,0.6l-0.4,0.1V19l0.6,0.1l0.1-0.6l0.5,0.1l0.2,0.1H24l0.2,0.5l0.6,0.7v0.3L24.3,20l-0.9,0.5
								l-0.6,0.8l-0.1,0.3h-0.2L22,21.3l-0.4,0.2l0.1,0.4l0.5,0.2l0.3,0.1l0.3,0.3l0.4-0.1l0.5,0.1l0.6,0.2h0.3l0.5,0.6l0.9,0.6
								L25.4,25l-0.6,0.3L24.6,26l-0.9,0.6L23.6,27c2.4-0.6,4.2-2.7,4.2-5.3C27.6,20.5,27.3,19.5,26.7,18.6z"/>
						</g>
						<g>
							<path style="fill:#0000FF;" d="M22.8,24.5l-0.4-0.7l0.4-0.8l-0.4-0.1L22,22.5l-0.9-0.2l-0.3-0.6L19.9,21v-0.9l-0.6-0.9
								l-0.9,0.2h-0.6l-0.3-0.2V19c-0.5,0.8-0.7,1.7-0.7,2.7c0,3,2.4,5.4,5.4,5.4c0.2,0,0.5,0,0.7,0l-0.1-0.7l0.2-1
								C23,25.3,22.8,24.5,22.8,24.5z"/>
						</g>
						<g>
							<path style="fill:#0000FF;" d="M18.8,17.9l1-0.1l0.4-0.2l0.5,0.1h0.8l0.3-0.4l0.4,0.1l1-0.1l0.3-0.3l0.4-0.3l0.5,0.1h0.2
								c-0.7-0.3-1.5-0.5-2.3-0.5c-1.7,0-3.2,0.8-4.2,2l0,0L18.8,17.9z"/>
						</g>
					</g>
				</g>
			</g>
			<g>
				<path style="fill:#0000FF;" d="M35.2,30.8H9.6c-0.3,0-0.5-0.2-0.5-0.5s0.2-0.5,0.5-0.5h25.6c0.3,0,0.5,0.2,0.5,0.5
					S35.5,30.8,35.2,30.8z"/>
			</g>
			<g>
				<path style="fill:#0000FF;" d="M35.2,34.1H9.6c-0.3,0-0.5-0.2-0.5-0.5s0.2-0.5,0.5-0.5h25.6c0.3,0,0.5,0.2,0.5,0.5
					S35.5,34.1,35.2,34.1z"/>
			</g>
			<g>
				<path style="fill:#0000FF;" d="M35.2,37.4H9.6c-0.3,0-0.5-0.2-0.5-0.5s0.2-0.5,0.5-0.5h25.6c0.3,0,0.5,0.2,0.5,0.5
					S35.5,37.4,35.2,37.4z"/>
			</g>
			<g>
				<path style="fill:#0000FF;" d="M35.2,40.7H9.6c-0.3,0-0.5-0.2-0.5-0.5s0.2-0.5,0.5-0.5h25.6c0.3,0,0.5,0.2,0.5,0.5
					S35.5,40.7,35.2,40.7z"/>
			</g>
		</g>
		<g>
			<path style="fill:#0000FF;" d="M35.2,44H9.6c-0.3,0-0.5-0.2-0.5-0.5S9.3,43,9.6,43h25.6c0.3,0,0.5,0.2,0.5,0.5S35.5,44,35.2,44z"
				/>
		</g>
	</g>
</g>
</svg>
