<?xml version="1.0" encoding="utf-8"?>
<!-- Generator: Adobe Illustrator 22.0.0, SVG Export Plug-In . SVG Version: 6.00 Build 0)  -->
<svg version="1.1" id="Layer_1" xmlns="http://www.w3.org/2000/svg" xmlns:xlink="http://www.w3.org/1999/xlink" x="0px" y="0px"
	 viewBox="0 0 64 64" style="enable-background:new 0 0 64 64;" xml:space="preserve">
<g>
	<g>
		<g>
			<rect x="17.7" y="6.3" style="fill:#DEDEDE;" width="31.3" height="13.2"/>
		</g>
		<g>
			<g>
				<path d="M48.5,6.8V19H18.2V6.8H48.5 M49.5,5.8H17.2V20h32.3V5.8L49.5,5.8z"/>
			</g>
		</g>
	</g>
	<g>
		<g>
			<polygon style="fill:#FFFFFF;" points="17.5,6.1 15.7,2.5 46.8,2.5 48.7,6.1 			"/>
		</g>
		<g>
			<g>
				<path d="M46.5,3l1.3,2.7h-30L16.5,3H46.5 M47.1,2H14.9l2.3,4.7h32.3L47.1,2L47.1,2z"/>
			</g>
		</g>
	</g>
	<g>
		<g>
			<polygon style="fill:#FFFFFF;" points="10.3,28.3 12.8,23.7 19.3,23.5 15,28.7 			"/>
		</g>
		<g>
			<path d="M18.3,24.1l-3.5,4.2l-3.6-0.4l2-3.7L18.3,24.1 M20.4,23l-7.9,0.1l-3,5.5l5.6,0.6L20.4,23L20.4,23z"/>
		</g>
	</g>
	<g>
		<g>
			<rect x="17.7" y="18.7" style="fill:#5D5D5D;" width="31.3" height="37.9"/>
		</g>
		<g>
			<path d="M48.5,19.2v36.9H18.2V19.2H48.5 M49.5,18.2H17.2v38.9h32.3V18.2L49.5,18.2z"/>
		</g>
	</g>
	<g id="card">
		<g>
			<g>
				<rect x="14.8" y="10.7" style="fill:#FFFFFF;" width="27.7" height="22"/>
			</g>
			<g>
				<path d="M42,11.2v21H15.3v-21L42,11.2 M43,10.2H14.3v23H43V10.2L43,10.2z"/>
			</g>
		</g>
		<g>
			<g>
				<polygon style="fill:#FF0080;" points="21.1,24.1 18.2,19.4 21.1,14.7 24,19.4 				"/>
			</g>
			<g>
				<polygon style="fill:#FF0080;" points="36.2,24.1 33.3,19.4 36.2,14.7 39.1,19.4 				"/>
			</g>
		</g>
	</g>
	<g>
		<polygon style="fill:#DEDEDE;" points="44.8,62 49.5,57.1 49.5,18.2 44.8,23.2 		"/>
	</g>
	<g>
		<g>
			<polygon style="fill:#FFFFFF;" points="36.2,61.5 44.1,23.9 49,19.4 49,56.9 44.6,61.5 			"/>
		</g>
		<g>
			<path d="M48.5,20.5v36.2L44.4,61h-7.5l7.7-36.9L48.5,20.5 M49.5,18.2l-5.9,5.4l-8,38.4h9.2l4.7-4.9V18.2L49.5,18.2z"/>
		</g>
	</g>
	<g>
		<g>
			<path style="fill:#DEDEDE;" d="M13,61.5V23.7h9.8c0,0.1,0,0.2,0,0.3c0,3.2,2.6,5.8,5.8,5.8s5.8-2.6,5.8-5.8c0-0.1,0-0.2,0-0.3
				h9.8v37.9H13V61.5z"/>
		</g>
		<g>
			<path d="M43.8,24.2V61H13.5V24.2h8.8c0.1,3.4,2.9,6.2,6.3,6.2s6.2-2.7,6.3-6.2H43.8 M44.8,23.2H33.9c0,0.3,0.1,0.5,0.1,0.8
				c0,3-2.4,5.3-5.3,5.3c-3,0-5.3-2.4-5.3-5.3c0-0.3,0-0.6,0.1-0.8h-11V62h32.3L44.8,23.2L44.8,23.2z"/>
		</g>
	</g>
	<g>
		<g>
			<path style="fill:#0000FF;" d="M16.8,57.7V27.5H24c1.1,1.5,2.8,2.3,4.7,2.3c1.9,0,3.6-0.9,4.7-2.3h7.1v30.3L16.8,57.7L16.8,57.7z
				"/>
		</g>
		<g>
			<path d="M40,28v29.3H17.3V28h6.4c1.2,1.5,3,2.3,4.9,2.3s3.7-0.9,4.9-2.3H40 M41,27h-7.9c-1,1.4-2.6,2.3-4.4,2.3s-3.5-0.9-4.4-2.3
				h-7.9v31.3H41V27L41,27z"/>
		</g>
	</g>
	<g>
		<g>
			<polygon style="fill:#FFFFFF;" points="44.4,23.6 49.5,18.9 53.7,22.4 48.6,27.1 			"/>
		</g>
		<g>
			<path d="M49.5,19.6l3.4,2.9l-4.4,4.1l-3.4-2.9L49.5,19.6 M49.5,18.2l-5.9,5.4l5,4.1l5.9-5.4L49.5,18.2L49.5,18.2z"/>
		</g>
	</g>
</g>
</svg>
