<?xml version="1.0" encoding="utf-8"?>
<!-- Generator: Adobe Illustrator 22.0.0, SVG Export Plug-In . SVG Version: 6.00 Build 0)  -->
<svg version="1.1" id="Layer_1" xmlns="http://www.w3.org/2000/svg" xmlns:xlink="http://www.w3.org/1999/xlink" x="0px" y="0px"
	 viewBox="0 0 50 50" enable-background="new 0 0 50 50" xml:space="preserve">
<g>
	<path d="M40,23.8c-0.7,0-1.4,0.1-2,0.4c-0.4-4.5-4.4-8.1-9.2-8.1c-1.2,0-2.3,0.2-3.3,0.6C25.1,16.9,25,17,25,17.3v15.9
		c0,0.3,0.2,0.6,0.6,0.6c0,0,14.4,0,14.5,0c2.9,0,5.2-2.2,5.2-5S42.9,23.8,40,23.8z M20.6,33.9h1.3l0.6-8.9l-0.6-8.9h-1.3L19.9,25
		L20.6,33.9z M16.8,33.9h-1.3l-0.6-6.4l0.6-6.2h1.3l0.6,6.3L16.8,33.9z M10.4,33.9h1.3l0.6-5.1l-0.6-5.1h-1.3l-0.6,5.1L10.4,33.9z
		 M5.4,31.3h1.3l0.6-2.5l-0.6-2.5H5.4l-0.6,2.5L5.4,31.3z"/>
</g>
</svg>
