<?xml version="1.0" encoding="utf-8"?>
<!-- Generator: Adobe Illustrator 22.0.0, SVG Export Plug-In . SVG Version: 6.00 Build 0)  -->
<svg version="1.1" id="Layer_1" xmlns="http://www.w3.org/2000/svg" xmlns:xlink="http://www.w3.org/1999/xlink" x="0px" y="0px"
	 viewBox="0 0 100 100" enable-background="new 0 0 100 100" xml:space="preserve">
<g display="none">
	<path display="inline" fill="#00FF80" d="M53.3,13.8h0.8l0.1-0.8l0.5-2.7l0.2-1.2h-1.2l-5.2,0.2l0-0.3l4.9-0.2h0.8L54.4,8l0.4-2.4
		L55,4.5h0.2l0.1-0.8l0.4-2.5L56,0h-1.2l-9.5,0.4h-0.8l-0.1,0.8l-1.7,10.1c-0.9-0.9-1.5-1.5-2-2c0.6-0.5,1-1.1,1.2-1.8
		c0.4-1.1,0.4-2.1,0-3.2c-0.4-1-1-1.8-1.9-2.3c-0.5-0.3-1-0.4-1.7-0.4l0,0c-0.6,0-1.2,0.1-1.8,0.4L30,4.3l-0.8,0.3l0.1,0.8l1.4,9.9
		l-7.2-6.7L22.9,8l-0.7,0.5l-3,2.4l-0.5,0.4l0.1,0.6l1.7,11.3l-6.7-6.7l-0.9-0.9l-0.7,1l-2,3L10,20.3l0.6,0.6l2.4,2.4l-1,1.6
		l-2.1-2.1L9,21.9l-0.7,1l-2,3l-0.4,0.7l0.6,0.6l6.2,6.3c-0.2-0.1-0.3-0.1-0.5-0.2c-0.4-0.1-0.8-0.2-1.2-0.2c-0.5,0-0.9,0.1-1.3,0.2
		c-0.6,0.2-1.1,0.5-1.5,0.9l0.4-1.8l0.2-1l-1-0.2c-0.3-0.1-0.6-0.1-0.9-0.1c-1.6,0-3.8,0.8-4.8,4.8c-0.3,1.1-0.4,2.1-0.2,3
		c0.1,1,0.5,1.8,1.1,2.4c0.6,0.7,1.3,1.1,2.1,1.3c0.3,0.1,0.7,0.1,1,0.1c0.6,0,1.1-0.1,1.7-0.4c0.3-0.1,0.6-0.4,1-0.7l-0.4,2.2L8,45
		l0.9,0.2l0.3,0.1c0.4,0.1,0.9,0.2,1.3,0.2c0.9,0,1.7-0.2,2.4-0.7c1.1-0.7,1.9-2.1,2.4-4.1c0.4-1.4,0.5-2.6,0.2-3.6
		c-0.1-0.3-0.2-0.6-0.3-0.9l0.4,0.4l0.7-1l2-3.1l0.4-0.7l-0.6-0.6l-2.9-2.9l1-1.6l2.6,2.6l0.9,0.9l0.7-1l2-3l0.4-0.7l0,0l2.7-2.1
		L26,23l-0.1-0.6l-0.3-1.5l1.8-1.4l0.7,0.7l0.6,0.7l0.7-0.6l2.8-2.2l0.1-0.1h0.1l3.4-1.2l0.8-0.3l-0.1-0.8L36,12.3
		c0.2,0.2,0.4,0.4,0.6,0.6c0.7,0.8,1.4,1.5,2,2.2l0.4,0.5l0.6-0.2l3.3-1.2h0.4L53.3,13.8z M36.7,6.6L36.7,6.6c0,0.1,0,0.2-0.2,0.3
		c0,0-0.3,0.2-1.3,0.6l-0.1-0.4l1-0.4C36.4,6.6,36.6,6.6,36.7,6.6z M10.5,39.5c0.4-0.6,0.7-0.8,0.7-0.9c0,0,0,0,0,0.1s0.1,0.3,0,0.7
		c-0.1,0.3-0.2,0.5-0.3,0.6c0,0-0.1,0-0.3,0c-0.1,0-0.3,0-0.5-0.1C10.3,39.8,10.4,39.7,10.5,39.5z M6.3,36.6C6.2,36.8,6.1,36.9,6,37
		C6.1,36.7,6.2,36.6,6.3,36.6z"/>
	<polygon display="inline" fill="#00FF80" points="62,15.9 62.7,16.2 63.2,15.5 65.5,12.4 65.4,16.7 65.4,17.4 66,17.6 69.1,19 
		69.8,19.3 70.3,18.7 77.3,9 78,8 76.9,7.5 73.8,6.1 73.1,5.8 72.6,6.5 70.3,9.6 70.4,5.3 70.4,4.6 69.8,4.4 66.7,3 66,2.7 
		65.5,3.3 58.5,13 57.8,14 58.9,14.5 	"/>
	<path display="inline" fill="#00FF80" d="M73.9,15.3c-1.2,1.3-1.8,2.8-1.7,4.3c0.1,1.5,0.9,2.9,2.3,4.2c0.6,0.6,1.2,1,1.9,1.4
		c0.7,0.4,1.5,0.6,2.5,0.8c0.3,0,0.6,0.1,0.9,0.1c0.7,0,1.3-0.1,2-0.3c0.9-0.3,1.7-0.6,2.4-1.1c0.6-0.4,1.2-0.9,1.6-1.3
		c1.1-1.2,1.7-2.6,1.8-4.1c0.1-1.6-0.7-3.1-2.2-4.5c-0.5-0.5-1.1-1-1.8-1.3c-0.7-0.4-1.5-0.7-2.4-0.8c-0.4-0.1-0.8-0.1-1.2-0.1
		c-0.5,0-1.1,0.1-1.6,0.2c-0.9,0.2-1.7,0.5-2.5,1C75.3,14.1,74.6,14.6,73.9,15.3z M81,17.6c0.4,0,0.7,0.1,1,0.4
		c0.2,0.2,0.3,0.4,0.4,0.7c0,0.3-0.2,0.6-0.5,0.9c-0.1,0.1-0.3,0.3-1.2,0.8C80.1,20.8,79.5,21,79,21h-0.1c-0.4,0-0.7-0.1-1-0.4
		s-0.4-0.5-0.3-0.7c0-0.2,0-0.5,0.4-0.8c0.3-0.3,0.8-0.7,1.4-1.1C79.9,17.8,80.5,17.6,81,17.6L81,17.6z"/>
	<polygon display="inline" fill="#00FF80" points="79.5,28.1 79.9,29 81.5,32.2 81.8,32.8 82.4,32.8 86.3,32.7 83.5,34.2 82.6,34.6 
		83.1,35.5 84.6,38.7 84.9,39.2 85.5,39.2 98.4,39.1 99.9,39.1 99.3,37.7 97.7,34.5 97.5,33.9 96.8,34 93.6,34.1 95.9,33 96.8,32.5 
		96.3,31.6 94.8,28.5 94.6,27.9 93.9,27.9 90.8,28 93,27 93.9,26.6 93.5,25.7 92.1,22.8 91.6,21.9 90.7,22.3 80.4,27.7 	"/>
	<path display="inline" fill="#00FF80" d="M99,41.6L98.9,41l-0.6-0.2c-0.1,0-0.2,0-0.4-0.1l0,0l0,0l0,0l0,0h-0.1
		c-1.1,0-2-0.1-2.5-0.1h-0.2c-0.5,0-1.2,0.1-2.1,0.2c-0.8,0.1-1.7,0.2-2.8,0.3L90,40.6h-0.8l-3.1-0.1h-1.2l0.2,1.2l0.6,3.2l0.1,0.8
		h0.8l3.1,0.1h1.2l-0.1-0.5c1.3,0.2,2.3,0.4,3.1,0.6c1,0.2,1.9,0.3,2.6,0.3l0,0c0.6,0,1.3,0,2.1,0.1l1.2,0.1L99.6,45L99,41.6z"/>
	<path display="inline" fill="#00FF80" d="M97.1,58.5c-0.6-0.7-1.3-1.1-2.1-1.3c-0.3-0.1-0.7-0.1-1-0.1c-0.6,0-1.1,0.1-1.7,0.4
		c-0.3,0.1-0.6,0.4-1,0.7l0.4-2.2l0.3-1l-0.9-0.2l-0.3-0.1c-0.4-0.1-0.9-0.2-1.3-0.2c-0.9,0-1.7,0.2-2.4,0.7
		c-1.1,0.7-1.9,2.1-2.4,4.1c-0.4,1.4-0.5,2.6-0.2,3.6c0.1,0.3,0.2,0.6,0.3,0.9l-0.4-0.4l-0.7,1l-2,3.1l-0.4,0.7l0.6,0.6l2.9,2.9
		l-1,1.6L81,70.7l-0.9-0.9l-0.7,1l-2,3L77,74.5l0,0l-2.7,2.1L73.8,77l0.1,0.6l0.3,1.5l-1.8,1.4l-0.7-0.7l-0.6-0.7l-0.7,0.6l-2.8,2.2
		L67.5,82h-0.1L64,83.2l-0.8,0.3l0.1,0.8l0.5,3.4c-0.2-0.2-0.4-0.4-0.6-0.6c-0.7-0.8-1.4-1.5-2-2.2L61,84.4l-0.6,0.2l-3.3,1.2h-0.4
		l-10,0.4h-0.8L45.8,87l-0.5,2.7l-0.2,1.2h1.2l5.2-0.2l0,0.3l-4.9,0.2h-0.8L45.6,92l-0.4,2.4L45,95.5h-0.2l-0.1,0.8l-0.4,2.5L44,100
		h1.2l9.5-0.4h0.8l0.1-0.8l1.7-10.1c0.9,0.9,1.5,1.5,2,2c-0.6,0.5-1,1.1-1.2,1.8c-0.4,1-0.4,2.1,0,3.2c0.4,1,1,1.8,1.9,2.3
		c0.5,0.3,1,0.4,1.7,0.4c0.6,0,1.2-0.1,1.8-0.4l6.2-2.3l0.8-0.3l-0.1-0.8L69,84.7l7.2,6.7l0.6,0.6l0.7-0.5l3-2.4l0.5-0.4l-0.1-0.6
		l-1.7-11.3l6.7,6.7l0.9,0.9l0.7-1l2-3l0.4-0.7l-0.6-0.6L87,76.7l1-1.6l2.1,2.1l0.9,0.9l0.7-1l2-3l0.4-0.7l-0.6-0.6l-6.2-6.3
		c0.2,0.1,0.3,0.1,0.5,0.2c0.4,0.1,0.8,0.2,1.2,0.2c0.5,0,0.9-0.1,1.3-0.2c0.6-0.2,1.1-0.5,1.5-0.9l-0.4,1.8l-0.2,1l1,0.2
		c0.3,0.1,0.6,0.1,0.9,0.1c1.6,0,3.8-0.8,4.8-4.8c0.3-1.1,0.4-2.1,0.2-3C98,60,97.7,59.2,97.1,58.5z M94,63
		c-0.1,0.3-0.2,0.4-0.3,0.4C93.8,63.2,93.9,63.1,94,63z M89.5,60.5c-0.4,0.6-0.7,0.8-0.7,0.9c0,0,0,0,0-0.1s-0.1-0.3,0-0.7
		c0.1-0.3,0.2-0.5,0.3-0.6c0,0,0.1,0,0.3,0c0.1,0,0.3,0,0.5,0.1C89.7,60.2,89.6,60.3,89.5,60.5z M64.8,92.9l-1,0.4
		c-0.3,0.1-0.4,0.1-0.5,0.2v-0.1c0,0,0-0.1,0.2-0.2c0,0,0.3-0.2,1.3-0.6V92.9z"/>
	<polygon display="inline" fill="#00FF80" points="38,84.1 37.3,83.8 36.8,84.5 34.5,87.6 34.6,83.3 34.6,82.6 34,82.4 30.9,81 
		30.2,80.7 29.7,81.3 22.7,91 22,92 23.1,92.5 26.2,93.9 26.9,94.2 27.4,93.5 29.7,90.4 29.6,94.7 29.6,95.4 30.2,95.6 33.3,97 
		34,97.3 34.5,96.7 41.5,87 42.2,86 41.1,85.5 	"/>
	<path display="inline" fill="#00FF80" d="M26.1,84.7c1.2-1.3,1.8-2.8,1.7-4.3c-0.1-1.5-0.9-2.9-2.3-4.2c-0.6-0.6-1.2-1-1.9-1.4
		C22.9,74.4,22,74.2,21,74c-0.3,0-0.6-0.1-0.9-0.1c-0.7,0-1.3,0.1-2,0.3c-0.9,0.3-1.7,0.6-2.4,1.1c-0.6,0.4-1.2,0.9-1.6,1.3
		c-1.1,1.2-1.7,2.6-1.8,4.1c-0.1,1.6,0.7,3.1,2.2,4.5c0.5,0.5,1.1,1,1.8,1.3c0.7,0.4,1.5,0.7,2.4,0.8c0.4,0.1,0.8,0.1,1.2,0.1
		c0.5,0,1.1-0.1,1.6-0.2c0.9-0.2,1.7-0.5,2.5-1C24.7,85.9,25.4,85.3,26.1,84.7z M22.5,80.1c0,0.2,0,0.5-0.4,0.8
		c-0.3,0.3-0.8,0.7-1.4,1.1c-0.6,0.3-1.1,0.5-1.6,0.5H19c-0.4,0-0.7-0.1-1-0.4c-0.2-0.2-0.3-0.4-0.4-0.7c0-0.3,0.2-0.6,0.5-0.9
		c0.1-0.1,0.3-0.3,1.2-0.8c0.6-0.3,1.1-0.5,1.7-0.6h0.1c0.4,0,0.7,0.1,1,0.4C22.4,79.7,22.5,79.9,22.5,80.1z"/>
	<polygon display="inline" fill="#00FF80" points="20.5,71.9 20.1,71 18.5,67.8 18.2,67.2 17.6,67.2 13.7,67.3 16.5,65.8 17.4,65.4 
		16.9,64.5 15.4,61.3 15.1,60.8 14.5,60.8 1.6,60.9 0.1,60.9 0.7,62.3 2.3,65.5 2.5,66.1 3.2,66 6.4,65.9 4.1,67 3.2,67.5 3.7,68.4 
		5.2,71.5 5.4,72.1 6.1,72.1 9.2,72 7,73 6.1,73.4 6.5,74.3 7.9,77.2 8.4,78.1 9.3,77.7 19.6,72.3 	"/>
	<path display="inline" fill="#00FF80" d="M1,58.4L1.1,59l0.6,0.2c0.1,0,0.3,0.1,0.4,0.1l0,0l0,0l0,0l0,0h0.1c1.2,0,2,0.1,2.5,0.1
		h0.2c0.5,0,1.2-0.1,2.1-0.2C7.9,59,8.8,59,9.9,58.9l0.1,0.5h0.8l3.1,0.1h1.2l-0.2-1.2l-0.6-3.2l-0.1-0.8h-0.8l-3.1-0.1H9.1l0.1,0.5
		c-1.3-0.2-2.3-0.4-3.1-0.6c-1-0.2-1.9-0.3-2.6-0.3l0,0c-0.6,0-1.3,0-2.1-0.1l-1.2-0.1L0.4,55L1,58.4z"/>
</g>
<g>
	<path fill="#FFFFFF" stroke="#0000FF" stroke-miterlimit="10" d="M3.6,40.8c0.4,0.5,1,0.8,1.6,1C6,42,6.6,42,7.4,41.5
		c0.6-0.3,1.5-1.2,2.5-2.7c0.4-0.7,0.8-1.1,1-1.2c0.2-0.1,0.5-0.2,0.7-0.1c0.3,0.1,0.5,0.3,0.7,0.7c0.1,0.4,0.1,0.8,0,1.4
		c-0.2,0.6-0.4,1-0.8,1.2c-0.4,0.3-0.9,0.3-1.6,0.1l-0.6,3.3l0.3,0.1c1,0.3,2,0.2,2.9-0.4c0.9-0.5,1.5-1.7,2-3.5
		c0.3-1.3,0.4-2.3,0.2-3.1s-0.5-1.5-1-2s-1-0.8-1.7-1c-0.7-0.1-1.3-0.1-1.9,0.1c-0.6,0.2-1,0.6-1.5,1c-0.5,0.4-0.9,1-1.5,1.8
		c-0.5,0.6-0.8,1-1,1.1c-0.2,0.1-0.4,0.1-0.6,0.1c-0.2-0.1-0.4-0.2-0.5-0.5c-0.1-0.2-0.1-0.6,0-1c0.3-1.1,0.9-1.5,1.9-1.3l0.7-3.3
		c-2.3-0.4-3.8,1-4.6,4c-0.2,1-0.3,1.8-0.2,2.6C2.9,39.7,3.2,40.3,3.6,40.8z"/>
	<polygon fill="#FFFFFF" stroke="#0000FF" stroke-miterlimit="10" points="17.5,31.9 14.1,28.5 16.2,25.2 19.6,28.6 21.6,25.6 
		13.2,17.1 11.2,20.2 14.2,23.2 12.1,26.5 9.1,23.5 7.1,26.5 15.5,35 	"/>
	<path fill="#FFFFFF" stroke="#0000FF" stroke-miterlimit="10" d="M25,22.6l-0.5-2.1l3-2.4l1.3,1.4l2.8-2.2l-8.7-7.9l-3,2.4l2,13.2
		L25,22.6z M25.8,16.3L24,17.8l-1.1-4.6L25.8,16.3z"/>
	<path fill="#FFFFFF" stroke="#0000FF" stroke-miterlimit="10" d="M38.7,9.5c1.1-0.7,1.8-1.4,2.1-2.2s0.3-1.6,0-2.5
		C40.5,4,40,3.4,39.3,3s-1.6-0.4-2.7,0l-6.2,2.3L32,17.1l3.4-1.2l-0.7-4.8l0.2-0.1c0.3-0.1,0.5-0.1,0.8,0c0.2,0.1,0.8,0.5,1.5,1.3
		s1.4,1.5,2,2.2l3.6-1.3C41,11,39.6,9.8,38.7,9.5z M37.6,6.9c0,0.3-0.2,0.6-0.5,0.8c-0.2,0.2-0.9,0.5-2,0.9l-0.6,0.2l-0.4-2.5
		l1.7-0.6c0.6-0.2,1.1-0.3,1.3-0.2c0.2,0.1,0.4,0.3,0.5,0.6C37.7,6.4,37.7,6.6,37.6,6.9z"/>
	<polygon fill="#FFFFFF" stroke="#0000FF" stroke-miterlimit="10" points="53.8,10 47.4,10.3 47.8,8 53.5,7.8 53.9,5.4 48.2,5.6 
		48.5,3.7 54.4,3.5 54.8,1 45.3,1.3 43.3,13.1 53.3,12.7 	"/>
	<polygon fill="#FFFFFF" stroke="#0000FF" stroke-miterlimit="10" points="66.5,9.3 66.4,16.7 69.5,18.1 76.5,8.4 73.4,7 69.3,12.7 
		69.4,5.3 66.3,3.9 59.3,13.6 62.4,15 	"/>
	<path fill="#FFFFFF" stroke="#0000FF" stroke-miterlimit="10" d="M74.7,16c-1,1.1-1.5,2.2-1.4,3.5c0.1,1.3,0.8,2.5,2,3.6
		c0.6,0.5,1.1,0.9,1.7,1.2c0.6,0.3,1.3,0.5,2.2,0.6c0.8,0.1,1.7,0,2.5-0.2s1.5-0.5,2.1-0.9c0.6-0.4,1-0.8,1.4-1.2
		c1-1,1.5-2.1,1.5-3.4c0-1.2-0.6-2.5-1.9-3.7c-0.5-0.4-1.1-0.8-1.6-1.2c-0.6-0.3-1.3-0.6-2.1-0.7c-0.8-0.1-1.6-0.1-2.4,0.1
		c-0.8,0.1-1.5,0.4-2.2,0.8C75.9,14.9,75.2,15.4,74.7,16z M78.7,17.3c0.7-0.5,1.4-0.7,2.1-0.7c0.6-0.1,1.2,0.1,1.7,0.6
		c0.5,0.4,0.7,0.9,0.7,1.4c0.1,0.5-0.2,1.1-0.7,1.6c-0.2,0.2-0.7,0.6-1.4,1c-0.7,0.4-1.4,0.7-2.1,0.7c-0.7,0.1-1.3-0.1-1.8-0.6
		c-0.4-0.4-0.7-0.9-0.8-1.4c0-0.5,0.2-1,0.6-1.4C77.4,18.1,78,17.7,78.7,17.3z"/>
	<polygon fill="#FFFFFF" stroke="#0000FF" stroke-miterlimit="10" points="82.4,31.7 90.3,31.6 84,35 85.5,38.2 98.4,38.1 
		96.8,34.9 89,35.3 95.4,31.9 93.9,28.7 86.1,28.9 92.6,26 91.2,23.1 80.8,28.4 	"/>
	<polygon fill="#FFFFFF" stroke="#0000FF" stroke-miterlimit="10" points="86.7,44.6 89.8,44.7 89.2,41.5 86.1,41.4 	"/>
	<path fill="#FFFFFF" stroke="#0000FF" stroke-miterlimit="10" d="M97.7,41.7c-0.1,0-0.2,0-0.2,0c-1.3-0.1-2.2-0.1-2.6-0.1
		c-0.5,0-1.1,0.1-2,0.2c-0.8,0.1-1.8,0.2-3,0.3l0.4,2c1.6,0.3,2.8,0.5,3.8,0.7s1.8,0.3,2.4,0.3s1.3,0.1,2.1,0.1l-0.7-3.5
		C97.9,41.7,97.8,41.7,97.7,41.7z"/>
	<path fill="#FFFFFF" stroke="#0000FF" stroke-miterlimit="10" d="M96.2,59.3c-0.4-0.5-1-0.8-1.6-1c-0.7-0.2-1.4-0.1-2,0.2
		c-0.6,0.3-1.5,1.2-2.5,2.7c-0.4,0.7-0.8,1.1-1,1.2c-0.2,0.1-0.5,0.2-0.7,0.1c-0.3-0.1-0.5-0.3-0.7-0.7c-0.1-0.4-0.1-0.8,0-1.4
		c0.2-0.6,0.4-1,0.8-1.2c0.4-0.3,0.9-0.3,1.6-0.1l0.6-3.3l-0.3-0.1c-1-0.3-2-0.2-2.9,0.4c-0.9,0.5-1.5,1.7-2,3.5
		c-0.3,1.3-0.4,2.3-0.2,3.1c0.2,0.8,0.5,1.5,1,2s1,0.8,1.7,1c0.7,0.1,1.3,0.1,1.9-0.1c0.6-0.2,1-0.6,1.5-1c0.5-0.4,0.9-1,1.5-1.8
		c0.5-0.6,0.8-1,1-1.1c0.2-0.1,0.4-0.1,0.6-0.1c0.2,0.1,0.4,0.2,0.5,0.5c0.1,0.2,0.1,0.6,0,1c-0.3,1.1-0.9,1.5-1.9,1.3l-0.7,3.3
		c2.3,0.4,3.8-1,4.4-3.9c0.2-1,0.3-1.8,0.2-2.6C96.9,60.4,96.6,59.8,96.2,59.3z"/>
	<polygon fill="#FFFFFF" stroke="#0000FF" stroke-miterlimit="10" points="82.5,68.1 85.9,71.5 83.8,74.8 80.4,71.4 78.4,74.4 
		86.8,82.9 88.8,79.8 85.8,76.8 87.9,73.5 90.9,76.5 92.9,73.5 84.5,65 	"/>
	<path fill="#FFFFFF" stroke="#0000FF" stroke-miterlimit="10" d="M75,77.5l0.5,2l-3,2.4l-1.3-1.4l-2.8,2.2l8.7,8l3-2.4l-2-13.2
		L75,77.5z M74.2,83.7l1.8-1.5l1.1,4.6L74.2,83.7z"/>
	<path fill="#FFFFFF" stroke="#0000FF" stroke-miterlimit="10" d="M64.6,84.1l0.7,4.8L65.1,89c-0.3,0.1-0.5,0.1-0.8,0
		c-0.2-0.1-0.8-0.5-1.5-1.3s-1.4-1.5-2-2.2l-3.6,1.3c1.8,2.2,3.2,3.4,4.1,3.7c-1.1,0.6-1.8,1.4-2.1,2.2c-0.3,0.8-0.3,1.6,0,2.5
		c0.3,0.8,0.8,1.4,1.5,1.8s1.6,0.4,2.7,0l6.2-2.3L68,82.9L64.6,84.1z M64.2,94.3c-0.6,0.2-1.1,0.3-1.3,0.2c-0.2-0.1-0.4-0.3-0.5-0.6
		c-0.1-0.2-0.1-0.5,0-0.8c0-0.3,0.2-0.6,0.5-0.8c0.2-0.2,0.9-0.5,2-0.9l0.6-0.2l0.4,2.5L64.2,94.3z"/>
	<polygon fill="#FFFFFF" stroke="#0000FF" stroke-miterlimit="10" points="46.2,90 52.6,89.7 52.2,92 46.5,92.2 46.1,94.6 
		51.8,94.4 51.5,96.3 45.6,96.5 45.2,99 54.7,98.7 56.7,86.9 46.7,87.3 	"/>
	<polygon fill="#FFFFFF" stroke="#0000FF" stroke-miterlimit="10" points="33.5,90.7 33.6,83.3 30.5,81.9 23.5,91.6 26.6,93 
		30.7,87.4 30.6,94.8 33.7,96.2 40.7,86.5 37.6,85.1 	"/>
	<path fill="#FFFFFF" stroke="#0000FF" stroke-miterlimit="10" d="M25.3,84c1-1.1,1.5-2.2,1.4-3.5c-0.1-1.3-0.8-2.5-2-3.6
		c-0.6-0.5-1.1-0.9-1.7-1.2s-1.3-0.5-2.2-0.6c-0.8-0.1-1.7,0-2.5,0.2s-1.5,0.5-2.1,0.9c-0.6,0.4-1,0.8-1.4,1.2c-1,1-1.5,2.2-1.5,3.4
		s0.6,2.5,1.9,3.7c0.5,0.4,1.1,0.8,1.6,1.2c0.6,0.3,1.3,0.6,2.1,0.7c0.8,0.1,1.6,0.1,2.4-0.1c0.8-0.1,1.5-0.4,2.2-0.8
		C24.1,85.1,24.8,84.6,25.3,84z M21.3,82.6c-0.7,0.5-1.4,0.7-2.1,0.7c-0.6,0.1-1.2-0.1-1.7-0.6c-0.5-0.4-0.7-0.9-0.7-1.4
		c-0.1-0.5,0.2-1.1,0.7-1.6c0.2-0.2,0.7-0.6,1.4-1c0.7-0.4,1.4-0.7,2.1-0.7s1.3,0.2,1.8,0.7c0.4,0.4,0.7,0.9,0.8,1.3
		c0,0.5-0.2,1-0.6,1.4C22.6,81.8,22,82.2,21.3,82.6z"/>
	<polygon fill="#FFFFFF" stroke="#0000FF" stroke-miterlimit="10" points="17.6,68.3 9.7,68.4 16,65 14.5,61.8 1.6,61.9 3.2,65 
		11,64.7 4.6,68 6.1,71.2 13.9,71 7.4,73.9 8.8,76.8 19.2,71.6 	"/>
	<path fill="#FFFFFF" stroke="#0000FF" stroke-miterlimit="10" d="M2.3,58.3c0.1,0,0.2,0,0.2,0c1.3,0.1,2.2,0.1,2.6,0.1
		c0.5,0,1.1-0.1,2-0.2c0.8-0.1,1.8-0.2,3-0.3l-0.4-2c-1.6-0.3-2.8-0.5-3.8-0.7s-1.8-0.3-2.4-0.3s-1.3-0.1-2.1-0.1l0.7,3.5
		C2.1,58.3,2.2,58.3,2.3,58.3z"/>
	<polygon fill="#FFFFFF" stroke="#0000FF" stroke-miterlimit="10" points="10.8,58.5 13.9,58.6 13.3,55.4 10.2,55.3 	"/>
</g>
</svg>
