<?xml version="1.0" encoding="utf-8"?>
<!-- Generator: Adobe Illustrator 22.0.0, SVG Export Plug-In . SVG Version: 6.00 Build 0)  -->
<svg version="1.1" id="Layer_1" xmlns="http://www.w3.org/2000/svg" xmlns:xlink="http://www.w3.org/1999/xlink" x="0px" y="0px"
	 viewBox="0 0 50 50" style="enable-background:new 0 0 50 50;" xml:space="preserve">
<style type="text/css">
	.st0{fill:#040305;}
	.st1{fill:#010101;}
</style>
<g>
	<g>
		<path class="st0" d="M41,15.1c-1.2,0.5-2.4,0.9-3.8,1c1.4-0.8,2.4-2.1,2.9-3.6c-1.3,0.8-2.7,1.3-4.2,1.6C34.7,12.8,33,12,31.1,12
			c-3.6,0-6.6,2.9-6.6,6.6c0,0.5,0.1,1,0.2,1.5c-5.4-0.3-10.3-2.9-13.5-6.8c-0.6,1-0.9,2.1-0.9,3.3c0,2.3,1.2,4.3,2.9,5.5
			c-1.1,0-2.1-0.3-3-0.8v0.1c0,3.2,2.3,5.8,5.3,6.4c-0.5,0.1-1.1,0.2-1.7,0.2c-0.4,0-0.8,0-1.2-0.1c0.8,2.6,3.3,4.5,6.1,4.6
			c-2.2,1.8-5.1,2.8-8.1,2.8c-0.5,0-1.1,0-1.6-0.1c2.9,1.9,6.3,2.9,10,2.9c12.1,0,18.6-10,18.6-18.6l0-0.8
			C39,17.6,40.1,16.4,41,15.1z"/>
	</g>
</g>
</svg>
