<?xml version="1.0" encoding="utf-8"?>
<!-- Generator: Adobe Illustrator 22.0.0, SVG Export Plug-In . SVG Version: 6.00 Build 0)  -->
<svg version="1.1" id="Layer_1" xmlns="http://www.w3.org/2000/svg" xmlns:xlink="http://www.w3.org/1999/xlink" x="0px" y="0px"
	 viewBox="0 0 504 322.5" enable-background="new 0 0 504 322.5" xml:space="preserve">
<g>
</g>	
<g>
	<g>
		<path fill="#0000FF" stroke="#FFFFFF" stroke-width="2" d="M173.1,207l-8.1,37.5h-11.6l3.3-15.3h-12.6l-3.2,15.3h-11.8l8.1-37.5
			h11.6l-2.8,13.3h12.5l2.9-13.3H173.1z"/>
		<path fill="#0000FF" stroke="#FFFFFF" stroke-width="2" d="M211.5,207l-1.7,8.1h-19l-1.3,6h18.4l-1.7,7.6h-18.3l-1.6,7.3H207
			l-1.8,8.6H173l8-37.5h30.5V207z"/>
		<path fill="#0000FF" stroke="#FFFFFF" stroke-width="2" d="M242.9,235.4l-1.9,9.2h-30.3l8-37.5h11.7l-6.1,28.4L242.9,235.4
			L242.9,235.4z"/>
		<path fill="#0000FF" stroke="#FFFFFF" stroke-width="2" d="M277.8,235.4l-1.9,9.2h-30.3l8-37.5h11.7l-6.1,28.4L277.8,235.4
			L277.8,235.4z"/>
		<path fill="#0000FF" stroke="#FFFFFF" stroke-width="2" d="M305.8,206.4c5.7,0,9.9,1.5,12.6,4.6s4,6.8,4,11.3
			c0,1.7-0.2,3.7-0.7,5.9s-1.5,4.5-2.9,6.9s-3.3,4.4-5.5,6c-2.3,1.6-4.4,2.7-6.5,3.3s-4.3,0.8-6.6,0.8c-5.4,0-9.5-1.4-12.5-4.1
			s-4.5-6.5-4.5-11.4c0-2.6,0.4-5.1,1.1-7.5s1.9-4.7,3.3-6.9c1.5-2.2,3.3-4,5.5-5.4s4.3-2.4,6.4-2.9S303.5,206.4,305.8,206.4z
			 M300.8,236.6c2.2,0,4.1-0.8,5.7-2.5s2.7-3.8,3.4-6.4s1.1-4.4,1.1-5.5c0-2.4-0.6-4.2-1.8-5.5c-1.2-1.2-2.8-1.8-4.7-1.8
			c-2.1,0-3.9,0.8-5.5,2.3c-1.5,1.5-2.7,3.6-3.4,6.2c-0.8,2.6-1.2,4.8-1.2,6.6c0,1.9,0.6,3.5,1.7,4.8
			C297.3,236,298.8,236.6,300.8,236.6z"/>
		<path fill="#0000FF" stroke="#FFFFFF" stroke-width="2" d="M337.1,234l-1.9,8.9c-0.6,2.6-1.2,4.5-1.9,5.8
			c-0.7,1.3-1.4,2.3-2.3,3.1s-1.8,1.4-2.8,1.9c-1,0.4-2,0.7-3,0.9s-2.2,0.2-3.5,0.2h-0.3l1.2-5h0.4c3.3,0,5.4-1.8,6.1-5.4h-5.4
			l2.3-10.5h11.1V234z"/>
		<path fill="#0000FF" stroke="#FFFFFF" stroke-width="2" d="M186.2,269.9l-17.7,37.5h-11.4l-0.9-23h-0.1l-10.7,23h-11.6l-1-37.5
			h10.4l-0.5,22.9l0.1,0.1l10.4-23h11.3l0.5,23.2h0.1l9.7-23.2H186.2z"/>
		<path fill="#0000FF" stroke="#FFFFFF" stroke-width="2" d="M206.7,269.3c5.7,0,9.9,1.5,12.6,4.6c2.7,3.1,4,6.8,4,11.3
			c0,1.7-0.2,3.7-0.7,5.9s-1.5,4.5-2.9,6.9s-3.3,4.4-5.5,6c-2.3,1.6-4.4,2.7-6.5,3.3c-2.1,0.6-4.3,0.8-6.6,0.8
			c-5.4,0-9.5-1.4-12.5-4.1s-4.5-6.5-4.5-11.4c0-2.6,0.4-5.1,1.1-7.5s1.9-4.7,3.3-6.9c1.5-2.2,3.3-4,5.5-5.4s4.3-2.4,6.4-2.9
			S204.5,269.3,206.7,269.3z M201.8,299.5c2.2,0,4.1-0.8,5.7-2.5c1.6-1.7,2.7-3.8,3.4-6.4s1.1-4.4,1.1-5.5c0-2.4-0.6-4.2-1.8-5.5
			c-1.2-1.2-2.8-1.8-4.7-1.8c-2.1,0-3.9,0.8-5.5,2.3c-1.5,1.5-2.7,3.6-3.4,6.2c-0.8,2.6-1.2,4.8-1.2,6.6c0,1.9,0.6,3.5,1.7,4.8
			C198.2,298.9,199.8,299.5,201.8,299.5z"/>
		<path fill="#0000FF" stroke="#FFFFFF" stroke-width="2" d="M233.2,269.9h21.4c3.7,0,6.4,1,8.1,2.9c1.7,1.9,2.6,4.2,2.6,7
			c0,2.9-0.9,5.5-2.7,7.7c-1.8,2.2-4.7,3.6-8.7,4.2c2.4,1.9,5.2,7.2,8.4,15.8H250c-1-2.7-2.2-5.7-3.6-8.9c-1.4-3.2-2.4-5.1-3.1-5.6
			c-0.7-0.5-1.5-0.8-2.5-0.8h-0.6l-3.2,15.3h-11.6L233.2,269.9z M241.6,285.2h2.2c3.7,0,6.1-0.2,7.2-0.5c1.1-0.3,1.9-0.9,2.4-1.7
			c0.5-0.8,0.8-1.6,0.8-2.3c0-1-0.3-1.7-0.9-2.3c-0.6-0.5-2-0.8-4.1-0.8h-5.9L241.6,285.2z"/>
		<path fill="#0000FF" stroke="#FFFFFF" stroke-width="2" d="M298.2,298.3l-1.9,9.2H266l8-37.5h11.7l-6.1,28.4h18.6V298.3z"/>
		<path fill="#0000FF" stroke="#FFFFFF" stroke-width="2" d="M308.9,269.9h15.4c5.5,0,9.5,1.5,12,4.4s3.8,6.7,3.8,11.4
			c0,4.5-1.1,8.6-3.2,12.4s-4.7,6.3-7.6,7.5s-5.7,1.8-8.4,1.8H301L308.9,269.9z M314.4,299.2h4.8c3.2,0,5.5-1.6,7.1-4.9
			s2.3-6.5,2.3-9.8c0-1.9-0.4-3.5-1.3-4.6s-2.5-1.7-4.8-1.7h-3.7L314.4,299.2z"/>
		<path fill="#0000FF" stroke="#FFFFFF" stroke-width="2" d="M354.5,297l-2.3,10.5H341l2.3-10.5H354.5z M358.1,280.3l-2.3,10.5
			h-11.2l2.3-10.5H358.1z"/>
		<path fill="#0000FF" stroke="#FFFFFF" stroke-width="2" d="M371.5,269.3c2,5.2,3.3,9.2,3.9,12.1s0.8,5.6,0.8,8.1
			c0,9.2-4.7,18.9-14.1,28.9H355c8.3-9.7,12.5-21.5,12.5-35.4c0-5.1-0.7-9.6-2.2-13.7H371.5z"/>
	</g>
	<g>
		<polygon fill="#0000FF" stroke="#FFFFFF" stroke-width="2" points="166,189.7 157.2,230.7 144.5,230.7 148,214 134.3,214 
			130.8,230.7 118,230.7 126.8,189.7 139.5,189.7 136.4,204.2 150.1,204.2 153.3,189.7 		"/>
		<polygon fill="#0000FF" stroke="#FFFFFF" stroke-width="2" points="207.8,189.7 205.9,198.5 185.1,198.5 183.8,205 203.8,205 
			201.9,213.3 181.9,213.3 180.2,221.3 202.7,221.3 200.7,230.7 165.6,230.7 174.3,189.7 		"/>
		<polygon fill="#0000FF" stroke="#FFFFFF" stroke-width="2" points="242,220.7 239.9,230.7 206.9,230.7 215.6,189.7 228.4,189.7 
			221.7,220.7 		"/>
		<polygon fill="#0000FF" stroke="#FFFFFF" stroke-width="2" points="280.2,220.7 278.1,230.7 245.1,230.7 253.8,189.7 266.5,189.7 
			259.9,220.7 		"/>
		<path fill="#0000FF" stroke="#FFFFFF" stroke-width="2" d="M302.3,222c2.4,0,4.5-0.9,6.2-2.8c1.7-1.8,2.9-4.2,3.7-7
			c0.8-2.8,1.2-4.8,1.2-6c0-2.6-0.7-4.6-2-5.9c-1.3-1.3-3-2-5.1-2c-2.3,0-4.3,0.8-6,2.5s-2.9,3.9-3.8,6.7c-0.8,2.8-1.3,5.2-1.3,7.2
			c0,2.1,0.6,3.8,1.8,5.2C298.5,221.3,300.2,222,302.3,222z M307.7,189c6.2,0,10.8,1.7,13.7,5c2.9,3.3,4.4,7.5,4.4,12.3
			c0,1.9-0.3,4-0.8,6.4s-1.6,4.9-3.1,7.5s-3.6,4.8-6,6.6c-2.5,1.8-4.8,3-7.1,3.6c-2.3,0.6-4.7,0.9-7.2,0.9c-5.8,0-10.4-1.5-13.7-4.4
			c-3.3-3-4.9-7.1-4.9-12.5c0-2.8,0.4-5.5,1.2-8.2c0.8-2.7,2-5.2,3.6-7.5c1.6-2.4,3.6-4.3,5.9-5.9c2.4-1.6,4.7-2.6,7-3.1
			C303,189.3,305.3,189,307.7,189z"/>
		<path fill="#0000FF" stroke="#FFFFFF" stroke-width="2" d="M340.9,219.2l-2.1,9.7c-0.6,2.8-1.3,4.9-2,6.3
			c-0.7,1.4-1.6,2.5-2.5,3.4s-2,1.6-3.1,2c-1.1,0.5-2.2,0.8-3.3,1c-1.1,0.2-2.4,0.3-3.8,0.3h-0.4l1.3-5.4h0.5c3.6,0,5.8-1.9,6.7-5.8
			h-5.9l2.5-11.5H340.9z"/>
		<polygon fill="#0000FF" stroke="#FFFFFF" stroke-width="2" points="180.2,258.4 160.9,299.3 148.5,299.3 147.6,274.2 147.4,274.2 
			135.8,299.3 123.1,299.3 122,258.4 133.4,258.4 132.8,283.4 133,283.5 144.3,258.4 156.6,258.4 157.2,283.6 157.3,283.6 
			167.8,258.4 		"/>
		<path fill="#0000FF" stroke="#FFFFFF" stroke-width="2" d="M196.6,290.7c2.4,0,4.5-0.9,6.2-2.8c1.7-1.8,2.9-4.2,3.7-7
			s1.2-4.8,1.2-6c0-2.6-0.7-4.6-2-5.9s-3-2-5.1-2c-2.3,0-4.3,0.8-6,2.5s-2.9,3.9-3.8,6.7c-0.8,2.8-1.3,5.2-1.3,7.2
			c0,2.1,0.6,3.8,1.8,5.2C192.7,290,194.5,290.7,196.6,290.7z M202,257.7c6.2,0,10.8,1.7,13.7,5s4.4,7.5,4.4,12.3
			c0,1.9-0.3,4-0.8,6.4s-1.6,4.9-3.1,7.5s-3.6,4.8-6,6.6c-2.5,1.8-4.8,3-7.1,3.6s-4.7,0.9-7.2,0.9c-5.8,0-10.4-1.5-13.7-4.4
			c-3.3-3-4.9-7.1-4.9-12.5c0-2.8,0.4-5.5,1.2-8.2s2-5.2,3.6-7.5c1.6-2.4,3.6-4.3,5.9-5.9c2.4-1.6,4.7-2.6,7-3.1
			C197.3,257.9,199.6,257.7,202,257.7z"/>
		<path fill="#0000FF" stroke="#FFFFFF" stroke-width="2" d="M240.1,275h2.4c4,0,6.6-0.2,7.8-0.6s2.1-1,2.6-1.9
			c0.6-0.9,0.9-1.7,0.9-2.6c0-1-0.3-1.9-1-2.5s-2.2-0.9-4.5-0.9h-6.4L240.1,275z M231,258.4h23.3c4,0,7,1.1,8.8,3.2
			c1.9,2.1,2.8,4.6,2.8,7.6c0,3.2-1,6-3,8.4s-5.1,3.9-9.5,4.6c2.6,2.1,5.6,7.8,9.2,17.2h-13.4c-1.1-3-2.4-6.2-4-9.7
			c-1.5-3.5-2.7-5.5-3.4-6.1c-0.8-0.6-1.7-0.8-2.8-0.8h-0.7l-3.5,16.6h-12.7L231,258.4z"/>
		<polygon fill="#0000FF" stroke="#FFFFFF" stroke-width="2" points="301.9,289.3 299.8,299.3 266.8,299.3 275.4,258.4 288.2,258.4 
			281.6,289.3 		"/>
		<path fill="#0000FF" stroke="#FFFFFF" stroke-width="2" d="M319.5,290.3h5.2c3.5,0,6-1.8,7.7-5.4s2.5-7.1,2.5-10.7
			c0-2.1-0.5-3.8-1.5-5s-2.7-1.8-5.3-1.8h-4L319.5,290.3z M313.5,258.4h16.8c6,0,10.3,1.6,13.1,4.7c2.7,3.2,4.1,7.3,4.1,12.4
			c0,4.9-1.2,9.4-3.5,13.6s-5.1,6.9-8.3,8.2c-3.2,1.3-6.3,2-9.2,2h-21.6L313.5,258.4z"/>
		<path fill="#0000FF" stroke="#FFFFFF" stroke-width="2" d="M367.1,269.7l-2.5,11.5h-12.2l2.5-11.5H367.1z M363.3,287.9l-2.5,11.5
			h-12.2l2.5-11.5H363.3z"/>
		<path fill="#0000FF" stroke="#FFFFFF" stroke-width="2" d="M381.8,257.7c2.2,5.6,3.6,10.1,4.2,13.3c0.6,3.2,0.9,6.1,0.9,8.8
			c0,10.1-5.1,20.6-15.4,31.6h-7.8c9.1-10.5,13.6-23.4,13.6-38.7c0-5.5-0.8-10.5-2.3-15L381.8,257.7L381.8,257.7z"/>
	</g>
	<g>
		<polygon fill="#0000FF" stroke="#FFFFFF" stroke-width="2" points="158.8,172.4 149.3,216.8 135.5,216.8 139.3,198.8 124.5,198.8 
			120.7,216.8 106.8,216.8 116.3,172.4 130.1,172.4 126.8,188.1 141.6,188.1 145.1,172.4 		"/>
		<polygon fill="#0000FF" stroke="#FFFFFF" stroke-width="2" points="204.1,172.4 202.1,182 179.6,182 178.1,189 199.8,189 
			197.8,198 176.1,198 174.2,206.7 198.6,206.7 196.5,216.8 158.4,216.8 167.8,172.4 		"/>
		<polygon fill="#0000FF" stroke="#FFFFFF" stroke-width="2" points="241.2,206 238.9,216.8 203.2,216.8 212.6,172.4 226.4,172.4 
			219.2,206 		"/>
		<polygon fill="#0000FF" stroke="#FFFFFF" stroke-width="2" points="282.5,206 280.3,216.8 244.5,216.8 253.9,172.4 267.7,172.4 
			260.5,206 		"/>
		<path fill="#0000FF" stroke="#FFFFFF" stroke-width="2" d="M306.5,207.4c2.6,0,4.9-1,6.7-3c1.8-2,3.2-4.5,4-7.5s1.3-5.2,1.3-6.5
			c0-2.8-0.7-5-2.2-6.4c-1.4-1.5-3.3-2.2-5.5-2.2c-2.5,0-4.7,0.9-6.5,2.7s-3.2,4.3-4.1,7.3s-1.4,5.6-1.4,7.8c0,2.3,0.7,4.1,2,5.6
			C302.3,206.7,304.2,207.4,306.5,207.4z M312.4,171.7c6.8,0,11.7,1.8,14.9,5.4c3.2,3.6,4.8,8.1,4.8,13.4c0,2-0.3,4.4-0.9,7
			s-1.7,5.3-3.4,8.1c-1.7,2.8-3.8,5.2-6.5,7.1c-2.7,1.9-5.2,3.2-7.7,3.9s-5.1,1-7.8,1c-6.3,0-11.3-1.6-14.8-4.8
			c-3.6-3.2-5.3-7.7-5.3-13.5c0-3,0.4-6,1.3-8.8c0.9-2.9,2.2-5.6,3.9-8.1c1.7-2.6,3.9-4.7,6.4-6.4c2.6-1.7,5.1-2.8,7.5-3.4
			C307.2,171.9,309.8,171.7,312.4,171.7z"/>
		<path fill="#0000FF" stroke="#FFFFFF" stroke-width="2" d="M348.3,204.4l-2.3,10.5c-0.7,3-1.4,5.3-2.2,6.8
			c-0.8,1.5-1.7,2.7-2.7,3.7s-2.1,1.7-3.3,2.2c-1.2,0.5-2.4,0.9-3.6,1c-1.2,0.2-2.6,0.3-4.1,0.3h-0.4l1.4-5.9h0.5
			c3.9,0,6.3-2.1,7.2-6.3h-6.4l2.7-12.4L348.3,204.4L348.3,204.4z"/>
		<polygon fill="#0000FF" stroke="#FFFFFF" stroke-width="2" points="174.2,246.8 153.3,291.2 139.9,291.2 138.9,264 138.7,264 
			126.1,291.2 112.4,291.2 111.2,246.8 123.5,246.8 122.9,273.9 123.1,274 135.3,246.8 148.6,246.8 149.3,274.2 149.4,274.2 
			160.8,246.8 		"/>
		<path fill="#0000FF" stroke="#FFFFFF" stroke-width="2" d="M192,281.8c2.6,0,4.9-1,6.7-3s3.2-4.5,4-7.5s1.3-5.2,1.3-6.5
			c0-2.8-0.7-5-2.2-6.4c-1.4-1.5-3.3-2.2-5.5-2.2c-2.5,0-4.7,0.9-6.5,2.7c-1.8,1.8-3.2,4.3-4.1,7.3c-0.9,3-1.4,5.6-1.4,7.8
			c0,2.3,0.7,4.1,2,5.6C187.8,281.1,189.7,281.8,192,281.8z M197.9,246c6.8,0,11.7,1.8,14.9,5.4c3.2,3.6,4.8,8.1,4.8,13.4
			c0,2-0.3,4.4-0.9,7c-0.6,2.6-1.7,5.3-3.4,8.1c-1.7,2.8-3.8,5.2-6.5,7.1s-5.2,3.2-7.7,3.9c-2.5,0.7-5.1,1-7.8,1
			c-6.3,0-11.3-1.6-14.8-4.8c-3.6-3.2-5.3-7.7-5.3-13.5c0-3,0.4-6,1.3-8.8c0.9-2.9,2.2-5.6,3.9-8.1c1.7-2.6,3.9-4.7,6.4-6.4
			c2.6-1.7,5.1-2.8,7.5-3.4C192.7,246.3,195.3,246,197.9,246z"/>
		<path fill="#0000FF" stroke="#FFFFFF" stroke-width="2" d="M239.1,264.8h2.6c4.4,0,7.2-0.2,8.5-0.6s2.2-1.1,2.9-2
			c0.6-1,0.9-1.9,0.9-2.8c0-1.1-0.4-2-1.1-2.7c-0.7-0.6-2.4-1-4.9-1h-7L239.1,264.8z M229.2,246.8h25.2c4.4,0,7.5,1.1,9.6,3.4
			c2,2.3,3,5,3,8.2c0,3.5-1.1,6.5-3.2,9.1s-5.6,4.3-10.3,5c2.8,2.3,6.1,8.5,10,18.6H249c-1.2-3.2-2.6-6.7-4.3-10.5
			c-1.6-3.8-2.9-6-3.7-6.6s-1.8-0.9-3-0.9h-0.7l-3.8,18h-13.8L229.2,246.8z"/>
		<polygon fill="#0000FF" stroke="#FFFFFF" stroke-width="2" points="306,280.3 303.8,291.2 268,291.2 277.4,246.8 291.2,246.8 
			284,280.3 		"/>
		<path fill="#0000FF" stroke="#FFFFFF" stroke-width="2" d="M325.2,281.4h5.7c3.8,0,6.5-1.9,8.4-5.8c1.8-3.9,2.8-7.7,2.8-11.6
			c0-2.3-0.5-4.1-1.6-5.4s-3-2-5.7-2h-4.4L325.2,281.4z M318.6,246.8h18.2c6.5,0,11.2,1.7,14.2,5.1c3,3.4,4.4,7.9,4.4,13.4
			c0,5.3-1.3,10.2-3.8,14.7s-5.5,7.5-9,8.9s-6.8,2.2-9.9,2.2h-23.4L318.6,246.8z"/>
		<path fill="#0000FF" stroke="#FFFFFF" stroke-width="2" d="M376.7,259.1l-2.7,12.4h-13.2l2.7-12.4H376.7z M372.6,278.8l-2.7,12.4
			h-13.2l2.7-12.4H372.6z"/>
		<path fill="#0000FF" stroke="#FFFFFF" stroke-width="2" d="M392.6,246c2.4,6.1,3.9,10.9,4.6,14.4s1,6.7,1,9.6
			c0,10.9-5.6,22.3-16.7,34.2H373c9.8-11.4,14.7-25.4,14.7-41.9c0-6-0.8-11.4-2.5-16.2h7.4V246z"/>
	</g>
	<g>
		<polygon fill="#0000FF" stroke="#FFFFFF" stroke-width="2" points="151.6,155.2 141.4,202.9 126.5,202.9 130.7,183.5 114.7,183.5 
			110.6,202.9 95.6,202.9 105.9,155.2 120.7,155.2 117.1,172 133.1,172 136.8,155.2 		"/>
		<polygon fill="#0000FF" stroke="#FFFFFF" stroke-width="2" points="200.4,155.2 198.2,165.4 174,165.4 172.4,173 195.7,173 
			193.6,182.7 170.3,182.7 168.2,192 194.5,192 192.2,202.9 151.2,202.9 161.4,155.2 		"/>
		<polygon fill="#0000FF" stroke="#FFFFFF" stroke-width="2" points="240.4,191.3 237.9,202.9 199.4,202.9 209.6,155.2 224.5,155.2 
			216.7,191.3 		"/>
		<polygon fill="#0000FF" stroke="#FFFFFF" stroke-width="2" points="284.9,191.3 282.4,202.9 243.9,202.9 254.1,155.2 269,155.2 
			261.2,191.3 		"/>
		<path fill="#0000FF" stroke="#FFFFFF" stroke-width="2" d="M310.7,192.9c2.8,0,5.3-1.1,7.3-3.2c2-2.2,3.4-4.9,4.3-8.1
			c0.9-3.3,1.4-5.6,1.4-7c0-3.1-0.8-5.4-2.3-6.9c-1.6-1.6-3.5-2.3-5.9-2.3c-2.7,0-5,1-7,2.9c-1.9,2-3.4,4.6-4.4,7.9
			c-1,3.3-1.5,6.1-1.5,8.4c0,2.4,0.7,4.5,2.2,6.1C306.2,192.1,308.2,192.9,310.7,192.9z M317,154.3c7.3,0,12.6,1.9,16,5.8
			c3.4,3.9,5.1,8.7,5.1,14.4c0,2.2-0.3,4.7-0.9,7.5s-1.8,5.7-3.6,8.7c-1.8,3-4.1,5.6-7,7.7c-2.9,2.1-5.6,3.5-8.3,4.2
			c-2.7,0.7-5.5,1.1-8.4,1.1c-6.8,0-12.1-1.7-16-5.2c-3.8-3.5-5.7-8.3-5.7-14.5c0-3.3,0.5-6.4,1.4-9.5s2.4-6,4.2-8.8
			c1.9-2.7,4.2-5.1,6.9-6.9c2.7-1.9,5.5-3.1,8.1-3.6C311.5,154.6,314.2,154.3,317,154.3z"/>
		<path fill="#0000FF" stroke="#FFFFFF" stroke-width="2" d="M355.7,189.6l-2.5,11.3c-0.7,3.3-1.5,5.7-2.4,7.4c-0.9,1.6-1.8,3-2.9,4
			s-2.3,1.8-3.6,2.4c-1.3,0.6-2.6,0.9-3.9,1.1c-1.3,0.2-2.8,0.3-4.4,0.3h-0.4l1.5-6.3h0.6c4.2,0,6.8-2.3,7.8-6.8h-6.9l2.9-13.4
			H355.7z"/>
		<polygon fill="#0000FF" stroke="#FFFFFF" stroke-width="2" points="168.2,235.2 145.8,283 131.3,283 130.2,253.7 130,253.7 
			116.4,283 101.6,283 100.4,235.2 113.7,235.2 113,264.4 113.1,264.5 126.3,235.2 140.7,235.2 141.4,264.7 141.5,264.7 
			153.8,235.2 		"/>
		<path fill="#0000FF" stroke="#FFFFFF" stroke-width="2" d="M187.4,272.9c2.8,0,5.3-1.1,7.3-3.2c2-2.2,3.4-4.9,4.3-8.1
			c0.9-3.3,1.4-5.6,1.4-7c0-3.1-0.8-5.4-2.3-6.9c-1.6-1.6-3.5-2.3-5.9-2.3c-2.7,0-5,1-7,2.9c-1.9,2-3.4,4.6-4.4,7.9
			c-1,3.3-1.5,6.1-1.5,8.4c0,2.4,0.7,4.5,2.2,6.1C182.9,272.1,184.9,272.9,187.4,272.9z M193.7,234.4c7.3,0,12.6,1.9,16,5.8
			c3.4,3.9,5.1,8.7,5.1,14.4c0,2.2-0.3,4.7-0.9,7.5c-0.6,2.8-1.8,5.7-3.6,8.7s-4.1,5.6-7,7.7s-5.6,3.5-8.3,4.2s-5.5,1.1-8.4,1.1
			c-6.8,0-12.1-1.7-16-5.2c-3.8-3.5-5.7-8.3-5.7-14.5c0-3.3,0.5-6.4,1.4-9.5s2.4-6,4.2-8.8c1.9-2.7,4.2-5.1,6.9-6.9
			c2.7-1.9,5.5-3.1,8.1-3.6C188.2,234.7,190.9,234.4,193.7,234.4z"/>
		<path fill="#0000FF" stroke="#FFFFFF" stroke-width="2" d="M238.1,254.7h2.8c4.7,0,7.7-0.2,9.1-0.7c1.4-0.4,2.4-1.2,3.1-2.2
			c0.7-1,1-2,1-3c0-1.2-0.4-2.2-1.2-2.9s-2.6-1-5.2-1h-7.5L238.1,254.7z M227.4,235.2h27.2c4.7,0,8.1,1.2,10.3,3.7s3.3,5.4,3.3,8.9
			c0,3.7-1.2,7-3.5,9.8s-6,4.6-11,5.4c3,2.4,6.6,9.1,10.8,20.1h-15.6c-1.3-3.5-2.8-7.2-4.6-11.3c-1.8-4.1-3.1-6.5-4-7.1
			c-0.9-0.7-2-1-3.2-1h-0.8l-4.1,19.4h-14.8L227.4,235.2z"/>
		<polygon fill="#0000FF" stroke="#FFFFFF" stroke-width="2" points="310.2,271.3 307.7,283 269.2,283 279.4,235.2 294.2,235.2 
			286.5,271.3 		"/>
		<path fill="#0000FF" stroke="#FFFFFF" stroke-width="2" d="M330.8,272.4h6.1c4,0,7-2.1,9-6.3c2-4.2,3-8.3,3-12.5
			c0-2.5-0.6-4.4-1.7-5.8c-1.1-1.4-3.2-2.1-6.1-2.1h-4.7L330.8,272.4z M323.7,235.2h19.6c7,0,12.1,1.8,15.2,5.5
			c3.2,3.7,4.8,8.5,4.8,14.5c0,5.7-1.4,11-4.1,15.8s-6,8-9.7,9.6s-7.3,2.3-10.7,2.3h-25.2L323.7,235.2z"/>
		<path fill="#0000FF" stroke="#FFFFFF" stroke-width="2" d="M386.3,248.4l-2.9,13.4h-14.2l2.9-13.4H386.3z M381.9,269.6L379,283
			h-14.2l2.9-13.4H381.9z"/>
		<path fill="#0000FF" stroke="#FFFFFF" stroke-width="2" d="M403.4,234.4c2.6,6.6,4.2,11.7,4.9,15.5c0.7,3.7,1.1,7.2,1.1,10.3
			c0,11.8-6,24-18,36.8h-9.1c10.6-12.3,15.9-27.3,15.9-45.1c0-6.4-0.9-12.3-2.7-17.5L403.4,234.4L403.4,234.4z"/>
	</g>
	<g>
		<polygon fill="#0000FF" stroke="#FFFFFF" stroke-width="2" points="144.5,137.9 133.5,189.1 117.6,189.1 122,168.2 104.9,168.2 
			100.5,189.1 84.5,189.1 95.5,137.9 111.4,137.9 107.5,156 124.6,156 128.6,137.9 		"/>
		<polygon fill="#0000FF" stroke="#FFFFFF" stroke-width="2" points="196.7,137.9 194.4,148.9 168.4,148.9 166.7,157 191.7,157 
			189.4,167.4 164.4,167.4 162.3,177.4 190.4,177.4 187.9,189.1 144,189.1 154.9,137.9 		"/>
		<polygon fill="#0000FF" stroke="#FFFFFF" stroke-width="2" points="239.6,176.6 236.9,189.1 195.7,189.1 206.5,137.9 222.5,137.9 
			214.2,176.6 		"/>
		<polygon fill="#0000FF" stroke="#FFFFFF" stroke-width="2" points="287.2,176.6 284.6,189.1 243.4,189.1 254.2,137.9 270.2,137.9 
			261.9,176.6 		"/>
		<path fill="#0000FF" stroke="#FFFFFF" stroke-width="2" d="M314.9,178.3c3,0,5.6-1.2,7.8-3.5c2.1-2.3,3.7-5.2,4.7-8.7
			s1.5-6,1.5-7.5c0-3.3-0.8-5.8-2.5-7.4c-1.7-1.7-3.8-2.5-6.4-2.5c-2.9,0-5.4,1.1-7.5,3.2c-2.1,2.1-3.6,4.9-4.7,8.4
			c-1,3.5-1.6,6.5-1.6,9c0,2.6,0.8,4.8,2.3,6.5C310.1,177.4,312.2,178.3,314.9,178.3z M321.7,137c7.8,0,13.5,2.1,17.2,6.3
			s5.5,9.3,5.5,15.4c0,2.4-0.3,5-1,8s-2,6.1-3.9,9.4c-1.9,3.2-4.4,6-7.5,8.2s-6,3.7-8.9,4.5c-2.8,0.8-5.9,1.1-9,1.1
			c-7.3,0-13-1.9-17.1-5.6c-4.1-3.7-6.1-8.9-6.1-15.6c0-3.5,0.5-6.9,1.5-10.2s2.5-6.4,4.5-9.4c2-2.9,4.5-5.4,7.4-7.4
			s5.8-3.3,8.7-3.9C315.7,137.3,318.7,137,321.7,137z"/>
		<path fill="#0000FF" stroke="#FFFFFF" stroke-width="2" d="M363.1,174.7l-2.7,12.1c-0.8,3.5-1.6,6.1-2.5,7.9
			c-0.9,1.7-2,3.2-3.2,4.3s-2.5,2-3.8,2.5c-1.4,0.6-2.7,1-4.1,1.2s-3,0.3-4.7,0.3h-0.5l1.6-6.8h0.6c4.5,0,7.3-2.4,8.3-7.3h-7.4
			l3.1-14.3h15.3V174.7z"/>
		<polygon fill="#0000FF" stroke="#FFFFFF" stroke-width="2" points="162.3,223.7 138.2,274.9 122.7,274.9 121.4,243.5 121.3,243.5 
			106.7,274.9 90.9,274.9 89.5,223.7 103.8,223.7 103.1,254.9 103.2,255.1 117.4,223.7 132.7,223.7 133.5,255.3 133.6,255.3 
			146.8,223.7 		"/>
		<path fill="#0000FF" stroke="#FFFFFF" stroke-width="2" d="M182.8,264.1c3,0,5.6-1.2,7.8-3.5c2.1-2.3,3.7-5.2,4.7-8.7
			s1.5-6,1.5-7.5c0-3.3-0.8-5.8-2.5-7.4c-1.7-1.7-3.8-2.5-6.4-2.5c-2.9,0-5.4,1.1-7.5,3.2c-2.1,2.1-3.6,4.9-4.7,8.4
			c-1,3.5-1.6,6.5-1.6,9c0,2.6,0.8,4.8,2.3,6.5C177.9,263.2,180.1,264.1,182.8,264.1z M189.5,222.8c7.8,0,13.5,2.1,17.2,6.3
			s5.5,9.3,5.5,15.4c0,2.4-0.3,5-1,8s-2,6.1-3.9,9.4c-1.9,3.2-4.4,6-7.5,8.2s-6,3.7-8.9,4.5c-2.8,0.8-5.9,1.1-9,1.1
			c-7.3,0-13-1.9-17.1-5.6s-6.1-8.9-6.1-15.6c0-3.5,0.5-6.9,1.5-10.2s2.5-6.4,4.5-9.4c2-2.9,4.5-5.4,7.4-7.4s5.8-3.3,8.7-3.9
			C183.6,223.1,186.5,222.8,189.5,222.8z"/>
		<path fill="#0000FF" stroke="#FFFFFF" stroke-width="2" d="M237.1,244.5h3c5,0,8.3-0.2,9.8-0.7s2.6-1.3,3.3-2.4
			c0.7-1.1,1.1-2.2,1.1-3.2c0-1.3-0.4-2.3-1.3-3.1c-0.9-0.7-2.7-1.1-5.6-1.1h-8L237.1,244.5z M225.7,223.7h29.1c5,0,8.7,1.3,11,3.9
			c2.3,2.6,3.5,5.8,3.5,9.5c0,4-1.2,7.5-3.7,10.5s-6.4,4.9-11.8,5.7c3.2,2.6,7.1,9.8,11.5,21.5h-16.7c-1.4-3.7-3-7.7-4.9-12.1
			s-3.3-6.9-4.3-7.6c-1-0.7-2.1-1-3.5-1h-0.8l-4.4,20.8h-15.9L225.7,223.7z"/>
		<polygon fill="#0000FF" stroke="#FFFFFF" stroke-width="2" points="314.3,262.4 311.7,274.9 270.5,274.9 281.3,223.7 297.3,223.7 
			289,262.4 		"/>
		<path fill="#0000FF" stroke="#FFFFFF" stroke-width="2" d="M336.4,263.5h6.5c4.3,0,7.6-2.2,9.7-6.7s3.2-8.9,3.2-13.4
			c0-2.6-0.6-4.7-1.8-6.2c-1.2-1.5-3.4-2.3-6.6-2.3h-5L336.4,263.5z M328.9,223.7h21c7.5,0,12.9,2,16.3,5.9c3.4,4,5.1,9.1,5.1,15.5
			c0,6.1-1.5,11.8-4.4,17c-2.9,5.2-6.4,8.6-10.4,10.3c-4,1.7-7.8,2.5-11.5,2.5h-27L328.9,223.7z"/>
		<path fill="#0000FF" stroke="#FFFFFF" stroke-width="2" d="M395.9,237.8l-3.1,14.3h-15.2l3.1-14.3H395.9z M391.1,260.5l-3.1,14.3
			h-15.3l3.1-14.3H391.1z"/>
		<path fill="#0000FF" stroke="#FFFFFF" stroke-width="2" d="M414.2,222.8c2.7,7.1,4.5,12.6,5.3,16.6s1.2,7.7,1.2,11
			c0,12.6-6.4,25.7-19.3,39.5h-9.7c11.3-13.2,17-29.3,17-48.3c0-6.9-1-13.1-2.9-18.7h8.4V222.8z"/>
	</g>
	<g>
		<polygon fill="#0000FF" stroke="#FFFFFF" stroke-width="2" points="137.3,120.6 125.6,175.2 108.6,175.2 113.3,153 95.1,153 
			90.4,175.2 73.3,175.2 85,120.6 102,120.6 97.9,139.9 116.1,139.9 120.4,120.6 		"/>
		<polygon fill="#0000FF" stroke="#FFFFFF" stroke-width="2" points="193,120.6 190.5,132.3 162.8,132.3 161,141 187.7,141 
			185.2,152.1 158.6,152.1 156.3,162.7 186.3,162.7 183.6,175.2 136.8,175.2 148.4,120.6 		"/>
		<polygon fill="#0000FF" stroke="#FFFFFF" stroke-width="2" points="238.7,161.9 235.9,175.2 191.9,175.2 203.5,120.6 220.5,120.6 
			211.7,161.9 		"/>
		<polygon fill="#0000FF" stroke="#FFFFFF" stroke-width="2" points="289.6,161.9 286.8,175.2 242.8,175.2 254.4,120.6 271.4,120.6 
			262.5,161.9 		"/>
		<path fill="#0000FF" stroke="#FFFFFF" stroke-width="2" d="M319.1,163.7c3.3,0,6-1.2,8.3-3.7s3.9-5.6,5-9.3c1-3.7,1.6-6.4,1.6-8
			c0-3.5-0.9-6.1-2.7-7.9c-1.8-1.8-4-2.7-6.8-2.7c-3.1,0-5.7,1.1-8,3.4c-2.2,2.2-3.9,5.2-5,9c-1.1,3.7-1.7,6.9-1.7,9.6
			c0,2.8,0.8,5.1,2.5,6.9C313.9,162.8,316.2,163.7,319.1,163.7z M326.3,119.7c8.3,0,14.4,2.2,18.3,6.7s5.8,9.9,5.8,16.4
			c0,2.5-0.4,5.4-1.1,8.6c-0.7,3.2-2.1,6.5-4.2,10c-2.1,3.4-4.7,6.4-8,8.8c-3.3,2.4-6.4,4-9.5,4.8c-3,0.8-6.2,1.2-9.6,1.2
			c-7.8,0-13.9-2-18.2-5.9c-4.4-3.9-6.6-9.5-6.6-16.6c0-3.7,0.5-7.4,1.6-10.9s2.7-6.9,4.8-10c2.1-3.1,4.8-5.8,7.9-7.9
			s6.2-3.5,9.3-4.2C320,120,323.1,119.7,326.3,119.7z"/>
		<path fill="#0000FF" stroke="#FFFFFF" stroke-width="2" d="M370.5,159.9l-2.8,13c-0.8,3.7-1.7,6.6-2.7,8.4c-1,1.9-2.1,3.4-3.4,4.6
			c-1.3,1.2-2.6,2.1-4.1,2.7c-1.5,0.6-2.9,1.1-4.4,1.3s-3.2,0.3-5,0.3h-0.5l1.7-7.2h0.6c4.8,0,7.8-2.6,8.9-7.8H351l3.3-15.3H370.5z"
			/>
		<polygon fill="#0000FF" stroke="#FFFFFF" stroke-width="2" points="156.3,212.1 130.6,266.7 114,266.7 112.7,233.2 112.6,233.2 
			97,266.7 80.2,266.7 78.7,212.1 93.9,212.1 93.1,245.4 93.3,245.6 108.4,212.1 124.8,212.1 125.6,245.8 125.7,245.8 139.7,212.1 
					"/>
		<path fill="#0000FF" stroke="#FFFFFF" stroke-width="2" d="M178.2,255.2c3.3,0,6-1.2,8.3-3.7s3.9-5.6,5-9.3c1-3.7,1.6-6.4,1.6-8
			c0-3.5-0.9-6.1-2.7-7.9c-1.8-1.8-4-2.7-6.8-2.7c-3.1,0-5.7,1.1-8,3.4c-2.2,2.2-3.9,5.2-5,9c-1.1,3.7-1.7,6.9-1.7,9.6
			c0,2.8,0.8,5.1,2.5,6.9C173,254.3,175.3,255.2,178.2,255.2z M185.4,211.2c8.3,0,14.4,2.2,18.3,6.7c3.9,4.5,5.8,9.9,5.8,16.4
			c0,2.5-0.4,5.4-1.1,8.6c-0.7,3.2-2.1,6.5-4.2,10c-2.1,3.4-4.7,6.4-8,8.8s-6.4,4-9.5,4.8c-3,0.8-6.2,1.2-9.6,1.2
			c-7.8,0-13.9-2-18.2-5.9c-4.4-3.9-6.6-9.5-6.6-16.6c0-3.7,0.5-7.4,1.6-10.9s2.7-6.9,4.8-10s4.8-5.8,7.9-7.9
			c3.1-2.1,6.2-3.5,9.3-4.2S182.2,211.2,185.4,211.2z"/>
		<path fill="#0000FF" stroke="#FFFFFF" stroke-width="2" d="M236.2,234.3h3.2c5.4,0,8.8-0.2,10.4-0.7c1.6-0.5,2.7-1.3,3.5-2.5
			s1.2-2.3,1.2-3.4c0-1.4-0.5-2.5-1.4-3.3s-2.9-1.2-6-1.2h-8.6L236.2,234.3z M223.9,212.1H255c5.4,0,9.3,1.4,11.8,4.2
			s3.7,6.2,3.7,10.1c0,4.3-1.3,8-3.9,11.2s-6.8,5.2-12.6,6.1c3.4,2.8,7.5,10.4,12.3,22.9h-17.8c-1.5-3.9-3.2-8.3-5.3-12.9
			c-2-4.7-3.5-7.4-4.6-8.1c-1-0.7-2.2-1.1-3.7-1.1H234l-4.7,22.2h-16.9L223.9,212.1z"/>
		<polygon fill="#0000FF" stroke="#FFFFFF" stroke-width="2" points="318.5,253.4 315.7,266.7 271.7,266.7 283.3,212.1 300.3,212.1 
			291.4,253.4 		"/>
		<path fill="#0000FF" stroke="#FFFFFF" stroke-width="2" d="M342.1,254.6h7c4.6,0,8.1-2.4,10.3-7.1c2.3-4.8,3.4-9.5,3.4-14.3
			c0-2.8-0.7-5-2-6.6s-3.6-2.4-7-2.4h-5.4L342.1,254.6z M334,212.1h22.4c8,0,13.8,2.1,17.4,6.3s5.5,9.7,5.5,16.5
			c0,6.5-1.6,12.6-4.7,18.1c-3.1,5.5-6.8,9.2-11.1,11c-4.3,1.8-8.3,2.7-12.2,2.7h-28.7L334,212.1z"/>
		<path fill="#0000FF" stroke="#FFFFFF" stroke-width="2" d="M405.5,227.2l-3.3,15.3H386l3.3-15.3H405.5z M400.4,251.4l-3.3,15.3
			h-16.3l3.3-15.3L400.4,251.4L400.4,251.4z"/>
		<path fill="#0000FF" stroke="#FFFFFF" stroke-width="2" d="M425,211.2c2.9,7.5,4.8,13.4,5.6,17.7c0.8,4.3,1.2,8.2,1.2,11.8
			c0,13.4-6.9,27.5-20.6,42.1h-10.4c12.1-14.1,18.1-31.2,18.1-51.5c0-7.3-1-14-3.1-20L425,211.2L425,211.2z"/>
	</g>
	<g>
		<polygon fill="#0000FF" stroke="#FFFFFF" stroke-width="2" points="130.1,103.3 117.7,161.3 99.7,161.3 104.7,137.7 85.2,137.7 
			80.3,161.3 62.1,161.3 74.6,103.3 92.6,103.3 88.2,123.8 107.6,123.8 112.2,103.3 		"/>
		<polygon fill="#0000FF" stroke="#FFFFFF" stroke-width="2" points="189.3,103.3 186.7,115.8 157.3,115.8 155.3,125 183.7,125 
			181.1,136.7 152.7,136.7 150.3,148.1 182.2,148.1 179.4,161.3 129.6,161.3 141.9,103.3 		"/>
		<polygon fill="#0000FF" stroke="#FFFFFF" stroke-width="2" points="237.9,147.2 234.9,161.3 188.2,161.3 200.5,103.3 218.5,103.3 
			209.1,147.2 		"/>
		<polygon fill="#0000FF" stroke="#FFFFFF" stroke-width="2" points="291.9,147.2 289,161.3 242.2,161.3 254.5,103.3 272.6,103.3 
			263.2,147.2 		"/>
		<path fill="#0000FF" stroke="#FFFFFF" stroke-width="2" d="M323.3,149.1c3.5,0,6.4-1.3,8.8-3.9c2.4-2.6,4.2-5.9,5.3-9.9
			c1.1-4,1.7-6.8,1.7-8.5c0-3.7-0.9-6.5-2.8-8.4s-4.3-2.8-7.2-2.8c-3.3,0-6.1,1.2-8.4,3.6c-2.4,2.4-4.1,5.6-5.3,9.5
			c-1.2,4-1.8,7.4-1.8,10.1c0,3,0.9,5.4,2.6,7.4C317.8,148.1,320.2,149.1,323.3,149.1z M331,102.3c8.8,0,15.3,2.4,19.5,7.1
			c4.1,4.7,6.2,10.6,6.2,17.5c0,2.7-0.4,5.7-1.1,9.1c-0.8,3.4-2.2,7-4.4,10.6c-2.2,3.7-5,6.8-8.5,9.3s-6.9,4.2-10.1,5.1
			c-3.2,0.9-6.6,1.3-10.2,1.3c-8.3,0-14.7-2.1-19.4-6.3c-4.6-4.2-7-10.1-7-17.6c0-4,0.6-7.8,1.7-11.6c1.1-3.8,2.9-7.3,5.1-10.6
			c2.3-3.3,5.1-6.1,8.4-8.4s6.6-3.7,9.9-4.4C324.2,102.7,327.6,102.3,331,102.3z"/>
		<path fill="#0000FF" stroke="#FFFFFF" stroke-width="2" d="M378,145.1l-3,13.8c-0.9,4-1.8,7-2.9,8.9c-1,2-2.2,3.6-3.6,4.8
			c-1.3,1.3-2.8,2.2-4.3,2.9s-3.1,1.1-4.7,1.4c-1.6,0.2-3.4,0.4-5.3,0.4h-0.5l1.8-7.7h0.7c5.1,0,8.3-2.8,9.5-8.3h-8.3l3.5-16.2
			L378,145.1L378,145.1z"/>
		<polygon fill="#0000FF" stroke="#FFFFFF" stroke-width="2" points="150.3,200.5 123,258.6 105.4,258.6 104,223 103.9,223 
			87.3,258.6 69.4,258.6 67.9,200.5 84,200.5 83.2,236 83.4,236.1 99.4,200.5 116.8,200.5 117.7,236.4 117.8,236.4 132.7,200.5 		
			"/>
		<path fill="#0000FF" stroke="#FFFFFF" stroke-width="2" d="M173.6,246.3c3.5,0,6.4-1.3,8.8-3.9c2.4-2.6,4.2-5.9,5.3-9.9
			s1.7-6.8,1.7-8.5c0-3.7-0.9-6.5-2.8-8.4c-1.9-1.9-4.3-2.8-7.2-2.8c-3.3,0-6.1,1.2-8.4,3.6c-2.4,2.4-4.1,5.6-5.3,9.5
			c-1.2,4-1.8,7.4-1.8,10.1c0,3,0.9,5.4,2.6,7.4C168.1,245.4,170.5,246.3,173.6,246.3z M181.2,199.6c8.8,0,15.3,2.4,19.5,7.1
			c4.1,4.7,6.2,10.6,6.2,17.5c0,2.7-0.4,5.7-1.1,9.1c-0.8,3.4-2.2,7-4.4,10.6c-2.2,3.7-5,6.8-8.5,9.3s-6.9,4.2-10.1,5.1
			c-3.2,0.9-6.6,1.3-10.2,1.3c-8.3,0-14.7-2.1-19.4-6.3c-4.6-4.2-7-10.1-7-17.6c0-4,0.6-7.8,1.7-11.6c1.1-3.8,2.9-7.3,5.1-10.6
			c2.3-3.3,5.1-6.1,8.4-8.4c3.3-2.3,6.6-3.7,9.9-4.4C174.5,199.9,177.8,199.6,181.2,199.6z"/>
		<path fill="#0000FF" stroke="#FFFFFF" stroke-width="2" d="M235.2,224.1h3.4c5.7,0,9.4-0.3,11.1-0.8c1.7-0.5,2.9-1.4,3.7-2.7
			s1.2-2.5,1.2-3.6c0-1.5-0.5-2.6-1.5-3.5c-1-0.8-3.1-1.3-6.4-1.3h-9.1L235.2,224.1z M222.2,200.5h33c5.7,0,9.9,1.5,12.5,4.5
			s4,6.6,4,10.8c0,4.5-1.4,8.5-4.2,11.9c-2.8,3.4-7.3,5.6-13.4,6.5c3.6,3,8,11.1,13.1,24.4h-19c-1.6-4.2-3.4-8.8-5.6-13.7
			c-2.2-5-3.8-7.9-4.8-8.6c-1.1-0.8-2.4-1.2-3.9-1.2h-1l-4.9,23.6h-18L222.2,200.5z"/>
		<polygon fill="#0000FF" stroke="#FFFFFF" stroke-width="2" points="322.6,244.4 319.7,258.6 272.9,258.6 285.2,200.5 303.3,200.5 
			293.9,244.4 		"/>
		<path fill="#0000FF" stroke="#FFFFFF" stroke-width="2" d="M347.7,245.7h7.4c4.9,0,8.6-2.5,11-7.6s3.6-10.1,3.6-15.2
			c0-3-0.7-5.3-2.1-7.1c-1.4-1.7-3.9-2.6-7.5-2.6h-5.7L347.7,245.7z M339.1,200.5h23.8c8.5,0,14.6,2.2,18.5,6.7s5.8,10.3,5.8,17.6
			c0,6.9-1.7,13.3-5,19.2s-7.3,9.8-11.8,11.7c-4.5,1.9-8.9,2.8-13,2.8H327L339.1,200.5z"/>
		<path fill="#0000FF" stroke="#FFFFFF" stroke-width="2" d="M415.1,216.6l-3.5,16.2h-17.3l3.5-16.2H415.1z M409.7,242.3l-3.5,16.2
			h-17.3l3.5-16.2H409.7z"/>
		<path fill="#0000FF" stroke="#FFFFFF" stroke-width="2" d="M435.8,199.6c3.1,8,5.1,14.3,6,18.8s1.3,8.7,1.3,12.5
			c0,14.3-7.3,29.2-21.8,44.7h-11c12.8-14.9,19.3-33.2,19.3-54.8c0-7.8-1.1-14.9-3.3-21.2H435.8z"/>
	</g>
	<g>
		<polygon fill="#0000FF" stroke="#FFFFFF" stroke-width="2" points="122.9,86 109.8,147.4 90.7,147.4 96,122.5 75.4,122.5 
			70.2,147.4 51,147.4 64.2,86 83.2,86 78.6,107.7 99.1,107.7 103.9,86 		"/>
		<polygon fill="#0000FF" stroke="#FFFFFF" stroke-width="2" points="185.7,86 182.9,99.2 151.7,99.2 149.6,109 179.7,109 
			176.9,121.4 146.9,121.4 144.3,133.5 178.1,133.5 175.1,147.4 122.4,147.4 135.5,86 		"/>
		<polygon fill="#0000FF" stroke="#FFFFFF" stroke-width="2" points="237.1,132.4 233.9,147.4 184.4,147.4 197.4,86 216.6,86 
			206.6,132.4 		"/>
		<polygon fill="#0000FF" stroke="#FFFFFF" stroke-width="2" points="294.3,132.4 291.1,147.4 241.6,147.4 254.7,86 273.8,86 
			263.8,132.4 		"/>
		<path fill="#0000FF" stroke="#FFFFFF" stroke-width="2" d="M327.5,134.5c3.7,0,6.8-1.4,9.3-4.1c2.6-2.8,4.4-6.2,5.6-10.5
			c1.2-4.2,1.8-7.2,1.8-9c0-3.9-1-6.9-3-8.9s-4.5-3-7.6-3c-3.5,0-6.4,1.3-8.9,3.8s-4.4,5.9-5.6,10.1c-1.3,4.2-1.9,7.8-1.9,10.7
			c0,3.1,0.9,5.7,2.8,7.8C321.7,133.5,324.2,134.5,327.5,134.5z M335.6,85c9.4,0,16.2,2.5,20.6,7.5s6.6,11.2,6.6,18.5
			c0,2.8-0.4,6-1.2,9.7c-0.8,3.6-2.4,7.4-4.7,11.2c-2.3,3.9-5.3,7.1-9,9.8s-7.3,4.5-10.7,5.4c-3.4,0.9-7,1.4-10.9,1.4
			c-8.8,0-15.6-2.2-20.5-6.7c-4.9-4.4-7.4-10.7-7.4-18.7c0-4.2,0.6-8.3,1.8-12.3c1.2-4,3-7.7,5.4-11.3c2.4-3.5,5.4-6.5,8.9-8.9
			s7-3.9,10.4-4.7C328.5,85.3,332,85,335.6,85z"/>
		<path fill="#0000FF" stroke="#FFFFFF" stroke-width="2" d="M385.4,130.3l-3.2,14.6c-0.9,4.2-1.9,7.4-3,9.5s-2.4,3.8-3.8,5.1
			s-3,2.3-4.6,3.1c-1.6,0.7-3.3,1.2-5,1.4c-1.7,0.3-3.6,0.4-5.7,0.4h-0.5l1.9-8.1h0.7c5.4,0,8.8-2.9,10-8.8h-8.8l3.7-17.2H385.4z"/>
		<polygon fill="#0000FF" stroke="#FFFFFF" stroke-width="2" points="144.3,189 115.4,250.4 96.8,250.4 95.3,212.7 95.2,212.7 
			77.7,250.4 58.7,250.4 57,189 74.1,189 73.3,226.5 73.5,226.6 90.4,189 108.9,189 109.8,226.9 109.9,226.9 125.7,189 		"/>
		<path fill="#0000FF" stroke="#FFFFFF" stroke-width="2" d="M168.9,237.5c3.7,0,6.8-1.4,9.3-4.1c2.6-2.8,4.4-6.2,5.6-10.5
			c1.2-4.2,1.8-7.2,1.8-9c0-3.9-1-6.9-3-8.9s-4.5-3-7.6-3c-3.5,0-6.4,1.3-8.9,3.8s-4.4,5.9-5.6,10.1c-1.3,4.2-1.9,7.8-1.9,10.7
			c0,3.1,0.9,5.7,2.8,7.8C163.1,236.4,165.7,237.5,168.9,237.5z M177,187.9c9.4,0,16.2,2.5,20.6,7.5c4.4,5,6.6,11.2,6.6,18.5
			c0,2.8-0.4,6-1.2,9.7c-0.8,3.6-2.4,7.4-4.7,11.2c-2.3,3.9-5.3,7.2-9,9.8c-3.7,2.7-7.3,4.5-10.7,5.4s-7,1.4-10.9,1.4
			c-8.8,0-15.6-2.2-20.5-6.7c-4.9-4.4-7.4-10.7-7.4-18.7c0-4.2,0.6-8.3,1.8-12.3s3-7.7,5.4-11.3c2.4-3.5,5.4-6.5,8.9-8.9
			s7-3.9,10.4-4.7C169.9,188.3,173.4,187.9,177,187.9z"/>
		<path fill="#0000FF" stroke="#FFFFFF" stroke-width="2" d="M234.2,214h3.6c6,0,9.9-0.3,11.7-0.8c1.8-0.6,3.1-1.5,4-2.8
			s1.3-2.6,1.3-3.8c0-1.6-0.5-2.8-1.6-3.7c-1-0.9-3.3-1.3-6.7-1.3h-9.6L234.2,214z M220.4,189h34.9c6,0,10.4,1.6,13.2,4.7
			c2.8,3.2,4.2,7,4.2,11.4c0,4.8-1.5,9-4.4,12.6c-3,3.6-7.7,5.9-14.2,6.9c3.9,3.1,8.5,11.7,13.8,25.8h-20.1
			c-1.7-4.4-3.7-9.3-5.9-14.6c-2.3-5.3-4-8.3-5.1-9.2c-1.1-0.8-2.5-1.3-4.1-1.3h-1l-5.2,25h-19.1L220.4,189z"/>
		<polygon fill="#0000FF" stroke="#FFFFFF" stroke-width="2" points="326.8,235.4 323.7,250.4 274.1,250.4 287.2,189 306.3,189 
			296.3,235.4 		"/>
		<path fill="#0000FF" stroke="#FFFFFF" stroke-width="2" d="M353.3,236.8h7.8c5.2,0,9.1-2.7,11.6-8c2.5-5.4,3.8-10.7,3.8-16
			c0-3.2-0.7-5.6-2.2-7.5c-1.5-1.8-4.1-2.7-7.9-2.7h-6L353.3,236.8z M344.2,189h25.2c9,0,15.5,2.4,19.6,7.1
			c4.1,4.7,6.2,10.9,6.2,18.6c0,7.3-1.8,14.1-5.3,20.4c-3.5,6.2-7.7,10.3-12.5,12.3s-9.4,3-13.7,3h-32.3L344.2,189z"/>
		<path fill="#0000FF" stroke="#FFFFFF" stroke-width="2" d="M424.7,206l-3.7,17.2h-18.3l3.7-17.2H424.7z M419,233.2l-3.7,17.2H397
			l3.7-17.2H419z"/>
		<path fill="#0000FF" stroke="#FFFFFF" stroke-width="2" d="M446.7,187.9c3.3,8.5,5.4,15.1,6.3,19.9c0.9,4.8,1.4,9.2,1.4,13.3
			c0,15.1-7.7,30.9-23.1,47.3h-11.7c13.6-15.8,20.4-35.1,20.4-58c0-8.3-1.2-15.8-3.5-22.5H446.7z"/>
	</g>
	<g>
		<polygon fill="#0000FF" stroke="#FFFFFF" stroke-width="2" points="115.8,68.7 101.8,133.6 81.7,133.6 87.3,107.2 65.6,107.2 
			60.1,133.6 39.8,133.6 53.7,68.7 73.9,68.7 68.9,91.7 90.6,91.7 95.7,68.7 		"/>
		<polygon fill="#0000FF" stroke="#FFFFFF" stroke-width="2" points="182,68.7 179,82.7 146.1,82.7 143.9,93 175.7,93 172.7,106.1 
			141.1,106.1 138.3,118.8 174,118.8 170.8,133.6 115.2,133.6 129,68.7 		"/>
		<polygon fill="#0000FF" stroke="#FFFFFF" stroke-width="2" points="236.2,117.7 232.9,133.6 180.6,133.6 194.4,68.7 214.6,68.7 
			204.1,117.7 		"/>
		<polygon fill="#0000FF" stroke="#FFFFFF" stroke-width="2" points="296.6,117.7 293.3,133.6 241.1,133.6 254.8,68.7 275,68.7 
			264.5,117.7 		"/>
		<path fill="#0000FF" stroke="#FFFFFF" stroke-width="2" d="M331.7,119.9c3.9,0,7.1-1.5,9.8-4.4c2.7-2.9,4.7-6.6,5.9-11
			c1.2-4.4,1.9-7.6,1.9-9.5c0-4.2-1.1-7.3-3.2-9.4s-4.8-3.2-8.1-3.2c-3.7,0-6.8,1.3-9.4,4s-4.6,6.2-5.9,10.7c-1.3,4.4-2,8.2-2,11.3
			c0,3.3,1,6,2.9,8.2C325.6,118.8,328.3,119.9,331.7,119.9z M340.2,67.6c9.9,0,17.1,2.6,21.8,7.9c4.6,5.3,6.9,11.8,6.9,19.5
			c0,3-0.4,6.4-1.3,10.2c-0.9,3.8-2.5,7.8-5,11.9c-2.4,4.1-5.6,7.5-9.5,10.4c-3.9,2.8-7.7,4.7-11.3,5.7c-3.6,1-7.4,1.4-11.5,1.4
			c-9.3,0-16.5-2.3-21.7-7s-7.8-11.3-7.8-19.7c0-4.4,0.6-8.7,1.9-12.9c1.3-4.2,3.2-8.2,5.7-11.9c2.5-3.7,5.7-6.9,9.4-9.4
			c3.7-2.5,7.4-4.2,11-4.9C332.7,68,336.4,67.6,340.2,67.6z"/>
		<path fill="#0000FF" stroke="#FFFFFF" stroke-width="2" d="M392.8,115.4l-3.4,15.4c-1,4.5-2,7.8-3.2,10s-2.5,4-4,5.4
			s-3.1,2.5-4.8,3.2c-1.7,0.8-3.5,1.3-5.2,1.5c-1.8,0.3-3.8,0.4-6,0.4h-0.6l2-8.6h0.8c5.7,0,9.2-3.1,10.6-9.2h-9.3l3.9-18.1
			L392.8,115.4L392.8,115.4z"/>
		<polygon fill="#0000FF" stroke="#FFFFFF" stroke-width="2" points="138.3,177.4 107.8,242.3 88.2,242.3 86.6,202.5 86.5,202.5 
			68,242.3 47.9,242.3 46.2,177.4 64.3,177.4 63.3,217 63.6,217.2 81.5,177.4 100.9,177.4 101.8,217.4 102,217.4 118.7,177.4 		"/>
		<path fill="#0000FF" stroke="#FFFFFF" stroke-width="2" d="M164.3,228.6c3.9,0,7.1-1.5,9.8-4.4s4.7-6.6,5.9-11s1.9-7.6,1.9-9.5
			c0-4.2-1.1-7.3-3.2-9.4c-2.1-2.1-4.8-3.2-8.1-3.2c-3.7,0-6.8,1.3-9.4,4c-2.6,2.7-4.6,6.2-5.9,10.7c-1.3,4.4-2,8.2-2,11.3
			c0,3.3,1,6,2.9,8.2C158.2,227.5,160.9,228.6,164.3,228.6z M172.9,176.3c9.9,0,17.1,2.6,21.8,7.9c4.6,5.3,6.9,11.8,6.9,19.5
			c0,3-0.4,6.4-1.3,10.2c-0.9,3.8-2.5,7.8-5,11.9c-2.4,4.1-5.6,7.5-9.5,10.4c-3.9,2.8-7.7,4.7-11.3,5.7s-7.4,1.4-11.5,1.4
			c-9.3,0-16.5-2.3-21.7-7s-7.8-11.3-7.8-19.7c0-4.4,0.6-8.7,1.9-12.9c1.3-4.2,3.2-8.2,5.7-11.9s5.7-6.9,9.4-9.4s7.4-4.2,11-4.9
			C165.4,176.7,169.1,176.3,172.9,176.3z"/>
		<path fill="#0000FF" stroke="#FFFFFF" stroke-width="2" d="M233.2,203.8h3.8c6.4,0,10.5-0.3,12.4-0.9c1.9-0.6,3.3-1.6,4.2-3
			s1.4-2.7,1.4-4c0-1.7-0.5-2.9-1.6-3.9c-1.1-0.9-3.5-1.4-7.1-1.4H236L233.2,203.8z M218.7,177.4h36.9c6.4,0,11,1.7,14,5
			c2.9,3.3,4.4,7.3,4.4,12c0,5.1-1.6,9.5-4.7,13.3s-8.1,6.2-15,7.3c4.1,3.3,8.9,12.4,14.6,27.2h-21.2c-1.8-4.7-3.9-9.8-6.3-15.4
			c-2.4-5.6-4.2-8.8-5.4-9.7s-2.7-1.3-4.4-1.3h-1.1l-5.5,26.4h-20.1L218.7,177.4z"/>
		<polygon fill="#0000FF" stroke="#FFFFFF" stroke-width="2" points="331,226.4 327.6,242.3 275.4,242.3 289.1,177.4 309.3,177.4 
			298.8,226.4 		"/>
		<path fill="#0000FF" stroke="#FFFFFF" stroke-width="2" d="M358.9,227.9h8.3c5.5,0,9.6-2.8,12.2-8.5c2.7-5.7,4-11.3,4-16.9
			c0-3.3-0.8-6-2.3-7.9s-4.3-2.9-8.3-2.9h-6.4L358.9,227.9z M349.4,177.4H376c9.5,0,16.4,2.5,20.7,7.5c4.3,5,6.5,11.6,6.5,19.6
			c0,7.8-1.9,14.9-5.6,21.5s-8.1,10.9-13.2,13s-9.9,3.2-14.5,3.2h-34.1L349.4,177.4z"/>
		<path fill="#0000FF" stroke="#FFFFFF" stroke-width="2" d="M434.3,195.3l-3.9,18.1h-19.3l3.9-18.1H434.3z M428.2,224.1l-3.9,18.1
			H405l3.9-18.1H428.2z"/>
		<path fill="#0000FF" stroke="#FFFFFF" stroke-width="2" d="M457.5,176.3c3.5,8.9,5.7,15.9,6.7,21s1.5,9.7,1.5,14
			c0,15.9-8.1,32.6-24.4,50H429c14.4-16.7,21.5-37.1,21.5-61.2c0-8.7-1.2-16.6-3.7-23.7L457.5,176.3L457.5,176.3z"/>
	</g>
	<g>
		<polygon fill="#0000FF" stroke="#FFFFFF" stroke-width="2" points="108.6,51.5 93.9,119.7 72.8,119.7 78.7,92 55.8,92 50,119.7 
			28.6,119.7 43.3,51.5 64.5,51.5 59.3,75.6 82.1,75.6 87.5,51.5 		"/>
		<polygon fill="#0000FF" stroke="#FFFFFF" stroke-width="2" points="178.3,51.5 175.2,66.1 140.5,66.1 138.3,77 171.6,77 
			168.6,90.8 135.2,90.8 132.3,104.2 169.9,104.2 166.6,119.7 108,119.7 122.5,51.5 		"/>
		<polygon fill="#0000FF" stroke="#FFFFFF" stroke-width="2" points="235.4,103 231.9,119.7 176.9,119.7 191.4,51.5 212.6,51.5 
			201.6,103 		"/>
		<polygon fill="#0000FF" stroke="#FFFFFF" stroke-width="2" points="299,103 295.5,119.7 240.5,119.7 255,51.5 276.2,51.5 
			265.2,103 		"/>
		<path fill="#0000FF" stroke="#FFFFFF" stroke-width="2" d="M335.9,105.3c4.1,0,7.5-1.5,10.4-4.6c2.8-3.1,4.9-6.9,6.2-11.6
			c1.3-4.7,2-8,2-10c0-4.4-1.1-7.7-3.3-9.9c-2.2-2.2-5.1-3.4-8.5-3.4c-3.8,0-7.2,1.4-9.9,4.2c-2.8,2.8-4.9,6.5-6.3,11.2
			s-2.1,8.7-2.1,11.9c0,3.5,1,6.4,3.1,8.7C329.4,104.2,332.3,105.3,335.9,105.3z M344.9,50.3c10.4,0,18,2.8,22.9,8.4
			s7.3,12.4,7.3,20.6c0,3.1-0.5,6.7-1.4,10.7s-2.6,8.2-5.2,12.5s-5.9,7.9-10,10.9s-8.1,5-11.8,6c-3.8,1-7.8,1.5-12.1,1.5
			c-9.7,0-17.3-2.5-22.8-7.4s-8.2-11.9-8.2-20.8c0-4.7,0.7-9.2,2-13.6c1.4-4.4,3.4-8.6,6.1-12.5s6-7.2,9.9-9.9s7.8-4.4,11.6-5.2
			C337,50.7,340.9,50.3,344.9,50.3z"/>
		<path fill="#0000FF" stroke="#FFFFFF" stroke-width="2" d="M400.2,100.6l-3.5,16.2c-1,4.7-2.1,8.2-3.4,10.5
			c-1.2,2.3-2.6,4.2-4.2,5.7s-3.3,2.6-5.1,3.4c-1.8,0.8-3.7,1.3-5.5,1.6c-1.9,0.3-4,0.4-6.3,0.4h-0.6l2.1-9h0.8
			c6,0,9.7-3.2,11.1-9.7h-9.8l4.1-19.1H400.2z"/>
		<polygon fill="#0000FF" stroke="#FFFFFF" stroke-width="2" points="132.3,165.9 100.2,234.1 79.6,234.1 77.9,192.3 77.7,192.3 
			58.3,234.1 37.2,234.1 35.4,165.9 54.4,165.9 53.4,207.5 53.6,207.7 72.5,165.9 93,165.9 93.9,208 94.1,208 111.7,165.9 		"/>
		<path fill="#0000FF" stroke="#FFFFFF" stroke-width="2" d="M159.7,219.7c4.1,0,7.5-1.5,10.4-4.6c2.8-3.1,4.9-6.9,6.2-11.6
			c1.3-4.7,2-8,2-10c0-4.4-1.1-7.7-3.3-9.9s-5.1-3.4-8.5-3.4c-3.8,0-7.2,1.4-9.9,4.2c-2.8,2.8-4.9,6.5-6.3,11.2
			c-1.4,4.7-2.1,8.7-2.1,11.9c0,3.5,1,6.4,3.1,8.7C153.2,218.6,156.1,219.7,159.7,219.7z M168.7,164.7c10.4,0,18,2.8,22.9,8.4
			c4.9,5.6,7.3,12.4,7.3,20.6c0,3.1-0.5,6.7-1.4,10.7s-2.6,8.2-5.2,12.5c-2.6,4.3-5.9,7.9-10,10.9s-8.1,5-11.8,6
			c-3.8,1-7.8,1.5-12.1,1.5c-9.7,0-17.3-2.5-22.8-7.4s-8.2-11.9-8.2-20.8c0-4.7,0.7-9.2,2-13.6c1.4-4.4,3.4-8.6,6.1-12.5
			c2.7-3.9,6-7.2,9.9-9.9s7.8-4.4,11.6-5.2C160.8,165.1,164.7,164.7,168.7,164.7z"/>
		<path fill="#0000FF" stroke="#FFFFFF" stroke-width="2" d="M232.2,193.6h4c6.7,0,11-0.3,13-0.9c2-0.6,3.4-1.7,4.4-3.1
			c1-1.5,1.4-2.9,1.4-4.3c0-1.7-0.6-3.1-1.7-4.1c-1.1-1-3.6-1.5-7.5-1.5h-10.7L232.2,193.6z M216.9,165.9h38.8
			c6.7,0,11.6,1.8,14.7,5.3s4.7,7.7,4.7,12.7c0,5.3-1.6,10-4.9,14s-8.5,6.5-15.8,7.7c4.3,3.5,9.4,13,15.4,28.7h-22.3
			c-1.9-4.9-4.1-10.3-6.6-16.2c-2.5-5.8-4.4-9.2-5.7-10.2c-1.3-0.9-2.8-1.4-4.6-1.4h-1.1l-5.8,27.7h-21.2L216.9,165.9z"/>
		<polygon fill="#0000FF" stroke="#FFFFFF" stroke-width="2" points="335.1,217.4 331.6,234.1 276.6,234.1 291.1,165.9 312.4,165.9 
			301.3,217.4 		"/>
		<path fill="#0000FF" stroke="#FFFFFF" stroke-width="2" d="M364.6,219h8.7c5.8,0,10.1-3,12.9-8.9c2.8-6,4.2-11.9,4.2-17.8
			c0-3.5-0.8-6.3-2.4-8.3s-4.6-3-8.8-3h-6.7L364.6,219z M354.5,165.9h28c10,0,17.2,2.6,21.8,7.9c4.6,5.3,6.8,12.2,6.8,20.7
			c0,8.2-2,15.7-5.9,22.6c-3.9,6.9-8.5,11.5-13.9,13.7c-5.3,2.2-10.4,3.3-15.3,3.3h-35.9L354.5,165.9z"/>
		<path fill="#0000FF" stroke="#FFFFFF" stroke-width="2" d="M443.9,184.7l-4.1,19.1h-20.3l4.1-19.1H443.9z M437.5,215l-4.1,19.1
			h-20.3l4.1-19.1H437.5z"/>
		<path fill="#0000FF" stroke="#FFFFFF" stroke-width="2" d="M468.3,164.7c3.7,9.4,6,16.8,7,22.1s1.5,10.2,1.5,14.7
			c0,16.8-8.6,34.3-25.7,52.6h-13c15.1-17.6,22.7-39,22.7-64.4c0-9.2-1.3-17.5-3.9-25L468.3,164.7L468.3,164.7z"/>
	</g>
	<g>
		<polygon fill="#0000FF" stroke="#FFFFFF" stroke-width="2" points="101.4,34.2 86,105.8 63.8,105.8 70,76.7 46,76.7 39.9,105.8 
			17.5,105.8 32.9,34.2 55.1,34.2 49.7,59.5 73.6,59.5 79.2,34.2 		"/>
		<polygon fill="#0000FF" stroke="#FFFFFF" stroke-width="2" points="174.6,34.2 171.3,49.6 135,49.6 132.6,61 167.6,61 164.4,75.5 
			129.4,75.5 126.4,89.5 165.8,89.5 162.3,105.8 100.8,105.8 116.1,34.2 		"/>
		<polygon fill="#0000FF" stroke="#FFFFFF" stroke-width="2" points="234.6,88.3 230.9,105.8 173.1,105.8 188.3,34.2 210.7,34.2 
			199,88.3 		"/>
		<polygon fill="#0000FF" stroke="#FFFFFF" stroke-width="2" points="301.3,88.3 297.7,105.8 239.9,105.8 255.1,34.2 277.4,34.2 
			265.8,88.3 		"/>
		<path fill="#0000FF" stroke="#FFFFFF" stroke-width="2" d="M340.1,90.7c4.3,0,7.9-1.6,10.9-4.8c3-3.2,5.2-7.3,6.5-12.2
			c1.4-4.9,2.1-8.4,2.1-10.5c0-4.6-1.2-8.1-3.5-10.4c-2.3-2.3-5.3-3.5-8.9-3.5c-4,0-7.5,1.5-10.4,4.4s-5.1,6.9-6.6,11.8
			S328,74.6,328,78c0,3.6,1.1,6.7,3.2,9.1C333.3,89.5,336.3,90.7,340.1,90.7z M349.5,33c10.9,0,18.9,2.9,24,8.8
			c5.1,5.8,7.7,13,7.7,21.6c0,3.3-0.5,7-1.4,11.3c-0.9,4.2-2.8,8.6-5.5,13.1s-6.2,8.3-10.5,11.5c-4.3,3.1-8.5,5.2-12.4,6.3
			c-4,1.1-8.2,1.6-12.7,1.6c-10.2,0-18.2-2.6-23.9-7.8c-5.7-5.2-8.6-12.4-8.6-21.8c0-4.9,0.7-9.7,2.1-14.3s3.5-9,6.4-13.1
			c2.8-4.1,6.3-7.6,10.4-10.4c4.1-2.8,8.2-4.6,12.2-5.4C341.2,33.4,345.3,33,349.5,33z"/>
		<path fill="#0000FF" stroke="#FFFFFF" stroke-width="2" d="M407.6,85.8l-3.7,17c-1.1,4.9-2.3,8.6-3.5,11c-1.3,2.4-2.8,4.4-4.4,6
			c-1.7,1.5-3.4,2.7-5.4,3.6c-1.9,0.8-3.8,1.4-5.8,1.7c-2,0.3-4.2,0.4-6.6,0.4h-0.6l2.2-9.5h0.8c6.3,0,10.2-3.4,11.7-10.2H382
			l4.3-20H407.6z"/>
		<polygon fill="#0000FF" stroke="#FFFFFF" stroke-width="2" points="126.4,154.3 92.6,226 70.9,226 69.2,182 69,182 48.6,226 
			26.5,226 24.6,154.3 44.5,154.3 43.5,198 43.7,198.2 63.5,154.3 85,154.3 86,198.5 86.2,198.5 104.7,154.3 		"/>
		<path fill="#0000FF" stroke="#FFFFFF" stroke-width="2" d="M155.1,210.8c4.3,0,7.9-1.6,10.9-4.8s5.2-7.3,6.5-12.2
			c1.4-4.9,2.1-8.4,2.1-10.5c0-4.6-1.2-8.1-3.5-10.4c-2.3-2.3-5.3-3.5-8.9-3.5c-4,0-7.5,1.5-10.4,4.4s-5.1,6.9-6.6,11.8
			c-1.5,4.9-2.2,9.1-2.2,12.5c0,3.6,1.1,6.7,3.2,9.1C148.3,209.6,151.3,210.8,155.1,210.8z M164.5,153.1c10.9,0,18.9,2.9,24,8.8
			c5.1,5.8,7.7,13,7.7,21.6c0,3.3-0.5,7-1.4,11.3c-0.9,4.2-2.8,8.6-5.5,13.1s-6.2,8.3-10.5,11.5c-4.3,3.1-8.5,5.2-12.4,6.3
			c-4,1.1-8.2,1.6-12.7,1.6c-10.2,0-18.2-2.6-23.9-7.8s-8.6-12.4-8.6-21.8c0-4.9,0.7-9.7,2.1-14.3s3.5-9,6.4-13.1
			c2.8-4.1,6.3-7.6,10.4-10.4c4.1-2.8,8.2-4.6,12.2-5.4C156.2,153.5,160.3,153.1,164.5,153.1z"/>
		<path fill="#0000FF" stroke="#FFFFFF" stroke-width="2" d="M231.2,183.4h4.2c7,0,11.6-0.3,13.7-1c2.1-0.7,3.6-1.8,4.6-3.3
			s1.5-3,1.5-4.5c0-1.8-0.6-3.3-1.8-4.3s-3.8-1.6-7.9-1.6h-11.2L231.2,183.4z M215.2,154.3H256c7,0,12.2,1.8,15.4,5.5
			c3.3,3.7,4.9,8.1,4.9,13.3c0,5.6-1.7,10.5-5.2,14.7s-9,6.9-16.6,8c4.5,3.6,9.9,13.7,16.1,30.1h-23.4c-2-5.2-4.3-10.8-6.9-17
			c-2.7-6.1-4.7-9.7-6-10.7s-2.9-1.5-4.8-1.5h-1.2l-6.1,29.1H200L215.2,154.3z"/>
		<polygon fill="#0000FF" stroke="#FFFFFF" stroke-width="2" points="339.3,208.5 335.6,226 277.8,226 293,154.3 315.4,154.3 
			303.7,208.5 		"/>
		<path fill="#0000FF" stroke="#FFFFFF" stroke-width="2" d="M370.2,210.1h9.1c6.1,0,10.6-3.1,13.5-9.4c3-6.3,4.4-12.5,4.4-18.7
			c0-3.7-0.9-6.6-2.6-8.7c-1.7-2.1-4.8-3.2-9.2-3.2h-7L370.2,210.1z M359.6,154.3H389c10.5,0,18.1,2.8,22.9,8.3s7.2,12.8,7.2,21.7
			c0,8.6-2.1,16.5-6.2,23.8s-9,12.1-14.6,14.4c-5.6,2.3-10.9,3.5-16,3.5h-37.7L359.6,154.3z"/>
		<path fill="#0000FF" stroke="#FFFFFF" stroke-width="2" d="M453.5,174.1l-4.3,20h-21.3l4.3-20H453.5z M446.8,205.9l-4.3,20h-21.4
			l4.3-20H446.8z"/>
		<path fill="#0000FF" stroke="#FFFFFF" stroke-width="2" d="M479.1,153.1c3.8,9.9,6.3,17.6,7.4,23.2c1.1,5.6,1.6,10.7,1.6,15.5
			c0,17.6-9,36-27,55.2h-13.6c15.9-18.4,23.8-41,23.8-67.6c0-9.6-1.4-18.4-4.1-26.2L479.1,153.1L479.1,153.1z"/>
	</g>
	<g>
		<path fill="#FFFF00" stroke="#0000FF" stroke-width="2" d="M94.3,16.9L78.1,92H54.8l6.5-30.5H36.2L29.8,92H6.3l16.1-75.1h23.3
			L40,43.4h25.1L71,16.9H94.3z"/>
		<path fill="#FFFF00" stroke="#0000FF" stroke-width="2" d="M170.9,16.9L167.5,33h-38.1l-2.5,12h36.7l-3.4,15.2h-36.7l-3.2,14.7
			h41.3L158,92H93.6l16-75.1C109.6,16.9,170.9,16.9,170.9,16.9z"/>
		<path fill="#FFFF00" stroke="#0000FF" stroke-width="2" d="M233.7,73.6L229.9,92h-60.5l15.9-75.1h23.4l-12.2,56.7
			C196.5,73.6,233.7,73.6,233.7,73.6z"/>
		<path fill="#FFFF00" stroke="#0000FF" stroke-width="2" d="M303.7,73.6L299.8,92h-60.5l15.9-75.1h23.4l-12.2,56.7
			C266.4,73.6,303.7,73.6,303.7,73.6z"/>
		<path fill="#FFFF00" stroke="#0000FF" stroke-width="2" d="M359.5,15.6c11.4,0,19.8,3.1,25.2,9.2c5.4,6.1,8,13.7,8,22.6
			c0,3.4-0.5,7.4-1.5,11.8s-2.9,9-5.7,13.7c-2.8,4.7-6.5,8.7-11,12s-8.9,5.5-13,6.6c-4.2,1.1-8.6,1.7-13.3,1.7
			c-10.7,0-19.1-2.7-25.1-8.1s-9-13-9-22.8c0-5.1,0.7-10.1,2.2-15s3.7-9.5,6.7-13.8s6.6-7.9,10.9-10.9c4.3-2.9,8.6-4.8,12.7-5.7
			C350.8,16.1,355.1,15.6,359.5,15.6z M349.6,76.1c4.5,0,8.3-1.7,11.4-5.1s5.4-7.6,6.8-12.8c1.4-5.1,2.2-8.8,2.2-11
			c0-4.8-1.2-8.4-3.7-10.9c-2.4-2.5-5.6-3.7-9.3-3.7c-4.2,0-7.9,1.5-10.9,4.6c-3.1,3.1-5.4,7.2-6.9,12.3s-2.3,9.5-2.3,13.1
			c0,3.8,1.1,7,3.4,9.5C342.5,74.9,345.6,76.1,349.6,76.1z"/>
		<path fill="#FFFF00" stroke="#0000FF" stroke-width="2" d="M422.1,71l-3.9,17.8c-1.1,5.2-2.4,9-3.7,11.6s-2.9,4.7-4.6,6.3
			c-1.7,1.6-3.6,2.9-5.6,3.7c-2,0.9-4,1.5-6.1,1.8c-2,0.3-4.4,0.5-6.9,0.5h-0.7l2.3-9.9h0.9c6.6,0,10.7-3.6,12.2-10.7h-10.8l4.5-21
			h22.4V71z"/>
		<path fill="#FFFF00" stroke="#0000FF" stroke-width="2" d="M120.4,142.7l-35.3,75.1H62.3l-1.8-46h-0.2l-21.4,46H15.7l-2-75.1h20.9
			l-1.1,45.8l0.3,0.2l20.7-46H77l1.1,46.3h0.2l19.3-46.3L120.4,142.7L120.4,142.7z"/>
		<path fill="#FFFF00" stroke="#0000FF" stroke-width="2" d="M161.4,141.5c11.4,0,19.8,3.1,25.2,9.2c5.4,6.1,8,13.7,8,22.6
			c0,3.4-0.5,7.4-1.5,11.8c-1,4.4-2.9,9-5.7,13.7s-6.5,8.7-11,12s-8.9,5.5-13,6.6c-4.2,1.1-8.6,1.7-13.3,1.7
			c-10.7,0-19.1-2.7-25.1-8.1c-6-5.4-9-13-9-22.8c0-5.1,0.7-10.1,2.2-15s3.7-9.5,6.7-13.8s6.6-7.9,10.9-10.9
			c4.3-2.9,8.6-4.8,12.7-5.7C152.7,141.9,157,141.5,161.4,141.5z M151.5,202c4.5,0,8.3-1.7,11.4-5.1c3.1-3.4,5.4-7.6,6.8-12.8
			c1.4-5.1,2.2-8.8,2.2-11c0-4.8-1.2-8.4-3.7-10.9c-2.4-2.5-5.6-3.7-9.3-3.7c-4.2,0-7.9,1.5-10.9,4.6c-3.1,3.1-5.4,7.2-6.9,12.3
			s-2.3,9.5-2.3,13.1c0,3.8,1.1,7,3.4,9.5C144.4,200.7,147.5,202,151.5,202z"/>
		<path fill="#FFFF00" stroke="#0000FF" stroke-width="2" d="M214.4,142.7h42.7c7.4,0,12.8,1.9,16.2,5.8c3.4,3.9,5.1,8.5,5.1,13.9
			c0,5.9-1.8,11-5.4,15.4s-9.4,7.2-17.4,8.4c4.7,3.8,10.3,14.3,16.9,31.5H248c-2-5.4-4.5-11.4-7.2-17.8c-2.8-6.4-4.9-10.2-6.3-11.2
			c-1.4-1-3.1-1.5-5.1-1.5h-1.2l-6.4,30.5h-23.3L214.4,142.7z M231.2,173.3h4.4c7.4,0,12.1-0.3,14.3-1s3.8-1.8,4.8-3.5
			c1.1-1.6,1.6-3.2,1.6-4.7c0-1.9-0.6-3.4-1.9-4.5c-1.3-1.1-4-1.6-8.2-1.6h-11.8L231.2,173.3z"/>
		<path fill="#FFFF00" stroke="#0000FF" stroke-width="2" d="M344.4,199.5l-3.8,18.3h-60.5l15.9-75.1h23.4l-12.2,56.7L344.4,199.5
			L344.4,199.5z"/>
		<path fill="#FFFF00" stroke="#0000FF" stroke-width="2" d="M365.7,142.7h30.8c11,0,18.9,2.9,24,8.7c5,5.8,7.5,13.4,7.5,22.7
			c0,9-2.2,17.3-6.5,24.9c-4.3,7.6-9.4,12.6-15.3,15.1c-5.9,2.4-11.5,3.7-16.8,3.7H350L365.7,142.7z M376.9,201.2h9.6
			c6.3,0,11.1-3.3,14.2-9.8c3.1-6.6,4.7-13.1,4.7-19.6c0-3.9-0.9-6.9-2.7-9.1c-1.8-2.2-5-3.4-9.7-3.4h-7.4L376.9,201.2z"/>
		<path fill="#FFFF00" stroke="#0000FF" stroke-width="2" d="M457.1,196.8l-4.5,21h-22.4l4.5-21H457.1z M464.1,163.5l-4.5,21h-22.3
			l4.5-21H464.1z"/>
		<path fill="#FFFF00" stroke="#0000FF" stroke-width="2" d="M490.9,141.5c4,10.3,6.6,18.4,7.7,24.3c1.1,5.9,1.7,11.3,1.7,16.2
			c0,18.5-9.4,37.8-28.3,57.9h-14.3c16.6-19.3,24.9-42.9,24.9-70.9c0-10.1-1.4-19.3-4.3-27.5H490.9z"/>
	</g>
	<g display="none">
		<g display="inline">
			<path fill="#FFFFFF" d="M95.5,15.9L78.9,93H53.6l6.5-30.5H37L30.6,93H5.1l16.5-77.1h25.3l-5.7,26.5h23.1l5.9-26.5H95.5 M98,13.9
				h-2.5H70.2h-1.6l-0.3,1.6l-5.6,24.9h-19l5.2-24.1l0.5-2.4h-2.5H21.6H20l-0.3,1.6L3.1,92.6L2.6,95h2.5h25.5h1.6l0.3-1.6l6.1-28.9
				h19l-6,28.1L51.1,95h2.5h25.3h1.6l0.3-1.6l16.6-77.1L98,13.9L98,13.9z"/>
		</g>
		<g display="inline">
			<path fill="#FFFFFF" d="M172.1,15.9L168.3,34h-38.1l-2.1,10h36.7L161,61.2h-36.7l-2.8,12.7h41.3l-4,19.1H92.4l16.4-77.1H172.1
				 M174.6,13.9h-2.5h-63.3h-1.6l-0.3,1.6L90.4,92.6L89.9,95h2.5h66.4h1.6l0.3-1.6l4-19.1l0.5-2.4h-2.5H124l1.9-8.7H161h1.6l0.3-1.6
				l3.8-17.2l0.5-2.4h-2.5h-34.3l1.2-6h36.5h1.6l0.3-1.6l3.8-18.1L174.6,13.9L174.6,13.9z"/>
		</g>
		<g display="inline">
			<path fill="#FFFFFF" d="M209.9,15.9l-12.2,56.7h37.2L230.7,93h-62.5l16.3-77.1H209.9 M212.4,13.9h-2.5h-25.4h-1.6l-0.3,1.6
				l-16.3,77.1l-0.5,2.4h2.5h62.5h1.6l0.3-1.6l4.2-20.4l0.5-2.4h-2.5h-34.7l11.7-54.3L212.4,13.9L212.4,13.9z"/>
		</g>
		<g display="inline">
			<path fill="#FFFFFF" d="M279.8,15.9l-12.2,56.7h37.3L300.6,93h-62.5l16.3-77.1H279.8 M282.3,13.9h-2.5h-25.4h-1.6l-0.3,1.6
				l-16.3,77.1l-0.5,2.4h2.5h62.5h1.6l0.3-1.6l4.3-20.4l0.5-2.4h-2.5h-34.8l11.7-54.3L282.3,13.9L282.3,13.9z"/>
		</g>
		<g display="inline">
			<path fill="#FFFFFF" d="M359.5,14.6c11.6,0,20.3,3.2,25.9,9.5c5.5,6.2,8.3,14,8.3,23.3c0,3.5-0.5,7.6-1.5,12c-1,4.5-3,9.2-5.8,14
				c-2.8,4.8-6.6,8.9-11.3,12.3c-4.5,3.3-9,5.6-13.3,6.8c-4.5,1.2-8.9,1.7-13.6,1.7c-10.9,0-19.6-2.8-25.8-8.4
				c-6.2-5.6-9.3-13.5-9.3-23.5c0-5.3,0.8-10.4,2.2-15.3c1.5-5.1,3.8-9.8,6.8-14.1c3.1-4.4,6.7-8.1,11.1-11.1
				c4.4-2.9,8.8-4.9,13.1-5.9C351.1,15,355.3,14.6,359.5,14.6 M349.6,75.1c4.2,0,7.7-1.6,10.7-4.8c3.1-3.4,5.2-7.4,6.6-12.4
				c1.5-5.4,2.2-8.8,2.2-10.7c0-4.6-1.1-7.9-3.4-10.2c-2.2-2.3-5.1-3.4-8.6-3.4c-4,0-7.4,1.4-10.2,4.3c-3,3-5.2,7-6.7,11.9
				c-1.5,5.1-2.3,9.4-2.3,12.8c0,3.6,1.1,6.6,3.1,8.8C343,74,345.7,75.1,349.6,75.1 M359.5,12.6c-4.3,0-8.7,0.4-13.5,1.4l0,0l0,0
				c-4.5,1-9.2,3.1-13.7,6.2c-4.6,3.2-8.4,7-11.7,11.7c-3.1,4.5-5.5,9.4-7.1,14.6c-1.5,5.1-2.3,10.4-2.3,15.9c0,10.6,3.4,19.1,10,25
				c6.5,5.9,15.7,8.9,27.1,8.9c4.8,0,9.4-0.6,14.1-1.8c4.6-1.2,9.3-3.6,14-7.1c4.9-3.6,8.8-7.9,11.8-12.9c2.9-4.9,5-9.8,6-14.6
				c1-4.6,1.6-8.8,1.6-12.5c0-9.8-2.9-18-8.8-24.6C380.9,16,371.7,12.6,359.5,12.6L359.5,12.6z M349.6,73.1c-3.2,0-5.4-0.9-7-2.9
				l0-0.1l-0.1-0.1c-1.7-1.9-2.6-4.4-2.6-7.5c0-3.2,0.7-7.3,2.2-12.3c1.4-4.6,3.4-8.3,6.2-11c2.4-2.5,5.3-3.7,8.8-3.7
				c3,0,5.3,0.9,7.1,2.8c1.9,1.9,2.9,4.8,2.9,8.8c0,1.7-0.7,5.1-2.1,10.2c-1.2,4.6-3.3,8.4-6.1,11.6
				C356.2,71.8,353.3,73.1,349.6,73.1L349.6,73.1z"/>
		</g>
		<g display="inline">
			<path fill="#FFFFFF" d="M422.1,70.1v0.8l1,0.1v1.1h-0.2L419.2,89c-1,4.9-2.3,8.9-3.8,11.8c-1.3,2.6-2.9,4.8-4.8,6.6
				c-1.9,1.8-3.9,3.1-5.9,3.9c-2.1,0.9-4.2,1.6-6.3,1.9c-2.2,0.3-4.7,0.5-7,0.5h-2l2.8-11.9h1.7c5.8,0,9.3-2.8,10.9-8.7H394l4.9-23
				H422.1 M424.1,68.1h-2h-23.2h-1.6l-0.3,1.6l-4.9,23l-0.5,2.4h2.5h7.9c-1.6,3.2-4.1,4.7-8.1,4.7h-1.7h-1.6l-0.4,1.5l-2.8,11.9
				l-0.6,2.5h2.5h2c2.5,0,5-0.2,7.3-0.5c2.3-0.3,4.6-1,6.8-2c2.3-0.9,4.4-2.4,6.5-4.3c2.1-2,3.8-4.4,5.2-7.1c1.5-3.1,2.9-7.2,4-12.3
				l3.4-15.3h0.6v-2V71v-1.8l-1-0.1V68.1L424.1,68.1z"/>
		</g>
		<g display="inline">
			<path fill="#FFFFFF" d="M122,141.7l-36.2,77.1H61.3l-1.7-43.2l-20.1,43.2H14.7l-2.1-77.1h23l-1,42.8l19.3-42.8H78l1,43l17.9-43
				H122 M125.1,139.7H122h-25h-1.3l-0.5,1.2l-14.3,34.3L80,141.7l0-2h-2H53.9h-1.3l-0.5,1.2l-15.2,33.8l0.8-32.9l0-2h-2h-23h-2.1
				l0.1,2.1l2.1,77.1l0.1,1.9h1.9h24.8h1.3l0.5-1.2L58,183.9l1.4,35l0.1,1.9h1.9h24.4H87l0.5-1.1l36.2-77.1L125.1,139.7L125.1,139.7
				z"/>
		</g>
		<g display="inline">
			<path fill="#FFFFFF" d="M161.4,140.5c11.6,0,20.3,3.2,25.9,9.5c5.5,6.2,8.3,14,8.3,23.3c0,3.5-0.5,7.6-1.5,12
				c-1,4.5-3,9.2-5.8,14c-2.8,4.8-6.6,8.9-11.3,12.3c-4.5,3.3-9,5.6-13.3,6.8c-4.5,1.2-8.9,1.7-13.6,1.7c-10.9,0-19.6-2.8-25.8-8.4
				c-6.2-5.6-9.3-13.5-9.3-23.5c0-5.3,0.8-10.4,2.2-15.3c1.5-5.1,3.8-9.8,6.8-14.1c3.1-4.4,6.7-8.1,11.1-11.1
				c4.4-2.9,8.8-4.9,13.1-5.9C152.4,140.9,156.7,140.5,161.4,140.5 M151.5,201c4.2,0,7.7-1.6,10.7-4.8c3.1-3.4,5.2-7.4,6.6-12.4
				c1.5-5.4,2.2-8.8,2.2-10.7c0-4.6-1.1-7.9-3.4-10.2c-2.2-2.3-5.1-3.4-8.6-3.4c-4,0-7.4,1.4-10.2,4.3c-3,3-5.2,7-6.7,11.9
				c-1.5,5.1-2.3,9.4-2.3,12.8c0,3.6,1.1,6.6,3.1,8.8C145,199.8,147.8,201,151.5,201 M161.4,138.5c-4.8,0-9.2,0.4-13.5,1.4
				c-4.6,1-9.2,3.1-13.8,6.2c-4.6,3.2-8.4,7-11.7,11.7c-3.1,4.5-5.5,9.4-7.1,14.6c-1.5,5.1-2.3,10.4-2.3,15.9c0,10.6,3.4,19.1,10,25
				c6.5,5.9,15.7,8.9,27.1,8.9c4.8,0,9.4-0.6,14.1-1.8c4.6-1.2,9.3-3.6,14-7.1c4.9-3.6,8.8-7.9,11.8-12.9c2.9-4.9,5-9.8,6-14.6
				c1-4.6,1.6-8.8,1.6-12.5c0-9.8-2.9-18-8.8-24.6C182.8,141.9,173.6,138.5,161.4,138.5L161.4,138.5z M151.5,199
				c-3.1,0-5.4-0.9-7-2.9l0,0l0,0c-1.7-1.9-2.6-4.4-2.6-7.5c0-3.2,0.7-7.3,2.2-12.3c1.3-4.6,3.4-8.3,6.2-11c2.4-2.5,5.3-3.7,8.8-3.7
				c3,0,5.3,0.9,7.2,2.8c1.9,1.9,2.8,4.8,2.8,8.8c0,1.7-0.7,5.1-2.1,10.2c-1.2,4.6-3.3,8.4-6.1,11.6
				C158.1,197.7,155.2,199,151.5,199L151.5,199z"/>
		</g>
		<g display="inline">
			<path fill="#FFFFFF" d="M257.1,141.7c7.7,0,13.4,2.1,17,6.1c3.5,4.1,5.3,9,5.3,14.6c0,6.1-1.9,11.5-5.6,16c-3.4,4.2-8.8,7-16,8.4
				c4.5,4.7,9.6,14.7,15.7,30.5l0.5,1.4h-26.7l-0.2-0.7c-2-5.5-4.7-11.8-7.2-17.8c-3.4-7.8-5.1-10.2-6-10.8
				c-1.2-0.9-2.7-1.3-4.5-1.3H229l-6.4,30.5h-25.3l16.3-77H257.1 M232.4,172.3h3.2c7.4,0,12-0.3,14-1c2.1-0.7,3.4-1.6,4.2-3.1
				c1-1.4,1.5-2.8,1.5-4.2c0-1.6-0.5-2.9-1.5-3.7c-1.1-0.9-3.6-1.4-7.6-1.4h-11L232.4,172.3 M257.1,139.7h-43.5H212l-0.3,1.6
				l-16.3,77l-0.5,2.4h2.5h25.3h1.6l0.3-1.6l6-28.8c0.8,0.1,1.5,0.4,2.1,0.8c0.1,0.1,1.5,1.4,5.3,9.9c2.5,5.9,5.1,12.2,7.1,17.7
				l0.2,0.7l0.5,1.3h1.4H274h2.9l-1-2.7l-0.5-1.4c-5.2-13.6-9.8-23-13.9-28.6c6.1-1.7,10.8-4.5,14-8.4c4-4.9,6.1-10.7,6.1-17.3
				c0-6.1-2-11.4-5.8-15.9C271.6,142,265.4,139.7,257.1,139.7L257.1,139.7z M236.8,161h9.4c5.1,0,6.2,0.8,6.3,0.9
				c0.4,0.3,0.8,0.9,0.8,2.2c0,1-0.4,2-1.1,3.1l0,0.1l0,0.1c-0.6,1-1.5,1.7-3.1,2.2c-1.8,0.6-6.3,0.9-13.4,0.9h-0.7L236.8,161
				L236.8,161z"/>
		</g>
		<g display="inline">
			<path fill="#FFFFFF" d="M320.6,141.7l-12.2,56.7h37l0,1.3l-4,19.1h-62.5l16.3-77.1H320.6 M323.1,139.7h-2.5h-25.4h-1.6l-0.3,1.6
				l-16.3,77.1l-0.5,2.4h2.5h62.5h1.6l0.3-1.6l4-19.1l0-0.2l0-0.2l0-1.3l0-2h-2h-34.5l11.7-54.3L323.1,139.7L323.1,139.7z"/>
		</g>
		<g display="inline">
			<path fill="#FFFFFF" d="M396.5,141.7c11.3,0,19.4,3,24.8,9c5.1,6,7.7,13.8,7.7,23.4c0,9.1-2.2,17.6-6.6,25.4
				c-4.4,7.7-9.7,12.9-15.8,15.5c-6.3,2.5-11.9,3.8-17.2,3.8h-40.6l16.1-77.1H396.5 M378.1,200.2h8.4c5.9,0,10.4-3.1,13.3-9.2
				c3.1-6.6,4.6-12.9,4.6-19.2c0-3.7-0.8-6.4-2.5-8.5c-1.6-2-4.6-3-8.9-3h-6.6L378.1,200.2 M396.5,139.7h-31.6h-1.6l-0.3,1.6
				l-16.1,77.1l-0.5,2.4h2.5h40.6c5.6,0,11.4-1.3,17.9-3.9c6.5-2.8,12.2-8.3,16.8-16.4c4.6-8.1,6.9-17,6.9-26.4
				c0-10-2.8-18.3-8.2-24.7C417,142.9,408.4,139.7,396.5,139.7L396.5,139.7z M388,162.3h5c2.5,0,5.8,0.4,7.4,2.3c1.4,1.7,2,4,2,7.2
				c0,6-1.4,12-4.4,18.3c-2.6,5.4-6.4,8.1-11.5,8.1h-5.9L388,162.3L388,162.3z"/>
		</g>
		<g display="inline">
			<path fill="#FFFFFF" d="M458.3,195.8l-4.9,23H429l4.9-23H458.3 M460.8,193.8h-2.5h-24.4h-1.6l-0.3,1.6l-4.9,23l-0.5,2.4h2.5h24.4
				h1.6l0.3-1.6l4.9-23L460.8,193.8L460.8,193.8z"/>
		</g>
		<g display="inline">
			<path fill="#FFFFFF" d="M465.3,162.5l-4.9,23h-24.3l4.9-23H465.3 M467.8,160.5h-2.5H441h-1.6l-0.3,1.6l-4.9,23l-0.5,2.4h2.5h24.3
				h1.6l0.3-1.6l4.9-23L467.8,160.5L467.8,160.5z"/>
		</g>
		<g display="inline">
			<path fill="#FFFFFF" d="M491.6,140.5l0.2,0.6c4.1,10.6,6.7,18.6,7.8,24.5c1.2,6.2,1.7,11.6,1.7,16.4c0,18.7-9.6,38.4-28.6,58.6
				l-0.3,0.3h-16.9l1.4-1.7c16.4-19,24.7-42.7,24.7-70.2c0-10.1-1.4-19.2-4.2-27.2l-0.5-1.3H491.6 M493,138.5h-1.4h-14.7h-2.8
				l0.9,2.7l0.5,1.3c2.7,7.7,4.1,16.7,4.1,26.5c0,27.1-8.1,50.3-24.2,68.9l-1.4,1.7l-2.8,3.3h4.4h16.9h0.9l0.6-0.6l0.3-0.3
				c19.3-20.5,29.1-40.7,29.1-60c0-5-0.6-10.4-1.8-16.8c-1.1-6-3.7-14.1-7.9-24.8l-0.2-0.6L493,138.5L493,138.5z"/>
		</g>
	</g>
</g>
</svg>
