<?xml version="1.0" encoding="utf-8"?>
<!-- Generator: Adobe Illustrator 22.0.0, SVG Export Plug-In . SVG Version: 6.00 Build 0)  -->
<svg version="1.1" id="Layer_1" xmlns="http://www.w3.org/2000/svg" xmlns:xlink="http://www.w3.org/1999/xlink" x="0px" y="0px"
	 viewBox="0 0 64 64" style="enable-background:new 0 0 64 64;" xml:space="preserve">
<g>
	<g>
		<rect x="5.4" y="49.6" width="53.4" height="10.7"/>
	</g>
	<g>
		<g>
			<rect x="48" y="3.8" style="fill:#0000FF;" width="10.7" height="45.6"/>
		</g>
		<g>
			<rect x="37.3" y="3.8" style="fill:#FF0080;" width="10.7" height="45.6"/>
		</g>
		<g>
			<rect x="15.9" y="3.8" style="fill:#FFFF00;" width="10.7" height="45.6"/>
		</g>
		<g>
			<rect x="26.6" y="3.8" style="fill:#00FF80;" width="10.7" height="45.6"/>
		</g>
		<g>
			<rect x="5.2" y="3.9" style="fill:#DEDEDE;" width="10.7" height="45.6"/>
		</g>
	</g>
	<g>
		<rect x="16" y="49.5" style="fill:#FFFFFF;" width="10.7" height="10.7"/>
	</g>
	<g>
		<g>
			<polygon style="fill:#231F20;" points="59.2,60.7 4.8,60.7 4.8,3.4 16,3.4 26.7,3.3 59.2,3.3 59.2,49.4 58.2,49.4 58.2,4.3 
				26.7,4.3 16,4.4 5.8,4.4 5.8,59.7 58.2,59.7 58.2,49.5 59.2,49.5 			"/>
		</g>
	</g>
</g>
</svg>
