<?xml version="1.0" encoding="utf-8"?>
<!-- Generator: Adobe Illustrator 22.0.0, SVG Export Plug-In . SVG Version: 6.00 Build 0)  -->
<svg version="1.1" id="Layer_1" xmlns="http://www.w3.org/2000/svg" xmlns:xlink="http://www.w3.org/1999/xlink" x="0px" y="0px"
	 viewBox="0 0 64 64" enable-background="new 0 0 64 64" xml:space="preserve">
<path fill="none" stroke="#4A494A" stroke-width="2" stroke-linecap="round" stroke-miterlimit="10" d="M4.4,33.4
	c-0.9-0.5-1.6,0.4-1.6,0.4"/>
<path fill="none" stroke="#4A494A" stroke-width="2" stroke-linecap="round" stroke-miterlimit="10" d="M2.5,32.1
	c0.2-0.8,0.7-0.5,0.7-0.5"/>
<path fill="#FFFF00" stroke="#000000" stroke-width="1.5" stroke-miterlimit="10" d="M7.9,17.5l9.3,7.9l4-4.8L12,12.7l-0.1-0.1
	c-0.6-0.5-1.9,0.2-3.1,1.5s-1.6,2.8-1,3.3L7.9,17.5z"/>
<path fill="#AFAEAE" stroke="#000000" stroke-width="1.5" stroke-miterlimit="10" d="M23.1,7.3C7.4,14.9,4.8,29.2,4.8,29.2
	c7.4,15.5,22,18.8,22,18.8c15.7-7.6,18.5-22.3,18.5-22.3L23.1,7.3z"/>
<path fill="#DEDEDE" stroke="#000000" stroke-width="1.5" stroke-miterlimit="10" d="M2.6,29.3c0.5-0.7,1.1-1.3,1.8-1.8h0.1
	c0.1,0,0.2,0.1,0.3,0.2c0.2,3.2,3.7,8.4,9,12.9c5.8,4.9,11.5,7.9,14.4,7c0.1,0,0.2,0,0.3,0.1c0.1,0.1,0.1,0.3,0,0.4L27,50
	c-2.2,2.6-9.2,0.1-16-5.7S0.4,31.8,2.6,29.3L2.6,29.3z"/>
<path fill="#DEDEDE" d="M31.9,19.1c6.8,5.8,14.1,8.4,16.3,5.8c0.2-0.3,0.4-0.6,0.5-0.9c0.8-3-2.8-9-8.9-14.1S27.2,2,24.4,3.4
	C24,3.5,23.7,3.7,23.5,4C21.3,6.6,25.1,13.3,31.9,19.1z"/>
<path fill="#C6C6C6" d="M32,19.2c6.8,5.8,14.1,8.4,16.3,5.8c0.2-0.3,0.4-0.6,0.5-1c-2.3,0.7-8.4-2.4-14.4-7.5s-10.1-10.6-9.8-13
	c-0.3,0.2-0.6,0.4-0.9,0.6C21.5,6.7,25.2,13.4,32,19.2z"/>
<path d="M31.7,19.3c-7-5.9-10.7-12.7-8.4-15.5c0.3-0.3,0.6-0.6,0.9-0.7c3-1.4,9.6,1.3,15.7,6.4s9.9,11.2,9,14.4
	c-0.1,0.4-0.3,0.8-0.6,1.1C46,27.7,38.7,25.2,31.7,19.3z M24.6,10.2c1.6,2.8,4.2,5.9,7.5,8.7s6.7,4.9,9.8,6c2.9,1,5.1,1,6.1-0.2
	c0.2-0.2,0.3-0.5,0.4-0.9c0.8-3-3-8.9-8.8-13.8S27.3,2.3,24.5,3.6c-0.3,0.1-0.6,0.3-0.8,0.6C22.8,5.3,23.1,7.5,24.6,10.2z"/>
<path fill="none" stroke="#000000" stroke-width="1.5" stroke-miterlimit="10" d="M31.9,19.1c6.8,5.8,14.1,8.4,16.3,5.8
	c0.2-0.3,0.4-0.6,0.5-0.9c0.8-3-2.8-9-8.9-14.1S27.2,2,24.4,3.4C24,3.5,23.7,3.7,23.5,4C21.3,6.6,25.1,13.3,31.9,19.1z"/>
<path fill="#FFFF00" stroke="#000000" stroke-width="1.5" stroke-miterlimit="10" d="M34.6,40.1L58,59.9c0.8,0.7,2,0.6,2.7-0.2
	l1.6-1.9c0.7-0.8,0.6-2-0.2-2.7L38.7,35.4l-0.1-0.1c-0.6-0.5-1.9,0.2-3.1,1.5S33.9,39.6,34.6,40.1L34.6,40.1z"/>
</svg>
