<?xml version="1.0" encoding="utf-8"?>
<!-- Generator: Adobe Illustrator 22.0.0, SVG Export Plug-In . SVG Version: 6.00 Build 0)  -->
<svg version="1.1" id="Layer_1" xmlns="http://www.w3.org/2000/svg" xmlns:xlink="http://www.w3.org/1999/xlink" x="0px" y="0px"
	 viewBox="0 0 942 714.3" enable-background="new 0 0 942 714.3" xml:space="preserve">
<pattern  y="714.3" width="54.7" height="60" patternUnits="userSpaceOnUse" id="new_dotty" viewBox="13.7 -60 54.7 60" overflow="visible">
	<g>
		<rect x="13.7" y="-60" fill="none" width="54.7" height="60"/>
		<rect x="13.7" y="-60" fill="none" width="54.7" height="60"/>
		<circle fill="#FF0080" cx="62" cy="-37.7" r="7.3"/>
		<circle fill="#FF0080" cx="34.7" cy="-37.7" r="7.3"/>
		<circle fill="#FF0080" cx="7.3" cy="-37.7" r="7.3"/>
		<circle fill="#FF0080" cx="48.3" cy="-7.7" r="7.3"/>
		<circle fill="#FF0080" cx="21" cy="-7.7" r="7.3"/>
	</g>
</pattern>
<title>Asset 3</title>
<g id="Layer_2_1_">
	<g id="Layer_1-2">
		<pattern  id="SVGID_1_" xlink:href="#new_dotty" patternTransform="matrix(1 0 0 -1 -84.99 -16845.6191)">
		</pattern>
		<polygon opacity="0.9" fill="url(#SVGID_1_)" enable-background="new    " points="171.9,120.1 204.4,259 53.6,275.6 174,380.8 
			53.6,452.1 225.9,488.7 174,607.8 356,578.7 380.2,697 496.4,612.6 608.5,714.3 653.5,596 822.3,609.8 780.1,488 942,453.5 
			792.6,361.4 937.2,274.9 734.4,263.9 819.5,120.1 629.3,178.8 616.1,30 486,162.9 378.8,34.2 365,196.1 		"/>
		<polygon fill="#9E9E9D" points="918.1,452 763.8,359.7 916.1,265.9 745.5,229.5 787.8,107.5 616.2,121.5 570,0 456.3,103.1 
			337.5,16.8 312.8,137.5 127.5,107.9 180.3,229 0,267.4 127,342.6 3.4,450.5 161.3,467.9 127.9,610.4 320.6,534.6 334.9,702.6 
			447.5,567.5 581.3,704.1 594.8,550.3 792.5,611.3 705.1,463.6 		"/>
		
			<radialGradient id="SVGID_2_" cx="458.355" cy="364.6" r="384.8788" gradientTransform="matrix(1 0 0 -1 0 714)" gradientUnits="userSpaceOnUse">
			<stop  offset="0" style="stop-color:#00FF80"/>
			<stop  offset="0.1" style="stop-color:#00EE89"/>
			<stop  offset="0.3" style="stop-color:#00C09F"/>
			<stop  offset="0.59" style="stop-color:#0076C4"/>
			<stop  offset="0.94" style="stop-color:#0012F6"/>
			<stop  offset="1" style="stop-color:#0000FF"/>
		</radialGradient>
		<polygon fill="url(#SVGID_2_)" stroke="#000000" stroke-width="6" stroke-miterlimit="10" points="142,594.1 173.6,459.2 
			27.1,443.1 144,341 27.1,271.8 194.4,236.2 144,120.7 320.7,148.9 344.2,34 457,116 565.8,17.3 609.5,132.1 773.4,118.7 
			732.4,236.9 889.6,270.5 744.5,359.8 884.9,443.8 688.1,454.5 770.7,594.1 586,537.1 573.2,681.5 446.9,552.6 342.8,677.5 
			329.4,520.3 		"/>
		<path fill="#00FF80" d="M590,458.6c6.1,11,3,29.7-2.6,33.4c-11.6,7.7-31.8-47.8-31.8-47.8C568.4,440.5,583.8,447.6,590,458.6z"/>
		<path opacity="0.5" fill="#5D5D5D" d="M548.8,446.9c3.6-2,4-2,7.9-2.5c0,0,9.4,26.5,34.8,40.9c3.2,1.8-9.6,12.4-13.2,14.5
			L548.8,446.9z"/>
		<path d="M546,446.1l1.7-1c15.6-8.7,35.2-3.1,43.9,12.4c8.7,15.6,3.1,35.2-12.4,43.9l-1.8,1L546,446.1z M579,497
			c13.1-8.6,16.7-26.1,8.1-39.2c-7.7-11.8-22.9-16.1-35.7-10.1L579,497z"/>
		<path fill="#00FF80" d="M363.4,550.5l29.5,52.9c-14.6,8.2-33,2.9-41.2-11.7C343.5,577.1,348.8,558.7,363.4,550.5z"/>
		<path opacity="0.5" fill="#5D5D5D" d="M361,551.8c-3.3,2.5-3.5,2.9-5.4,6.3c0,0,20.5,19.2,23.6,48.3c0.4,3.7,15.2-3.8,18.5-6.3
			L361,551.8z"/>
		<path d="M349.9,592.7c-8.7-15.6-3.1-35.2,12.4-43.9l1.8-1l31.5,56.4l-1.8,1C378.3,613.8,358.6,608.2,349.9,592.7z M353.4,590.7
			c7.2,12.9,23.3,18.1,36.7,11.8l-27.5-49.2C350.2,561.4,346.2,577.8,353.4,590.7z"/>
		<path fill="#FF0080" stroke="#4A494A" stroke-width="4" stroke-miterlimit="10" d="M480,439l-22.4-21.2l4.7-29.5l9.2-5.1
			c13-7.3,29.4-2.6,36.6,10.4c0,0,0,0,0,0l7.6,13.7l-15.1,21.6L480,439z"/>
		<path fill="none" stroke="#4A494A" stroke-width="2" stroke-linecap="round" stroke-miterlimit="10" d="M493.9,421.7
			c0,0-4.9-12.2-13.9-4.7"/>
		<path fill="#00FF80" stroke="#000000" stroke-width="4" stroke-miterlimit="10" d="M338,443.8l122.5-68.4l16.9,30.2l4,29.4
			l14.2-23.5l27.8-13.9l49,87.8c28.8,51.6,3.1,103.8-48.4,132.6l-1.9,1c-51.5,28.8-109.5,23.3-138.3-28.3l-58-103.9
			C317.3,471.6,322.8,452.4,338,443.8z"/>
		<path opacity="0.5" fill="none" stroke="#5D5D5D" stroke-width="4" stroke-miterlimit="10" d="M476.9,631.5
			c-38.7,6.2-71.5-9.3-90-42.5l-58-103.9c-7.6-13.6-2.7-30.7,10.9-38.3l119.5-66.7l14.8,26.6l5.2,38.6l18.8-31.1l24-11.9l47.4,84.8
			c13.2,23.5,15.1,48.4,5.7,71.8c-8.8,22-27.6,41.9-52.8,56l-1.9,1C506.9,623.7,492.2,628.9,476.9,631.5z"/>
		<path fill="none" stroke="#000000" stroke-width="2" stroke-linecap="round" stroke-miterlimit="10" d="M502.4,537.4
			c5,9,0.7,21-9.7,26.8s-22.9,3.2-27.9-5.8"/>
		
			<ellipse transform="matrix(0.1602 -0.9871 0.9871 0.1602 -54.7923 906.0994)" opacity="0.5" fill="#5D5D5D" cx="505.1" cy="485.2" rx="42.7" ry="42.7"/>
		<circle fill="#FFFF00" stroke="#000000" stroke-width="2" stroke-miterlimit="10" cx="506.6" cy="484.4" r="33"/>
		<circle opacity="0.5" fill="#5D5D5D" cx="417.4" cy="534.3" r="42.7"/>
		<circle fill="#FFFF00" stroke="#000000" stroke-width="2" stroke-miterlimit="10" cx="417.4" cy="534.3" r="33"/>
		<path fill="none" stroke="#000000" stroke-width="2" stroke-linecap="round" stroke-miterlimit="10" d="M372.5,424.5
			c0,0,17.3-2.3,23,10c5.4,11.6,11.4,17,26.5,17.6"/>
		<path fill="none" stroke="#000000" stroke-width="2" stroke-linecap="round" stroke-miterlimit="10" d="M416.7,442.6
			c0,0-9,7.5-7.6,16.8"/>
		<path fill="none" stroke="#000000" stroke-width="2" stroke-linecap="round" stroke-miterlimit="10" d="M405.5,435.4
			c0,0-9,7.5-7.6,16.8"/>
		<path fill="none" stroke="#000000" stroke-width="2" stroke-linecap="round" stroke-miterlimit="10" d="M401.1,425.4
			c0,0-10.4,5.4-11.1,14.7"/>
		<path fill="none" stroke="#000000" stroke-width="2" stroke-linecap="round" stroke-miterlimit="10" d="M390.4,418.4
			c0,0-9.9,6.2-9.8,15.6"/>
		<path fill="none" stroke="#4A494A" stroke-width="2" stroke-linecap="round" stroke-miterlimit="10" d="M486.3,390.3
			c0,0,4.4-6-0.3-10.5"/>
		<path fill="none" stroke="#4A494A" stroke-width="2" stroke-linecap="round" stroke-miterlimit="10" d="M476.6,390.4
			c0,0,4.9,12.2,13.9,4.7"/>
		<path fill="none" stroke="#4A494A" stroke-width="2" stroke-linecap="round" stroke-miterlimit="10" d="M509.5,396
			c0,0-8.6-4.1-10.6,4c-1.8,7.4-8.4,3.4-9,2.7"/>
		<path fill="none" stroke="#4A494A" stroke-width="2" stroke-linecap="round" stroke-miterlimit="10" d="M499.2,384.1
			c0,0,2.4,2.8-2,5.5"/>
		<path d="M466.3,612.6c5-2.8,5.7-10.9,1.6-18.2s-22,2.7-17.9,10S461.3,615.3,466.3,612.6z"/>
		
			<ellipse transform="matrix(0.873 -0.4877 0.4877 0.873 -178.6703 234.3905)" opacity="0.5" fill="#5D5D5D" cx="360.7" cy="460.3" rx="6.9" ry="9.7"/>
		
			<ellipse transform="matrix(0.873 -0.4877 0.4877 0.873 -187.2279 240.1479)" opacity="0.5" fill="#5D5D5D" cx="367.5" cy="479.6" rx="3.5" ry="2.6"/>
		
			<ellipse transform="matrix(0.873 -0.4877 0.4877 0.873 -187.9976 233.462)" opacity="0.5" fill="#5D5D5D" cx="354.3" cy="477.7" rx="5.8" ry="5.1"/>
		<path fill="none" stroke="#000000" stroke-width="3" stroke-linecap="round" stroke-miterlimit="10" d="M499.5,497.2
			c13.8,5.1,23-5.4,23-15.8c0-8-8-13.8-16-13.3c-6.4,0.4-11.2,6-10.8,12.4c0.3,5.1,4.8,9,9.9,8.6c4.1-0.3,7.2-3.8,6.9-7.9
			c0,0,0,0,0,0c-0.2-3.3-3-5.7-6.3-5.5c0,0,0,0,0,0"/>
		
			<line fill="none" stroke="#000000" stroke-width="3" stroke-linecap="round" stroke-miterlimit="10" x1="412.5" y1="552.7" x2="422.7" y2="516.8"/>
		
			<line fill="none" stroke="#000000" stroke-width="3" stroke-linecap="round" stroke-miterlimit="10" x1="435.6" y1="539.8" x2="399.7" y2="529.7"/>
		<path fill="#D8D8D8" stroke="#000000" stroke-miterlimit="10" d="M524.5,535.2l0.1-0.1c2.5-4,7.8-5.3,11.8-2.7l23.2,14.5
			c4,2.5,5.3,7.8,2.7,11.8l-0.1,0.1c-2.5,4-7.8,5.3-11.8,2.7L527.3,547C523.2,544.5,522,539.2,524.5,535.2z"/>
		<path fill="#D8D8D8" stroke="#000000" stroke-miterlimit="10" d="M528.9,554l14.5-23.2c2.5-4,7.8-5.3,11.8-2.7l0.1,0.1
			c4,2.5,5.3,7.8,2.7,11.8l-14.5,23.2c-2.5,4-7.8,5.3-11.8,2.7l-0.1-0.1C527.6,563.3,526.3,558,528.9,554z"/>
		<circle fill="#7C7C7C" cx="550.5" cy="544.3" r="1.3"/>
		<circle fill="#7C7C7C" cx="546.6" cy="541.9" r="1.3"/>
		<circle fill="#7C7C7C" cx="542.7" cy="539.5" r="1.3"/>
		<circle fill="#7C7C7C" cx="547.7" cy="548.8" r="1.3"/>
		<circle fill="#7C7C7C" cx="543.8" cy="546.4" r="1.3"/>
		<circle fill="#7C7C7C" cx="539.9" cy="543.9" r="1.3"/>
		<circle fill="#7C7C7C" cx="544.9" cy="553.2" r="1.3"/>
		<circle fill="#7C7C7C" cx="541" cy="550.8" r="1.3"/>
		<circle fill="#7C7C7C" cx="537.1" cy="548.4" r="1.3"/>
		<path fill="#BF854A" stroke="#4A494A" stroke-width="4" stroke-miterlimit="10" d="M580.7,331.2c4,2.8,12.4-2.5,18.8-11.8
			s8.3-19,4.3-21.8L603,297l-65.5-45.1l-23.2,33.6l65.5,45.1L580.7,331.2z"/>
		<path fill="#AFAEAE" stroke="#000000" stroke-width="4" stroke-miterlimit="10" d="M464.5,109.7c0,0-87.1,43-108.4,154.5
			c0,0,45.4,86,155.6,105.9c0,0,85.4-40.8,106.7-152.2L464.5,109.7z"/>
		<path fill="#D8D8D8" stroke="#000000" stroke-width="4" stroke-miterlimit="10" d="M515.1,384c-12.5,18.1-61.3,6-109.2-27
			s-75.5-72.7-63-90.8l10.2-13.4c0.6-0.8,1.9-1,2.7-0.4c0.5,0.4,0.8,0.9,0.8,1.5c-0.1,19.8,28.3,50.7,69,78.7
			c37.4,25.8,75.4,38.8,96.2,34.6c0.8-0.2,1.6,0.3,1.8,1.2c0.1,0.3,0,0.6-0.1,0.8c-2,5.4-4.9,10.3-8.5,14.7L515.1,384z"/>
		<path fill="#FFFFFF" d="M638.3,209.5c1.3-2,2.2-4.2,2.6-6.5c3.6-20.3-23.9-56.5-66.7-85.9s-86.4-42.2-104-31.7
			c-2,1.2-3.8,2.8-5.1,4.7c-12.5,18.1,16.2,59.5,64.1,92.4S625.9,227.6,638.3,209.5z"/>
		<path fill="#D8D8D8" d="M637.3,208.8c1.3-1.9,2.2-4.2,2.6-6.5c-14.5,6-55.8-10.2-98.6-39.6s-72.6-62.2-72.1-78
			c-2,1.2-3.8,2.8-5.2,4.7c-12.5,18.1,16.2,59.5,64.1,92.4S624.8,226.9,637.3,208.8z"/>
		<path d="M463.6,89.1c1.5-2.1,3.4-3.9,5.7-5.3c18.6-11.1,63.2,2.2,106,31.8s71.2,66.4,67.4,87.8c-0.4,2.6-1.4,5-2.9,7.2
			c-13.2,19.2-62.3,7.6-111.7-26.5S450.4,108.3,463.6,89.1z M636.8,208.4c1.2-1.7,2-3.7,2.3-5.8c3.5-19.7-24.9-55.9-65.9-84.1
			s-84.9-41.9-102.1-31.6c-1.8,1.1-3.4,2.5-4.6,4.2c-5.5,8-2,22,9.4,38.6c12,17.3,31.2,35.5,54.2,51.3c23,15.8,46.9,27.3,67.3,32.4
			C617,218.2,631.4,216.4,636.8,208.4z"/>
		<path fill="#8C8C8C" stroke="#000000" stroke-width="4" stroke-miterlimit="10" d="M392.8,201.7c4,2.7,12.4-2.6,18.8-11.9
			s8.4-19,4.4-21.8l-0.9-0.6L250.7,54.2c-5.7-3.9-13.4-2.5-17.4,3.2l-9,13.1c-3.9,5.7-2.5,13.5,3.2,17.4l164.4,113.3L392.8,201.7z"
			/>
		<path d="M857.8,264.8c-9.6-1.6-22.1-3.4-34.5-3.4c-4.6,0-9.1,0.3-13.7,0.8l-1.2,0.2l-0.6,1.1c-7.6,15-22.5,63.5-29,94.2l-0.7,3.1
			l3.1-0.2c2.6-0.2,5-0.3,7.5-0.3c6.5,0.1,13.1,0.6,19.5,1.7l1.8,0.3l0.8-1.6c6.7-14.5,26.9-58.4,48.7-92.3l2-3L857.8,264.8z"/>
		<path d="M810.3,373.6c-3.3-4.9-9.1-8.1-15.9-8.6c-1-0.1-2.1-0.2-3.2-0.2c-8.2,0.1-16,3.4-21.7,9.3c-12.4,3.1-27.9,6.1-38.6,7.9
			c0.2-1.2,0.4-2.5,0.6-3.7c0.6-4.1,1.3-8.1,1.8-12.3c11.1-2.4,31.8-6,43.1-7l1.8-0.2l0.3-1.8c2-10.7,3.1-18.5,4.2-28.7l0.3-3
			l-3,0.4c-6.5,0.8-27.7,3.7-42.3,7.7c0.9-6.6,1.7-12.4,2.6-17.6c15.6-3.8,31.4-6.8,47.3-8.8l1.7-0.2l0.3-1.7
			c3.2-15.5,6.2-29.4,8.9-41.4l0.7-3.3l-3.3,0.4c-11.6,1.5-50.5,6.9-81.7,15.5c1-3.1,2.1-6.2,3.1-9.3l1-3l-3.2-0.1
			c-5.5-0.2-11.6-0.4-17.8-0.4c-12,0-21.5,0.8-30,2.4l-1.4,0.3l-0.4,1.3c-7.1,21.4-13.5,42.8-19.8,65.5c2.1-21.3,4.1-41.3,6-59
			l0.3-2.5l-2.5-0.1c-5.5-0.3-9.4-0.5-13-0.5c-7.4,0-14.8,0.7-22.1,1.9l-1.1,0.2l-0.6,1c-4.7,7.9-9.5,16.8-14.1,25.4
			c-3.8,7.1-7.7,14.5-11.7,21.3c-1.6-15-3.1-32.7-4.1-46.1l-0.2-2.1l-2.1-0.1c-5.5-0.3-10-0.4-14.3-0.4c-7,0-14,0.4-21,1.2l-1.3,0.1
			l-0.5,1.2c-11.6,26.1-20.7,51.4-29.2,76.1c3.2-28.1,6.3-54.6,9.2-77.6l0.3-2.5l-2.5-0.2c-7.5-0.5-12.8-0.8-17.5-0.8
			c-7.7,0-15.4,0.6-23,1.8l-1.1,0.1l-0.6,1c-5.6,9-11.3,19.3-16.8,29.2c-4.8,8.5-9.6,17.3-14.5,25.4c-1.6-17.6-3-38.7-4-54.7
			l-0.1-2.1l-2.1-0.1c-8-0.5-14.3-0.8-20.3-0.8c-6.9,0-13.4,0.3-20.5,1l-1.4,0.1l-0.6,1.2c-14.4,31.1-25.7,61-35.9,89.4
			c-2.2-16.2-4.6-32.6-6.9-48.6c-1.3-9.3-2.7-18.5-4-27.7l-0.3-2.2l-2.2,0.2c-13,1.1-25.9,3-38.6,5.7c1.6-2.8,3.2-5.6,4.8-8.3
			l1.9-3.3l-3.8-0.2c-8.9-0.6-18.8-0.9-29.5-0.9c-9,0-18.6,0.2-28.6,0.6l-1.5,0.1l-0.6,1.4C243,301.6,231,328.7,218,354.2
			c0.2-23.9,1.3-51.1,2.9-71.9l0.2-2.5h-2.5c-2.7-0.1-5.3-0.1-8-0.1c-8.2-0.1-16.3,0.3-24.4,1.1l-1.3,0.1l-6.8,13
			c-10.8,20.8-21.8,42.2-32.9,62.6c2.5-30.9,5.6-56.4,9.2-76l0.5-2.7l-2.7-0.1c-4.7-0.2-9.4-0.3-14-0.3c-12.4,0-24.8,0.7-37.1,2
			l-2,0.2l-0.1,2C95.1,338,93.5,398.6,94.6,457v2.6l2.6-0.3c7.2-0.9,14.4-1.3,21.6-1.3c3.5,0,7.4,0.1,12.9,0.3l1.4,0.1l0.7-1.2
			c3.5-5.9,7.4-12.2,11.4-18.8c9.3-15.3,19.6-32.3,28.1-47.4c-1.2,25-1.2,47.8-1.2,65v2.6l2.6-0.2c8.8-0.8,16-1.1,23.4-1.1
			c4.4,0,8.8,0.1,13.5,0.4l1.4,0.1l0.7-1.2c21.6-34,40.8-67.5,59-100.2c-8.2,25.9-16.1,51.8-23.7,77.1l-5.2,17.3l3.9-0.9
			c11.8-2.6,23.9-4.2,36-4.8l1.5-0.1l0.6-1.4c2.4-5.7,4.4-11.4,6.4-16.9c0.7-2,1.4-4,2.1-6c9-1.9,16.9-3.1,24.5-4.3
			c2.5-0.4,5.1-0.8,7.6-1.2c0.8,7.8,1.7,15.7,2.1,23.2l0.2,2.9l2.8-0.7c12.1-3.1,26.1-4.5,37.4-5.6l2.3-0.2l-0.2-2.3
			c-0.5-5.5-1-11.3-1.7-17.6c4.7,0.1,9.1,0.4,13.4,0.9l1.8,0.2l0.7-1.7c2.5-6.4,4.8-12.7,7.2-19.4c4.6-12.7,9.4-25.8,15.6-39.9
			c0.3,19.5,1.5,40.5,3.3,58.1l0.2,2.3l2.3-0.2c4.6-0.4,7.6-0.6,10.8-0.6c2.7,0,5.7,0.1,10.3,0.4l1.4,0.1l0.7-1.2
			c9.3-15.1,18.1-31.6,26.7-47.5c2.1-3.9,4.3-7.9,6.4-11.9c-0.8,13.9-1.5,29.9-2.2,44.3c-0.2,5-0.5,9.9-0.7,14.3l-0.1,2.6l5.9-0.3
			c8.5-0.4,15.9-0.8,23.9-0.8c2.7,0,5.4,0,8,0.1l2.2,0.1l0.2-2.2c0.5-4.4,1-8.9,1.5-13.4c4.1-0.2,7.7-0.4,11.1-0.4
			c4.2,0,8.1,0.2,12,0.5l1.8,0.2l0.6-1.7c2-5.5,3.9-11,6-16.9c3.7-10.6,7.4-21.6,12.3-33.2c0.6,16.4,1.9,33.9,3.6,48.6l0.3,2.3
			l2.3-0.2c6-0.7,12.1-0.9,18.2-0.5l1.4,0.1l0.7-1.2c7.8-13.2,15.2-27.5,22.3-41.4c1.5-3,3.1-6,4.7-9.1c-0.5,11.6-0.8,24.8-1.2,36.8
			c-0.1,4.4-0.2,8.5-0.4,12.4l-0.1,2.6l5.2-0.3c7-0.5,13.2-0.9,19.8-1c-1.7,7.3-3.5,14.8-5.3,22.5l-0.7,3.2l3.3-0.4
			c13.7-1.3,27.6-1.3,41.3,0.2l2,0.2l4.9-16.8c6.8-23.4,13.3-45.9,20.1-68.5c-2.3,22.3-4.1,44-5.9,66.6c-0.6,7-1.1,14-1.7,21.1
			l-0.2,3l3-0.5l12.1-1.9c19-2.9,45.1-7,65.7-11.6l1.3-0.3l0.4-1.3c0.8-2.5,1.6-4.9,2.4-7.5c3,1.7,6.3,2.7,9.7,3.1
			c0.8,0.1,1.6,0.1,2.3,0.1c12.6,0,24.7-8.2,28-19.1C814,383.8,813.3,378.1,810.3,373.6z M302.9,378.1c1.4-3.7,2.8-7.4,4.1-11.1
			c4.2-11.2,8.4-22.7,13.1-33.8c2.7,14.1,5.3,28.6,7,42C318.9,375.7,310.9,376.7,302.9,378.1L302.9,378.1z"/>
		
			<linearGradient id="SVGID_3_" gradientUnits="userSpaceOnUse" x1="473.9883" y1="460.16" x2="473.9883" y2="266.38" gradientTransform="matrix(1 0 0 -1 0 714)">
			<stop  offset="0" style="stop-color:#FF0080"/>
			<stop  offset="0.14" style="stop-color:#FC0082"/>
			<stop  offset="0.26" style="stop-color:#F10087"/>
			<stop  offset="0.37" style="stop-color:#E00090"/>
			<stop  offset="0.48" style="stop-color:#C7009C"/>
			<stop  offset="0.59" style="stop-color:#A700AC"/>
			<stop  offset="0.69" style="stop-color:#8000BF"/>
			<stop  offset="0.79" style="stop-color:#5100D7"/>
			<stop  offset="0.88" style="stop-color:#1D00F1"/>
			<stop  offset="0.93" style="stop-color:#0000FF"/>
		</linearGradient>
		<path fill="url(#SVGID_3_)" d="M791.1,357.9c-8.7-0.8-17.3,2.4-23.3,8.8c-13.8,3.5-31.9,7-42.6,8.7c1-7.1,2.2-13.7,3-20.8
			c14.9-3.2,29.9-5.7,45-7.4c1.9-10.5,3-18.2,4.2-28.5c-11.7,1.5-32.7,4.6-45.4,8.7c1-7.5,2.1-15.5,3.3-22.8
			c16.2-4,32.6-7.1,49.1-9.3c2.8-13.6,5.9-28,8.9-41.4c-24.8,3.2-59.8,9.1-85.6,16.6c1.5-4.5,3-9,4.5-13.6c-15.3-0.5-32-1-47.3,2
			c-10.8,32.6-19.5,63.1-27.2,93.5c2.8-29.1,5.9-60,8.8-88c-13.8-0.8-21-0.7-34.6,1.4c-9.7,16.3-19.4,36.5-29.3,52.8
			c-2-16.1-3.7-37.3-5-53.2c-11.6-0.8-23.3-0.5-34.9,0.8c-14.5,32.6-24.9,63.3-36.2,96.8c3.7-33,7.8-68,11.7-99.5
			c-15.9-1.2-24.4-1.2-40.1,1c-11.6,18.7-23.2,41.9-35,60.5c-2-18.7-3.5-43.2-4.7-61.7c-13.5-1.1-27-1-40.5,0.2
			c-15.4,33.1-27.1,64.7-39.1,98.3c-3.8-28.6-8.1-57.5-12.2-85.9c-14.5,1.4-28.6,3.2-43.5,6.9c2.5-4.3,4.9-8.7,7.4-13
			c-19.3-1.1-38.6-1.1-57.9-0.2c-11.8,27-25.2,57.4-40,85.3c0-23.3,1-55.9,2.9-81.9c-10.7-0.3-21.4,0-32.1,1
			c-14,27-29.4,57.1-44.4,84.3c2-26.7,5.1-60.5,10-87.3c-16.9-0.7-33.9-0.1-50.7,1.7c-4.2,59.6-5.4,120.1-4.4,175
			c13.5-1.5,21.6-1.5,34.8-1c13.5-22.6,32.1-52.2,44.4-75.3c-1.7,28.9-1.7,56.1-1.7,75.3c12.4-1.1,24.8-1.4,37.3-0.7
			c26.1-41,48.4-81.1,70.7-121.1c-12.5,37.9-24.1,76.8-35.2,113.4c12-2.6,24.1-4.2,36.4-4.9c3.5-8.1,6.1-16.2,8.9-24
			c13.6-2.9,24.5-4.3,36-6.2c0.9,8.5,1.9,17.4,2.4,25.8c11.9-3,25.5-4.4,37.7-5.7c-0.6-6.7-1.2-13.4-2-20.2c5.4,0,10.9,0.3,16.2,0.9
			c8.2-21.2,15.1-43.6,27.3-69c0,21.2,1.2,47,3.4,68.4c9-0.8,11.4-0.8,21.4-0.2c13.4-21.8,25.8-46.2,38.1-68.6
			c-1.4,20.2-2.5,48.5-3.5,69.2c12.6-0.6,23-1.2,35.4-0.8c0.5-5,1.1-10.1,1.7-15.4c8.5-0.7,17-0.7,25.5,0.1
			c6.8-18.4,12.4-37.9,22.6-59.9c0.3,18.3,1.7,40.5,3.9,59c6.1-0.8,12.3-0.9,18.5-0.5c11.2-19,21.5-40.2,31.9-59.7
			c-0.9,17.5-1.5,41.9-2,59.8c9.1-0.6,16.9-1.1,25.5-1.2c-2,8.4-4,16.9-6,25.5c13.9-1.3,27.9-1.3,41.8,0.1
			c10.8-37.3,20.8-72.2,32-108.2c-4.9,38.9-7.4,75.4-10.6,113.3c18.2-2.9,52.3-7.8,77.7-13.4c1.2-3.6,2.3-7,3.3-10.5
			c3.2,2.6,7.1,4.1,11.2,4.5c12.1,1,24.6-6.6,27.9-17.4C810.4,368.2,803.1,358.9,791.1,357.9z M296.2,371.8
			c6.9-18,13.7-37.6,21.7-56c3.3,17,6.8,35.5,8.8,52.3C316.6,368.6,306.3,369.8,296.2,371.8z M778.1,349
			c6.5-30.4,21.3-78.7,28.8-93.7c15.8-2.1,33.1,0.2,47.5,2.5c-19.9,30.9-38.3,69.6-48.8,92.6C796.5,348.9,787.3,348.4,778.1,349z"/>
		<path d="M91.7,450.2v-2.6c-1-58.4,0.5-119,4.4-175.2l0.1-2l2-0.2c12.3-1.3,24.7-2,37.1-2c4.6,0,9.3,0.1,14,0.3l2.7,0.1l-0.5,2.7
			c-3.6,19.6-6.7,45.1-9.2,76c11-20.4,22.1-41.8,32.9-62.6l6.8-13.1l1.3-0.1c8.1-0.8,16.3-1.1,24.4-1.1c2.6,0,5.3,0,8,0.1l2.5,0.1
			l-0.2,2.5c-1.6,20.8-2.6,48-2.9,71.9c13-25.5,25-52.6,35.4-76.4l0.6-1.4l1.5-0.1c10.1-0.4,19.7-0.6,28.6-0.6
			c10.6,0,20.5,0.3,29.5,0.9l3.8,0.2l-1.9,3.3c-1.6,2.8-3.2,5.6-4.8,8.4c12.8-2.7,25.7-4.6,38.6-5.7l2.3-0.2l0.3,2.2
			c1.3,9.2,2.6,18.4,4,27.7c2.3,16,4.7,32.4,6.9,48.6c10.2-28.3,21.5-58.3,35.9-89.4l0.6-1.2l1.4-0.1c7.2-0.7,13.7-1,20.5-1
			c6.1,0,12.3,0.2,20.3,0.8l2.1,0.1l0.1,2.1c1,15.9,2.4,37.1,4,54.7c4.9-8.1,9.8-16.9,14.5-25.4c5.5-9.9,11.2-20.1,16.8-29.2
			l0.6-0.9l1.1-0.1c7.6-1.2,15.3-1.8,23-1.8c4.8,0,10,0.2,17.6,0.8l2.5,0.2l-0.3,2.5c-2.8,23-6,49.5-9.2,77.6
			c8.4-24.7,17.6-50,29.2-76.1l0.5-1.2l1.3-0.1c7-0.8,14-1.2,21-1.2c4.3,0,8.8,0.1,14.3,0.4l2.1,0.1l0.2,2.1
			c1.1,13.4,2.5,31.1,4.2,46.1c3.9-6.8,7.8-14.1,11.7-21.3c4.6-8.6,9.4-17.6,14.1-25.4l0.6-1l1.1-0.2c7.3-1.2,14.7-1.9,22.1-1.9
			c3.6,0,7.5,0.1,13,0.5l2.5,0.1l-0.3,2.5c-1.9,17.7-3.9,37.8-6,59c6.3-22.8,12.7-44.1,19.8-65.5l0.4-1.3l1.4-0.3
			c8.5-1.6,18-2.4,30-2.4c6.2,0,12.4,0.2,17.8,0.4l3.2,0.1l-1,3c-1.1,3.1-2.1,6.2-3.1,9.3c31.2-8.6,70.1-14,81.7-15.5l3.4-0.4
			l-0.8,3.3c-2.7,12-5.7,25.9-8.9,41.4l-0.3,1.7l-1.7,0.2c-15.9,2.1-31.7,5-47.3,8.8c-0.8,5.2-1.7,11-2.6,17.6
			c14.6-4,35.7-6.9,42.3-7.7l3-0.4l-0.3,3c-1.1,10.2-2.3,18-4.2,28.7l-0.3,1.8l-1.8,0.2c-11.3,1-32,4.5-43.1,7
			c-0.5,4.2-1.1,8.1-1.8,12.3c-0.2,1.2-0.4,2.5-0.6,3.7c10.7-1.8,26.2-4.9,38.6-8c5.7-5.8,13.5-9.1,21.7-9.2c1.1,0,2.1,0.1,3.2,0.2
			c6.8,0.6,12.6,3.7,15.9,8.6c3,4.6,3.7,10.3,1.9,15.5c-3.3,10.9-15.3,19.1-28,19.1c-0.8,0-1.6,0-2.3-0.1c-3.4-0.4-6.7-1.4-9.7-3.1
			c-0.8,2.5-1.6,5-2.4,7.5l-0.4,1.3l-1.3,0.3c-20.5,4.6-46.6,8.6-65.7,11.6c-4.5,0.7-8.6,1.3-12.2,1.9l-3,0.5l0.2-3
			c0.6-7.1,1.1-14.1,1.7-21.1c1.8-22.6,3.5-44.3,5.9-66.6c-6.8,22.6-13.3,45.1-20.1,68.5l-4.9,16.8l-2-0.2
			c-13.7-1.4-27.6-1.5-41.3-0.1l-3.3,0.4l0.7-3.2c1.8-7.7,3.5-15.3,5.3-22.5c-6.6,0.1-12.8,0.5-19.8,1l-5.2,0.3l0.1-2.6
			c0.1-3.9,0.2-8.1,0.4-12.4c0.3-12,0.7-25.1,1.2-36.8c-1.6,3-3.2,6.1-4.7,9.1c-7.2,13.9-14.6,28.2-22.3,41.4l-0.7,1.2l-1.4-0.1
			c-6-0.4-12.1-0.3-18.1,0.5l-2.3,0.2l-0.3-2.3c-1.7-14.7-3-32.2-3.6-48.6c-4.9,11.7-8.7,22.6-12.3,33.3c-2,5.8-3.9,11.3-6,16.9
			l-0.6,1.7L529,390c-3.9-0.4-7.8-0.5-12-0.5c-3.4,0-7,0.1-11.1,0.4c-0.5,4.5-1,9-1.5,13.4l-0.2,2.2l-2.2-0.1
			c-2.7-0.1-5.3-0.1-8-0.1c-8,0-15.3,0.4-23.9,0.8l-5.9,0.3l0.1-2.6c0.2-4.5,0.4-9.3,0.7-14.3c0.7-14.5,1.4-30.4,2.2-44.3
			c-2.2,4-4.3,8-6.4,11.9c-8.6,15.9-17.4,32.3-26.7,47.5l-0.7,1.2l-1.4-0.1c-4.6-0.3-7.6-0.4-10.3-0.4c-3.2,0-6.1,0.2-10.8,0.6
			l-2.3,0.2l-0.2-2.3c-1.9-17.6-3-38.6-3.3-58.1c-6.2,14-11,27.1-15.6,39.9c-2.5,6.7-4.8,13.1-7.2,19.4l-0.7,1.7l-1.8-0.2
			c-4.3-0.5-8.7-0.8-13.4-0.9c0.6,6.3,1.2,12,1.7,17.6l0.2,2.3l-2.3,0.2c-11.3,1.1-25.3,2.5-37.4,5.6l-2.8,0.7l-0.2-2.9
			c-0.5-7.5-1.3-15.5-2.1-23.2l-7.6,1.2c-7.6,1.2-15.5,2.5-24.5,4.3c-0.7,2-1.4,4-2.1,6c-2,5.5-4,11.2-6.4,16.9l-0.6,1.4l-1.5,0.1
			c-12.1,0.6-24.2,2.2-36,4.8l-4,0.9l5.3-17.2c7.6-25.3,15.5-51.3,23.7-77.1c-18.3,32.7-37.4,66.2-59.1,100.2l-0.7,1.2l-1.4-0.1
			c-4.7-0.2-9.1-0.4-13.5-0.4c-7.4,0-14.6,0.3-23.4,1.1l-2.6,0.2v-2.6c0-17.2,0-40,1.2-65c-8.4,15.1-18.8,32.1-28.1,47.4
			c-4,6.6-7.9,12.9-11.4,18.8l-0.7,1.2h-1.4c-5.5-0.2-9.4-0.3-12.9-0.3c-7.2,0-14.4,0.4-21.6,1.3L91.7,450.2z M100.7,274.7
			c-3.8,54.7-5.3,113.5-4.4,170.3c6.5-0.7,13-1,19.5-1c3.3,0,6.8,0.1,11.7,0.2c3.3-5.5,6.9-11.5,10.7-17.6
			c11.2-18.4,23.9-39.3,32.9-56.3l4.4,1.2c-1.6,27.6-1.7,53.3-1.7,72.6c7.8-0.6,14.4-0.9,21.3-0.9c4,0,8.1,0.1,12.4,0.3
			c25.9-40.9,48.3-81,69.9-119.9l4.3,1.9c-11,33.3-21.2,67.2-31.1,100l-2.9,9.5c10.3-2.1,20.8-3.4,31.4-4c2.1-5.1,3.9-10.2,5.7-15.2
			c0.9-2.5,1.7-4.9,2.6-7.3l0.5-1.2l1.3-0.3c9.7-2,18-3.3,26-4.6c3.4-0.5,6.7-1.1,10-1.6l2.5-0.4l0.3,3.1c0.8,7.4,1.6,15.1,2.2,22.5
			c10.9-2.5,22.9-3.8,33-4.8c-0.5-5.6-1.1-11.4-1.7-17.8l-0.3-2.6h2.6c5.2,0,10,0.3,14.7,0.7c2.2-5.8,4.3-11.6,6.5-17.7
			c5.7-15.7,11.6-31.9,20.2-49.8l4.5,1c0,21.2,1.1,45.6,3.1,65.9c6-0.5,12-0.6,18-0.1c8.9-14.7,17.5-30.6,25.8-46
			c3.8-7,7.7-14.3,11.5-21.3l4.4,1.3c-1.1,15.8-2,36.5-2.9,54.8c-0.2,4.1-0.4,8-0.5,11.7h0.7c8.6-0.4,16-0.8,24.1-0.8c2,0,4,0,6,0.1
			c0.5-4.3,1-8.7,1.5-13.2l0.2-2l2-0.1c5.1-0.3,9.4-0.5,13.4-0.5c3.7,0,7.2,0.1,10.7,0.4c1.8-4.9,3.5-9.9,5.3-15.1
			c4.7-13.6,9.6-27.8,16.7-43.3l4.5,1c0.3,18.2,1.6,39.1,3.6,56.4c5-0.5,10.1-0.6,15.1-0.3c7.5-12.7,14.6-26.5,21.5-39.9
			c3.2-6.1,6.4-12.5,9.7-18.5l4.5,1.2c-0.7,13.6-1.2,31.5-1.7,47.3c-0.1,3.4-0.2,6.7-0.3,9.8c8.2-0.5,15.2-1,23.1-1h3l-0.7,2.9
			c-1.7,7.1-3.5,14.6-5.2,22.3c12.3-1,24.7-0.9,37,0.3l3.8-13.2c9.2-32,18-62.1,27.7-93.3l4.6,1c-4,31.6-6.4,61-8.8,92.1
			c-0.5,6-1,12-1.5,18.1l9.2-1.4c18.6-2.9,43.9-6.8,64-11.2c1-3,1.9-6,2.9-9.1l1-3.4l2.7,2.2c2.9,2.3,6.4,3.6,10,4
			c0.6,0,1.2,0.1,1.9,0.1c10.6,0,20.7-6.8,23.5-15.8c1.4-3.8,0.9-8-1.3-11.4c-2.5-3.7-7-6.1-12.5-6.6c-0.9-0.1-1.8-0.1-2.7-0.1
			c-7.1,0.1-13.9,3-18.7,8.2l-0.5,0.5l-0.7,0.2c-13.9,3.5-32,7-42.8,8.7l-3.2,0.5l0.5-3.2c0.3-2.4,0.7-4.7,1.1-7
			c0.7-4.7,1.4-9.1,2-13.8l0.2-1.6l1.6-0.4c10.2-2.4,31.2-6,43.5-7.3c1.5-8.6,2.6-15.5,3.5-23.6c-9.3,1.2-29.5,4.2-42,8.2l-3.5,1.1
			l0.5-3.7c1.2-8.9,2.2-16.4,3.3-22.9l0.2-1.5l1.5-0.4c15.7-3.9,31.6-7,47.7-9.1c2.8-13.4,5.4-25.7,7.8-36.5
			c-15.2,2-52.9,7.7-81.9,16.1L704,274l1.4-4.3c1.2-3.5,2.3-7,3.5-10.6c-4.6-0.1-9.5-0.3-14.5-0.3c-9.3-0.1-18.6,0.5-27.8,2
			c-9.8,29.5-18.3,58.8-26.8,92l-4.6-0.8c3-31,5.9-60.4,8.6-85.5c-4.2-0.2-7.3-0.3-10.3-0.3c-6.8,0-13.5,0.6-20.2,1.7
			c-4.5,7.5-9,16-13.4,24.3c-5,9.3-10.2,19-15.3,27.5l-3.5,5.8l-0.8-6.8c-1.9-15.6-3.6-35.8-4.8-51.2c-4.5-0.2-8.4-0.3-12-0.3
			c-6.4,0-12.8,0.3-19.1,1c-14.5,32.9-25.2,64.7-35.5,95.4l-4.6-1c4-35.2,7.9-68.7,11.4-97.1c-6.2-0.4-10.5-0.6-14.7-0.6
			c-7.1,0-14.2,0.6-21.3,1.6c-5.4,8.7-10.8,18.5-16.1,28c-6,10.7-12.1,21.8-18.3,31.6l-3.6,5.8l-0.7-6.8
			c-1.9-18.1-3.5-41.8-4.6-59.7c-6.9-0.4-12.5-0.6-17.9-0.6c-6.3,0-12.3,0.3-18.8,0.8c-15.6,33.8-27.5,66.4-38.4,96.9l-4.6-0.5
			c-2.5-19.3-5.4-39.1-8.2-58.2c-1.2-8.5-2.5-17-3.7-25.5c-13.8,1.2-27.5,3.4-41,6.6l-5.3,1.3l2.7-4.8c1.8-3.2,3.7-6.5,5.5-9.8
			c-7.8-0.4-16.3-0.6-25.4-0.6c-8.5,0-17.5,0.2-27,0.6c-11.5,26.3-24.9,56.5-39.4,84.1l-4.4-1.1c0-25.2,1.1-56.1,2.8-79.6
			c-1.8,0-3.6,0-5.4,0c-8.7,0-16.5,0.3-22.7,0.9l-5.6,10.8c-12.5,24.1-25.4,49.1-38.2,72.4l-4.4-1.3c2.5-34.6,5.8-63.1,9.6-84.8
			C131.1,272.6,115.8,273.2,100.7,274.7L100.7,274.7z M292.7,374.8l1.5-3.9c1.9-4.9,3.7-9.9,5.6-15c5.1-13.6,10.3-27.7,16.2-41.1
			l3-6.9l1.4,7.4c3.4,17.4,6.9,35.8,8.9,52.5l0.3,2.5l-2.6,0.1c-10.2,0.5-20.3,1.7-30.3,3.6L292.7,374.8z M317.2,323.8
			c-4.6,11.1-8.9,22.6-13.1,33.8c-1.4,3.8-2.8,7.5-4.1,11.1c8-1.4,16.1-2.4,24.2-2.9c-1.8-13.4-4.4-27.9-7.1-42L317.2,323.8z
			 M807,353l-1.8-0.3c-6.5-1.1-13-1.7-19.5-1.7c-2.4,0-4.9,0.1-7.5,0.3l-3.1,0.2l0.7-3.1c6.5-30.8,21.4-79.2,29-94.2l0.6-1.1
			l1.2-0.2c4.5-0.6,9.1-0.8,13.7-0.8c12.4,0,25,1.8,34.5,3.4l3.5,0.6l-2,3c-21.8,33.9-42,77.9-48.7,92.3L807,353z M785.7,346.3
			c6.2,0,12.4,0.5,18.5,1.5c7.1-15.5,25.8-55.8,46.3-88.2c-10-1.7-20.1-2.6-30.2-2.8c-3.9,0-7.9,0.2-11.8,0.6
			c-7.3,15.4-20.8,59.2-27.4,88.9C782.6,346.4,784.2,346.3,785.7,346.3L785.7,346.3z"/>
		<path fill="#DEDEDE" stroke="#DEDEDE" stroke-width="0.75" stroke-miterlimit="10" d="M820.3,256.2c-4,0-7.9,0.2-11.9,0.6h-0.3
			l-0.1,0.3c-7.3,15.3-20.9,59.4-27.5,89.1l-0.2,0.8h0.8c1.6-0.1,3.2-0.1,4.7-0.1c6.1,0,12.2,0.5,18.3,1.5l0.4,0.1l0.2-0.4
			c16.7-36.3,32.3-65.9,46.3-88.2l0.5-0.8l-0.9-0.1C840.6,257.3,830.4,256.4,820.3,256.2L820.3,256.2z M781.8,345.8
			c6.6-29.4,19.8-72.4,27.1-87.8c3.8-0.4,7.6-0.6,11.4-0.6c9.8,0.1,19.6,1,29.2,2.6c-13.9,22.1-29.2,51.4-45.7,87.1
			c-6-0.9-12.1-1.4-18.1-1.5C784.4,345.7,783.1,345.7,781.8,345.8L781.8,345.8z"/>
		<path fill="#DEDEDE" stroke="#DEDEDE" stroke-width="0.75" stroke-miterlimit="10" d="M791,255.9l-0.8,0.1
			c-14.9,2-52.8,7.6-82,16.1l-3.2,0.9l1-3.2c1.2-3.5,2.3-7,3.5-10.6l0.2-0.8h-0.8c-4.3-0.1-9.4-0.3-14.5-0.3
			c-9.3-0.2-18.6,0.5-27.9,2l-0.3,0.1l-0.1,0.3c-9.7,29.4-18.2,58.4-26.7,91.5l-3.6-0.6c2.9-30.7,5.9-60.1,8.5-85l0.1-0.6h-0.6
			c-4.1-0.2-7.3-0.3-10.3-0.3c-6.8,0-13.6,0.6-20.3,1.7h-0.3l-0.2,0.2c-4.5,7.6-9,16.1-13.4,24.3c-5,9.3-10.2,19-15.3,27.5l-2.7,4.4
			l-0.6-5.1c-2-16.2-3.8-38.1-4.8-51.2l0-0.5h-0.5c-4.5-0.2-8.4-0.3-12-0.3c-6.4,0-12.8,0.3-19.2,1h-0.3l-0.1,0.3
			c-14.5,32.7-25.1,64.3-35.4,94.9l-3.5-0.8c3.9-34.9,7.8-68.3,11.3-96.6l0.1-0.6h-0.6c-6.1-0.4-10.5-0.6-14.8-0.6
			c-7.2,0-14.3,0.6-21.4,1.7h-0.3l-0.1,0.2c-5.4,8.7-10.8,18.5-16.1,28.1c-6,10.7-12.1,21.8-18.3,31.5l-2.7,4.3l-0.5-5.1
			c-2-18.8-3.6-44.4-4.6-59.7v-0.5h-0.5c-7-0.5-12.5-0.6-18-0.6c-6.3,0-12.3,0.3-18.8,0.9H399l-0.1,0.3
			c-15.6,33.7-27.5,66.1-38.3,96.5l-3.6-0.4c-2.5-19.3-5.4-38.8-8.1-57.7c-1.2-8.5-2.5-17-3.7-25.5l-0.1-0.6l-0.6,0.1
			c-13.8,1.2-27.6,3.5-41.1,6.6l-4,1l2-3.6c1.8-3.2,3.7-6.5,5.5-9.7l0.5-0.8l-1,0c-7.8-0.4-16.4-0.6-25.4-0.6
			c-8.5,0-17.5,0.2-27,0.6h-0.4l-0.1,0.3c-11.3,25.9-24.6,55.8-39.2,83.7l-3.6-0.9c0-24.9,1.1-55.8,2.8-79.1v-0.6H213
			c-1.8,0-3.6,0-5.4,0c-8.7,0-16.5,0.3-22.7,0.9h-0.3l-5.8,11.1c-12.4,24-25.2,48.8-38,72l-3.5-1c2.5-34.3,5.7-62.7,9.6-84.3
			l0.1-0.7h-0.7c-3.7-0.1-7.5-0.2-11.2-0.2c-11.6,0-23.1,0.6-34.6,1.8l-0.5,0v0.5c-3.7,54.5-5.2,113.4-4.3,170.2v0.6l0.6-0.1
			c6.5-0.7,12.9-1,19.4-1c3.3,0,6.9,0.1,11.7,0.2h0.3l0.2-0.3c3.2-5.4,6.8-11.2,10.4-17.2l0.3-0.5c11.1-18.3,23.7-39,32.7-55.9
			l3.5,1c-1.7,28.6-1.7,55.8-1.7,72.1v0.6l0.6,0c7.8-0.6,14.4-0.9,21.2-0.9c4,0,8.1,0.1,12.3,0.3h0.3l0.2-0.3
			c25.8-40.7,48.1-80.7,69.7-119.4l3.3,1.5c-10.9,33.1-21.1,66.8-31,99.5l-3.2,10.5l1-0.2c10.3-2.1,20.8-3.4,31.3-4h0.4l0.1-0.3
			c2.1-5.1,3.9-10.2,5.7-15.3c0.9-2.5,1.7-4.9,2.6-7.3l0.3-0.9l1-0.2c9.6-2,17.9-3.3,26-4.6c3.4-0.5,6.7-1.1,10-1.6l1.9-0.3l0.3,2.6
			c0.8,7.4,1.6,15,2.2,22.4l0,0.7l0.7-0.1c10.7-2.5,22.6-3.8,32.9-4.8l0.6-0.1l0-0.6c-0.5-5.6-1.1-11.4-1.7-17.8l-0.2-2h2
			c5.2,0,10,0.3,14.6,0.7h0.4l0.2-0.4c2.2-5.8,4.4-11.9,6.5-17.7c5.6-15.5,11.5-31.6,20-49.3l3.6,0.8c0,21,1.2,45.4,3.1,65.4
			l0.1,0.6h0.6c3.7-0.3,6.2-0.4,8.8-0.4c2.4,0,4.9,0.1,9.2,0.3h0.4l0.2-0.3c8.9-14.7,17.5-30.6,25.8-46l0.1-0.1
			c3.7-6.9,7.5-14,11.2-20.7l3.5,1c-1.1,15.8-2,36.3-2.8,54.4c-0.2,4.1-0.4,8-0.5,11.7v0.6l1.4-0.1c8.6-0.4,16-0.8,24.1-0.8
			c2,0,4,0,6,0.1h0.5l0.1-0.5c0.5-4.3,0.9-8.7,1.5-13.2l0.2-1.5l1.5-0.1c5.1-0.3,9.3-0.5,13.4-0.5c3.7,0,7.2,0.1,10.6,0.4h0.5
			l0.2-0.4c1.8-5,3.6-10.1,5.3-15.1c4.7-13.5,9.5-27.5,16.5-42.8l3.6,0.8c0.3,17.9,1.7,38.8,3.6,56l0.1,0.6l0.6,0
			c2.8-0.3,5.7-0.5,8.6-0.5c1.7,0,3.6,0,6.4,0.2h0.3l0.2-0.3c7.5-12.8,14.6-26.6,21.5-39.9l0.1-0.1c3.1-6,6.2-12.1,9.4-18l3.5,1
			c-0.7,13.6-1.2,31.2-1.7,46.8l-0.3,10.5h0.6c8.2-0.5,15.2-1,23-1h2.3l-0.5,2.2c-1.7,7.2-3.5,14.7-5.2,22.3l-0.2,0.8l0.8-0.1
			c5.1-0.4,10.5-0.6,16.1-0.6c6.8,0,13.8,0.3,20.8,0.9h0.5l3.9-13.5c9.2-31.7,17.9-61.7,27.5-92.7l3.5,0.8
			c-4,31.4-6.3,60.6-8.8,91.6l-0.2,1.9c-0.4,5.4-0.9,10.8-1.3,16.2l-0.1,0.8l0.7-0.1l8.5-1.3l0.7-0.1c18.5-2.9,43.8-6.8,64.1-11.2
			l0.3-0.1l0.1-0.3c1-3,1.9-6,2.9-9.2l0.8-2.5l2.1,1.7c3,2.3,6.6,3.8,10.3,4.1c0.6,0,1.2,0.1,1.9,0.1c10.9,0,21.2-7,24-16.2
			c1.4-4,0.9-8.4-1.4-11.9c-2.6-3.9-7.3-6.4-12.9-6.8c-0.9-0.1-1.8-0.2-2.8-0.2c-7.3,0.1-14.2,3.1-19.2,8.5l-0.4,0.4l-0.5,0.1
			c-13.9,3.5-31.9,7-42.8,8.7l-2.4,0.4l0.3-2.4c0.3-2.2,0.7-4.4,1-6.6l0.1-0.3c0.7-4.6,1.4-9,2-13.8l0.2-1.2l1.2-0.3
			c9.9-2.3,31.1-6,43.5-7.3l0.4,0l0.1-0.4c1.6-8.7,2.6-15.5,3.5-23.7l0.1-0.8l-0.8,0.1c-8.4,1.1-29.4,4.1-42.1,8.1l-2.7,0.8l0.4-2.8
			c1.2-8.9,2.2-16.4,3.3-22.9l0.2-1.1l1.1-0.3c15.7-3.9,31.6-6.9,47.6-9.1l0.4-0.1l0.1-0.4c2.8-13.5,5.4-25.7,7.8-36.5L791,255.9
			L791,255.9z M789.5,257.3c-2.3,10.5-4.9,22.3-7.5,35.3c-15.9,2.2-31.8,5.2-47.4,9.1l-1.8,0.5l-0.3,1.9c-1.1,6.5-2.2,14-3.3,22.9
			l-0.6,4.6l4.4-1.4c12.3-3.9,32.3-6.9,41.1-8c-0.9,7.6-1.9,14.2-3.3,22.4c-12.5,1.3-33.3,5-43.2,7.2l-2,0.5l-0.2,2.1
			c-0.6,4.7-1.2,9.1-2,13.8v0.3c-0.3,2.2-0.7,4.4-1,6.6l-0.6,4l4-0.6c10.9-1.8,29-5.2,42.9-8.7l0.8-0.2l0.6-0.6
			c4.7-5,11.3-7.9,18.3-8c0.9,0,1.8,0.1,2.6,0.1c5.2,0.4,9.6,2.7,12,6.3c2.1,3.3,2.5,7.3,1.2,10.9c-2.7,8.8-12.5,15.4-22.9,15.4
			c-0.6,0-1.3,0-1.8-0.1c-3.5-0.3-6.9-1.7-9.7-3.9l-3.4-2.8L765,391c-0.9,3.1-1.8,6-2.8,8.8c-20.2,4.4-45.3,8.3-63.7,11.1l-0.7,0.1
			l-7.8,1.2c0.4-5.2,0.8-10.4,1.2-15.5l0.2-2c2.5-31.1,4.8-60.5,8.8-92l0.1-0.5l-5.7-1.2l-0.2,0.5c-9.7,31.1-18.5,61.3-27.7,93.3
			l-3.7,12.6c-6.9-0.6-13.8-0.9-20.4-0.9c-5.4,0-10.5,0.2-15.4,0.6c1.7-7.3,3.4-14.5,5-21.5l0.9-3.7h-3.8c-7.7,0.1-14.6,0.5-22.5,1
			l0.3-9.2c0.5-15.7,1-33.6,1.7-47.2v-0.5l-5.4-1.5l-0.2,0.4c-3.2,6-6.5,12.3-9.6,18.4l-0.1,0.1c-6.8,13.2-13.9,26.9-21.3,39.6
			c-2.7-0.1-4.5-0.1-6.1-0.1c-2.7,0-5.4,0.1-8.1,0.4c-1.9-17.2-3.2-38-3.5-55.8v-0.5l-5.4-1.1l-0.2,0.4c-7.2,15.6-12,29.7-16.8,43.4
			c-1.7,4.8-3.4,9.8-5.1,14.6c-3.3-0.2-6.7-0.4-10.3-0.4c-4,0-8.3,0.2-13.5,0.5l-2.5,0.2l-0.3,2.5c-0.5,4.3-0.9,8.5-1.4,12.7
			c-1.8,0-3.6-0.1-5.5-0.1c-8.1,0-15.5,0.4-24.1,0.8h-0.1c0.2-3.5,0.3-7.2,0.5-11.1c0.8-18.2,1.8-38.9,2.9-54.8v-0.5l-5.3-1.6
			l-0.2,0.4c-3.8,6.9-7.7,14.2-11.5,21.2l-0.1,0.1c-8.2,15.3-16.7,31.1-25.6,45.7c-4-0.2-6.6-0.3-8.9-0.3c-2.5,0-4.9,0.1-8.3,0.4
			c-1.9-20-3-44.4-3-65.2v-0.5l-5.4-1.2l-0.2,0.4c-8.6,17.9-14.5,34.2-20.2,49.9c-2.1,5.7-4.2,11.5-6.4,17.2
			c-4.5-0.4-9.2-0.6-14.3-0.7h-3.3l0.4,3.3c0.6,6.2,1.2,11.8,1.7,17.2c-10,1-21.4,2.3-31.8,4.6c-0.5-7.1-1.3-14.5-2.1-21.8l-0.4-3.8
			l-3.1,0.5c-3.4,0.6-6.7,1.1-10.1,1.6c-8,1.3-16.4,2.6-26,4.6l-1.6,0.3l-0.6,1.5c-0.9,2.4-1.8,4.9-2.6,7.4
			c-1.7,4.9-3.5,9.9-5.5,14.8c-10.1,0.6-20.2,1.8-30.1,3.8l2.6-8.7c9.9-32.8,20.1-66.6,31.1-99.9l0.2-0.5l-5.3-2.3l-0.3,0.5
			c-21.6,38.7-43.9,78.8-69.7,119.5c-4.2-0.2-8.1-0.3-12.1-0.3c-6.7,0-13.1,0.3-20.7,0.9c0-16.5,0-43.5,1.7-71.9V371l-5.4-1.5
			l-0.2,0.4c-9,17-21.7,37.9-32.9,56.3l-0.3,0.5c-3.6,5.9-7,11.6-10.2,16.9c-4.6-0.2-8.2-0.2-11.4-0.2c-6.3,0-12.6,0.4-18.9,1
			c-0.9-56.4,0.6-114.8,4.3-169.1c11.3-1.2,22.6-1.7,34-1.7c3.5,0,6.9,0.1,10.5,0.2c-3.8,21.7-7,50-9.5,84.2v0.5l5.3,1.6l0.2-0.4
			c12.8-23.3,25.7-48.3,38.2-72.4l5.5-10.6c6.1-0.6,13.8-0.9,22.3-0.9h4.8c-1.7,23.3-2.7,54.2-2.7,79v0.5l5.4,1.3l0.2-0.4
			c14.7-27.9,28-57.9,39.3-83.8c9.3-0.4,18.2-0.5,26.6-0.5c8.6,0,16.8,0.2,24.4,0.6c-1.7,3-3.4,6-5.1,8.9l-3.4,6l6.6-1.6
			c13.3-3.1,26.7-5.3,40.3-6.6c1.2,8.3,2.4,16.6,3.6,24.9c2.8,19,5.6,38.7,8.2,58.2l0.1,0.5l5.5,0.6l0.1-0.4
			c10.8-30.4,22.7-62.8,38.3-96.5c6.3-0.5,12.2-0.8,18.4-0.8c5.3,0,10.7,0.2,17.4,0.6c1,15.4,2.6,40.6,4.6,59.2l0.9,8.5l4.5-7.2
			c6.2-9.8,12.3-20.9,18.3-31.6c5.2-9.4,10.6-19.1,16-27.8c6.9-1,13.9-1.5,20.9-1.6c4,0,8.3,0.2,14.1,0.6
			c-3.5,28.3-7.4,61.6-11.3,96.5l-0.1,0.5l5.1,1.1l0.5,0.1l0.2-0.5c10.3-30.6,20.9-62.3,35.4-95c6.2-0.7,12.5-1,18.7-1
			c3.5,0,7.2,0.1,11.5,0.3c1.1,13.2,2.8,34.8,4.8,50.7l1,8.5l4.4-7.3c5.2-8.5,10.4-18.2,15.3-27.5c4.3-8.1,8.8-16.5,13.3-24
			c6.6-1.1,13.2-1.6,19.9-1.6c2.8,0,5.8,0.1,9.6,0.3c-2.6,24.9-5.5,54.2-8.5,84.9v0.5l5.7,1l0.1-0.5c8.5-33.1,16.9-62.2,26.7-91.6
			c9-1.5,18.2-2.1,27.3-2c4.8,0,9.6,0.1,13.7,0.2c-1.1,3.3-2.2,6.6-3.2,9.8l-1.8,5.3l5.4-1.6C737,265,774,259.4,789.5,257.3
			L789.5,257.3z"/>
		<path fill="#DEDEDE" stroke="#DEDEDE" stroke-width="0.75" stroke-miterlimit="10" d="M319.1,305.9l-3.8,8.7
			c-5.9,13.4-11.1,27.5-16.2,41.2c-1.9,5.1-3.7,10.1-5.6,15l-1.9,4.9l5.1-0.9c10-1.9,20.1-3.1,30.2-3.6l3.2-0.1l-0.4-3.2
			c-2-16.7-5.5-35.1-8.9-52.5L319.1,305.9L319.1,305.9z M293.5,374l1.1-2.9c1.9-4.9,3.7-9.9,5.6-15c5-13.6,10.3-27.7,16.1-41.1
			l2.3-5.2l1.1,5.6c3.4,17.4,6.8,35.8,8.9,52.4l0.2,1.9l-1.9,0.1c-10.2,0.5-20.3,1.7-30.3,3.6L293.5,374L293.5,374z"/>
		<polygon fill="#FFFF00" stroke="#000000" stroke-width="3" stroke-miterlimit="10" points="521.5,312.2 521.6,332.4 505,343.9 
			524.2,350 530,369.4 541.8,353 562,353.4 550.1,337.2 556.7,318.1 537.5,324.4 		"/>
		<path fill="#E3F4F9" stroke="#000000" stroke-width="3" stroke-miterlimit="10" d="M272.2,398c1-1.1,2.1-2.1,3.3-3
			c-7.5,21.9,4.2,45.8,26.1,53.3c9.1,3.1,18.9,3,27.9-0.2c-0.9,1.2-1.9,2.3-2.9,3.3c-15.3,14.4-39.5,13.7-53.9-1.6
			C259,435.3,258.8,412.7,272.2,398z"/>
		
			<ellipse transform="matrix(0.8949 -0.4462 0.4462 0.8949 -101.6806 240.6857)" fill="#00FF80" stroke="#070707" stroke-width="3" stroke-miterlimit="10" cx="460.2" cy="336.3" rx="11.2" ry="7.9"/>
		<path fill="#FFFF00" d="M367,379.2c-6.8,0-13.5-4.6-17-11.6c-2.3-4.4-3-9.5-1.9-14.4c0.9-4.5,3.8-8.3,7.9-10.4
			c2-1,4.1-1.5,6.3-1.5c6.8,0,13.5,4.6,17,11.6c2.3,4.4,2.9,9.5,1.9,14.4c-0.9,4.5-3.8,8.3-7.9,10.4
			C371.4,378.7,369.2,379.3,367,379.2z"/>
		<path d="M362.2,342.9c6,0,12.3,4.1,15.7,10.8c4.4,8.9,2.1,19.1-5.3,22.8c-1.8,0.9-3.7,1.3-5.7,1.3c-6,0-12.3-4.1-15.7-10.8
			c-4.4-8.9-2.1-19.1,5.3-22.8C358.3,343.3,360.3,342.9,362.2,342.9 M362.2,339.9c-2.4,0-4.8,0.6-7,1.6c-4.5,2.3-7.6,6.5-8.6,11.4
			c-1.1,5.2-0.4,10.6,2,15.4c3.8,7.6,11,12.5,18.4,12.5c2.4,0,4.8-0.6,7-1.6c8.8-4.4,11.8-16.4,6.6-26.8
			C376.8,344.7,369.6,339.9,362.2,339.9L362.2,339.9z"/>
		<circle fill="#FF0080" stroke="#000000" stroke-width="2" stroke-miterlimit="10" cx="375.6" cy="434.1" r="8.2"/>
	</g>
</g>
</svg>
