<?xml version="1.0" encoding="utf-8"?>
<!-- Generator: Adobe Illustrator 22.0.0, SVG Export Plug-In . SVG Version: 6.00 Build 0)  -->
<svg version="1.1" id="Capa_1" xmlns="http://www.w3.org/2000/svg" xmlns:xlink="http://www.w3.org/1999/xlink" x="0px" y="0px"
	 viewBox="0 0 26.1 91.7" enable-background="new 0 0 26.1 91.7" xml:space="preserve">
<g>
	<g>
		<path fill="#525252" d="M2,64.4c-0.6-0.7-1-1.7-1-2.6V1h8v58.8c0,0.2,0.1,0.5,0.2,0.7l15.3,17.4l-6,5.3L2,64.4z"/>
		<path fill="#1E1E1B" d="M8,2v57.8c0,0.5,0.2,1,0.5,1.3l14.6,16.7l-4.5,4l-15.9-18c-0.5-0.5-0.8-1.3-0.8-2V2H8 M10,0H0v61.7
			c0,1.2,0.4,2.4,1.3,3.3l17.2,19.5l7.5-6.6L10,59.8L10,0L10,0z"/>
	</g>
</g>
<rect x="13.6" y="73.5" fill="#FF0080" stroke="#1E1E1B" stroke-width="2" stroke-linejoin="round" stroke-miterlimit="10" width="11.5" height="17.2"/>
</svg>
