<?xml version="1.0" encoding="utf-8"?>
<!-- Generator: Adobe Illustrator 22.0.0, SVG Export Plug-In . SVG Version: 6.00 Build 0)  -->
<svg version="1.1" id="Layer_1" xmlns="http://www.w3.org/2000/svg" xmlns:xlink="http://www.w3.org/1999/xlink" x="0px" y="0px"
	 viewBox="0 0 373 373" enable-background="new 0 0 373 373" xml:space="preserve">
<g display="none">
	
		<rect x="35.6" y="35.6" display="inline" fill="#FFFFFF" stroke="#000000" stroke-width="4" stroke-miterlimit="10" width="334.4" height="334.4"/>
</g>
<g display="none">
	<rect display="inline" fill="#010101" width="334.4" height="334.4"/>
</g>
<g>
	<rect x="50.8" y="32.5" display="none" width="219.5" height="219.5"/>
	<g display="none">
		<path display="inline" fill="#FFFF00" d="M50.9,142.4c0-60.6,49.1-109.8,109.8-109.8v109.8H50.9z"/>
		<path display="inline" d="M50.9,142.4c0,60.6,49.1,109.8,109.8,109.8V142.4H50.9z"/>
		<path display="inline" fill="#FFFF00" d="M270.4,142.4c0,60.6-49.1,109.8-109.8,109.8V142.4H270.4z"/>
		<path display="inline" d="M270.4,142.4c0-60.6-49.1-109.8-109.8-109.8v109.8H270.4z"/>
	</g>
	<g display="none">
		<path display="inline" fill="#FFFF00" d="M160.7,227.9c-47.3,0-85.5-38.3-85.5-85.5h85.5V227.9z"/>
		<path display="inline" d="M160.7,227.9c47.3,0,85.5-38.3,85.5-85.5h-85.5L160.7,227.9z"/>
		<path display="inline" fill="#FFFF00" d="M160.7,56.7c47.3,0,85.5,38.3,85.5,85.5h-85.5L160.7,56.7z"/>
		<path display="inline" d="M160.7,56.7c-47.3,0-85.5,38.3-85.5,85.5h85.5V56.7z"/>
	</g>
	<g>
		<g>
			<path fill="#FFFF00" stroke="#000000" stroke-width="8" stroke-miterlimit="10" d="M78.5,222.9c0,0-6.5,2.2-9.1,12.4
				c-2.6,10.3,3.2,15.8,3.2,15.8l4.1,2.8l-5.5,5.3c0,0-1.8,2.2,2.4,6.3c4.3,4.1,7.5,6.7,7.7,8.5c0.2,1.8,0.2,17.4,0,21.7
				c-0.2,4.3,4.7,17,14.6,13.6c9.9-3.4,66.8-14.4,66.8-14.4s24.3-7.3,24.3-26.3c0-19,1.4-27.7,1.4-27.7s-0.6-9.7,15-10.1
				c11.9-0.4,44.4-2,63.8-3c18.2-1,33.4-11.7,39.9-19.2c14-16.2,15.4-36.7,15.4-65.6c0-47.2-27.3-90.1-63.4-104.5
				c0,0-38.7-18.8-96.8-7.7c-49,9.3-69.1,38.3-69.1,38.3s-14.8,18.8-18.8,43.9c-3.8,25.1-2.6,51.2-2.6,51.2s1.4,12-19.6,43.7
				c0,0-4.5,7.3,1.6,12.4c6.1,5.1,28,2,28,2"/>
			<path d="M100,168.8c0-4.5-3.6-8.1-8.1-8.1c-4.5,0-8.1,3.6-8.1,8.1c0,4.5,3.6,8.1,8.1,8.1C96.3,176.9,100,173.3,100,168.8z"/>
			<circle fill="#FFFF00" stroke="#000000" stroke-width="8" stroke-miterlimit="10" cx="195.6" cy="167.2" r="37.3"/>
			<path d="M195.6,129.9v37.3h37.3C232.7,167.2,233.3,132.7,195.6,129.9z"/>
			<rect x="260" y="41.2" display="none" width="6.9" height="187.1"/>
			<path d="M158.3,167.2h37.3v37.3C195.6,204.6,161,204.9,158.3,167.2z"/>
		</g>
		<line fill="none" stroke="#000000" stroke-width="8" stroke-miterlimit="10" x1="263.6" y1="40.4" x2="263.6" y2="229"/>
	</g>
	<g display="none">
		<path fill="none" stroke="#000000" stroke-width="15.1387" stroke-miterlimit="10" d="M160.7,32.6c60.6,0,109.8,49.1,109.8,109.8
			s-49.1,109.8-109.8,109.8S50.9,203,50.9,142.4C50.9,81.7,100,32.6,160.7,32.6z"/>
		<path display="inline" fill="none" stroke="#FFFF00" stroke-width="4" stroke-miterlimit="10" d="M160.7,32.6
			c60.6,0,109.8,49.1,109.8,109.8s-49.1,109.8-109.8,109.8S50.9,203,50.9,142.4C50.9,81.7,100,32.6,160.7,32.6z"/>
	</g>
</g>
</svg>
