<?xml version="1.0" encoding="utf-8"?>
<!-- Generator: Adobe Illustrator 22.0.0, SVG Export Plug-In . SVG Version: 6.00 Build 0)  -->
<svg version="1.1" id="Layer_1" xmlns="http://www.w3.org/2000/svg" xmlns:xlink="http://www.w3.org/1999/xlink" x="0px" y="0px"
	 viewBox="0 0 64 64" style="enable-background:new 0 0 64 64;" xml:space="preserve">
<g>
	<g id="global">
		<path style="fill:#0000FF;" d="M31.2,1.6C15.6,1.6,2.8,14.3,2.8,30s12.8,28.5,28.4,28.5c15.7,0,28.5-12.8,28.5-28.5
			S46.8,1.6,31.2,1.6z"/>
		<g>
			<path style="fill:#00FF80;" d="M31.2,1.6C15.6,1.6,2.8,14.3,2.8,30s12.8,28.5,28.4,28.5c15.7,0,28.5-12.8,28.5-28.5
				S46.8,1.6,31.2,1.6z M31.2,1.9c4.3,0,8.3,1,11.9,2.7l-1,0.2l-2.7-0.4l-1.9,1.3l-1.4,1.5l-5,0.5L29,7.4l-1.3,2.2l-4.1,0.2L21,9.1
				l-2.3,1.3l-5,0.7l-4,1.1C14.8,6,22.6,2.1,31.2,1.9z M34.7,57.7c-1.1,0.1-2.3,0.2-3.5,0.2C15.8,57.9,3.3,45.4,3.3,30
				c0-5.1,1.4-9.9,3.8-14.1V17l1.6,1h3.1l4.7-0.8l2.9,4.8v4.5l4.7,3.5l1.7,3.2l4.6,1l2.1,2.1l1.9,0.6l-1.9,3.9l2,3.8
				c0,0,1.2,4.3,1.2,4.5s-1.3,5.2-1.3,5.2L34.7,57.7z M37.9,57.1l0.5-1.8l4.8-3.2l1.3-3.4l3.3-1.5l3.1-6L46,38.3l-2.5-2.9L42,35.2
				l-3-0.8L36.4,34l-2.2,0.6l-1.4-1.5l-1.4-0.4l-2.5-0.9l-0.5-2.3l2.2-1l2.2,1H34l0.4-1.7l3.3-4l4.6-2.3l2.7,0.3l0.2-1.3l-3.3-3.4
				l-1.3-2.5h-1.8l-1.1-0.7l-2.5-0.4l-0.5,2.9l-3-0.6L31.5,14l2.3-0.5l0.8-3.3l2.7-1.3l0.1-1.2L40,8.2l2.2,2l0.7,1.8l0.6,1.7
				l3.5,3.2l0.9,0.3l1.3-2l4.4-0.4l0.8-0.3c3,4.4,4.8,9.8,4.9,15.5C59.3,43.1,50.2,54.1,37.9,57.1z"/>
		</g>
		<g>
			<path d="M31.2,2.1c15.4,0,27.9,12.5,27.9,27.9S46.7,58,31.2,58S3.3,45.4,3.3,30S15.8,2.1,31.2,2.1 M31.2,1.1
				c-16,0-28.9,13-28.9,28.9s13,29,28.9,29s29-13,29-29S47.2,1.1,31.2,1.1L31.2,1.1z"/>
		</g>
	</g>
	<g id="letter">
		<g>
			<path style="fill:#FFFFFF;" d="M62.1,61.9H25.2c-0.5,0-0.8-0.4-0.8-0.8V41.7c0-0.9,0.7-1.6,1.6-1.6h35.3c0.9,0,1.6,0.7,1.6,1.6
				v19.4C62.9,61.6,62.5,61.9,62.1,61.9z"/>
			<path d="M62.1,62.4H25.2c-0.7,0-1.3-0.6-1.3-1.3V41.7c0-1.2,0.9-2.1,2.1-2.1h35.3c1.2,0,2.1,0.9,2.1,2.1v19.4
				C63.4,61.8,62.8,62.4,62.1,62.4z M26,40.6c-0.6,0-1.1,0.5-1.1,1.1v19.4c0,0.2,0.1,0.3,0.3,0.3h36.9c0.2,0,0.3-0.1,0.3-0.3V41.7
				c0-0.6-0.5-1.1-1.1-1.1C61.3,40.6,26,40.6,26,40.6z"/>
		</g>
		<g>
			<path d="M43.4,55.5c-0.6,0-1.2-0.2-1.7-0.5L24.1,42.9l0.6-0.8l17.6,12.1c0.7,0.5,1.6,0.5,2.3,0l18-12.2l0.6,0.8L45.1,54.9
				C44.6,55.3,44,55.5,43.4,55.5z"/>
		</g>
		<g>
			<rect x="22.4" y="55.9" transform="matrix(0.7579 -0.6524 0.6524 0.7579 -29.3533 33.6444)" width="16.5" height="1"/>
		</g>
		<g>
			<rect x="56" y="48" transform="matrix(0.6521 -0.7582 0.7582 0.6521 -23.088 62.425)" width="1" height="16.7"/>
		</g>
		<g id="lines">
			<g id="l3">
				<path style="fill:#FF0080;" d="M28.5,46.2H1.1c-0.3,0-0.5-0.2-0.5-0.5s0.2-0.5,0.5-0.5h27.4c0.3,0,0.5,0.2,0.5,0.5
					S28.8,46.2,28.5,46.2z"/>
			</g>
			<g id="l2">
				<path style="fill:#FF0080;" d="M28.5,51.5H4c-0.3,0-0.5-0.2-0.5-0.5s0.2-0.5,0.5-0.5h24.5c0.3,0,0.5,0.2,0.5,0.5
					S28.8,51.5,28.5,51.5z"/>
			</g>
			<g id="l1">
				<path style="fill:#FF0080;" d="M28.5,56.9H8.2c-0.3,0-0.5-0.2-0.5-0.5s0.2-0.5,0.5-0.5h20.3c0.3,0,0.5,0.2,0.5,0.5
					S28.8,56.9,28.5,56.9z"/>
			</g>
		</g>
	</g>
</g>
</svg>
