<?xml version="1.0" encoding="utf-8"?>
<!-- Generator: Adobe Illustrator 22.0.0, SVG Export Plug-In . SVG Version: 6.00 Build 0)  -->
<svg version="1.1" id="_x38_ball_x5F_icon" xmlns="http://www.w3.org/2000/svg" xmlns:xlink="http://www.w3.org/1999/xlink" x="0px"
	 y="0px" viewBox="0 0 64 64" style="enable-background:new 0 0 64 64;" xml:space="preserve">
<g>
	<circle style="fill:#FFFFFF;" cx="32" cy="32" r="30.5"/>
	<path style="fill:#231F20;" d="M32,62.5C15.2,62.5,1.5,48.8,1.5,32S15.2,1.5,32,1.5S62.5,15.2,62.5,32S48.8,62.5,32,62.5z M32,2.5
		C15.7,2.5,2.5,15.7,2.5,32S15.7,61.5,32,61.5S61.5,48.3,61.5,32S48.3,2.5,32,2.5z"/>
</g>
<path style="fill:#5D5D5D;" d="M41.6,5.3c-3-1.1-6.2-1.7-9.6-1.7C16.3,3.6,3.6,16.3,3.6,32S16.3,60.4,32,60.4c3.4,0,6.6-0.6,9.6-1.7
	c11-3.9,18.8-14.4,18.8-26.7S52.6,9.2,41.6,5.3z"/>
<circle cx="32" cy="32" r="27.1"/>
<g id="innerball">
	<circle style="fill:#FFFFFF;" cx="32" cy="32" r="13.5"/>
	<g>
		<path style="fill:none;" d="M32,25.2c-1.5,0-2.6,1.2-2.6,2.6c0,1.4,1.2,2.6,2.6,2.6s2.6-1.2,2.6-2.6C34.6,26.4,33.5,25.2,32,25.2z
			"/>
		<path style="fill:none;" d="M32,33.5c-1.5,0-2.6,1.2-2.6,2.6c0,1.4,1.2,2.6,2.6,2.6s2.6-1.2,2.6-2.6C34.6,34.7,33.5,33.5,32,33.5z
			"/>
		<path d="M37.6,27.9c0-3.1-2.5-5.6-5.6-5.6s-5.6,2.5-5.6,5.6c0,1.7,0.7,3.1,1.8,4.1c-1.1,1-1.8,2.5-1.8,4.2c0,3.1,2.5,5.6,5.6,5.6
			s5.6-2.5,5.6-5.6c0-1.7-0.7-3.1-1.8-4.2C36.9,31,37.6,29.6,37.6,27.9z M32,38.7c-1.4,0-2.6-1.2-2.6-2.6c0-1.4,1.1-2.6,2.6-2.6
			s2.6,1.2,2.6,2.6C34.6,37.5,33.4,38.7,32,38.7z M32,30.4c-1.4,0-2.6-1.2-2.6-2.6c0-1.4,1.1-2.6,2.6-2.6s2.6,1.2,2.6,2.6
			C34.6,29.2,33.4,30.4,32,30.4z"/>
	</g>
</g>
</svg>
