<?xml version="1.0" encoding="utf-8"?>
<!-- Generator: Adobe Illustrator 22.0.0, SVG Export Plug-In . SVG Version: 6.00 Build 0)  -->
<svg version="1.1" id="Layer_1" xmlns="http://www.w3.org/2000/svg" xmlns:xlink="http://www.w3.org/1999/xlink" x="0px" y="0px"
	 viewBox="0 0 64 64" style="enable-background:new 0 0 64 64;" xml:space="preserve">
<rect x="32.5" y="38.1" style="display:none;fill:none;stroke:#FF0080;stroke-linecap:round;stroke-miterlimit:10;" width="8.5" height="10.5"/>
<g>
	<g>
		<g>
			<g>
				<g>
					<defs>
						<path id="SVGID_1_" d="M4.6,35.9L19.5,9.4c0.3-0.6,1.1-0.7,1.6-0.3l6.1,5.6c0.3,0.3,0.3,0.7,0,1L25.1,18c-0.3,0.3-0.7,0.3-1,0
							l-2.4-2.2c-0.2-0.2-0.6-0.1-0.7,0.2l-7.5,20.6H5C4.6,36.6,4.4,36.2,4.6,35.9z"/>
					</defs>
					<clipPath id="SVGID_2_">
						<use xlink:href="#SVGID_1_"  style="overflow:visible;"/>
					</clipPath>
					<g style="clip-path:url(#SVGID_2_);">
						<rect x="20.5" y="-21.2" style="fill:none;" width="62.8" height="62.8"/>
						<rect x="20.5" y="-21.2" style="fill:#DEDEDE;" width="62.8" height="62.8"/>
					</g>
				</g>
				<g>
					<defs>
						<path id="SVGID_3_" d="M4.6,35.9L19.5,9.4c0.3-0.6,1.1-0.7,1.6-0.3l6.1,5.6c0.3,0.3,0.3,0.7,0,1L25.1,18c-0.3,0.3-0.7,0.3-1,0
							l-2.4-2.2c-0.2-0.2-0.6-0.1-0.7,0.2l-7.5,20.6H5C4.6,36.6,4.4,36.2,4.6,35.9z"/>
					</defs>
					<clipPath id="SVGID_4_">
						<use xlink:href="#SVGID_3_"  style="overflow:visible;"/>
					</clipPath>
					<g style="clip-path:url(#SVGID_4_);">
						<rect x="-42.4" y="-21.2" style="fill:none;" width="62.8" height="62.8"/>
						<rect x="-42.4" y="-21.2" style="fill:#DEDEDE;" width="62.8" height="62.8"/>
					</g>
				</g>
			</g>
			<path style="fill:#231F20;" d="M14,37.1H5c-0.4,0-0.7-0.2-0.8-0.5c-0.2-0.3-0.2-0.7,0-1l0,0L19,9.1c0.2-0.4,0.6-0.7,1.1-0.8
				s0.9,0.1,1.3,0.4l6.1,5.6c0.2,0.2,0.4,0.5,0.4,0.8s-0.1,0.6-0.3,0.9l-2.1,2.3c-0.4,0.5-1.2,0.5-1.7,0.1l-2.3-2.1L14,37.1z
				 M4.6,35.9L5,36.1l0,0L4.6,35.9z M20.4,9.3C20.4,9.3,20.3,9.3,20.4,9.3c-0.3,0-0.4,0.1-0.5,0.3L5,36.1h8.3l7.4-20.3
				c0.1-0.3,0.4-0.5,0.7-0.6c0.3-0.1,0.6,0,0.8,0.2l2.4,2.2c0.1,0.1,0.2,0.1,0.3,0l2.1-2.3v-0.1c0,0,0-0.1-0.1-0.1l-6.1-5.6
				C20.7,9.4,20.5,9.3,20.4,9.3z"/>
		</g>
	</g>
	<g>
		<g>
			<path style="fill:#FFFFFF;" d="M59.8,35.9L44.9,9.4c-0.3-0.6-1.1-0.7-1.6-0.3l-6.1,5.6c-0.3,0.3-0.3,0.7,0,1l2.1,2.3
				c0.3,0.3,0.7,0.3,1,0l2.4-2.2c0.2-0.2,0.6-0.1,0.7,0.2l7.5,20.6h8.6C59.7,36.6,59.9,36.2,59.8,35.9z"/>
			<path style="fill:#231F20;" d="M59.3,37.1h-9l-7.6-20.9l-2.3,2.1c-0.5,0.4-1.2,0.4-1.7-0.1l-2-2.2c-0.2-0.2-0.3-0.5-0.3-0.9
				c0-0.3,0.1-0.6,0.4-0.8l6.1-5.6c0.3-0.3,0.8-0.5,1.3-0.4s0.9,0.4,1.1,0.8l14.9,26.5c0.2,0.3,0.2,0.7,0,1
				C60,36.9,59.7,37.1,59.3,37.1z M51,36.1h8.3L44.4,9.6c-0.1-0.1-0.2-0.2-0.4-0.3c-0.2,0-0.3,0-0.5,0.1L37.4,15l-0.1,0.1v0.1
				l2.1,2.3c0.1,0.1,0.2,0.1,0.3,0l2.4-2.2c0.2-0.2,0.5-0.3,0.8-0.2s0.6,0.3,0.7,0.6L51,36.1z"/>
		</g>
	</g>
	<polygon style="fill:#FFFFFF;" points="4.2,36.6 4.2,50.5 7.9,55.2 25.7,55.2 29.9,50.5 32,50.5 32,36.6 	"/>
	<polygon style="fill:#DEDEDE;" points="32,36.6 32,50.5 34.1,50.5 38.3,55.2 56.1,55.2 59.8,50.5 59.8,36.6 	"/>
	<path style="fill:#231F20;" d="M56.1,55.7H38.3c-0.1,0-0.3-0.1-0.4-0.2l-4-4.5h-3.8L26,55.5c-0.1,0.1-0.2,0.2-0.4,0.2H7.9
		c-0.2,0-0.3-0.1-0.4-0.2l-3.7-4.6c-0.1-0.1-0.1-0.2-0.1-0.3v-14c0-0.3,0.2-0.5,0.5-0.5h55.6c0.3,0,0.5,0.2,0.5,0.5v13.9
		c0,0.1,0,0.2-0.1,0.3l-3.7,4.6C56.4,55.6,56.3,55.7,56.1,55.7z M38.5,54.7h17.4l3.4-4.3V37.1H4.7v13.2l3.4,4.3h17.4l4.1-4.5
		c0.1-0.1,0.2-0.2,0.4-0.2h4.2c0.1,0,0.3,0.1,0.4,0.2L38.5,54.7z"/>
	<g>
		<polygon style="fill:#0000FF;" points="9.9,50.5 7.9,48.3 7.9,40.8 26.8,40.8 26.8,48.3 24.7,50.5 17.8,50.5 		"/>
	</g>
	<g>
		<polygon style="fill:#FF0080;" points="39.3,50.5 37.2,48.3 37.2,40.8 56.1,40.8 56.1,48.3 54.1,50.5 47.2,50.5 		"/>
	</g>
</g>
</svg>
