<?xml version="1.0" encoding="utf-8"?>
<!-- Generator: Adobe Illustrator 22.0.0, SVG Export Plug-In . SVG Version: 6.00 Build 0)  -->
<svg version="1.1" id="Layer_1" xmlns="http://www.w3.org/2000/svg" xmlns:xlink="http://www.w3.org/1999/xlink" x="0px" y="0px"
	 viewBox="0 0 64 64" style="enable-background:new 0 0 64 64;" xml:space="preserve">
<g>
	<g>
		<g>
			<path style="fill:#DEDEDE;" d="M11.6,61.8c-1.3,0-2.3-1-2.3-2.3v-8.6c0-1.3,1-2.3,2.3-2.3h40.7c1.3,0,2.3,1,2.3,2.3v8.6
				c0,1.3-1,2.3-2.3,2.3H11.6z"/>
		</g>
		<g>
			<path d="M52.4,49c1,0,1.8,0.8,1.8,1.8v8.6c0,1-0.8,1.8-1.8,1.8H11.6c-1,0-1.8-0.8-1.8-1.8v-8.6c0-1,0.8-1.8,1.8-1.8L52.4,49
				 M52.4,48H11.6c-1.5,0-2.8,1.3-2.8,2.8v8.6c0,1.5,1.3,2.8,2.8,2.8h40.7c1.5,0,2.8-1.3,2.8-2.8v-8.6C55.2,49.3,53.9,48,52.4,48
				L52.4,48z"/>
		</g>
	</g>
	<g>
		<path d="M52.4,49c1,0,1.8,0.8,1.8,1.8v8.6c0,1-0.8,1.8-1.8,1.8H11.6c-1,0-1.8-0.8-1.8-1.8v-8.6c0-1,0.8-1.8,1.8-1.8L52.4,49
			 M52.4,48H11.6c-1.5,0-2.8,1.3-2.8,2.8v8.6c0,1.5,1.3,2.8,2.8,2.8h40.7c1.5,0,2.8-1.3,2.8-2.8v-8.6C55.2,49.3,53.9,48,52.4,48
			L52.4,48z"/>
	</g>
	<g>
		<g>
			<path style="fill:#DEDEDE;" d="M10.6,52.9c-1.5,0-2.6-1.2-2.6-2.6v-45c0-1.5,1.2-2.6,2.6-2.6h42.8c1.5,0,2.6,1.2,2.6,2.6v44.9
				c0,1.5-1.2,2.6-2.6,2.6L10.6,52.9L10.6,52.9z"/>
		</g>
		<g>
			<path d="M53.4,3.2c1.2,0,2.1,1,2.1,2.1v44.9c0,1.2-1,2.1-2.1,2.1H10.6c-1.2,0-2.1-1-2.1-2.1V5.3c0-1.2,1-2.1,2.1-2.1L53.4,3.2
				 M53.4,2.2H10.6c-1.7,0-3.1,1.4-3.1,3.1v44.9c0,1.7,1.4,3.1,3.1,3.1h42.8c1.7,0,3.1-1.4,3.1-3.1V5.3C56.5,3.6,55.1,2.2,53.4,2.2
				L53.4,2.2z"/>
		</g>
	</g>
	<g>
		<path style="fill:#5D5D5D;" d="M49.4,35.6H14.6c-0.8,0-1.5-0.7-1.5-1.5V10c0-0.8,0.7-1.5,1.5-1.5h34.7c0.8,0,1.5,0.7,1.5,1.5v24.1
			C50.8,34.9,50.2,35.6,49.4,35.6z"/>
		<path style="fill:#231F20;" d="M49.4,36.1H14.6c-1.1,0-2-0.9-2-2V10c0-1.1,0.9-2,2-2h34.7c1.1,0,2,0.9,2,2v24.1
			C51.3,35.2,50.4,36.1,49.4,36.1z M14.6,9.1c-0.5,0-1,0.4-1,1v24.1c0,0.5,0.4,1,1,1h34.7c0.5,0,1-0.4,1-1V10c0-0.5-0.4-1-1-1H14.6
			V9.1z"/>
	</g>
	<g>
		<g>
			<path d="M16.4,42.8c0.4,0,0.7,0.3,0.7,0.7v2.7c0,0.4-0.3,0.7-0.7,0.7h-2.5c-0.4,0-0.7-0.3-0.7-0.7v-2.7c0-0.4,0.3-0.7,0.7-0.7
				H16.4 M16.4,42.1h-2.5c-0.8,0-1.5,0.7-1.5,1.5v2.7c0,0.8,0.7,1.5,1.5,1.5h2.5c0.8,0,1.5-0.7,1.5-1.5v-2.7
				C17.9,42.7,17.2,42.1,16.4,42.1L16.4,42.1z"/>
		</g>
		<g>
			<path style="fill:#00FF80;" d="M16.4,42.8h-2.5c-0.4,0-0.7,0.3-0.7,0.7v2.7c0,0.4,0.3,0.7,0.7,0.7h2.5c0.4,0,0.7-0.3,0.7-0.7
				v-2.7C17.1,43.1,16.8,42.8,16.4,42.8z"/>
		</g>
	</g>
	<path d="M50.8,43.4H30.6c-0.3,0-0.5-0.2-0.5-0.5s0.2-0.5,0.5-0.5h20.2c0.3,0,0.5,0.2,0.5,0.5S51.1,43.4,50.8,43.4z"/>
	<polyline style="fill:none;stroke:#00FF80;stroke-linecap:round;stroke-linejoin:round;stroke-miterlimit:10;" points="13.4,23 
		27.8,23 29.6,18.3 31.7,29.3 34,14.3 36.2,22.8 50.5,22.8 	"/>
	<path style="fill:#231F20;" d="M49.4,36.1H14.6c-1.1,0-2-0.9-2-2V10c0-1.1,0.9-2,2-2h34.7c1.1,0,2,0.9,2,2v24.1
		C51.3,35.2,50.4,36.1,49.4,36.1z M14.6,9.1c-0.5,0-1,0.4-1,1v24.1c0,0.5,0.4,1,1,1h34.7c0.5,0,1-0.4,1-1V10c0-0.5-0.4-1-1-1H14.6
		V9.1z"/>
</g>
</svg>
