<?xml version="1.0" encoding="utf-8"?>
<!-- Generator: Adobe Illustrator 22.0.0, SVG Export Plug-In . SVG Version: 6.00 Build 0)  -->
<svg version="1.1" id="Capa_1" xmlns="http://www.w3.org/2000/svg" xmlns:xlink="http://www.w3.org/1999/xlink" x="0px" y="0px"
	 viewBox="0 0 68.8 100" enable-background="new 0 0 68.8 100" xml:space="preserve">
<g>
	<rect fill="#525252" width="68.8" height="100"/>
</g>
<g>
	<path d="M66.8,2v96H2V2H66.8 M68.8,0H0v100h68.8V0L68.8,0z"/>
</g>
<g>
	<g>
		<g>
			<path fill="#DEDEDE" d="M34.4,89.5c-11.3,0-20.5-9.2-20.5-20.5s9.2-20.5,20.5-20.5S54.9,57.7,54.9,69
				C54.8,80.3,45.7,89.5,34.4,89.5L34.4,89.5z"/>
		</g>
		<g>
			<path d="M34.4,49.5c10.7,0,19.5,8.7,19.5,19.5c0,10.7-8.8,19.5-19.5,19.5S14.9,79.8,14.9,69S23.6,49.5,34.4,49.5 M34.4,47.5
				c-11.9,0-21.5,9.6-21.5,21.5s9.6,21.5,21.5,21.5S55.9,80.9,55.9,69S46.2,47.5,34.4,47.5L34.4,47.5z"/>
		</g>
	</g>
	<g>
		<g>
			<path fill="#DEDEDE" d="M34.4,89.5c-11.3,0-20.5-9.2-20.5-20.5s9.2-20.5,20.5-20.5S54.9,57.7,54.9,69
				C54.8,80.3,45.7,89.5,34.4,89.5L34.4,89.5z"/>
		</g>
		<g>
			<path d="M34.4,49.5c10.7,0,19.5,8.7,19.5,19.5c0,10.7-8.8,19.5-19.5,19.5S14.9,79.8,14.9,69S23.6,49.5,34.4,49.5 M34.4,47.5
				c-11.9,0-21.5,9.6-21.5,21.5s9.6,21.5,21.5,21.5S55.9,80.9,55.9,69S46.2,47.5,34.4,47.5L34.4,47.5z"/>
		</g>
	</g>
	<g>
		<g>
			<circle fill="#525252" cx="34.4" cy="69" r="8.8"/>
		</g>
		<g>
			<path d="M34.4,61.2c4.3,0,7.8,3.5,7.8,7.8s-3.5,7.8-7.8,7.8s-7.8-3.5-7.8-7.8S30.1,61.2,34.4,61.2 M34.4,59.2
				c-5.4,0-9.8,4.4-9.8,9.8s4.4,9.8,9.8,9.8s9.8-4.4,9.8-9.8S39.8,59.2,34.4,59.2L34.4,59.2z"/>
		</g>
	</g>
</g>
<g>
	<g>
		<path fill="#FFFFFF" d="M34.4,34.4c-6.3,0-11.5-5.1-11.5-11.5S28,11.5,34.4,11.5S45.8,16.6,45.8,23l0,0
			C45.8,29.3,40.7,34.4,34.4,34.4z"/>
	</g>
</g>
<g>
	<g>
		<path fill="#DEDEDE" d="M34.4,33.4c-5.8,0-10.5-4.7-10.5-10.5c0-2.8,1.1-5.4,3.1-7.4s4.6-3.1,7.4-3.1c5.8,0,10.5,4.7,10.5,10.5
			C44.8,28.7,40.1,33.4,34.4,33.4L34.4,33.4z"/>
	</g>
	<g>
		<path d="M34.4,13.5c5.2,0,9.5,4.2,9.5,9.5c0,5.2-4.3,9.5-9.5,9.5s-9.5-4.2-9.5-9.5c0-2.5,1-4.9,2.8-6.7S31.8,13.5,34.4,13.5
			L34.4,13.5 M34.4,11.5L34.4,11.5c-6.3,0-11.5,5.1-11.5,11.5c0,6.3,5.1,11.5,11.5,11.5l0,0c6.3,0,11.5-5.1,11.5-11.5l0,0
			C45.8,16.6,40.7,11.5,34.4,11.5L34.4,11.5z"/>
	</g>
</g>
<g>
	<g>
		<path fill="#FFFF00" d="M34.4,26.4c-1.9,0-3.4-1.5-3.4-3.4c0-0.9,0.4-1.8,1-2.4s1.5-1,2.4-1c1.9,0,3.4,1.5,3.4,3.4
			C37.8,24.9,36.3,26.4,34.4,26.4L34.4,26.4z"/>
	</g>
	<g>
		<path stroke="#000000" stroke-miterlimit="10" d="M34.4,20.1c1.6,0,2.9,1.3,2.9,2.9s-1.3,2.9-2.9,2.9c-1.6,0-2.9-1.3-2.9-2.9
			C31.4,21.4,32.8,20.1,34.4,20.1L34.4,20.1 M34.4,19.1L34.4,19.1c-2.2,0-3.9,1.8-3.9,3.9c0,2.2,1.8,3.9,3.9,3.9l0,0
			c2.2,0,3.9-1.8,3.9-3.9l0,0C38.3,20.8,36.5,19.1,34.4,19.1L34.4,19.1z"/>
	</g>
</g>
<g>
	<g>
		<circle cx="5.3" cy="5.6" r="1.7"/>
	</g>
	<g>
		<circle cx="63.4" cy="94.4" r="1.7"/>
	</g>
	<g>
		<circle cx="5.3" cy="94.4" r="1.7"/>
	</g>
	<g>
		<circle cx="63.4" cy="5.6" r="1.7"/>
	</g>
</g>
<g>
	<circle fill="#FF0080" cx="31.8" cy="42.3" r="1.6"/>
	<circle fill="#00FF80" cx="37" cy="42.3" r="1.6"/>
</g>
</svg>
