<?xml version="1.0" encoding="utf-8"?>
<!-- Generator: Adobe Illustrator 22.0.0, SVG Export Plug-In . SVG Version: 6.00 Build 0)  -->
<svg version="1.1"
	 id="svg2" inkscape:export-filename="/home/byron/art/cards/final/PNGs/10_of_clubs.png" inkscape:export-xdpi="215.44792" inkscape:export-ydpi="215.44792" inkscape:version="0.48.0 r9654" sodipodi:docname="10_of_clubs.svg" xmlns:cc="http://creativecommons.org/ns#" xmlns:dc="http://purl.org/dc/elements/1.1/" xmlns:inkscape="http://www.inkscape.org/namespaces/inkscape" xmlns:rdf="http://www.w3.org/1999/02/22-rdf-syntax-ns#" xmlns:sodipodi="http://sodipodi.sourceforge.net/DTD/sodipodi-0.dtd" xmlns:svg="http://www.w3.org/2000/svg"
	 xmlns="http://www.w3.org/2000/svg" xmlns:xlink="http://www.w3.org/1999/xlink" x="0px" y="0px" viewBox="0 0 100 145.2"
	 style="enable-background:new 0 0 100 145.2;" xml:space="preserve" height="145.2px" width="100px">
<style type="text/css">
	.st0{fill:#FFFFFF;}
	.st1{fill:#231F20;}
	.st2{enable-background:new    ;}
</style>
<sodipodi:namedview  bordercolor="#666666" borderopacity="1" gridtolerance="10" guidetolerance="10" id="namedview39" inkscape:current-layer="svg2" inkscape:cx="117.62976" inkscape:cy="148.16686" inkscape:pageopacity="0" inkscape:pageshadow="2" inkscape:window-height="977" inkscape:window-maximized="1" inkscape:window-width="1680" inkscape:window-x="0" inkscape:window-y="25" inkscape:zoom="2.4336873" objecttolerance="10" pagecolor="#ffffff" showgrid="false">
	</sodipodi:namedview>
<g id="Layer_x0020_1">
	<g id="path5">
		<path class="st0" d="M99.8,140.9c0,2.3-1.9,4.1-4.1,4.1H4.3c-2.3,0-4.1-1.9-4.1-4.1V4.3C0.1,2,2,0.1,4.3,0.1h91.5
			c2.3,0,4.1,1.9,4.1,4.1L99.8,140.9L99.8,140.9z"/>
		<path d="M95.7,145.2H4.3c-2.4,0-4.3-1.9-4.3-4.3V4.3C0,1.9,1.9,0,4.3,0h91.5c2.4,0,4.3,1.9,4.3,4.3v136.8H100
			C99.9,143.4,98,145.2,95.7,145.2z M4.3,0.3c-2.2,0-4,1.8-4,4v136.6c0,2.2,1.8,4,4,4h91.4c2.2,0,4-1.8,4-4v-0.1h0.1V4.3
			c0-2.2-1.8-4-4-4H4.3z"/>
	</g>
	<g id="g7">
		<g id="g9">
		</g>
	</g>
	<g id="g15">
	</g>
	<g id="g19">
	</g>
	<g id="g23">
		<g id="g25">
		</g>
	</g>
	<g id="g31">
		<g id="g33">
		</g>
	</g>
</g>
<g id="layer1-1-4" transform="matrix(1.4856506,0,0,1.4856506,-54.024661,10.018072)">
	<g id="cl-9">
		<path inkscape:connector-curvature="0" class="st1" d="M44.7,10.9c0,0,1.4-1.1,1.4-2.7c0-0.9-0.8-2.5-2.7-2.5s-2.7,1.6-2.7,2.5
			c0,1.6,1.4,2.7,1.4,2.7c-1.6-1.3-4.4-0.4-4.4,2.1c0,1.3,1,2.6,2.6,2.6c1.9,0,2.7-2.1,2.7-2.1s0.2,2.3-1.1,3.6h3.1
			c-1.4-1.3-1.1-3.6-1.1-3.6s0.8,2.1,2.7,2.1c1.6,0,2.6-1.4,2.6-2.6C49.1,10.5,46.3,9.6,44.7,10.9z"/>
	</g>
</g>
<g id="layer1-1-4-1" transform="matrix(-1.4856506,0,0,-1.4856506,221.19916,232.46182)">
	<g id="cl-9-7">
		<path inkscape:connector-curvature="0" class="st1" d="M89.9,76.4c0,0,1.4-1.1,1.4-2.7c0-0.9-0.8-2.5-2.7-2.5
			c-1.9,0-2.7,1.6-2.7,2.5c0,1.6,1.4,2.7,1.4,2.7C85.8,75.2,83,76,83,78.5c0,1.3,1,2.6,2.6,2.6c1.9,0,2.7-2.1,2.7-2.1
			s0.2,2.3-1.1,3.6h3.1c-1.4-1.3-1.1-3.6-1.1-3.6s0.8,2.1,2.7,2.1c1.6,0,2.6-1.4,2.6-2.6C94.3,76,91.4,75.2,89.9,76.4z"/>
	</g>
</g>
<g id="cl-9-8">
	<path inkscape:connector-curvature="0" class="st1" d="M34.5,15c0,0,3.6-2.9,3.6-6.8c0-2.3-2-6.2-6.8-6.2s-6.8,3.8-6.8,6.2
		c0,3.9,3.6,6.8,3.6,6.8c-3.9-3.1-11-1-11,5.2c0,3.1,2.5,6.5,6.5,6.5c4.8,0,6.8-5.2,6.8-5.2s0.6,5.9-2.9,9.1h7.8
		c-3.5-3.2-2.9-9.1-2.9-9.1s2,5.2,6.8,5.2c3.9,0,6.5-3.4,6.5-6.5C45.5,14.1,38.4,11.9,34.5,15z"/>
</g>
<g id="cl-9-8-0">
	<path inkscape:connector-curvature="0" class="st1" d="M34.2,55.8c0,0,3.6-2.9,3.6-6.8c0-2.3-2-6.2-6.8-6.2s-6.8,3.8-6.8,6.2
		c0,3.9,3.6,6.8,3.6,6.8c-3.9-3.1-11-1-11,5.2c0,3.1,2.5,6.5,6.5,6.5c4.8,0,6.8-5.2,6.8-5.2s0.6,5.9-2.9,9.1h7.8
		c-3.5-3.2-2.9-9.1-2.9-9.1s2,5.2,6.8,5.2c3.9,0,6.5-3.4,6.5-6.5C45.3,54.8,38.1,52.7,34.2,55.8z"/>
</g>
<g id="cl-9-8-9">
	<path inkscape:connector-curvature="0" class="st1" d="M72.8,14.9c0,0,3.6-2.9,3.6-6.8c0-2.3-2-6.2-6.8-6.2c-4.8,0-6.8,3.8-6.8,6.2
		c0,3.9,3.6,6.8,3.6,6.8c-3.9-3.1-11-1-11,5.2c0,3.1,2.5,6.5,6.5,6.5c4.8,0,6.8-5.2,6.8-5.2s0.6,5.9-2.9,9.1h7.8
		c-3.5-3.2-2.9-9.1-2.9-9.1s2,5.2,6.8,5.2c3.9,0,6.5-3.4,6.5-6.5C83.8,14,76.7,11.9,72.8,14.9z"/>
</g>
<g id="cl-9-8-0-4">
	<path inkscape:connector-curvature="0" class="st1" d="M72.8,55.7c0,0,3.6-2.9,3.6-6.8c0-2.3-2-6.2-6.8-6.2c-4.8,0-6.8,3.8-6.8,6.2
		c0,3.9,3.6,6.8,3.6,6.8c-3.9-3.1-11-1-11,5.2c0,3.1,2.5,6.5,6.5,6.5c4.8,0,6.8-5.2,6.8-5.2s0.6,5.9-2.9,9.1h7.8
		c-3.5-3.2-2.9-9.1-2.9-9.1s2,5.2,6.8,5.2c3.9,0,6.5-3.4,6.5-6.5C83.8,54.7,76.7,52.6,72.8,55.7z"/>
</g>
<g id="cl-9-8-8">
	<path inkscape:connector-curvature="0" class="st1" d="M53.6,35.5c0,0,3.6-2.9,3.6-6.8c0-2.3-2-6.2-6.8-6.2s-6.8,3.8-6.8,6.2
		c0,3.9,3.6,6.8,3.6,6.8c-3.9-3.1-11-1-11,5.2c0,3.1,2.5,6.5,6.5,6.5c4.8,0,6.8-5.2,6.8-5.2s0.6,5.9-2.9,9.1h7.8
		c-3.5-3.2-2.9-9.1-2.9-9.1s2,5.2,6.8,5.2c3.9,0,6.5-3.4,6.5-6.5C64.6,34.5,57.6,32.4,53.6,35.5z"/>
</g>
<g id="cl-9-8-4">
	<path inkscape:connector-curvature="0" class="st1" d="M65.9,130.3c0,0-3.6,2.9-3.6,6.8c0,2.3,2,6.2,6.8,6.2c4.8,0,6.8-3.8,6.8-6.2
		c0-3.9-3.6-6.8-3.6-6.8c3.9,3.1,11,1,11-5.2c0-3.1-2.5-6.5-6.5-6.5c-4.8,0-6.8,5.2-6.8,5.2s-0.6-5.9,2.9-9.1h-7.8
		c3.5,3.2,2.9,9.1,2.9,9.1s-2-5.2-6.8-5.2c-3.9,0-6.5,3.4-6.5,6.5C54.8,131.3,61.9,133.4,65.9,130.3z"/>
</g>
<g id="cl-9-8-0-2">
	<path inkscape:connector-curvature="0" class="st1" d="M66.3,89.6c0,0-3.6,2.9-3.6,6.8c0,2.3,2,6.2,6.8,6.2c4.8,0,6.8-3.8,6.8-6.2
		c0-3.9-3.6-6.8-3.6-6.8c3.9,3.1,11,1,11-5.2c0-3.1-2.5-6.5-6.5-6.5c-4.8,0-6.8,5.2-6.8,5.2s-0.6-5.9,2.9-9.1h-7.8
		c3.5,3.2,2.9,9.1,2.9,9.1s-2-5.2-6.8-5.2c-3.9,0-6.5,3.4-6.5,6.5C55.3,90.5,62.3,92.7,66.3,89.6z"/>
</g>
<g id="cl-9-8-9-6">
	<path inkscape:connector-curvature="0" class="st1" d="M27.6,130.5c0,0-3.6,2.9-3.6,6.8c0,2.3,2,6.2,6.8,6.2s6.8-3.8,6.8-6.2
		c0-3.9-3.6-6.8-3.6-6.8c3.9,3.1,11,1,11-5.2c0-3.1-2.5-6.5-6.5-6.5c-4.8,0-6.8,5.2-6.8,5.2s-0.6-5.9,2.9-9.1H27
		c3.5,3.2,2.9,9.1,2.9,9.1s-2-5.2-6.8-5.2c-3.9,0-6.5,3.4-6.5,6.5C16.5,131.4,23.6,133.5,27.6,130.5z"/>
</g>
<g id="cl-9-8-0-4-9">
	<path inkscape:connector-curvature="0" class="st1" d="M27.7,89.7c0,0-3.6,2.9-3.6,6.8c0,2.3,2,6.2,6.8,6.2s6.8-3.8,6.8-6.2
		c0-3.9-3.6-6.8-3.6-6.8c3.9,3.1,11,1,11-5.2c0-3.1-2.5-6.5-6.5-6.5c-4.8,0-6.8,5.2-6.8,5.2s-0.6-5.9,2.9-9.1h-7.8
		c3.5,3.2,2.9,9.1,2.9,9.1S28,78,23.2,78c-3.9,0-6.5,3.4-6.5,6.5C16.7,90.7,23.7,92.8,27.7,89.7z"/>
</g>
<g class="st2">
	<path class="st1" d="M6.5,16.3H4.8V5.6C4.4,5.9,3.8,6.3,3.2,6.7C2.5,7.1,1.9,7.4,1.4,7.6V6c0.9-0.4,1.8-1,2.5-1.6
		c0.7-0.6,1.2-1.2,1.5-1.8h1.1V16.3z"/>
</g>
<g class="st2">
	<path class="st1" d="M7.4,9.7c0-1.6,0.2-2.9,0.5-3.9c0.3-1,0.8-1.7,1.5-2.3C10,3,10.9,2.7,11.9,2.7c0.7,0,1.4,0.1,1.9,0.4
		c0.6,0.3,1,0.7,1.4,1.3c0.4,0.6,0.6,1.2,0.9,2c0.2,0.8,0.3,1.9,0.3,3.2c0,1.6-0.2,2.9-0.5,3.9c-0.3,1-0.8,1.8-1.5,2.3
		c-0.7,0.5-1.5,0.8-2.5,0.8c-1.3,0-2.4-0.5-3.1-1.4C7.9,14.2,7.4,12.3,7.4,9.7z M9.1,9.7c0,2.2,0.3,3.7,0.8,4.5
		c0.5,0.7,1.2,1.1,1.9,1.1c0.8,0,1.4-0.4,1.9-1.1c0.5-0.7,0.8-2.2,0.8-4.5c0-2.3-0.3-3.8-0.8-4.5c-0.5-0.7-1.2-1.1-2-1.1
		c-0.8,0-1.4,0.3-1.9,1C9.4,5.9,9.1,7.5,9.1,9.7z"/>
</g>
<g id="cl-9-8-8-8">
	<path inkscape:connector-curvature="0" class="st1" d="M46.8,110.1c0,0-3.6,2.9-3.6,6.8c0,2.3,2,6.2,6.8,6.2s6.8-3.8,6.8-6.2
		c0-3.9-3.6-6.8-3.6-6.8c3.9,3.1,11,1,11-5.2c0-3.1-2.5-6.5-6.5-6.5c-4.8,0-6.8,5.2-6.8,5.2s-0.6-5.9,2.9-9.1h-7.8
		c3.5,3.2,2.9,9.1,2.9,9.1s-2-5.2-6.8-5.2c-3.9,0-6.5,3.4-6.5,6.5C35.7,111.1,42.7,113.2,46.8,110.1z"/>
</g>
<g class="st2">
	<path class="st1" d="M93.9,129.4h1.7v10.7c0.4-0.4,0.9-0.8,1.6-1.2c0.7-0.4,1.2-0.7,1.8-0.9v1.6c-0.9,0.4-1.8,1-2.5,1.6
		c-0.7,0.6-1.2,1.2-1.5,1.8h-1.1V129.4z"/>
</g>
<g class="st2">
	<path class="st1" d="M93,136c0,1.6-0.2,2.9-0.5,3.9c-0.3,1-0.8,1.7-1.5,2.3c-0.7,0.5-1.5,0.8-2.5,0.8c-0.7,0-1.4-0.1-1.9-0.4
		c-0.6-0.3-1-0.7-1.4-1.3c-0.4-0.6-0.6-1.2-0.9-2c-0.2-0.8-0.3-1.9-0.3-3.2c0-1.6,0.2-2.9,0.5-3.9c0.3-1,0.8-1.8,1.5-2.3
		c0.7-0.5,1.5-0.8,2.5-0.8c1.3,0,2.4,0.5,3.1,1.4C92.5,131.5,93,133.4,93,136z M91.2,136c0-2.2-0.3-3.7-0.8-4.5
		c-0.5-0.7-1.2-1.1-1.9-1.1c-0.8,0-1.4,0.4-1.9,1.1c-0.5,0.7-0.8,2.2-0.8,4.5c0,2.3,0.3,3.8,0.8,4.5c0.5,0.7,1.2,1.1,2,1.1
		c0.8,0,1.4-0.3,1.9-1C90.9,139.7,91.2,138.2,91.2,136z"/>
</g>
</svg>
