<?xml version="1.0" encoding="utf-8"?>
<!-- Generator: Adobe Illustrator 22.0.0, SVG Export Plug-In . SVG Version: 6.00 Build 0)  -->
<svg version="1.1"
	 id="svg2" inkscape:export-filename="/home/byron/art/cards/final/PNGs/10_of_diamonds.png" inkscape:export-xdpi="215.44792" inkscape:export-ydpi="215.44792" inkscape:version="0.48.0 r9654" sodipodi:docname="10_of_diamonds.svg" xmlns:cc="http://creativecommons.org/ns#" xmlns:dc="http://purl.org/dc/elements/1.1/" xmlns:inkscape="http://www.inkscape.org/namespaces/inkscape" xmlns:rdf="http://www.w3.org/1999/02/22-rdf-syntax-ns#" xmlns:sodipodi="http://sodipodi.sourceforge.net/DTD/sodipodi-0.dtd" xmlns:svg="http://www.w3.org/2000/svg"
	 xmlns="http://www.w3.org/2000/svg" xmlns:xlink="http://www.w3.org/1999/xlink" x="0px" y="0px" viewBox="0 0 100 145.2"
	 style="enable-background:new 0 0 100 145.2;" xml:space="preserve" height="145.2px" width="100px">
<style type="text/css">
	.st0{fill:#FFFFFF;}
	.st1{enable-background:new    ;}
	.st2{fill:#FF0080;}
</style>
<sodipodi:namedview  bordercolor="#666666" borderopacity="1" gridtolerance="10" guidetolerance="10" id="namedview39" inkscape:current-layer="svg2" inkscape:cx="72.124594" inkscape:cy="147.27218" inkscape:pageopacity="0" inkscape:pageshadow="2" inkscape:window-height="977" inkscape:window-maximized="1" inkscape:window-width="1680" inkscape:window-x="0" inkscape:window-y="25" inkscape:zoom="1.7208768" objecttolerance="10" pagecolor="#ffffff" showgrid="false">
	</sodipodi:namedview>
<g id="Layer_x0020_1">
	<g id="path5">
		<path class="st0" d="M99.8,140.9c0,2.3-1.9,4.1-4.1,4.1H4.3c-2.3,0-4.1-1.9-4.1-4.1V4.3C0.1,2,2,0.1,4.3,0.1h91.5
			c2.3,0,4.1,1.9,4.1,4.1L99.8,140.9L99.8,140.9z"/>
		<path d="M95.7,145.2H4.3c-2.4,0-4.3-1.9-4.3-4.3V4.3C0,1.9,1.9,0,4.3,0h91.5c2.4,0,4.3,1.9,4.3,4.3v136.8H100
			C99.9,143.4,98,145.2,95.7,145.2z M4.3,0.3c-2.2,0-4,1.8-4,4v136.6c0,2.2,1.8,4,4,4h91.4c2.2,0,4-1.8,4-4v-0.1h0.1V4.3
			c0-2.2-1.8-4-4-4H4.3z"/>
	</g>
	<g id="g7">
		<g id="g9">
		</g>
	</g>
	<g id="g15">
	</g>
	<g id="g19">
	</g>
	<g id="g23">
		<g id="g25">
		</g>
	</g>
	<g id="g31">
		<g id="g33">
		</g>
	</g>
</g>
<g class="st1">
	<path class="st2" d="M7.4,15.8H5.7V5.1C5.3,5.5,4.8,5.9,4.1,6.3C3.5,6.7,2.9,6.9,2.4,7.1V5.5c0.9-0.4,1.8-1,2.5-1.6
		C5.5,3.3,6,2.7,6.3,2.1h1.1V15.8z"/>
</g>
<g id="layer1-2-6" transform="matrix(1.4769065,0,0,1.4769065,16.968095,44.236162)">
	<g id="dl-6">
		<path inkscape:connector-curvature="0" sodipodi:nodetypes="ccccccccc" class="st2" d="M-2.7-14.8c-1.3-1.7-1.9-3.5-1.9-3.5
			s-0.7,1.7-1.9,3.5C-7.8-13.1-9.4-12-9.4-12s1.6,1.1,2.9,2.8c1.3,1.7,1.9,3.5,1.9,3.5s0.7-1.7,1.9-3.5c1.3-1.7,2.9-2.8,2.9-2.8
			S-1.4-13.1-2.7-14.8z"/>
	</g>
</g>
<g id="layer1-2-6-4" transform="matrix(1.4769065,0,0,1.4769065,150.62089,198.50346)">
	<g id="dl-6-9">
		<path inkscape:connector-curvature="0" sodipodi:nodetypes="ccccccccc" class="st2" d="M-39-56.8c-1.3-1.7-1.9-3.5-1.9-3.5
			s-0.7,1.7-1.9,3.5c-1.3,1.7-2.9,2.8-2.9,2.8s1.6,1.1,2.9,2.8c1.3,1.7,1.9,3.5,1.9,3.5s0.7-1.7,1.9-3.5c1.3-1.7,2.9-2.8,2.9-2.8
			S-37.7-55.1-39-56.8z"/>
	</g>
</g>
<g id="layer1-2-6-8-8" transform="matrix(2.5882908,0,0,2.5882908,54.128726,210.91474)">
	<g id="dl-6-8-8">
		<path inkscape:connector-curvature="0" sodipodi:nodetypes="ccccccccc" class="st2" d="M-6.5-35.5C-7.7-37.3-8.4-39-8.4-39
			s-0.7,1.7-1.9,3.5c-1.3,1.7-2.9,2.8-2.9,2.8s1.6,1.1,2.9,2.8c1.3,1.7,1.9,3.5,1.9,3.5s0.7-1.7,1.9-3.5c1.3-1.7,2.9-2.8,2.9-2.8
			S-5.2-33.9-6.5-35.5z"/>
	</g>
</g>
<g id="layer1-2-6-8-2-4" transform="matrix(2.5882908,0,0,2.5882908,54.128726,31.619539)">
	<g id="dl-6-8-6-3">
		<path inkscape:connector-curvature="0" sodipodi:nodetypes="ccccccccc" class="st2" d="M-6.5-7.7c-1.3-1.7-1.9-3.5-1.9-3.5
			S-9-9.4-10.3-7.7c-1.3,1.7-2.9,2.8-2.9,2.8s1.6,1.1,2.9,2.8C-9-0.3-8.4,1.4-8.4,1.4s0.7-1.7,1.9-3.5c1.3-1.7,2.9-2.8,2.9-2.8
			S-5.2-6-6.5-7.7z"/>
	</g>
</g>
<g id="layer1-2-6-8-2-8-1" transform="matrix(2.5882908,0,0,2.5882908,54.128726,151.18274)">
	<g id="dl-6-8-6-8-4">
		<path inkscape:connector-curvature="0" sodipodi:nodetypes="ccccccccc" class="st2" d="M-6.5-26.3c-1.3-1.7-1.9-3.5-1.9-3.5
			S-9-28-10.3-26.3c-1.3,1.7-2.9,2.8-2.9,2.8s1.6,1.1,2.9,2.8c1.3,1.7,1.9,3.5,1.9,3.5s0.7-1.7,1.9-3.5c1.3-1.7,2.9-2.8,2.9-2.8
			S-5.2-24.6-6.5-26.3z"/>
	</g>
</g>
<g id="layer1-2-6-8-2-8-1-4" transform="matrix(2.5882908,0,0,2.5882908,54.128726,91.351539)">
	<g id="dl-6-8-6-8-4-9">
		<path inkscape:connector-curvature="0" sodipodi:nodetypes="ccccccccc" class="st2" d="M-6.5-17c-1.3-1.7-1.9-3.5-1.9-3.5
			S-9-18.7-10.3-17c-1.3,1.7-2.9,2.8-2.9,2.8s1.6,1.1,2.9,2.8C-9-9.6-8.4-7.9-8.4-7.9s0.7-1.7,1.9-3.5c1.3-1.7,2.9-2.8,2.9-2.8
			S-5.2-15.3-6.5-17z"/>
	</g>
</g>
<g id="layer1-2-6-8-8-9" transform="matrix(2.5882908,0,0,2.5882908,112.89593,210.91474)">
	<g id="dl-6-8-8-4">
		<path inkscape:connector-curvature="0" sodipodi:nodetypes="ccccccccc" class="st2" d="M-15.6-35.5c-1.3-1.7-1.9-3.5-1.9-3.5
			s-0.7,1.7-1.9,3.5c-1.3,1.7-2.9,2.8-2.9,2.8s1.6,1.1,2.9,2.8c1.3,1.7,1.9,3.5,1.9,3.5s0.7-1.7,1.9-3.5c1.3-1.7,2.9-2.8,2.9-2.8
			S-14.3-33.9-15.6-35.5z"/>
	</g>
</g>
<g id="layer1-2-6-8-2-4-9" transform="matrix(2.5882908,0,0,2.5882908,112.89593,31.619552)">
	<g id="dl-6-8-6-3-0">
		<path inkscape:connector-curvature="0" sodipodi:nodetypes="ccccccccc" class="st2" d="M-15.6-7.7c-1.3-1.7-1.9-3.5-1.9-3.5
			s-0.7,1.7-1.9,3.5c-1.3,1.7-2.9,2.8-2.9,2.8s1.6,1.1,2.9,2.8c1.3,1.7,1.9,3.5,1.9,3.5s0.7-1.7,1.9-3.5c1.3-1.7,2.9-2.8,2.9-2.8
			S-14.3-6-15.6-7.7z"/>
	</g>
</g>
<g id="layer1-2-6-8-2-8-1-9" transform="matrix(2.5882908,0,0,2.5882908,112.89593,151.18274)">
	<g id="dl-6-8-6-8-4-1">
		<path inkscape:connector-curvature="0" sodipodi:nodetypes="ccccccccc" class="st2" d="M-15.6-26.3c-1.3-1.7-1.9-3.5-1.9-3.5
			s-0.7,1.7-1.9,3.5c-1.3,1.7-2.9,2.8-2.9,2.8s1.6,1.1,2.9,2.8c1.3,1.7,1.9,3.5,1.9,3.5s0.7-1.7,1.9-3.5c1.3-1.7,2.9-2.8,2.9-2.8
			S-14.3-24.6-15.6-26.3z"/>
	</g>
</g>
<g id="layer1-2-6-8-2-8-1-4-7" transform="matrix(2.5882908,0,0,2.5882908,112.89593,91.351542)">
	<g id="dl-6-8-6-8-4-9-7">
		<path inkscape:connector-curvature="0" sodipodi:nodetypes="ccccccccc" class="st2" d="M-15.6-17c-1.3-1.7-1.9-3.5-1.9-3.5
			s-0.7,1.7-1.9,3.5c-1.3,1.7-2.9,2.8-2.9,2.8s1.6,1.1,2.9,2.8c1.3,1.7,1.9,3.5,1.9,3.5s0.7-1.7,1.9-3.5c1.3-1.7,2.9-2.8,2.9-2.8
			S-14.3-15.3-15.6-17z"/>
	</g>
</g>
<g id="layer1-2-6-8-2-4-8" transform="matrix(2.5882908,0,0,2.5882908,83.213394,61.828949)">
	<g id="dl-6-8-6-3-5">
		<path inkscape:connector-curvature="0" sodipodi:nodetypes="ccccccccc" class="st2" d="M-11-12.4c-1.3-1.7-1.9-3.5-1.9-3.5
			s-0.7,1.7-1.9,3.5c-1.3,1.7-2.9,2.8-2.9,2.8s1.6,1.1,2.9,2.8c1.3,1.7,1.9,3.5,1.9,3.5S-12.2-5-11-6.8c1.3-1.7,2.9-2.8,2.9-2.8
			S-9.7-10.7-11-12.4z"/>
	</g>
</g>
<g id="layer1-2-6-8-2-4-8-8" transform="matrix(2.5882908,0,0,2.5882908,83.008034,180.83805)">
	<g id="dl-6-8-6-3-5-8">
		<path inkscape:connector-curvature="0" sodipodi:nodetypes="ccccccccc" class="st2" d="M-11-30.9c-1.3-1.7-1.9-3.5-1.9-3.5
			s-0.7,1.7-1.9,3.5c-1.3,1.7-2.9,2.8-2.9,2.8s1.6,1.1,2.9,2.8c1.3,1.7,1.9,3.5,1.9,3.5s0.7-1.7,1.9-3.5c1.3-1.7,2.9-2.8,2.9-2.8
			S-9.6-29.2-11-30.9z"/>
	</g>
</g>
<g class="st1">
	<path class="st2" d="M8.7,9.1c0-1.6,0.2-2.9,0.5-3.9c0.3-1,0.8-1.7,1.5-2.3C11.4,2.3,12.2,2,13.2,2c0.7,0,1.4,0.1,1.9,0.4
		c0.6,0.3,1,0.7,1.4,1.3c0.4,0.6,0.6,1.2,0.9,2c0.2,0.8,0.3,1.9,0.3,3.2c0,1.6-0.2,2.9-0.5,3.9c-0.3,1-0.8,1.8-1.5,2.3
		C15,15.8,14.2,16,13.2,16c-1.3,0-2.4-0.5-3.1-1.4C9.2,13.5,8.7,11.6,8.7,9.1z M10.5,9.1c0,2.2,0.3,3.7,0.8,4.5
		c0.5,0.7,1.2,1.1,1.9,1.1c0.8,0,1.4-0.4,1.9-1.1c0.5-0.7,0.8-2.2,0.8-4.5c0-2.3-0.3-3.8-0.8-4.5c-0.5-0.7-1.2-1.1-2-1.1
		c-0.8,0-1.4,0.3-1.9,1C10.8,5.3,10.5,6.8,10.5,9.1z"/>
</g>
<g class="st1">
	<path class="st2" d="M92.5,129.2h1.7V140c0.4-0.4,0.9-0.8,1.6-1.2c0.7-0.4,1.2-0.7,1.8-0.9v1.6c-0.9,0.4-1.8,1-2.5,1.6
		c-0.7,0.6-1.2,1.2-1.5,1.8h-1.1V129.2z"/>
</g>
<g class="st1">
	<path class="st2" d="M91.1,136c0,1.6-0.2,2.9-0.5,3.9c-0.3,1-0.8,1.7-1.5,2.3c-0.7,0.5-1.5,0.8-2.5,0.8c-0.7,0-1.4-0.1-1.9-0.4
		c-0.6-0.3-1-0.7-1.4-1.3c-0.4-0.6-0.6-1.2-0.9-2c-0.2-0.8-0.3-1.9-0.3-3.2c0-1.6,0.2-2.9,0.5-3.9c0.3-1,0.8-1.8,1.5-2.3
		c0.7-0.5,1.5-0.8,2.5-0.8c1.3,0,2.4,0.5,3.1,1.4C90.7,131.6,91.1,133.5,91.1,136z M89.4,136c0-2.2-0.3-3.7-0.8-4.5
		c-0.5-0.7-1.2-1.1-1.9-1.1c-0.8,0-1.4,0.4-1.9,1.1c-0.5,0.7-0.8,2.2-0.8,4.5c0,2.3,0.3,3.8,0.8,4.5c0.5,0.7,1.2,1.1,2,1.1
		c0.8,0,1.4-0.3,1.9-1C89.1,139.8,89.4,138.3,89.4,136z"/>
</g>
</svg>
