<?xml version="1.0" encoding="utf-8"?>
<!-- Generator: Adobe Illustrator 22.0.0, SVG Export Plug-In . SVG Version: 6.00 Build 0)  -->
<svg version="1.1"
	 id="svg2" inkscape:export-filename="/home/byron/art/cards/final/PNGs/10_of_hearts.png" inkscape:export-xdpi="215.44792" inkscape:export-ydpi="215.44792" inkscape:version="0.48.0 r9654" sodipodi:docname="10_of_hearts.svg" xmlns:cc="http://creativecommons.org/ns#" xmlns:dc="http://purl.org/dc/elements/1.1/" xmlns:inkscape="http://www.inkscape.org/namespaces/inkscape" xmlns:rdf="http://www.w3.org/1999/02/22-rdf-syntax-ns#" xmlns:sodipodi="http://sodipodi.sourceforge.net/DTD/sodipodi-0.dtd" xmlns:svg="http://www.w3.org/2000/svg"
	 xmlns="http://www.w3.org/2000/svg" xmlns:xlink="http://www.w3.org/1999/xlink" x="0px" y="0px" viewBox="0 0 100 145.2"
	 style="enable-background:new 0 0 100 145.2;" xml:space="preserve" height="145.2px" width="100px">
<style type="text/css">
	.st0{fill:#FFFFFF;}
	.st1{enable-background:new    ;}
	.st2{fill:#FF0080;}
</style>
<sodipodi:namedview  bordercolor="#666666" borderopacity="1" gridtolerance="10" guidetolerance="10" id="namedview39" inkscape:current-layer="svg2" inkscape:cx="-128.9357" inkscape:cy="147.27218" inkscape:pageopacity="0" inkscape:pageshadow="2" inkscape:window-height="977" inkscape:window-maximized="1" inkscape:window-width="1680" inkscape:window-x="0" inkscape:window-y="25" inkscape:zoom="1.7208768" objecttolerance="10" pagecolor="#ffffff" showgrid="false">
	</sodipodi:namedview>
<g id="Layer_x0020_1">
	<g id="path5">
		<path class="st0" d="M99.9,141c0,2.3-1.8,4.1-4.1,4.1H4.3c-2.3,0-4.1-1.9-4.1-4.1V4.3C0.1,2,2,0.1,4.3,0.1h91.5
			c2.3,0,4.1,1.9,4.1,4.1V141z"/>
		<path d="M95.7,145.2H4.3c-2.3,0-4.3-1.9-4.3-4.3V4.3C0,1.9,1.9,0,4.3,0h91.5c2.4,0,4.3,1.9,4.3,4.3V141
			C100,143.3,98.1,145.2,95.7,145.2z M4.3,0.3c-2.2,0-4,1.8-4,4V141c0,2.2,1.8,4,4,4h91.5c2.2,0,4-1.8,4-4V4.3c0-2.2-1.8-4-4-4H4.3z
			"/>
	</g>
	<g id="g7">
		<g id="g9">
		</g>
	</g>
	<g id="g15">
	</g>
	<g id="g19">
	</g>
	<g id="g23">
		<g id="g25">
		</g>
	</g>
	<g id="g31">
		<g id="g33">
		</g>
	</g>
</g>
<g class="st1">
	<path class="st2" d="M6.5,17.5H4.9V6.8C4.5,7.1,3.9,7.5,3.3,7.9C2.6,8.3,2,8.6,1.5,8.8V7.2c0.9-0.4,1.8-1,2.5-1.6
		c0.7-0.6,1.2-1.2,1.5-1.8h1.1V17.5z"/>
</g>
<g id="layer1-9-6" transform="matrix(1.6743072,0,0,1.5669921,17.177511,46.385321)">
	<g id="hl-8">
		<path inkscape:connector-curvature="0" sodipodi:nodetypes="scsscss" class="st2" d="M-1.9-17.3c-1.9,0-2.2,2.1-2.2,2.1
			s-0.3-2.1-2.2-2.1c-1.4,0-2.6,0.9-2.6,2.7c0,2.3,3.9,4.7,4.8,8.1c0.8-3.4,4.8-5.8,4.8-8.1C0.7-16.3-0.6-17.3-1.9-17.3z"/>
	</g>
</g>
<g id="layer1-9-6-5" transform="matrix(-1.6743072,0,0,-1.5669921,150.15601,195.14313)">
	<g id="hl-8-1">
		<path inkscape:connector-curvature="0" sodipodi:nodetypes="scsscss" class="st2" d="M38.2,44.6c-1.9,0-2.2,2.1-2.2,2.1
			s-0.3-2.1-2.2-2.1c-1.4,0-2.6,0.9-2.6,2.7c0,2.3,3.9,4.7,4.8,8.1c0.8-3.4,4.8-5.8,4.8-8.1C40.8,45.5,39.6,44.6,38.2,44.6z"/>
	</g>
</g>
<g id="layer1-9-6-8" transform="matrix(2.7790082,0,0,2.600887,54.512268,30.003768)">
	<g id="hl-8-8">
		<path inkscape:connector-curvature="0" sodipodi:nodetypes="scsscss" class="st2" d="M-5.7-10c-1.9,0-2.2,2.1-2.2,2.1
			S-8.1-10-10.1-10c-1.4,0-2.6,0.9-2.6,2.7c0,2.3,3.9,4.7,4.8,8.1C-7.1-2.7-3.1-5-3.1-7.3C-3.1-9.1-4.3-10-5.7-10z"/>
	</g>
</g>
<g id="layer1-9-6-8-9" transform="matrix(-2.7790082,0,0,-2.600887,54.512268,212.80617)">
	<g id="hl-8-8-5">
		<path inkscape:connector-curvature="0" sodipodi:nodetypes="scsscss" class="st2" d="M10.1,27.5c-1.9,0-2.2,2.1-2.2,2.1
			s-0.3-2.1-2.2-2.1c-1.4,0-2.6,0.9-2.6,2.7c0,2.3,3.9,4.7,4.8,8.1c0.8-3.4,4.8-5.8,4.8-8.1C12.7,28.4,11.4,27.5,10.1,27.5z"/>
	</g>
</g>
<g id="layer1-9-6-8-8" transform="matrix(2.7790082,0,0,2.600887,54.512268,95.238623)">
	<g id="hl-8-8-8">
		<path inkscape:connector-curvature="0" sodipodi:nodetypes="scsscss" class="st2" d="M-5.7-20.1c-1.9,0-2.2,2.1-2.2,2.1
			s-0.3-2.1-2.2-2.1c-1.4,0-2.6,0.9-2.6,2.7c0,2.3,3.9,4.7,4.8,8.1c0.8-3.4,4.8-5.8,4.8-8.1C-3.1-19.2-4.3-20.1-5.7-20.1z"/>
	</g>
</g>
<g id="layer1-9-6-8-884-8" transform="matrix(-2.7790082,0,0,-2.600887,54.512268,145.35601)">
	<g id="hl-8-8-3-8">
		<path inkscape:connector-curvature="0" sodipodi:nodetypes="scsscss" class="st2" d="M10.1,17.1c-1.9,0-2.2,2.1-2.2,2.1
			s-0.3-2.1-2.2-2.1c-1.4,0-2.6,0.9-2.6,2.7c0,2.3,3.9,4.7,4.8,8.1c0.8-3.4,4.8-5.8,4.8-8.1C12.7,18,11.4,17.1,10.1,17.1z"/>
	</g>
</g>
<g id="layer1-9-6-8-7" transform="matrix(2.7790082,0,0,2.600887,111.99088,30.602538)">
	<g id="hl-8-8-1">
		<path inkscape:connector-curvature="0" sodipodi:nodetypes="scsscss" class="st2" d="M-14-10.1c-1.9,0-2.2,2.1-2.2,2.1
			s-0.3-2.1-2.2-2.1c-1.4,0-2.6,0.9-2.6,2.7c0,2.3,3.9,4.7,4.8,8.1c0.8-3.4,4.8-5.8,4.8-8.1C-11.4-9.2-12.6-10.1-14-10.1z"/>
	</g>
</g>
<g id="layer1-9-6-8-9-7" transform="matrix(-2.7790082,0,0,-2.600887,111.99088,213.40494)">
	<g id="hl-8-8-5-2">
		<path inkscape:connector-curvature="0" sodipodi:nodetypes="scsscss" class="st2" d="M18.4,27.6c-1.9,0-2.2,2.1-2.2,2.1
			s-0.3-2.1-2.2-2.1c-1.4,0-2.6,0.9-2.6,2.7c0,2.3,3.9,4.7,4.8,8.1c0.8-3.4,4.8-5.8,4.8-8.1C21,28.5,19.7,27.6,18.4,27.6z"/>
	</g>
</g>
<g id="layer1-9-6-8-8-7" transform="matrix(2.7790082,0,0,2.600887,111.99088,95.837397)">
	<g id="hl-8-8-8-2">
		<path inkscape:connector-curvature="0" sodipodi:nodetypes="scsscss" class="st2" d="M-14-20.2c-1.9,0-2.2,2.1-2.2,2.1
			s-0.3-2.1-2.2-2.1c-1.4,0-2.6,0.9-2.6,2.7c0,2.3,3.9,4.7,4.8,8.1c0.8-3.4,4.8-5.8,4.8-8.1C-11.4-19.2-12.6-20.2-14-20.2z"/>
	</g>
</g>
<g id="layer1-9-6-8-884-8-2" transform="matrix(-2.7790082,0,0,-2.600887,111.99088,145.95478)">
	<g id="hl-8-8-3-8-6">
		<path inkscape:connector-curvature="0" sodipodi:nodetypes="scsscss" class="st2" d="M18.4,17.1c-1.9,0-2.2,2.1-2.2,2.1
			s-0.3-2.1-2.2-2.1c-1.4,0-2.6,0.9-2.6,2.7c0,2.3,3.9,4.7,4.8,8.1c0.8-3.4,4.8-5.8,4.8-8.1C21,18.1,19.7,17.1,18.4,17.1z"/>
	</g>
</g>
<g id="layer1-9-6-8-91" transform="matrix(2.7790082,0,0,2.600887,83.213391,62.704546)">
	<g id="hl-8-8-7">
		<path inkscape:connector-curvature="0" sodipodi:nodetypes="scsscss" class="st2" d="M-9.8-15.1c-1.9,0-2.2,2.1-2.2,2.1
			s-0.3-2.1-2.2-2.1c-1.4,0-2.6,0.9-2.6,2.7c0,2.3,3.9,4.7,4.8,8.1c0.8-3.4,4.8-5.8,4.8-8.1C-7.2-14.1-8.5-15.1-9.8-15.1z"/>
	</g>
</g>
<g id="layer1-9-6-8-9-6" transform="matrix(-2.7790082,0,0,-2.600887,82.748515,179.70293)">
	<g id="hl-8-8-5-8">
		<path inkscape:connector-curvature="0" sodipodi:nodetypes="scsscss" class="st2" d="M14.2,22.4c-1.9,0-2.2,2.1-2.2,2.1
			s-0.3-2.1-2.2-2.1c-1.4,0-2.6,0.9-2.6,2.7c0,2.3,3.9,4.7,4.8,8.1c0.8-3.4,4.8-5.8,4.8-8.1C16.7,23.3,15.5,22.4,14.2,22.4z"/>
	</g>
</g>
<g class="st1">
	<path class="st2" d="M8.1,10.6c0-1.6,0.2-2.9,0.5-3.9c0.3-1,0.8-1.8,1.5-2.3c0.7-0.5,1.5-0.8,2.5-0.8c0.7,0,1.4,0.1,1.9,0.4
		c0.6,0.3,1,0.7,1.4,1.3c0.4,0.6,0.6,1.2,0.9,2c0.2,0.8,0.3,1.9,0.3,3.2c0,1.6-0.2,2.9-0.5,3.9c-0.3,1-0.8,1.8-1.5,2.3
		c-0.7,0.5-1.5,0.8-2.5,0.8c-1.3,0-2.4-0.5-3.1-1.4C8.6,15,8.1,13.1,8.1,10.6z M9.9,10.6c0,2.3,0.3,3.7,0.8,4.5
		c0.5,0.7,1.2,1.1,1.9,1.1c0.8,0,1.4-0.4,1.9-1.1c0.5-0.7,0.8-2.2,0.8-4.5c0-2.3-0.3-3.8-0.8-4.5C14,5.3,13.4,5,12.6,5
		c-0.8,0-1.4,0.3-1.9,1C10.2,6.8,9.9,8.3,9.9,10.6z"/>
</g>
<g class="st1">
	<path class="st2" d="M93.2,126.9h1.7v10.7c0.4-0.4,0.9-0.8,1.6-1.2c0.7-0.4,1.2-0.7,1.8-0.9v1.6c-0.9,0.4-1.8,1-2.5,1.6
		c-0.7,0.6-1.2,1.2-1.5,1.8h-1.1V126.9z"/>
</g>
<g class="st1">
	<path class="st2" d="M91.6,133.8c0,1.6-0.2,2.9-0.5,3.9c-0.3,1-0.8,1.7-1.5,2.3c-0.7,0.5-1.5,0.8-2.5,0.8c-0.7,0-1.4-0.1-1.9-0.4
		c-0.6-0.3-1-0.7-1.4-1.3c-0.4-0.6-0.6-1.2-0.9-2c-0.2-0.8-0.3-1.9-0.3-3.2c0-1.6,0.2-2.9,0.5-3.9c0.3-1,0.8-1.8,1.5-2.3
		c0.7-0.5,1.5-0.8,2.5-0.8c1.3,0,2.4,0.5,3.1,1.4C91.1,129.4,91.6,131.2,91.6,133.8z M89.8,133.8c0-2.3-0.3-3.7-0.8-4.5
		c-0.5-0.7-1.2-1.1-1.9-1.1c-0.8,0-1.4,0.4-1.9,1.1c-0.5,0.7-0.8,2.2-0.8,4.5c0,2.3,0.3,3.8,0.8,4.5c0.5,0.7,1.2,1.1,2,1.1
		c0.8,0,1.4-0.3,1.9-1C89.5,137.6,89.8,136.1,89.8,133.8z"/>
</g>
</svg>
