<?xml version="1.0" encoding="utf-8"?>
<!-- Generator: Adobe Illustrator 22.0.0, SVG Export Plug-In . SVG Version: 6.00 Build 0)  -->
<svg version="1.1"
	 id="svg2" inkscape:export-filename="/home/byron/art/cards/final/PNGs/10_of_spades.png" inkscape:export-xdpi="215.44792" inkscape:export-ydpi="215.44792" inkscape:version="0.48.0 r9654" sodipodi:docname="10_of_spades.svg" xmlns:cc="http://creativecommons.org/ns#" xmlns:dc="http://purl.org/dc/elements/1.1/" xmlns:inkscape="http://www.inkscape.org/namespaces/inkscape" xmlns:rdf="http://www.w3.org/1999/02/22-rdf-syntax-ns#" xmlns:sodipodi="http://sodipodi.sourceforge.net/DTD/sodipodi-0.dtd" xmlns:svg="http://www.w3.org/2000/svg"
	 xmlns="http://www.w3.org/2000/svg" xmlns:xlink="http://www.w3.org/1999/xlink" x="0px" y="0px" viewBox="0 0 100 145.2"
	 style="enable-background:new 0 0 100 145.2;" xml:space="preserve" height="145.2px" width="100px">
<style type="text/css">
	.st0{fill:#FFFFFF;}
	.st1{enable-background:new    ;}
	.st2{fill:#231F20;}
</style>
<sodipodi:namedview  bordercolor="#666666" borderopacity="1" gridtolerance="10" guidetolerance="10" id="namedview39" inkscape:current-layer="svg2" inkscape:cx="106.02254" inkscape:cy="157.08206" inkscape:pageopacity="0" inkscape:pageshadow="2" inkscape:window-height="977" inkscape:window-maximized="1" inkscape:window-width="1680" inkscape:window-x="0" inkscape:window-y="25" inkscape:zoom="2.4336873" objecttolerance="10" pagecolor="#ffffff" showgrid="false">
	</sodipodi:namedview>
<g id="Layer_x0020_1">
	<g id="path5">
		<path class="st0" d="M99.8,140.9c0,2.3-1.9,4.1-4.1,4.1H4.3c-2.3,0-4.1-1.9-4.1-4.1V4.3C0.1,2,2,0.1,4.3,0.1h91.5
			c2.3,0,4.1,1.9,4.1,4.1L99.8,140.9L99.8,140.9z"/>
		<path d="M95.7,145.2H4.3c-2.4,0-4.3-1.9-4.3-4.3V4.3C0,1.9,1.9,0,4.3,0h91.5c2.4,0,4.3,1.9,4.3,4.3v136.8H100
			C99.9,143.4,98,145.2,95.7,145.2z M4.3,0.3c-2.2,0-4,1.8-4,4v136.6c0,2.2,1.8,4,4,4h91.4c2.2,0,4-1.8,4-4v-0.1h0.1V4.3
			c0-2.2-1.8-4-4-4H4.3z"/>
	</g>
	<g id="g7">
		<g id="g9">
		</g>
	</g>
	<g id="g15">
	</g>
	<g id="g19">
	</g>
	<g id="g23">
		<g id="g25">
		</g>
	</g>
	<g id="g31">
		<g id="g33">
		</g>
	</g>
</g>
<g class="st1">
	<path class="st2" d="M7.2,17H5.5V6.3C5.1,6.7,4.6,7,3.9,7.4C3.3,7.8,2.7,8.1,2.1,8.3V6.7c0.9-0.4,1.8-1,2.5-1.6
		c0.7-0.6,1.2-1.2,1.5-1.8h1.1V17z"/>
</g>
<g id="layer1-7" transform="matrix(1.5085945,0,0,1.3793253,16.929041,45.065897)">
	<g id="sl">
		<path inkscape:connector-curvature="0" sodipodi:nodetypes="cccccccccc" class="st2" d="M0.3-11.2c-0.2-2.5-4.7-7-4.8-8.1
			c-0.1,1.1-4.6,5.7-4.8,8.1c-0.1,1.7,1,2.5,2,2.5c1.1,0,2-1.7,2.3-2c0.1,0.4-1,4-1.3,4h3.5c-0.4,0-1.4-3.6-1.3-4
			c0.3,0.3,1.1,2,2.3,2C-0.7-8.8,0.4-9.5,0.3-11.2z"/>
	</g>
</g>
<g id="layer1-7-88" transform="matrix(2.6486789,0,0,2.4217176,53.01089,31.765995)">
	<g id="sl-4">
		<path inkscape:connector-curvature="0" sodipodi:nodetypes="cccccccccc" class="st2" d="M-3.2-3.4c-0.2-2.5-4.7-7-4.8-8.1
			c-0.1,1.1-4.6,5.7-4.8,8.1c-0.1,1.7,1,2.5,2,2.5c1.1,0,2-1.7,2.3-2c0.1,0.4-1,4-1.3,4h3.5c-0.4,0-1.4-3.6-1.3-4
			c0.3,0.3,1.1,2,2.3,2C-4.3-0.9-3.1-1.7-3.2-3.4z"/>
	</g>
</g>
<g id="layer1-7-3" transform="matrix(-1.5085945,0,0,-1.3793253,150.22511,198.04408)">
	<g id="sl-1">
		<path inkscape:connector-curvature="0" sodipodi:nodetypes="cccccccccc" class="st2" d="M44.8,59.5c-0.2-2.5-4.7-7-4.8-8.1
			c-0.1,1.1-4.6,5.7-4.8,8.1c-0.1,1.7,1,2.5,2,2.5c1.1,0,2-1.7,2.3-2c0.1,0.4-1,4-1.3,4h3.5c-0.4,0-1.4-3.6-1.3-4
			c0.3,0.3,1.1,2,2.3,2C43.8,62,44.9,61.2,44.8,59.5z"/>
	</g>
</g>
<g id="layer1-7-88-8" transform="matrix(2.6486789,0,0,2.4217176,53.339713,94.698498)">
	<g id="sl-4-8">
		<path inkscape:connector-curvature="0" sodipodi:nodetypes="cccccccccc" class="st2" d="M-3.3-13.8c-0.2-2.5-4.7-7-4.8-8.1
			c-0.1,1.1-4.6,5.7-4.8,8.1c-0.1,1.7,1,2.5,2,2.5c1.1,0,2-1.7,2.3-2c0.1,0.4-1,4-1.3,4h3.5c-0.4,0-1.4-3.6-1.3-4
			c0.3,0.3,1.1,2,2.3,2C-4.3-11.4-3.2-12.1-3.3-13.8z"/>
	</g>
</g>
<g id="layer1-7-88-4" transform="matrix(-2.6486789,0,0,-2.4217176,53.789261,212.66394)">
	<g id="sl-4-3">
		<path inkscape:connector-curvature="0" sodipodi:nodetypes="cccccccccc" class="st2" d="M12.9,37.1c-0.2-2.5-4.7-7-4.8-8.1
			c-0.1,1.1-4.6,5.7-4.8,8.1c-0.1,1.7,1,2.5,2,2.5c1.1,0,2-1.7,2.3-2c0.1,0.4-1,4-1.3,4h3.5c-0.4,0-1.4-3.6-1.3-4
			c0.3,0.3,1.1,2,2.3,2C11.9,39.6,13.1,38.9,12.9,37.1z"/>
	</g>
</g>
<g id="layer1-7-88-8-1" transform="matrix(-2.6486789,0,0,-2.4217176,53.460438,151.33144)">
	<g id="sl-4-8-4">
		<path inkscape:connector-curvature="0" sodipodi:nodetypes="cccccccccc" class="st2" d="M12.9,26.9c-0.2-2.5-4.7-7-4.8-8.1
			c-0.1,1.1-4.6,5.7-4.8,8.1c-0.1,1.7,1,2.5,2,2.5c1.1,0,2-1.7,2.3-2c0.1,0.4-1,4-1.3,4h3.5c-0.4,0-1.4-3.6-1.3-4
			c0.3,0.3,1.1,2,2.3,2C11.9,29.4,13,28.7,12.9,26.9z"/>
	</g>
</g>
<g id="layer1-7-88-9" transform="matrix(2.6486789,0,0,2.4217176,114.97822,31.578035)">
	<g id="sl-4-2">
		<path inkscape:connector-curvature="0" sodipodi:nodetypes="cccccccccc" class="st2" d="M-12.6-3.4c-0.2-2.5-4.7-7-4.8-8.1
			c-0.1,1.1-4.6,5.7-4.8,8.1c-0.1,1.7,1,2.5,2,2.5c1.1,0,2-1.7,2.3-2c0.1,0.4-1,4-1.3,4h3.5c-0.4,0-1.4-3.6-1.3-4
			c0.3,0.3,1.1,2,2.3,2C-13.7-0.9-12.5-1.6-12.6-3.4z"/>
	</g>
</g>
<g id="layer1-7-88-8-0" transform="matrix(2.6486789,0,0,2.4217176,115.30704,94.510535)">
	<g id="sl-4-8-6">
		<path inkscape:connector-curvature="0" sodipodi:nodetypes="cccccccccc" class="st2" d="M-12.7-13.8c-0.2-2.5-4.7-7-4.8-8.1
			c-0.1,1.1-4.6,5.7-4.8,8.1c-0.1,1.7,1,2.5,2,2.5c1.1,0,2-1.7,2.3-2c0.1,0.4-1,4-1.3,4h3.5c-0.4,0-1.4-3.6-1.3-4
			c0.3,0.3,1.1,2,2.3,2C-13.7-11.4-12.6-12.1-12.7-13.8z"/>
	</g>
</g>
<g id="layer1-7-88-4-8" transform="matrix(-2.6486789,0,0,-2.4217176,115.75659,212.47597)">
	<g id="sl-4-3-9">
		<path inkscape:connector-curvature="0" sodipodi:nodetypes="cccccccccc" class="st2" d="M22.3,37.1c-0.2-2.5-4.7-7-4.8-8.1
			c-0.1,1.1-4.6,5.7-4.8,8.1c-0.1,1.7,1,2.5,2,2.5c1.1,0,2-1.7,2.3-2c0.1,0.4-1,4-1.3,4h3.5c-0.4,0-1.4-3.6-1.3-4
			c0.3,0.3,1.1,2,2.3,2C21.3,39.5,22.5,38.8,22.3,37.1z"/>
	</g>
</g>
<g id="layer1-7-88-8-1-2" transform="matrix(-2.6486789,0,0,-2.4217176,115.42777,151.14347)">
	<g id="sl-4-8-4-6">
		<path inkscape:connector-curvature="0" sodipodi:nodetypes="cccccccccc" class="st2" d="M22.3,26.9c-0.2-2.5-4.7-7-4.8-8.1
			c-0.1,1.1-4.6,5.7-4.8,8.1c-0.1,1.7,1,2.5,2,2.5c1.1,0,2-1.7,2.3-2c0.1,0.4-1,4-1.3,4h3.5c-0.4,0-1.4-3.6-1.3-4
			c0.3,0.3,1.1,2,2.3,2C21.3,29.4,22.4,28.7,22.3,26.9z"/>
	</g>
</g>
<g id="layer1-7-88-6" transform="matrix(2.6486789,0,0,2.4217176,84.152135,64.171198)">
	<g id="sl-4-4">
		<path inkscape:connector-curvature="0" sodipodi:nodetypes="cccccccccc" class="st2" d="M-8-8.8c-0.2-2.5-4.7-7-4.8-8.1
			c-0.1,1.1-4.6,5.7-4.8,8.1c-0.1,1.7,1,2.5,2,2.5c1.1,0,2-1.7,2.3-2c0.1,0.4-1,4-1.3,4h3.5c-0.4,0-1.4-3.6-1.3-4
			c0.3,0.3,1.1,2,2.3,2C-9-6.3-7.8-7-8-8.8z"/>
	</g>
</g>
<g id="layer1-7-88-6-6" transform="matrix(-2.6486789,0,0,-2.4217176,84.480868,180.54025)">
	<g id="sl-4-4-8">
		<path inkscape:connector-curvature="0" sodipodi:nodetypes="cccccccccc" class="st2" d="M17.6,31.8c-0.2-2.5-4.7-7-4.8-8.1
			c-0.1,1.1-4.6,5.7-4.8,8.1c-0.1,1.7,1,2.5,2,2.5c1.1,0,2-1.7,2.3-2c0.1,0.4-1,4-1.3,4h3.5c-0.4,0-1.4-3.6-1.3-4
			c0.3,0.3,1.1,2,2.3,2C16.6,34.2,17.7,33.5,17.6,31.8z"/>
	</g>
</g>
<g class="st1">
	<path class="st2" d="M8.1,10.4c0-1.6,0.2-2.9,0.5-3.9c0.3-1,0.8-1.7,1.5-2.3c0.7-0.5,1.5-0.8,2.5-0.8c0.7,0,1.4,0.1,1.9,0.4
		c0.6,0.3,1,0.7,1.4,1.3c0.4,0.6,0.6,1.2,0.9,2c0.2,0.8,0.3,1.9,0.3,3.2c0,1.6-0.2,2.9-0.5,3.9c-0.3,1-0.8,1.8-1.5,2.3
		c-0.7,0.5-1.5,0.8-2.5,0.8c-1.3,0-2.4-0.5-3.1-1.4C8.6,14.9,8.1,13,8.1,10.4z M9.9,10.4c0,2.2,0.3,3.7,0.8,4.5
		c0.5,0.7,1.2,1.1,1.9,1.1c0.8,0,1.4-0.4,1.9-1.1c0.5-0.7,0.8-2.2,0.8-4.5c0-2.3-0.3-3.8-0.8-4.5c-0.5-0.7-1.2-1.1-2-1.1
		c-0.8,0-1.4,0.3-1.9,1C10.1,6.6,9.9,8.2,9.9,10.4z"/>
</g>
<g class="st1">
	<path class="st2" d="M92.7,128.4h1.7v10.7c0.4-0.4,0.9-0.8,1.6-1.2c0.7-0.4,1.2-0.7,1.8-0.9v1.6c-0.9,0.4-1.8,1-2.5,1.6
		c-0.7,0.6-1.2,1.2-1.5,1.8h-1.1V128.4z"/>
</g>
<g class="st1">
	<path class="st2" d="M91.8,135c0,1.6-0.2,2.9-0.5,3.9c-0.3,1-0.8,1.7-1.5,2.3c-0.7,0.5-1.5,0.8-2.5,0.8c-0.7,0-1.4-0.1-1.9-0.4
		c-0.6-0.3-1-0.7-1.4-1.3c-0.4-0.6-0.6-1.2-0.9-2c-0.2-0.8-0.3-1.9-0.3-3.2c0-1.6,0.2-2.9,0.5-3.9c0.3-1,0.8-1.8,1.5-2.3
		c0.7-0.5,1.5-0.8,2.5-0.8c1.3,0,2.4,0.5,3.1,1.4C91.3,130.5,91.8,132.4,91.8,135z M90,135c0-2.2-0.3-3.7-0.8-4.5
		c-0.5-0.7-1.2-1.1-1.9-1.1c-0.8,0-1.4,0.4-1.9,1.1c-0.5,0.7-0.8,2.2-0.8,4.5c0,2.3,0.3,3.8,0.8,4.5c0.5,0.7,1.2,1.1,2,1.1
		c0.8,0,1.4-0.3,1.9-1C89.8,138.8,90,137.2,90,135z"/>
</g>
</svg>
