<?xml version="1.0" encoding="utf-8"?>
<!-- Generator: Adobe Illustrator 22.0.0, SVG Export Plug-In . SVG Version: 6.00 Build 0)  -->
<svg version="1.1"
	 id="svg2" inkscape:export-filename="/home/byron/art/cards/final/PNGs/2_of_hearts.png" inkscape:export-xdpi="215.44792" inkscape:export-ydpi="215.44792" inkscape:version="0.48.0 r9654" sodipodi:docname="2_of_hearts.svg" xmlns:cc="http://creativecommons.org/ns#" xmlns:dc="http://purl.org/dc/elements/1.1/" xmlns:inkscape="http://www.inkscape.org/namespaces/inkscape" xmlns:rdf="http://www.w3.org/1999/02/22-rdf-syntax-ns#" xmlns:sodipodi="http://sodipodi.sourceforge.net/DTD/sodipodi-0.dtd" xmlns:svg="http://www.w3.org/2000/svg"
	 xmlns="http://www.w3.org/2000/svg" xmlns:xlink="http://www.w3.org/1999/xlink" x="0px" y="0px" viewBox="0 0 100 145.2"
	 style="enable-background:new 0 0 100 145.2;" xml:space="preserve" height="145.2px" width="100px">
<style type="text/css">
	.st0{fill:#FFFFFF;}
	.st1{enable-background:new    ;}
	.st2{fill:#FF0080;}
</style>
<sodipodi:namedview  bordercolor="#666666" borderopacity="1" gridtolerance="10" guidetolerance="10" id="namedview39" inkscape:current-layer="svg2" inkscape:cx="-28.405554" inkscape:cy="147.27218" inkscape:pageopacity="0" inkscape:pageshadow="2" inkscape:window-height="977" inkscape:window-maximized="1" inkscape:window-width="1680" inkscape:window-x="0" inkscape:window-y="25" inkscape:zoom="1.7208768" objecttolerance="10" pagecolor="#ffffff" showgrid="false">
	</sodipodi:namedview>
<g id="Layer_x0020_1">
	<g id="path5">
		<path class="st0" d="M99.8,140.9c0,2.3-1.9,4.1-4.1,4.1H4.3c-2.3,0-4.1-1.9-4.1-4.1V4.3C0.1,2,2,0.1,4.3,0.1h91.5
			c2.3,0,4.1,1.9,4.1,4.1L99.8,140.9L99.8,140.9z"/>
		<path d="M95.7,145.2H4.3c-2.4,0-4.3-1.9-4.3-4.3V4.3C0,1.9,1.9,0,4.3,0h91.5c2.4,0,4.3,1.9,4.3,4.3v136.8H100
			C99.9,143.4,98,145.2,95.7,145.2z M4.3,0.3c-2.2,0-4,1.8-4,4v136.6c0,2.2,1.8,4,4,4h91.4c2.2,0,4-1.8,4-4v-0.1h0.1V4.3
			c0-2.2-1.8-4-4-4H4.3z"/>
	</g>
	<g id="g7">
		<g id="g9">
		</g>
	</g>
	<g id="g15">
	</g>
	<g id="g19">
	</g>
	<g id="g23">
		<g id="g25">
		</g>
	</g>
	<g id="g31">
		<g id="g33">
		</g>
	</g>
</g>
<g class="st1">
	<path class="st2" d="M14.9,15.2v1.6H5.9c0-0.4,0.1-0.8,0.2-1.2c0.2-0.6,0.6-1.2,1.1-1.8c0.5-0.6,1.2-1.3,2.2-2.1
		c1.5-1.2,2.5-2.2,3-2.9c0.5-0.7,0.8-1.4,0.8-2c0-0.7-0.2-1.2-0.7-1.7c-0.5-0.5-1.1-0.7-1.9-0.7c-0.8,0-1.5,0.2-1.9,0.7
		s-0.7,1.2-0.7,2L6.2,7C6.3,5.7,6.7,4.7,7.5,4c0.8-0.7,1.8-1,3.1-1c1.3,0,2.4,0.4,3.1,1.1c0.8,0.7,1.1,1.6,1.1,2.7
		c0,0.5-0.1,1.1-0.3,1.6C14.3,9,14,9.5,13.4,10.1c-0.5,0.6-1.4,1.4-2.6,2.4c-1,0.8-1.7,1.4-1.9,1.7c-0.3,0.3-0.5,0.6-0.7,0.9H14.9z"
		/>
</g>
<g id="layer1-9-6" transform="matrix(1.6743072,0,0,1.5669921,17.177511,46.385321)">
	<g id="hl-8">
		<path inkscape:connector-curvature="0" sodipodi:nodetypes="scsscss" class="st2" d="M-1.9-17.3c-2,0-2.2,2.1-2.2,2.1
			s-0.2-2.1-2.2-2.1c-1.3,0-2.6,1-2.6,2.7c0,2.3,3.9,4.7,4.8,8.1c0.8-3.4,4.8-5.7,4.8-8.1C0.7-16.3-0.6-17.3-1.9-17.3z"/>
	</g>
</g>
<g class="st1">
	<path class="st2" d="M85.4,129.4v-1.6h9.1c0,0.4-0.1,0.8-0.2,1.2c-0.2,0.6-0.6,1.2-1.1,1.8c-0.5,0.6-1.2,1.3-2.2,2.1
		c-1.5,1.2-2.5,2.2-3,2.9c-0.5,0.7-0.8,1.4-0.8,2c0,0.7,0.2,1.2,0.7,1.7c0.5,0.5,1.1,0.7,1.9,0.7c0.8,0,1.5-0.2,1.9-0.7
		s0.7-1.2,0.7-2l1.7,0.2c-0.1,1.3-0.6,2.3-1.3,2.9c-0.8,0.7-1.8,1-3.1,1c-1.3,0-2.4-0.4-3.1-1.1s-1.1-1.6-1.1-2.7
		c0-0.5,0.1-1.1,0.3-1.6c0.2-0.5,0.6-1.1,1.1-1.7c0.5-0.6,1.4-1.4,2.6-2.4c1-0.8,1.7-1.4,1.9-1.7c0.3-0.3,0.5-0.6,0.7-0.9H85.4z"/>
</g>
<g id="layer1-9-6-5" transform="matrix(-1.6743072,0,0,-1.5669921,150.15601,195.14313)">
	<g id="hl-8-1">
		<path inkscape:connector-curvature="0" sodipodi:nodetypes="scsscss" class="st2" d="M38.2,44.6c-2,0-2.2,2.1-2.2,2.1
			s-0.2-2.1-2.2-2.1c-1.3,0-2.6,1-2.6,2.7c0,2.3,3.9,4.7,4.8,8.1c0.8-3.4,4.8-5.7,4.8-8.1C40.8,45.6,39.5,44.6,38.2,44.6z"/>
	</g>
</g>
<g id="layer1-9-6-8" transform="matrix(2.7790082,0,0,2.600887,83.701068,56.859768)">
	<g id="hl-8-8">
		<path inkscape:connector-curvature="0" sodipodi:nodetypes="scsscss" class="st2" d="M-9.9-14.2c-2,0-2.2,2.1-2.2,2.1
			s-0.2-2.1-2.2-2.1c-1.3,0-2.6,1-2.6,2.7c0,2.3,3.9,4.7,4.8,8.1c0.8-3.4,4.8-5.7,4.8-8.1C-7.3-13.2-8.6-14.2-9.9-14.2z"/>
	</g>
</g>
<g id="layer1-9-6-8-9" transform="matrix(-2.7790082,0,0,-2.600887,83.701068,185.26217)">
	<g id="hl-8-8-5">
		<path inkscape:connector-curvature="0" sodipodi:nodetypes="scsscss" class="st2" d="M14.3,23.2c-2,0-2.2,2.1-2.2,2.1
			s-0.2-2.1-2.2-2.1c-1.3,0-2.6,1-2.6,2.7c0,2.3,3.9,4.7,4.8,8.1c0.8-3.4,4.8-5.7,4.8-8.1C16.9,24.2,15.6,23.2,14.3,23.2z"/>
	</g>
</g>
</svg>
