<?xml version="1.0" encoding="utf-8"?>
<!-- Generator: Adobe Illustrator 22.0.0, SVG Export Plug-In . SVG Version: 6.00 Build 0)  -->
<svg version="1.1"
	 id="svg2" inkscape:export-filename="/home/byron/art/cards/final/PNGs/2_of_spades.png" inkscape:export-xdpi="215.44792" inkscape:export-ydpi="215.44792" inkscape:version="0.48.0 r9654" sodipodi:docname="2_of_spades.svg" xmlns:cc="http://creativecommons.org/ns#" xmlns:dc="http://purl.org/dc/elements/1.1/" xmlns:inkscape="http://www.inkscape.org/namespaces/inkscape" xmlns:rdf="http://www.w3.org/1999/02/22-rdf-syntax-ns#" xmlns:sodipodi="http://sodipodi.sourceforge.net/DTD/sodipodi-0.dtd" xmlns:svg="http://www.w3.org/2000/svg"
	 xmlns="http://www.w3.org/2000/svg" xmlns:xlink="http://www.w3.org/1999/xlink" x="0px" y="0px" viewBox="0 0 100 145.2"
	 style="enable-background:new 0 0 100 145.2;" xml:space="preserve" height="145.2px" width="100px">
<style type="text/css">
	.st0{fill:#FFFFFF;}
	.st1{fill:#231F20;}
	.st2{enable-background:new    ;}
</style>
<sodipodi:namedview  bordercolor="#666666" borderopacity="1" gridtolerance="10" guidetolerance="10" id="namedview39" inkscape:current-layer="svg2" inkscape:cx="106.02254" inkscape:cy="157.08206" inkscape:pageopacity="0" inkscape:pageshadow="2" inkscape:window-height="977" inkscape:window-maximized="1" inkscape:window-width="1680" inkscape:window-x="0" inkscape:window-y="25" inkscape:zoom="2.4336873" objecttolerance="10" pagecolor="#ffffff" showgrid="false">
	</sodipodi:namedview>
<g id="Layer_x0020_1">
	<g id="path5">
		<path class="st0" d="M99.8,140.9c0,2.3-1.9,4.1-4.1,4.1H4.3c-2.3,0-4.1-1.9-4.1-4.1V4.3C0.1,2,2,0.1,4.3,0.1h91.5
			c2.3,0,4.1,1.9,4.1,4.1L99.8,140.9L99.8,140.9z"/>
		<path class="st1" d="M95.7,145.2H4.3c-2.4,0-4.3-1.9-4.3-4.3V4.3C0,1.9,1.9,0,4.3,0h91.5c2.4,0,4.3,1.9,4.3,4.3v136.8H100
			C99.9,143.4,98,145.2,95.7,145.2z M4.3,0.3c-2.2,0-4,1.8-4,4v136.6c0,2.2,1.8,4,4,4h91.4c2.2,0,4-1.8,4-4v-0.1h0.1V4.3
			c0-2.2-1.8-4-4-4H4.3z"/>
	</g>
	<g id="g7">
		<g id="g9">
		</g>
	</g>
	<g id="g15">
	</g>
	<g id="g19">
	</g>
	<g id="g23">
		<g id="g25">
		</g>
	</g>
	<g id="g31">
		<g id="g33">
		</g>
	</g>
</g>
<g class="st2">
	<path class="st1" d="M14.8,15.2v1.6H5.7c0-0.4,0.1-0.8,0.2-1.2C6.1,15,6.5,14.4,7,13.8c0.5-0.6,1.2-1.3,2.2-2.1
		c1.5-1.2,2.5-2.2,3-2.9c0.5-0.7,0.8-1.4,0.8-2c0-0.7-0.2-1.2-0.7-1.7c-0.5-0.5-1.1-0.7-1.9-0.7C9.6,4.4,9,4.7,8.5,5.2
		s-0.7,1.2-0.7,2L6,7C6.2,5.7,6.6,4.7,7.4,4c0.8-0.7,1.8-1,3.1-1c1.3,0,2.4,0.4,3.1,1.1s1.1,1.6,1.1,2.7c0,0.5-0.1,1.1-0.3,1.6
		c-0.2,0.5-0.6,1.1-1.1,1.7c-0.5,0.6-1.4,1.4-2.6,2.4c-1,0.8-1.7,1.4-1.9,1.7c-0.3,0.3-0.5,0.6-0.7,0.9H14.8z"/>
</g>
<g id="layer1-7" transform="matrix(1.5085945,0,0,1.3793253,16.929041,45.065897)">
	<g id="sl">
		<path inkscape:connector-curvature="0" sodipodi:nodetypes="cccccccccc" class="st1" d="M0.3-11.2c-0.2-2.5-4.7-7-4.8-8.1
			c-0.1,1.1-4.6,5.7-4.8,8.1c-0.1,1.7,1,2.5,2,2.5c1.1,0,2-1.7,2.3-2c0.1,0.4-1,4-1.3,4h3.5c-0.4,0-1.4-3.6-1.3-4
			c0.3,0.3,1.1,2,2.3,2C-0.7-8.8,0.4-9.5,0.3-11.2z"/>
	</g>
</g>
<g id="layer1-7-88" transform="matrix(2.6486789,0,0,2.4217176,83.41089,57.365995)">
	<g id="sl-4">
		<path inkscape:connector-curvature="0" sodipodi:nodetypes="cccccccccc" class="st1" d="M-7.9-7.6c-0.2-2.5-4.7-7-4.8-8.1
			c-0.1,1.1-4.6,5.7-4.8,8.1c-0.1,1.7,1,2.5,2,2.5c1.1,0,2-1.7,2.3-2c0.1,0.4-1,4-1.3,4h3.5c-0.4,0-1.4-3.6-1.3-4
			c0.3,0.3,1.1,2,2.3,2C-8.9-5.2-7.7-5.9-7.9-7.6z"/>
	</g>
</g>
<g class="st2">
	<path class="st1" d="M85.5,130.3v-1.6h9.1c0,0.4-0.1,0.8-0.2,1.2c-0.2,0.6-0.6,1.2-1.1,1.8c-0.5,0.6-1.2,1.3-2.2,2.1
		c-1.5,1.2-2.5,2.2-3,2.9c-0.5,0.7-0.8,1.4-0.8,2c0,0.7,0.2,1.2,0.7,1.7c0.5,0.5,1.1,0.7,1.9,0.7c0.8,0,1.5-0.2,1.9-0.7
		c0.5-0.5,0.7-1.2,0.7-2l1.7,0.2c-0.1,1.3-0.6,2.3-1.3,2.9c-0.8,0.7-1.8,1-3.1,1c-1.3,0-2.4-0.4-3.1-1.1c-0.8-0.7-1.1-1.6-1.1-2.7
		c0-0.5,0.1-1.1,0.3-1.6c0.2-0.5,0.6-1.1,1.1-1.7c0.5-0.6,1.4-1.4,2.6-2.4c1-0.8,1.7-1.4,1.9-1.7c0.3-0.3,0.5-0.6,0.7-0.9H85.5z"/>
</g>
<g id="layer1-7-3" transform="matrix(-1.5085945,0,0,-1.3793253,150.22511,198.04408)">
	<g id="sl-1">
		<path inkscape:connector-curvature="0" sodipodi:nodetypes="cccccccccc" class="st1" d="M44.8,59.5c-0.2-2.5-4.7-7-4.8-8.1
			c-0.1,1.1-4.6,5.7-4.8,8.1c-0.1,1.7,1,2.5,2,2.5c1.1,0,2-1.7,2.3-2c0.1,0.4-1,4-1.3,4h3.5c-0.4,0-1.4-3.6-1.3-4
			c0.3,0.3,1.1,2,2.3,2C43.8,62,44.9,61.2,44.8,59.5z"/>
	</g>
</g>
<g id="layer1-7-88-7" transform="matrix(-2.6486789,0,0,-2.4217176,83.45613,185.77132)">
	<g id="sl-4-5">
		<path inkscape:connector-curvature="0" sodipodi:nodetypes="cccccccccc" class="st1" d="M17.4,32.7c-0.2-2.5-4.7-7-4.8-8.1
			c-0.1,1.1-4.6,5.7-4.8,8.1c-0.1,1.7,1,2.5,2,2.5c1.1,0,2-1.7,2.3-2c0.1,0.4-1,4-1.3,4h3.5c-0.4,0-1.4-3.6-1.3-4
			c0.3,0.3,1.1,2,2.3,2C16.4,35.1,17.6,34.4,17.4,32.7z"/>
	</g>
</g>
</svg>
