<?xml version="1.0" encoding="utf-8"?>
<!-- Generator: Adobe Illustrator 22.0.0, SVG Export Plug-In . SVG Version: 6.00 Build 0)  -->
<svg version="1.1"
	 id="svg2" inkscape:export-filename="/home/byron/art/cards/final/PNGs/3_of_hearts.png" inkscape:export-xdpi="215.44792" inkscape:export-ydpi="215.44792" inkscape:version="0.48.0 r9654" sodipodi:docname="3_of_hearts.svg" xmlns:cc="http://creativecommons.org/ns#" xmlns:dc="http://purl.org/dc/elements/1.1/" xmlns:inkscape="http://www.inkscape.org/namespaces/inkscape" xmlns:rdf="http://www.w3.org/1999/02/22-rdf-syntax-ns#" xmlns:sodipodi="http://sodipodi.sourceforge.net/DTD/sodipodi-0.dtd" xmlns:svg="http://www.w3.org/2000/svg"
	 xmlns="http://www.w3.org/2000/svg" xmlns:xlink="http://www.w3.org/1999/xlink" x="0px" y="0px" viewBox="0 0 100 145.2"
	 style="enable-background:new 0 0 100 145.2;" xml:space="preserve" height="145.2px" width="100px">
<style type="text/css">
	.st0{fill:#FFFFFF;}
	.st1{enable-background:new    ;}
	.st2{fill:#FF0080;}
</style>
<sodipodi:namedview  bordercolor="#666666" borderopacity="1" gridtolerance="10" guidetolerance="10" id="namedview39" inkscape:current-layer="svg2" inkscape:cx="-28.405554" inkscape:cy="147.27218" inkscape:pageopacity="0" inkscape:pageshadow="2" inkscape:window-height="977" inkscape:window-maximized="1" inkscape:window-width="1680" inkscape:window-x="0" inkscape:window-y="25" inkscape:zoom="1.7208768" objecttolerance="10" pagecolor="#ffffff" showgrid="false">
	</sodipodi:namedview>
<g id="Layer_x0020_1">
	<g id="path5">
		<path class="st0" d="M99.8,140.9c0,2.3-1.9,4.1-4.1,4.1H4.3c-2.3,0-4.1-1.9-4.1-4.1V4.3C0.1,2,2,0.1,4.3,0.1h91.5
			c2.3,0,4.1,1.9,4.1,4.1L99.8,140.9L99.8,140.9z"/>
		<path d="M95.7,145.2H4.3c-2.4,0-4.3-1.9-4.3-4.3V4.3C0,1.9,1.9,0,4.3,0h91.5c2.4,0,4.3,1.9,4.3,4.3v136.8H100
			C99.9,143.4,98,145.2,95.7,145.2z M4.3,0.3c-2.2,0-4,1.8-4,4v136.6c0,2.2,1.8,4,4,4h91.4c2.2,0,4-1.8,4-4v-0.1h0.1V4.3
			c0-2.2-1.8-4-4-4H4.3z"/>
	</g>
	<g id="g7">
		<g id="g9">
		</g>
	</g>
	<g id="g15">
	</g>
	<g id="g19">
	</g>
	<g id="g23">
		<g id="g25">
		</g>
	</g>
	<g id="g31">
		<g id="g33">
		</g>
	</g>
</g>
<g class="st1">
	<path class="st2" d="M6.1,13.2l1.7-0.2c0.2,1,0.5,1.6,1,2.1c0.5,0.4,1,0.6,1.7,0.6c0.8,0,1.5-0.3,2-0.8c0.5-0.5,0.8-1.2,0.8-2
		c0-0.8-0.3-1.4-0.8-1.9c-0.5-0.5-1.1-0.8-1.9-0.8c-0.3,0-0.7,0.1-1.2,0.2l0.2-1.5c0.1,0,0.2,0,0.3,0c0.7,0,1.4-0.2,1.9-0.6
		c0.6-0.4,0.9-0.9,0.9-1.7c0-0.6-0.2-1.1-0.6-1.5c-0.4-0.4-1-0.6-1.6-0.6C9.8,4.4,9.2,4.6,8.8,5c-0.4,0.4-0.7,1-0.8,1.9L6.3,6.6
		c0.2-1.1,0.7-2,1.4-2.6C8.4,3.3,9.3,3,10.4,3c0.7,0,1.4,0.2,2.1,0.5c0.6,0.3,1.1,0.8,1.4,1.3c0.3,0.6,0.5,1.1,0.5,1.8
		c0,0.6-0.2,1.1-0.5,1.6c-0.3,0.5-0.8,0.9-1.4,1.2c0.8,0.2,1.4,0.6,1.9,1.2c0.4,0.6,0.7,1.3,0.7,2.2c0,1.2-0.4,2.2-1.3,3
		c-0.9,0.8-2,1.2-3.3,1.2c-1.2,0-2.2-0.4-3-1.1C6.6,15.2,6.2,14.3,6.1,13.2z"/>
</g>
<g id="layer1-9-6" transform="matrix(1.6743072,0,0,1.5669921,17.177511,46.385321)">
	<g id="hl-8">
		<path inkscape:connector-curvature="0" sodipodi:nodetypes="scsscss" class="st2" d="M-1.9-17.3c-2,0-2.2,2.1-2.2,2.1
			s-0.2-2.1-2.2-2.1c-1.3,0-2.6,1-2.6,2.7c0,2.3,3.9,4.7,4.8,8.1c0.8-3.4,4.8-5.7,4.8-8.1C0.7-16.3-0.6-17.3-1.9-17.3z"/>
	</g>
</g>
<g class="st1">
	<path class="st2" d="M94.2,131.4l-1.7,0.2c-0.2-1-0.5-1.6-1-2.1c-0.5-0.4-1-0.6-1.7-0.6c-0.8,0-1.5,0.3-2,0.8
		c-0.5,0.5-0.8,1.2-0.8,2c0,0.8,0.3,1.4,0.8,1.9c0.5,0.5,1.1,0.8,1.9,0.8c0.3,0,0.7-0.1,1.2-0.2l-0.2,1.5c-0.1,0-0.2,0-0.3,0
		c-0.7,0-1.4,0.2-1.9,0.6c-0.6,0.4-0.9,0.9-0.9,1.7c0,0.6,0.2,1.1,0.6,1.5c0.4,0.4,1,0.6,1.6,0.6c0.7,0,1.2-0.2,1.6-0.6
		c0.4-0.4,0.7-1,0.8-1.9l1.7,0.3c-0.2,1.1-0.7,2-1.4,2.6c-0.7,0.6-1.6,0.9-2.7,0.9c-0.7,0-1.4-0.2-2.1-0.5c-0.6-0.3-1.1-0.8-1.4-1.3
		c-0.3-0.6-0.5-1.1-0.5-1.8c0-0.6,0.2-1.1,0.5-1.6c0.3-0.5,0.8-0.9,1.4-1.2c-0.8-0.2-1.4-0.6-1.9-1.2c-0.4-0.6-0.7-1.3-0.7-2.2
		c0-1.2,0.4-2.2,1.3-3c0.9-0.8,2-1.2,3.3-1.2c1.2,0,2.2,0.4,3,1.1C93.7,129.3,94.1,130.2,94.2,131.4z"/>
</g>
<g id="layer1-9-6-5" transform="matrix(-1.6743072,0,0,-1.5669921,150.15601,195.14313)">
	<g id="hl-8-1">
		<path inkscape:connector-curvature="0" sodipodi:nodetypes="scsscss" class="st2" d="M38.2,44.6c-2,0-2.2,2.1-2.2,2.1
			s-0.2-2.1-2.2-2.1c-1.3,0-2.6,1-2.6,2.7c0,2.3,3.9,4.7,4.8,8.1c0.8-3.4,4.8-5.7,4.8-8.1C40.8,45.6,39.5,44.6,38.2,44.6z"/>
	</g>
</g>
<g id="layer1-9-6-8" transform="matrix(2.7790082,0,0,2.600887,83.312268,47.603768)">
	<g id="hl-8-8">
		<path inkscape:connector-curvature="0" sodipodi:nodetypes="scsscss" class="st2" d="M-9.8-12.7c-2,0-2.2,2.1-2.2,2.1
			s-0.2-2.1-2.2-2.1c-1.3,0-2.6,1-2.6,2.7c0,2.3,3.9,4.7,4.8,8.1c0.8-3.4,4.8-5.7,4.8-8.1C-7.2-11.8-8.5-12.7-9.8-12.7z"/>
	</g>
</g>
<g id="layer1-9-6-8-9" transform="matrix(-2.7790082,0,0,-2.600887,83.312268,192.00617)">
	<g id="hl-8-8-5">
		<path inkscape:connector-curvature="0" sodipodi:nodetypes="scsscss" class="st2" d="M14.2,24.3c-2,0-2.2,2.1-2.2,2.1
			s-0.2-2.1-2.2-2.1c-1.3,0-2.6,1-2.6,2.7c0,2.3,3.9,4.7,4.8,8.1c0.8-3.4,4.8-5.7,4.8-8.1C16.8,25.2,15.6,24.3,14.2,24.3z"/>
	</g>
</g>
<g id="layer1-9-6-8-8" transform="matrix(2.7790082,0,0,2.600887,83.312268,118.90457)">
	<g id="hl-8-8-8">
		<path inkscape:connector-curvature="0" sodipodi:nodetypes="scsscss" class="st2" d="M-9.8-23.7c-2,0-2.2,2.1-2.2,2.1
			s-0.2-2.1-2.2-2.1c-1.3,0-2.6,1-2.6,2.7c0,2.3,3.9,4.7,4.8,8.1c0.8-3.4,4.8-5.7,4.8-8.1C-7.2-22.8-8.5-23.7-9.8-23.7z"/>
	</g>
</g>
</svg>
