<?xml version="1.0" encoding="utf-8"?>
<!-- Generator: Adobe Illustrator 22.0.0, SVG Export Plug-In . SVG Version: 6.00 Build 0)  -->
<svg version="1.1"
	 id="svg2" inkscape:export-filename="/home/byron/art/cards/final/PNGs/4_of_diamonds.png" inkscape:export-xdpi="215.44792" inkscape:export-ydpi="215.44792" inkscape:version="0.48.0 r9654" sodipodi:docname="4_of_diamonds.svg" xmlns:cc="http://creativecommons.org/ns#" xmlns:dc="http://purl.org/dc/elements/1.1/" xmlns:inkscape="http://www.inkscape.org/namespaces/inkscape" xmlns:rdf="http://www.w3.org/1999/02/22-rdf-syntax-ns#" xmlns:sodipodi="http://sodipodi.sourceforge.net/DTD/sodipodi-0.dtd" xmlns:svg="http://www.w3.org/2000/svg"
	 xmlns="http://www.w3.org/2000/svg" xmlns:xlink="http://www.w3.org/1999/xlink" x="0px" y="0px" viewBox="0 0 100 145.2"
	 style="enable-background:new 0 0 100 145.2;" xml:space="preserve" height="145.2px" width="100px">
<style type="text/css">
	.st0{fill:#FFFFFF;}
	.st1{enable-background:new    ;}
	.st2{fill:#FF0080;}
</style>
<sodipodi:namedview  bordercolor="#666666" borderopacity="1" gridtolerance="10" guidetolerance="10" id="namedview39" inkscape:current-layer="svg2" inkscape:cx="72.124594" inkscape:cy="147.27218" inkscape:pageopacity="0" inkscape:pageshadow="2" inkscape:window-height="977" inkscape:window-maximized="1" inkscape:window-width="1680" inkscape:window-x="0" inkscape:window-y="25" inkscape:zoom="1.7208768" objecttolerance="10" pagecolor="#ffffff" showgrid="false">
	</sodipodi:namedview>
<g id="Layer_x0020_1">
	<g id="path5">
		<path class="st0" d="M99.8,140.9c0,2.3-1.9,4.1-4.1,4.1H4.3c-2.3,0-4.1-1.9-4.1-4.1V4.3C0.1,2,2,0.1,4.3,0.1h91.5
			c2.3,0,4.1,1.9,4.1,4.1L99.8,140.9L99.8,140.9z"/>
		<path d="M95.7,145.2H4.3c-2.4,0-4.3-1.9-4.3-4.3V4.3C0,1.9,1.9,0,4.3,0h91.5c2.4,0,4.3,1.9,4.3,4.3v136.8H100
			C99.9,143.4,98,145.2,95.7,145.2z M4.3,0.3c-2.2,0-4,1.8-4,4v136.6c0,2.2,1.8,4,4,4h91.4c2.2,0,4-1.8,4-4v-0.1h0.1V4.3
			c0-2.2-1.8-4-4-4H4.3z"/>
	</g>
	<g id="g7">
		<g id="g9">
		</g>
	</g>
	<g id="g15">
	</g>
	<g id="g19">
	</g>
	<g id="g23">
		<g id="g25">
		</g>
	</g>
	<g id="g31">
		<g id="g33">
		</g>
	</g>
</g>
<g class="st1">
	<path class="st2" d="M10.9,15.8v-3.3H5V11l6.3-8.9h1.4V11h1.9v1.5h-1.9v3.3H10.9z M10.9,11V4.8L6.6,11H10.9z"/>
</g>
<g class="st1">
	<path class="st2" d="M89.3,129.7v3.3h5.9v1.5l-6.3,8.9h-1.4v-8.9h-1.9V133h1.9v-3.3H89.3z M89.3,134.5v6.2l4.3-6.2H89.3z"/>
</g>
<g id="layer1-2-6" transform="matrix(1.4769065,0,0,1.4769065,16.968095,44.236162)">
	<g id="dl-6">
		<path inkscape:connector-curvature="0" sodipodi:nodetypes="ccccccccc" class="st2" d="M-2.7-14.8c-1.3-1.7-1.9-3.5-1.9-3.5
			s-0.7,1.7-1.9,3.5C-7.8-13.1-9.4-12-9.4-12s1.6,1.1,2.9,2.8c1.3,1.7,1.9,3.5,1.9,3.5s0.7-1.7,1.9-3.5c1.3-1.7,2.9-2.8,2.9-2.8
			S-1.4-13.1-2.7-14.8z"/>
	</g>
</g>
<g id="layer1-2-6-4" transform="matrix(1.4769065,0,0,1.4769065,150.62089,198.50346)">
	<g id="dl-6-9">
		<path inkscape:connector-curvature="0" sodipodi:nodetypes="ccccccccc" class="st2" d="M-39-56.8c-1.3-1.7-1.9-3.5-1.9-3.5
			s-0.7,1.7-1.9,3.5c-1.3,1.7-2.9,2.8-2.9,2.8s1.6,1.1,2.9,2.8c1.3,1.7,1.9,3.5,1.9,3.5s0.7-1.7,1.9-3.5c1.3-1.7,2.9-2.8,2.9-2.8
			S-37.7-55.1-39-56.8z"/>
	</g>
</g>
<g id="layer1-2-6-8" transform="matrix(2.5882908,0,0,2.5882908,112.20553,184.02194)">
	<g id="dl-6-8">
		<path inkscape:connector-curvature="0" sodipodi:nodetypes="ccccccccc" class="st2" d="M-15.5-31.4c-1.3-1.7-1.9-3.5-1.9-3.5
			s-0.7,1.7-1.9,3.5c-1.3,1.7-2.9,2.8-2.9,2.8s1.6,1.1,2.9,2.8c1.3,1.7,1.9,3.5,1.9,3.5s0.7-1.7,1.9-3.5c1.3-1.7,2.9-2.8,2.9-2.8
			S-14.2-29.7-15.5-31.4z"/>
	</g>
</g>
<g id="layer1-2-6-8-2" transform="matrix(2.5882908,0,0,2.5882908,112.20553,55.619539)">
	<g id="dl-6-8-6">
		<path inkscape:connector-curvature="0" sodipodi:nodetypes="ccccccccc" class="st2" d="M-15.5-11.4c-1.3-1.7-1.9-3.5-1.9-3.5
			s-0.7,1.7-1.9,3.5c-1.3,1.7-2.9,2.8-2.9,2.8s1.6,1.1,2.9,2.8c1.3,1.7,1.9,3.5,1.9,3.5s0.7-1.7,1.9-3.5c1.3-1.7,2.9-2.8,2.9-2.8
			S-14.2-9.8-15.5-11.4z"/>
	</g>
</g>
<g id="layer1-2-6-8-8" transform="matrix(2.5882908,0,0,2.5882908,54.128726,184.02194)">
	<g id="dl-6-8-8">
		<path inkscape:connector-curvature="0" sodipodi:nodetypes="ccccccccc" class="st2" d="M-6.5-31.4c-1.3-1.7-1.9-3.5-1.9-3.5
			s-0.7,1.7-1.9,3.5c-1.3,1.7-2.9,2.8-2.9,2.8s1.6,1.1,2.9,2.8c1.3,1.7,1.9,3.5,1.9,3.5s0.7-1.7,1.9-3.5c1.3-1.7,2.9-2.8,2.9-2.8
			S-5.2-29.7-6.5-31.4z"/>
	</g>
</g>
<g id="layer1-2-6-8-2-4" transform="matrix(2.5882908,0,0,2.5882908,54.128726,55.619539)">
	<g id="dl-6-8-6-3">
		<path inkscape:connector-curvature="0" sodipodi:nodetypes="ccccccccc" class="st2" d="M-6.5-11.4c-1.3-1.7-1.9-3.5-1.9-3.5
			s-0.7,1.7-1.9,3.5c-1.3,1.7-2.9,2.8-2.9,2.8s1.6,1.1,2.9,2.8C-9-4.1-8.4-2.3-8.4-2.3s0.7-1.7,1.9-3.5c1.3-1.7,2.9-2.8,2.9-2.8
			S-5.2-9.8-6.5-11.4z"/>
	</g>
</g>
</svg>
