<?xml version="1.0" encoding="utf-8"?>
<!-- Generator: Adobe Illustrator 22.0.0, SVG Export Plug-In . SVG Version: 6.00 Build 0)  -->
<svg version="1.1"
	 id="svg2" inkscape:export-filename="/home/byron/art/cards/final/PNGs/5_of_clubs.png" inkscape:export-xdpi="215.44792" inkscape:export-ydpi="215.44792" inkscape:version="0.48.0 r9654" sodipodi:docname="5_of_clubs.svg" xmlns:cc="http://creativecommons.org/ns#" xmlns:dc="http://purl.org/dc/elements/1.1/" xmlns:inkscape="http://www.inkscape.org/namespaces/inkscape" xmlns:rdf="http://www.w3.org/1999/02/22-rdf-syntax-ns#" xmlns:sodipodi="http://sodipodi.sourceforge.net/DTD/sodipodi-0.dtd" xmlns:svg="http://www.w3.org/2000/svg"
	 xmlns="http://www.w3.org/2000/svg" xmlns:xlink="http://www.w3.org/1999/xlink" x="0px" y="0px" viewBox="0 0 100 145.2"
	 style="enable-background:new 0 0 100 145.2;" xml:space="preserve" height="145.2px" width="100px">
<style type="text/css">
	.st0{fill:#FFFFFF;}
	.st1{enable-background:new    ;}
	.st2{fill:#231F20;}
</style>
<sodipodi:namedview  bordercolor="#666666" borderopacity="1" gridtolerance="10" guidetolerance="10" id="namedview39" inkscape:current-layer="svg2" inkscape:cx="117.62976" inkscape:cy="148.16686" inkscape:pageopacity="0" inkscape:pageshadow="2" inkscape:window-height="977" inkscape:window-maximized="1" inkscape:window-width="1680" inkscape:window-x="0" inkscape:window-y="25" inkscape:zoom="2.4336873" objecttolerance="10" pagecolor="#ffffff" showgrid="false">
	</sodipodi:namedview>
<g id="Layer_x0020_1">
	<g id="path5">
		<path class="st0" d="M99.8,140.9c0,2.3-1.9,4.1-4.1,4.1H4.3c-2.3,0-4.1-1.9-4.1-4.1V4.3C0.1,2,2,0.1,4.3,0.1h91.5
			c2.3,0,4.1,1.9,4.1,4.1L99.8,140.9L99.8,140.9z"/>
		<path d="M95.7,145.2H4.3c-2.4,0-4.3-1.9-4.3-4.3V4.3C0,1.9,1.9,0,4.3,0h91.5c2.4,0,4.3,1.9,4.3,4.3v136.8H100
			C99.9,143.4,98,145.2,95.7,145.2z M4.3,0.3c-2.2,0-4,1.8-4,4v136.6c0,2.2,1.8,4,4,4h91.4c2.2,0,4-1.8,4-4v-0.1h0.1V4.3
			c0-2.2-1.8-4-4-4H4.3z"/>
	</g>
	<g id="g7">
		<g id="g9">
		</g>
	</g>
	<g id="g15">
	</g>
	<g id="g19">
	</g>
	<g id="g23">
		<g id="g25">
		</g>
	</g>
	<g id="g31">
		<g id="g33">
		</g>
	</g>
</g>
<g class="st1">
	<path class="st2" d="M5.8,12.9l1.8-0.1c0.1,0.9,0.4,1.5,0.9,1.9c0.5,0.4,1.1,0.6,1.7,0.6c0.8,0,1.5-0.3,2.1-0.9
		c0.6-0.6,0.8-1.4,0.8-2.4c0-1-0.3-1.7-0.8-2.3c-0.5-0.6-1.2-0.8-2.1-0.8c-0.5,0-1,0.1-1.5,0.4c-0.4,0.2-0.8,0.6-1,1L6.1,10l1.3-7
		h6.8v1.6H8.8L8,8.3c0.8-0.6,1.7-0.9,2.6-0.9c1.2,0,2.2,0.4,3,1.2c0.8,0.8,1.2,1.9,1.2,3.2c0,1.2-0.4,2.3-1.1,3.2
		c-0.9,1.1-2.1,1.7-3.6,1.7c-1.2,0-2.3-0.3-3.1-1C6.4,15,5.9,14.1,5.8,12.9z"/>
</g>
<g id="layer1-1-4" transform="matrix(1.4856506,0,0,1.4856506,-54.024661,10.018072)">
	<g id="cl-9">
		<path inkscape:connector-curvature="0" class="st2" d="M44.7,10.9c0,0,1.4-1.1,1.4-2.7c0-0.9-0.8-2.5-2.7-2.5s-2.7,1.6-2.7,2.5
			c0,1.6,1.4,2.7,1.4,2.7c-1.6-1.3-4.4-0.4-4.4,2.1c0,1.3,1,2.6,2.6,2.6c1.9,0,2.7-2.1,2.7-2.1s0.2,2.3-1.1,3.6h3.1
			c-1.4-1.3-1.1-3.6-1.1-3.6s0.8,2.1,2.7,2.1c1.6,0,2.6-1.4,2.6-2.6C49.1,10.5,46.3,9.6,44.7,10.9z"/>
	</g>
</g>
<g class="st1">
	<path class="st2" d="M94.3,131.9l-1.8,0.1c-0.1-0.9-0.4-1.5-0.9-1.9c-0.5-0.4-1.1-0.6-1.7-0.6c-0.8,0-1.5,0.3-2.1,0.9
		c-0.6,0.6-0.8,1.4-0.8,2.4c0,1,0.3,1.7,0.8,2.3c0.5,0.6,1.2,0.8,2.1,0.8c0.5,0,1-0.1,1.5-0.4c0.4-0.2,0.8-0.6,1-1l1.6,0.2l-1.3,7
		h-6.8v-1.6h5.5l0.7-3.7c-0.8,0.6-1.7,0.9-2.6,0.9c-1.2,0-2.2-0.4-3-1.2c-0.8-0.8-1.2-1.9-1.2-3.2c0-1.2,0.4-2.3,1.1-3.2
		c0.9-1.1,2.1-1.7,3.6-1.7c1.2,0,2.3,0.3,3.1,1C93.7,129.8,94.2,130.8,94.3,131.9z"/>
</g>
<g id="layer1-1-4-1" transform="matrix(-1.4856506,0,0,-1.4856506,221.19916,232.46182)">
	<g id="cl-9-7">
		<path inkscape:connector-curvature="0" class="st2" d="M89.9,76.4c0,0,1.4-1.1,1.4-2.7c0-0.9-0.8-2.5-2.7-2.5
			c-1.9,0-2.7,1.6-2.7,2.5c0,1.6,1.4,2.7,1.4,2.7C85.8,75.2,83,76,83,78.5c0,1.3,1,2.6,2.6,2.6c1.9,0,2.7-2.1,2.7-2.1
			s0.2,2.3-1.1,3.6h3.1c-1.4-1.3-1.1-3.6-1.1-3.6s0.8,2.1,2.7,2.1c1.6,0,2.6-1.4,2.6-2.6C94.3,76,91.4,75.2,89.9,76.4z"/>
	</g>
</g>
<g id="layer1-1-4-8" transform="matrix(2.5125778,0,0,2.5125778,-67.188386,-1.5311156)">
	<g id="cl-9-8">
		<path inkscape:connector-curvature="0" class="st2" d="M40.8,13.8c0,0,1.4-1.1,1.4-2.7c0-0.9-0.8-2.5-2.7-2.5s-2.7,1.6-2.7,2.5
			c0,1.6,1.4,2.7,1.4,2.7c-1.6-1.3-4.4-0.4-4.4,2.1c0,1.3,1,2.6,2.6,2.6c1.9,0,2.7-2.1,2.7-2.1s0.2,2.3-1.1,3.6h3.1
			c-1.4-1.3-1.1-3.6-1.1-3.6s0.8,2.1,2.7,2.1c1.6,0,2.6-1.4,2.6-2.6C45.2,13.4,42.4,12.6,40.8,13.8z"/>
	</g>
</g>
<g id="layer1-1-4-8-0" transform="matrix(-2.5125778,0,0,-2.5125778,174.72954,245.27515)">
	<g id="cl-9-8-6">
		<path inkscape:connector-curvature="0" class="st2" d="M58,52.8c0,0,1.4-1.1,1.4-2.7c0-0.9-0.8-2.5-2.7-2.5s-2.7,1.6-2.7,2.5
			c0,1.6,1.4,2.7,1.4,2.7c-1.6-1.3-4.4-0.4-4.4,2.1c0,1.3,1,2.6,2.6,2.6c1.9,0,2.7-2.1,2.7-2.1s0.2,2.3-1.1,3.6h3.1
			c-1.4-1.3-1.1-3.6-1.1-3.6s0.8,2.1,2.7,2.1c1.6,0,2.6-1.4,2.6-2.6C62.4,52.4,59.6,51.5,58,52.8z"/>
	</g>
</g>
<g id="layer1-1-4-8-2" transform="matrix(2.5125778,0,0,2.5125778,-9.1115857,-1.5311131)">
	<g id="cl-9-8-66">
		<path inkscape:connector-curvature="0" class="st2" d="M31.6,13.8c0,0,1.4-1.1,1.4-2.7c0-0.9-0.8-2.5-2.7-2.5s-2.7,1.6-2.7,2.5
			c0,1.6,1.4,2.7,1.4,2.7c-1.6-1.3-4.4-0.4-4.4,2.1c0,1.3,1,2.6,2.6,2.6c1.9,0,2.7-2.1,2.7-2.1s0.2,2.3-1.1,3.6h3.1
			c-1.4-1.3-1.1-3.6-1.1-3.6s0.8,2.1,2.7,2.1c1.6,0,2.6-1.4,2.6-2.6C35.9,13.4,33.1,12.6,31.6,13.8z"/>
	</g>
</g>
<g id="layer1-1-4-8-0-4" transform="matrix(-2.5125778,0,0,-2.5125778,232.80634,245.27515)">
	<g id="cl-9-8-6-9">
		<path inkscape:connector-curvature="0" class="st2" d="M67.3,52.8c0,0,1.4-1.1,1.4-2.7c0-0.9-0.8-2.5-2.7-2.5s-2.7,1.6-2.7,2.5
			c0,1.6,1.4,2.7,1.4,2.7c-1.6-1.3-4.4-0.4-4.4,2.1c0,1.3,1,2.6,2.6,2.6c1.9,0,2.7-2.1,2.7-2.1s0.2,2.3-1.1,3.6h3.1
			c-1.4-1.3-1.1-3.6-1.1-3.6s0.8,2.1,2.7,2.1c1.6,0,2.6-1.4,2.6-2.6C71.7,52.4,68.9,51.5,67.3,52.8z"/>
	</g>
</g>
<g id="layer1-1-4-8-2-6" transform="matrix(2.5125778,0,0,2.5125778,-38.388386,61.769684)">
	<g id="cl-9-8-0">
		<path inkscape:connector-curvature="0" class="st2" d="M36.2,3.7c0,0,1.4-1.1,1.4-2.7c0-0.9-0.8-2.5-2.7-2.5S32.3,0.1,32.3,1
			c0,1.6,1.4,2.7,1.4,2.7c-1.6-1.3-4.4-0.4-4.4,2.1c0,1.3,1,2.6,2.6,2.6c1.9,0,2.7-2.1,2.7-2.1s0.2,2.3-1.1,3.6h3.1
			c-1.4-1.3-1.1-3.6-1.1-3.6s0.8,2.1,2.7,2.1c1.6,0,2.6-1.4,2.6-2.6C40.6,3.3,37.8,2.5,36.2,3.7z"/>
	</g>
</g>
</svg>
