<?xml version="1.0" encoding="utf-8"?>
<!-- Generator: Adobe Illustrator 22.0.0, SVG Export Plug-In . SVG Version: 6.00 Build 0)  -->
<svg version="1.1"
	 id="svg2" inkscape:export-filename="/home/byron/art/cards/final/PNGs/5_of_diamonds.png" inkscape:export-xdpi="215.44792" inkscape:export-ydpi="215.44792" inkscape:version="0.48.0 r9654" sodipodi:docname="5_of_diamonds.svg" xmlns:cc="http://creativecommons.org/ns#" xmlns:dc="http://purl.org/dc/elements/1.1/" xmlns:inkscape="http://www.inkscape.org/namespaces/inkscape" xmlns:rdf="http://www.w3.org/1999/02/22-rdf-syntax-ns#" xmlns:sodipodi="http://sodipodi.sourceforge.net/DTD/sodipodi-0.dtd" xmlns:svg="http://www.w3.org/2000/svg"
	 xmlns="http://www.w3.org/2000/svg" xmlns:xlink="http://www.w3.org/1999/xlink" x="0px" y="0px" viewBox="0 0 100 145.2"
	 style="enable-background:new 0 0 100 145.2;" xml:space="preserve" height="145.2px" width="100px">
<style type="text/css">
	.st0{fill:#FFFFFF;}
	.st1{enable-background:new    ;}
	.st2{fill:#FF0080;}
</style>
<sodipodi:namedview  bordercolor="#666666" borderopacity="1" gridtolerance="10" guidetolerance="10" id="namedview39" inkscape:current-layer="svg2" inkscape:cx="72.124594" inkscape:cy="147.27218" inkscape:pageopacity="0" inkscape:pageshadow="2" inkscape:window-height="977" inkscape:window-maximized="1" inkscape:window-width="1680" inkscape:window-x="0" inkscape:window-y="25" inkscape:zoom="1.7208768" objecttolerance="10" pagecolor="#ffffff" showgrid="false">
	</sodipodi:namedview>
<g id="Layer_x0020_1">
	<g id="path5">
		<path class="st0" d="M99.8,140.9c0,2.3-1.9,4.1-4.1,4.1H4.3c-2.3,0-4.1-1.9-4.1-4.1V4.3C0.1,2,2,0.1,4.3,0.1h91.5
			c2.3,0,4.1,1.9,4.1,4.1L99.8,140.9L99.8,140.9z"/>
		<path d="M95.7,145.2H4.3c-2.4,0-4.3-1.9-4.3-4.3V4.3C0,1.9,1.9,0,4.3,0h91.5c2.4,0,4.3,1.9,4.3,4.3v136.8H100
			C99.9,143.4,98,145.2,95.7,145.2z M4.3,0.3c-2.2,0-4,1.8-4,4v136.6c0,2.2,1.8,4,4,4h91.4c2.2,0,4-1.8,4-4v-0.1h0.1V4.3
			c0-2.2-1.8-4-4-4H4.3z"/>
	</g>
	<g id="g7">
		<g id="g9">
		</g>
	</g>
	<g id="g15">
	</g>
	<g id="g19">
	</g>
	<g id="g23">
		<g id="g25">
		</g>
	</g>
	<g id="g31">
		<g id="g33">
		</g>
	</g>
</g>
<g class="st1">
	<path class="st2" d="M5.5,12.2l1.8-0.1C7.4,13,7.7,13.6,8.2,14c0.5,0.4,1.1,0.6,1.7,0.6c0.8,0,1.5-0.3,2.1-0.9
		c0.6-0.6,0.8-1.4,0.8-2.4c0-1-0.3-1.7-0.8-2.3c-0.5-0.6-1.2-0.8-2.1-0.8c-0.5,0-1,0.1-1.5,0.4c-0.4,0.2-0.8,0.6-1,1L5.8,9.4l1.3-7
		H14v1.6H8.5L7.8,7.6C8.6,7,9.4,6.7,10.3,6.7c1.2,0,2.2,0.4,3,1.2c0.8,0.8,1.2,1.9,1.2,3.2c0,1.2-0.4,2.3-1.1,3.2
		c-0.9,1.1-2.1,1.7-3.6,1.7c-1.2,0-2.3-0.3-3.1-1C6.1,14.3,5.6,13.4,5.5,12.2z"/>
</g>
<g class="st1">
	<path class="st2" d="M94.7,133.3l-1.8,0.1c-0.1-0.9-0.4-1.5-0.9-1.9c-0.5-0.4-1.1-0.6-1.7-0.6c-0.8,0-1.5,0.3-2.1,0.9
		c-0.6,0.6-0.8,1.4-0.8,2.4c0,1,0.3,1.7,0.8,2.3c0.5,0.6,1.2,0.8,2.1,0.8c0.5,0,1-0.1,1.5-0.4c0.4-0.2,0.8-0.6,1-1l1.6,0.2l-1.3,7
		h-6.8v-1.6h5.5l0.7-3.7c-0.8,0.6-1.7,0.9-2.6,0.9c-1.2,0-2.2-0.4-3-1.2c-0.8-0.8-1.2-1.9-1.2-3.2c0-1.2,0.4-2.3,1.1-3.2
		c0.9-1.1,2.1-1.7,3.6-1.7c1.2,0,2.3,0.3,3.1,1C94.1,131.2,94.5,132.1,94.7,133.3z"/>
</g>
<g id="layer1-2-6" transform="matrix(1.4769065,0,0,1.4769065,16.968095,44.236162)">
	<g id="dl-6">
		<path inkscape:connector-curvature="0" sodipodi:nodetypes="ccccccccc" class="st2" d="M-2.7-14.8c-1.3-1.7-1.9-3.5-1.9-3.5
			s-0.7,1.7-1.9,3.5C-7.8-13.1-9.4-12-9.4-12s1.6,1.1,2.9,2.8c1.3,1.7,1.9,3.5,1.9,3.5s0.7-1.7,1.9-3.5c1.3-1.7,2.9-2.8,2.9-2.8
			S-1.4-13.1-2.7-14.8z"/>
	</g>
</g>
<g id="layer1-2-6-4" transform="matrix(1.4769065,0,0,1.4769065,150.62089,198.50346)">
	<g id="dl-6-9">
		<path inkscape:connector-curvature="0" sodipodi:nodetypes="ccccccccc" class="st2" d="M-39-56.8c-1.3-1.7-1.9-3.5-1.9-3.5
			s-0.7,1.7-1.9,3.5c-1.3,1.7-2.9,2.8-2.9,2.8s1.6,1.1,2.9,2.8c1.3,1.7,1.9,3.5,1.9,3.5s0.7-1.7,1.9-3.5c1.3-1.7,2.9-2.8,2.9-2.8
			S-37.7-55.1-39-56.8z"/>
	</g>
</g>
<g id="layer1-2-6-8" transform="matrix(2.5882908,0,0,2.5882908,112.20553,184.02194)">
	<g id="dl-6-8">
		<path inkscape:connector-curvature="0" sodipodi:nodetypes="ccccccccc" class="st2" d="M-15.5-31.4c-1.3-1.7-1.9-3.5-1.9-3.5
			s-0.7,1.7-1.9,3.5c-1.3,1.7-2.9,2.8-2.9,2.8s1.6,1.1,2.9,2.8c1.3,1.7,1.9,3.5,1.9,3.5s0.7-1.7,1.9-3.5c1.3-1.7,2.9-2.8,2.9-2.8
			S-14.2-29.7-15.5-31.4z"/>
	</g>
</g>
<g id="layer1-2-6-8-2" transform="matrix(2.5882908,0,0,2.5882908,112.20553,55.619539)">
	<g id="dl-6-8-6">
		<path inkscape:connector-curvature="0" sodipodi:nodetypes="ccccccccc" class="st2" d="M-15.5-11.4c-1.3-1.7-1.9-3.5-1.9-3.5
			s-0.7,1.7-1.9,3.5c-1.3,1.7-2.9,2.8-2.9,2.8s1.6,1.1,2.9,2.8c1.3,1.7,1.9,3.5,1.9,3.5s0.7-1.7,1.9-3.5c1.3-1.7,2.9-2.8,2.9-2.8
			S-14.2-9.8-15.5-11.4z"/>
	</g>
</g>
<g id="layer1-2-6-8-8" transform="matrix(2.5882908,0,0,2.5882908,54.128726,184.02194)">
	<g id="dl-6-8-8">
		<path inkscape:connector-curvature="0" sodipodi:nodetypes="ccccccccc" class="st2" d="M-6.5-31.4c-1.3-1.7-1.9-3.5-1.9-3.5
			s-0.7,1.7-1.9,3.5c-1.3,1.7-2.9,2.8-2.9,2.8s1.6,1.1,2.9,2.8c1.3,1.7,1.9,3.5,1.9,3.5s0.7-1.7,1.9-3.5c1.3-1.7,2.9-2.8,2.9-2.8
			S-5.2-29.7-6.5-31.4z"/>
	</g>
</g>
<g id="layer1-2-6-8-2-4" transform="matrix(2.5882908,0,0,2.5882908,54.128726,55.619539)">
	<g id="dl-6-8-6-3">
		<path inkscape:connector-curvature="0" sodipodi:nodetypes="ccccccccc" class="st2" d="M-6.5-11.4c-1.3-1.7-1.9-3.5-1.9-3.5
			s-0.7,1.7-1.9,3.5c-1.3,1.7-2.9,2.8-2.9,2.8s1.6,1.1,2.9,2.8C-9-4.1-8.4-2.3-8.4-2.3s0.7-1.7,1.9-3.5c1.3-1.7,2.9-2.8,2.9-2.8
			S-5.2-9.8-6.5-11.4z"/>
	</g>
</g>
<g id="layer1-2-6-8-2-4-6" transform="matrix(2.5882908,0,0,2.5882908,82.283636,119.47398)">
	<g id="dl-6-8-6-3-8">
		<path inkscape:connector-curvature="0" sodipodi:nodetypes="ccccccccc" class="st2" d="M-10.8-21.3c-1.3-1.7-1.9-3.5-1.9-3.5
			s-0.7,1.7-1.9,3.5c-1.3,1.7-2.9,2.8-2.9,2.8s1.6,1.1,2.9,2.8c1.3,1.7,1.9,3.5,1.9,3.5s0.7-1.7,1.9-3.5c1.3-1.7,2.9-2.8,2.9-2.8
			S-9.5-19.7-10.8-21.3z"/>
	</g>
</g>
</svg>
