<?xml version="1.0" encoding="utf-8"?>
<!-- Generator: Adobe Illustrator 22.0.0, SVG Export Plug-In . SVG Version: 6.00 Build 0)  -->
<svg version="1.1"
	 id="svg2" inkscape:export-filename="/home/byron/art/cards/final/PNGs/6_of_clubs.png" inkscape:export-xdpi="215.44792" inkscape:export-ydpi="215.44792" inkscape:version="0.48.0 r9654" sodipodi:docname="6_of_clubs.svg" xmlns:cc="http://creativecommons.org/ns#" xmlns:dc="http://purl.org/dc/elements/1.1/" xmlns:inkscape="http://www.inkscape.org/namespaces/inkscape" xmlns:rdf="http://www.w3.org/1999/02/22-rdf-syntax-ns#" xmlns:sodipodi="http://sodipodi.sourceforge.net/DTD/sodipodi-0.dtd" xmlns:svg="http://www.w3.org/2000/svg"
	 xmlns="http://www.w3.org/2000/svg" xmlns:xlink="http://www.w3.org/1999/xlink" x="0px" y="0px" viewBox="0 0 100 145.2"
	 style="enable-background:new 0 0 100 145.2;" xml:space="preserve" height="145.2px" width="100px">
<style type="text/css">
	.st0{fill:#FFFFFF;}
	.st1{enable-background:new    ;}
	.st2{fill:#231F20;}
</style>
<sodipodi:namedview  bordercolor="#666666" borderopacity="1" gridtolerance="10" guidetolerance="10" id="namedview39" inkscape:current-layer="svg2" inkscape:cx="117.62976" inkscape:cy="148.16686" inkscape:pageopacity="0" inkscape:pageshadow="2" inkscape:window-height="977" inkscape:window-maximized="1" inkscape:window-width="1680" inkscape:window-x="0" inkscape:window-y="25" inkscape:zoom="2.4336873" objecttolerance="10" pagecolor="#ffffff" showgrid="false">
	</sodipodi:namedview>
<g id="Layer_x0020_1">
	<g id="path5">
		<path class="st0" d="M99.8,140.9c0,2.3-1.9,4.1-4.1,4.1H4.3c-2.3,0-4.1-1.9-4.1-4.1V4.3C0.1,2,2,0.1,4.3,0.1h91.5
			c2.3,0,4.1,1.9,4.1,4.1L99.8,140.9L99.8,140.9z"/>
		<path d="M95.7,145.2H4.3c-2.4,0-4.3-1.9-4.3-4.3V4.3C0,1.9,1.9,0,4.3,0h91.5c2.4,0,4.3,1.9,4.3,4.3v136.8H100
			C99.9,143.4,98,145.2,95.7,145.2z M4.3,0.3c-2.2,0-4,1.8-4,4v136.6c0,2.2,1.8,4,4,4h91.4c2.2,0,4-1.8,4-4v-0.1h0.1V4.3
			c0-2.2-1.8-4-4-4H4.3z"/>
	</g>
	<g id="g7">
		<g id="g9">
		</g>
	</g>
	<g id="g15">
	</g>
	<g id="g19">
	</g>
	<g id="g23">
		<g id="g25">
		</g>
	</g>
	<g id="g31">
		<g id="g33">
		</g>
	</g>
</g>
<g class="st1">
	<path class="st2" d="M14.5,6.2l-1.7,0.1c-0.1-0.7-0.4-1.1-0.6-1.4c-0.5-0.5-1-0.7-1.7-0.7c-0.5,0-1,0.1-1.4,0.4
		C8.6,5,8.2,5.5,7.9,6.3C7.6,7,7.4,8.1,7.4,9.4c0.4-0.6,0.9-1.1,1.5-1.4c0.6-0.3,1.2-0.4,1.8-0.4c1.1,0,2.1,0.4,2.9,1.2
		c0.8,0.8,1.2,1.9,1.2,3.2c0,0.9-0.2,1.7-0.6,2.4c-0.4,0.7-0.9,1.3-1.5,1.7c-0.6,0.4-1.4,0.6-2.2,0.6c-1.4,0-2.5-0.5-3.4-1.5
		c-0.9-1-1.3-2.7-1.3-5.1c0-2.6,0.5-4.6,1.5-5.8c0.9-1,2-1.6,3.4-1.6c1.1,0,2,0.3,2.7,0.9C14,4.3,14.4,5.1,14.5,6.2z M7.7,12.1
		c0,0.6,0.1,1.1,0.4,1.7c0.2,0.5,0.6,0.9,1,1.2c0.4,0.3,0.9,0.4,1.4,0.4c0.7,0,1.3-0.3,1.8-0.9c0.5-0.6,0.8-1.4,0.8-2.3
		c0-0.9-0.3-1.7-0.8-2.2c-0.5-0.5-1.1-0.8-1.9-0.8C9.6,9.1,9,9.4,8.5,9.9C7.9,10.5,7.7,11.2,7.7,12.1z"/>
</g>
<g id="layer1-1-4" transform="matrix(1.4856506,0,0,1.4856506,-54.024661,10.018072)">
	<g id="cl-9">
		<path inkscape:connector-curvature="0" class="st2" d="M44.7,10.9c0,0,1.4-1.1,1.4-2.7c0-0.9-0.8-2.5-2.7-2.5s-2.7,1.6-2.7,2.5
			c0,1.6,1.4,2.7,1.4,2.7c-1.6-1.3-4.4-0.4-4.4,2.1c0,1.3,1,2.6,2.6,2.6c1.9,0,2.7-2.1,2.7-2.1s0.2,2.3-1.1,3.6h3.1
			c-1.4-1.3-1.1-3.6-1.1-3.6s0.8,2.1,2.7,2.1c1.6,0,2.6-1.4,2.6-2.6C49.1,10.5,46.3,9.6,44.7,10.9z"/>
	</g>
</g>
<g class="st1">
	<path class="st2" d="M85.5,138.7l1.7-0.1c0.1,0.7,0.4,1.1,0.6,1.4c0.5,0.5,1,0.7,1.7,0.7c0.5,0,1-0.1,1.4-0.4
		c0.5-0.4,0.9-1,1.3-1.7c0.3-0.7,0.5-1.8,0.5-3.2c-0.4,0.6-0.9,1.1-1.5,1.4c-0.6,0.3-1.2,0.4-1.8,0.4c-1.1,0-2.1-0.4-2.9-1.2
		c-0.8-0.8-1.2-1.9-1.2-3.2c0-0.9,0.2-1.7,0.6-2.4c0.4-0.7,0.9-1.3,1.5-1.7c0.6-0.4,1.4-0.6,2.2-0.6c1.4,0,2.5,0.5,3.4,1.5
		c0.9,1,1.3,2.7,1.3,5.1c0,2.6-0.5,4.6-1.5,5.8c-0.9,1-2,1.6-3.4,1.6c-1.1,0-2-0.3-2.7-0.9C86.1,140.6,85.7,139.8,85.5,138.7z
		 M92.4,132.8c0-0.6-0.1-1.1-0.4-1.7c-0.2-0.5-0.6-0.9-1-1.2c-0.4-0.3-0.9-0.4-1.4-0.4c-0.7,0-1.3,0.3-1.8,0.9
		c-0.5,0.6-0.8,1.4-0.8,2.3c0,0.9,0.3,1.7,0.8,2.2c0.5,0.5,1.1,0.8,1.9,0.8c0.8,0,1.4-0.3,1.9-0.8C92.2,134.4,92.4,133.7,92.4,132.8
		z"/>
</g>
<g id="layer1-1-4-1" transform="matrix(-1.4856506,0,0,-1.4856506,221.19916,232.46182)">
	<g id="cl-9-7">
		<path inkscape:connector-curvature="0" class="st2" d="M89.9,76.4c0,0,1.4-1.1,1.4-2.7c0-0.9-0.8-2.5-2.7-2.5
			c-1.9,0-2.7,1.6-2.7,2.5c0,1.6,1.4,2.7,1.4,2.7C85.8,75.2,83,76,83,78.5c0,1.3,1,2.6,2.6,2.6c1.9,0,2.7-2.1,2.7-2.1
			s0.2,2.3-1.1,3.6h3.1c-1.4-1.3-1.1-3.6-1.1-3.6s0.8,2.1,2.7,2.1c1.6,0,2.6-1.4,2.6-2.6C94.3,76,91.4,75.2,89.9,76.4z"/>
	</g>
</g>
<g id="layer1-1-4-8" transform="matrix(2.5125778,0,0,2.5125778,-63.988386,-9.5311159)">
	<g id="cl-9-8">
		<path inkscape:connector-curvature="0" class="st2" d="M40.3,15.1c0,0,1.4-1.1,1.4-2.7c0-0.9-0.8-2.5-2.7-2.5s-2.7,1.6-2.7,2.5
			c0,1.6,1.4,2.7,1.4,2.7c-1.6-1.3-4.4-0.4-4.4,2.1c0,1.3,1,2.6,2.6,2.6c1.9,0,2.7-2.1,2.7-2.1s0.2,2.3-1.1,3.6h3.1
			c-1.4-1.3-1.1-3.6-1.1-3.6s0.8,2.1,2.7,2.1c1.6,0,2.6-1.4,2.6-2.6C44.7,14.7,41.9,13.9,40.3,15.1z"/>
	</g>
</g>
<g id="layer1-1-4-8-0" transform="matrix(-2.5125778,0,0,-2.5125778,177.92954,253.27515)">
	<g id="cl-9-8-6">
		<path inkscape:connector-curvature="0" class="st2" d="M58.5,54.1c0,0,1.4-1.1,1.4-2.7c0-0.9-0.8-2.5-2.7-2.5s-2.7,1.6-2.7,2.5
			c0,1.6,1.4,2.7,1.4,2.7c-1.6-1.3-4.4-0.4-4.4,2.1c0,1.3,1,2.6,2.6,2.6c1.9,0,2.7-2.1,2.7-2.1s0.2,2.3-1.1,3.6h3.1
			c-1.4-1.3-1.1-3.6-1.1-3.6s0.8,2.1,2.7,2.1c1.6,0,2.6-1.4,2.6-2.6C62.9,53.6,60.1,52.8,58.5,54.1z"/>
	</g>
</g>
<g id="layer1-1-4-8-2" transform="matrix(2.5125778,0,0,2.5125778,-63.988386,60.169684)">
	<g id="cl-9-8-0">
		<path inkscape:connector-curvature="0" class="st2" d="M40.3,4c0,0,1.4-1.1,1.4-2.7c0-0.9-0.8-2.5-2.7-2.5s-2.7,1.6-2.7,2.5
			c0,1.6,1.4,2.7,1.4,2.7c-1.6-1.3-4.4-0.4-4.4,2.1c0,1.3,1,2.6,2.6,2.6c1.9,0,2.7-2.1,2.7-2.1s0.2,2.3-1.1,3.6h3.1
			c-1.4-1.3-1.1-3.6-1.1-3.6s0.8,2.1,2.7,2.1c1.6,0,2.6-1.4,2.6-2.6C44.7,3.6,41.9,2.7,40.3,4z"/>
	</g>
</g>
<g id="layer1-1-4-8-8" transform="matrix(2.5125778,0,0,2.5125778,-11.20333,-9.7048439)">
	<g id="cl-9-8-9">
		<path inkscape:connector-curvature="0" class="st2" d="M31.9,15.1c0,0,1.4-1.1,1.4-2.7c0-0.9-0.8-2.5-2.7-2.5
			c-1.9,0-2.7,1.6-2.7,2.5c0,1.6,1.4,2.7,1.4,2.7c-1.6-1.3-4.4-0.4-4.4,2.1c0,1.3,1,2.6,2.6,2.6c1.9,0,2.7-2.1,2.7-2.1
			s0.2,2.3-1.1,3.6h3.1c-1.4-1.3-1.1-3.6-1.1-3.6s0.8,2.1,2.7,2.1c1.6,0,2.6-1.4,2.6-2.6C36.3,14.7,33.5,13.9,31.9,15.1z"/>
	</g>
</g>
<g id="layer1-1-4-8-0-2" transform="matrix(-2.5125778,0,0,-2.5125778,230.7146,253.10142)">
	<g id="cl-9-8-6-6">
		<path inkscape:connector-curvature="0" class="st2" d="M67,54c0,0,1.4-1.1,1.4-2.7c0-0.9-0.8-2.5-2.7-2.5c-1.9,0-2.7,1.6-2.7,2.5
			c0,1.6,1.4,2.7,1.4,2.7c-1.6-1.3-4.4-0.4-4.4,2.1c0,1.3,1,2.6,2.6,2.6c1.9,0,2.7-2.1,2.7-2.1s0.2,2.3-1.1,3.6h3.1
			c-1.4-1.3-1.1-3.6-1.1-3.6s0.8,2.1,2.7,2.1c1.6,0,2.6-1.4,2.6-2.6C71.3,53.6,68.5,52.8,67,54z"/>
	</g>
</g>
<g id="layer1-1-4-8-2-6" transform="matrix(2.5125778,0,0,2.5125778,-11.20333,59.995956)">
	<g id="cl-9-8-0-4">
		<path inkscape:connector-curvature="0" class="st2" d="M31.9,4c0,0,1.4-1.1,1.4-2.7c0-0.9-0.8-2.5-2.7-2.5c-1.9,0-2.7,1.6-2.7,2.5
			c0,1.6,1.4,2.7,1.4,2.7C27.8,2.7,25,3.6,25,6.1c0,1.3,1,2.6,2.6,2.6c1.9,0,2.7-2.1,2.7-2.1s0.2,2.3-1.1,3.6h3.1
			c-1.4-1.3-1.1-3.6-1.1-3.6s0.8,2.1,2.7,2.1c1.6,0,2.6-1.4,2.6-2.6C36.3,3.6,33.5,2.7,31.9,4z"/>
	</g>
</g>
</svg>
