<?xml version="1.0" encoding="utf-8"?>
<!-- Generator: Adobe Illustrator 22.0.0, SVG Export Plug-In . SVG Version: 6.00 Build 0)  -->
<svg version="1.1"
	 id="svg2" inkscape:export-filename="/home/byron/art/cards/final/PNGs/6_of_hearts.png" inkscape:export-xdpi="215.44792" inkscape:export-ydpi="215.44792" inkscape:version="0.48.0 r9654" sodipodi:docname="6_of_hearts.svg" xmlns:cc="http://creativecommons.org/ns#" xmlns:dc="http://purl.org/dc/elements/1.1/" xmlns:inkscape="http://www.inkscape.org/namespaces/inkscape" xmlns:rdf="http://www.w3.org/1999/02/22-rdf-syntax-ns#" xmlns:sodipodi="http://sodipodi.sourceforge.net/DTD/sodipodi-0.dtd" xmlns:svg="http://www.w3.org/2000/svg"
	 xmlns="http://www.w3.org/2000/svg" xmlns:xlink="http://www.w3.org/1999/xlink" x="0px" y="0px" viewBox="0 0 100 145.2"
	 style="enable-background:new 0 0 100 145.2;" xml:space="preserve" height="145.2px" width="100px">
<style type="text/css">
	.st0{fill:#FFFFFF;}
	.st1{enable-background:new    ;}
	.st2{fill:#FF0080;}
</style>
<sodipodi:namedview  bordercolor="#666666" borderopacity="1" gridtolerance="10" guidetolerance="10" id="namedview39" inkscape:current-layer="svg2" inkscape:cx="-28.405554" inkscape:cy="147.27218" inkscape:pageopacity="0" inkscape:pageshadow="2" inkscape:window-height="977" inkscape:window-maximized="1" inkscape:window-width="1680" inkscape:window-x="0" inkscape:window-y="25" inkscape:zoom="1.7208768" objecttolerance="10" pagecolor="#ffffff" showgrid="false">
	</sodipodi:namedview>
<g id="Layer_x0020_1">
	<g id="path5">
		<path class="st0" d="M99.8,140.9c0,2.3-1.9,4.1-4.1,4.1H4.3c-2.3,0-4.1-1.9-4.1-4.1V4.3C0.1,2,2,0.1,4.3,0.1h91.5
			c2.3,0,4.1,1.9,4.1,4.1L99.8,140.9L99.8,140.9z"/>
		<path d="M95.7,145.2H4.3c-2.4,0-4.3-1.9-4.3-4.3V4.3C0,1.9,1.9,0,4.3,0h91.5c2.4,0,4.3,1.9,4.3,4.3v136.8H100
			C99.9,143.4,98,145.2,95.7,145.2z M4.3,0.3c-2.2,0-4,1.8-4,4v136.6c0,2.2,1.8,4,4,4h91.4c2.2,0,4-1.8,4-4v-0.1h0.1V4.3
			c0-2.2-1.8-4-4-4H4.3z"/>
	</g>
	<g id="g7">
		<g id="g9">
		</g>
	</g>
	<g id="g15">
	</g>
	<g id="g19">
	</g>
	<g id="g23">
		<g id="g25">
		</g>
	</g>
	<g id="g31">
		<g id="g33">
		</g>
	</g>
</g>
<g class="st1">
	<path class="st2" d="M14.8,6.4l-1.7,0.1c-0.1-0.7-0.4-1.1-0.6-1.4c-0.5-0.5-1-0.7-1.7-0.7c-0.5,0-1,0.1-1.4,0.4
		c-0.5,0.4-0.9,1-1.3,1.7C7.8,7.3,7.7,8.4,7.7,9.7c0.4-0.6,0.9-1.1,1.5-1.4C9.7,8,10.4,7.9,11,7.9c1.1,0,2.1,0.4,2.9,1.2
		C14.7,10,15,11,15,12.3c0,0.9-0.2,1.7-0.6,2.4c-0.4,0.7-0.9,1.3-1.5,1.7c-0.6,0.4-1.4,0.6-2.2,0.6c-1.4,0-2.5-0.5-3.4-1.5
		c-0.9-1-1.3-2.7-1.3-5.1c0-2.6,0.5-4.6,1.5-5.8c0.9-1,2-1.6,3.4-1.6c1.1,0,2,0.3,2.7,0.9C14.3,4.5,14.7,5.4,14.8,6.4z M7.9,12.3
		c0,0.6,0.1,1.1,0.4,1.7c0.2,0.5,0.6,0.9,1,1.2c0.4,0.3,0.9,0.4,1.4,0.4c0.7,0,1.3-0.3,1.8-0.9c0.5-0.6,0.8-1.4,0.8-2.3
		c0-0.9-0.3-1.7-0.8-2.2c-0.5-0.5-1.1-0.8-1.9-0.8c-0.8,0-1.4,0.3-1.9,0.8C8.2,10.7,7.9,11.5,7.9,12.3z"/>
</g>
<g id="layer1-9-6" transform="matrix(1.6743072,0,0,1.5669921,17.177511,46.385321)">
	<g id="hl-8">
		<path inkscape:connector-curvature="0" sodipodi:nodetypes="scsscss" class="st2" d="M-1.9-17.3c-2,0-2.2,2.1-2.2,2.1
			s-0.2-2.1-2.2-2.1c-1.3,0-2.6,1-2.6,2.7c0,2.3,3.9,4.7,4.8,8.1c0.8-3.4,4.8-5.7,4.8-8.1C0.7-16.3-0.6-17.3-1.9-17.3z"/>
	</g>
</g>
<g class="st1">
	<path class="st2" d="M85.5,138.1l1.7-0.1c0.1,0.7,0.4,1.1,0.6,1.4c0.5,0.5,1,0.7,1.7,0.7c0.5,0,1-0.1,1.4-0.4
		c0.5-0.4,0.9-1,1.3-1.7c0.3-0.7,0.5-1.8,0.5-3.2c-0.4,0.6-0.9,1.1-1.5,1.4c-0.6,0.3-1.2,0.4-1.8,0.4c-1.1,0-2.1-0.4-2.9-1.2
		c-0.8-0.8-1.2-1.9-1.2-3.2c0-0.9,0.2-1.7,0.6-2.4c0.4-0.7,0.9-1.3,1.5-1.7c0.6-0.4,1.4-0.6,2.2-0.6c1.4,0,2.5,0.5,3.4,1.5
		c0.9,1,1.3,2.7,1.3,5.1c0,2.6-0.5,4.6-1.5,5.8c-0.9,1-2,1.6-3.4,1.6c-1.1,0-2-0.3-2.7-0.9C86.1,140,85.7,139.2,85.5,138.1z
		 M92.4,132.2c0-0.6-0.1-1.1-0.4-1.7c-0.2-0.5-0.6-0.9-1-1.2c-0.4-0.3-0.9-0.4-1.4-0.4c-0.7,0-1.3,0.3-1.8,0.9
		c-0.5,0.6-0.8,1.4-0.8,2.3c0,0.9,0.3,1.7,0.8,2.2c0.5,0.5,1.1,0.8,1.9,0.8c0.8,0,1.4-0.3,1.9-0.8C92.1,133.8,92.4,133.1,92.4,132.2
		z"/>
</g>
<g id="layer1-9-6-5" transform="matrix(-1.6743072,0,0,-1.5669921,150.15601,195.14313)">
	<g id="hl-8-1">
		<path inkscape:connector-curvature="0" sodipodi:nodetypes="scsscss" class="st2" d="M38.2,44.6c-2,0-2.2,2.1-2.2,2.1
			s-0.2-2.1-2.2-2.1c-1.3,0-2.6,1-2.6,2.7c0,2.3,3.9,4.7,4.8,8.1c0.8-3.4,4.8-5.7,4.8-8.1C40.8,45.6,39.5,44.6,38.2,44.6z"/>
	</g>
</g>
<g id="layer1-9-6-8" transform="matrix(2.7790082,0,0,2.600887,57.712268,47.603768)">
	<g id="hl-8-8">
		<path inkscape:connector-curvature="0" sodipodi:nodetypes="scsscss" class="st2" d="M-6.1-12.7c-2,0-2.2,2.1-2.2,2.1
			s-0.2-2.1-2.2-2.1c-1.3,0-2.6,1-2.6,2.7c0,2.3,3.9,4.7,4.8,8.1c0.8-3.4,4.8-5.7,4.8-8.1C-3.5-11.8-4.8-12.7-6.1-12.7z"/>
	</g>
</g>
<g id="layer1-9-6-8-9" transform="matrix(-2.7790082,0,0,-2.600887,57.712268,192.00617)">
	<g id="hl-8-8-5">
		<path inkscape:connector-curvature="0" sodipodi:nodetypes="scsscss" class="st2" d="M10.5,24.3c-2,0-2.2,2.1-2.2,2.1
			s-0.2-2.1-2.2-2.1c-1.3,0-2.6,1-2.6,2.7c0,2.3,3.9,4.7,4.8,8.1c0.8-3.4,4.8-5.7,4.8-8.1C13.1,25.2,11.9,24.3,10.5,24.3z"/>
	</g>
</g>
<g id="layer1-9-6-8-8" transform="matrix(2.7790082,0,0,2.600887,57.712268,118.90457)">
	<g id="hl-8-8-8">
		<path inkscape:connector-curvature="0" sodipodi:nodetypes="scsscss" class="st2" d="M-6.1-23.7c-2,0-2.2,2.1-2.2,2.1
			s-0.2-2.1-2.2-2.1c-1.3,0-2.6,1-2.6,2.7c0,2.3,3.9,4.7,4.8,8.1c0.8-3.4,4.8-5.7,4.8-8.1C-3.5-22.8-4.8-23.7-6.1-23.7z"/>
	</g>
</g>
<g id="layer1-9-6-8-88" transform="matrix(2.7790082,0,0,2.600887,109.0504,47.272778)">
	<g id="hl-8-8-4">
		<path inkscape:connector-curvature="0" sodipodi:nodetypes="scsscss" class="st2" d="M-13.5-12.7c-2,0-2.2,2.1-2.2,2.1
			s-0.2-2.1-2.2-2.1c-1.3,0-2.6,1-2.6,2.7c0,2.3,3.9,4.7,4.8,8.1C-14.9-5.3-11-7.6-11-10C-11-11.7-12.2-12.7-13.5-12.7z"/>
	</g>
</g>
<g id="layer1-9-6-8-9-3" transform="matrix(-2.7790082,0,0,-2.600887,109.0504,191.67518)">
	<g id="hl-8-8-5-1">
		<path inkscape:connector-curvature="0" sodipodi:nodetypes="scsscss" class="st2" d="M18,24.2c-2,0-2.2,2.1-2.2,2.1
			s-0.2-2.1-2.2-2.1c-1.3,0-2.6,1-2.6,2.7c0,2.3,3.9,4.7,4.8,8.1c0.8-3.4,4.8-5.7,4.8-8.1C20.5,25.2,19.3,24.2,18,24.2z"/>
	</g>
</g>
<g id="layer1-9-6-8-8-4" transform="matrix(2.7790082,0,0,2.600887,109.0504,118.57358)">
	<g id="hl-8-8-8-9">
		<path inkscape:connector-curvature="0" sodipodi:nodetypes="scsscss" class="st2" d="M-13.5-23.7c-2,0-2.2,2.1-2.2,2.1
			s-0.2-2.1-2.2-2.1c-1.3,0-2.6,1-2.6,2.7c0,2.3,3.9,4.7,4.8,8.1c0.8-3.4,4.8-5.7,4.8-8.1C-11-22.7-12.2-23.7-13.5-23.7z"/>
	</g>
</g>
</svg>
