<?xml version="1.0" encoding="utf-8"?>
<!-- Generator: Adobe Illustrator 22.0.0, SVG Export Plug-In . SVG Version: 6.00 Build 0)  -->
<svg version="1.1"
	 id="svg2" inkscape:export-filename="/home/byron/art/cards/final/PNGs/7_of_clubs.png" inkscape:export-xdpi="215.44792" inkscape:export-ydpi="215.44792" inkscape:version="0.48.0 r9654" sodipodi:docname="7_of_clubs.svg" xmlns:cc="http://creativecommons.org/ns#" xmlns:dc="http://purl.org/dc/elements/1.1/" xmlns:inkscape="http://www.inkscape.org/namespaces/inkscape" xmlns:rdf="http://www.w3.org/1999/02/22-rdf-syntax-ns#" xmlns:sodipodi="http://sodipodi.sourceforge.net/DTD/sodipodi-0.dtd" xmlns:svg="http://www.w3.org/2000/svg"
	 xmlns="http://www.w3.org/2000/svg" xmlns:xlink="http://www.w3.org/1999/xlink" x="0px" y="0px" viewBox="0 0 100 145.2"
	 style="enable-background:new 0 0 100 145.2;" xml:space="preserve" height="145.2px" width="100px">
<style type="text/css">
	.st0{fill:#FFFFFF;}
	.st1{enable-background:new    ;}
	.st2{fill:#231F20;}
</style>
<sodipodi:namedview  bordercolor="#666666" borderopacity="1" gridtolerance="10" guidetolerance="10" id="namedview39" inkscape:current-layer="svg2" inkscape:cx="117.62976" inkscape:cy="148.16686" inkscape:pageopacity="0" inkscape:pageshadow="2" inkscape:window-height="977" inkscape:window-maximized="1" inkscape:window-width="1680" inkscape:window-x="0" inkscape:window-y="25" inkscape:zoom="2.4336873" objecttolerance="10" pagecolor="#ffffff" showgrid="false">
	</sodipodi:namedview>
<g id="Layer_x0020_1">
	<g id="path5">
		<path class="st0" d="M99.8,140.9c0,2.3-1.9,4.1-4.1,4.1H4.3c-2.3,0-4.1-1.9-4.1-4.1V4.3C0.1,2,2,0.1,4.3,0.1h91.5
			c2.3,0,4.1,1.9,4.1,4.1L99.8,140.9L99.8,140.9z"/>
		<path d="M95.7,145.2H4.3c-2.4,0-4.3-1.9-4.3-4.3V4.3C0,1.9,1.9,0,4.3,0h91.5c2.4,0,4.3,1.9,4.3,4.3v136.8H100
			C99.9,143.4,98,145.2,95.7,145.2z M4.3,0.3c-2.2,0-4,1.8-4,4v136.6c0,2.2,1.8,4,4,4h91.4c2.2,0,4-1.8,4-4v-0.1h0.1V4.3
			c0-2.2-1.8-4-4-4H4.3z"/>
	</g>
	<g id="g7">
		<g id="g9">
		</g>
	</g>
	<g id="g15">
	</g>
	<g id="g19">
	</g>
	<g id="g23">
		<g id="g25">
		</g>
	</g>
	<g id="g31">
		<g id="g33">
		</g>
	</g>
</g>
<g class="st1">
	<path class="st2" d="M5.9,4.6V3h8.9v1.3C13.9,5.2,13,6.5,12.2,8c-0.9,1.5-1.5,3.1-2,4.7c-0.3,1.1-0.6,2.4-0.6,3.8H7.8
		c0-1.1,0.2-2.4,0.6-3.9c0.4-1.5,1-3,1.7-4.4c0.8-1.4,1.6-2.6,2.4-3.6H5.9z"/>
</g>
<g id="layer1-1-4" transform="matrix(1.4856506,0,0,1.4856506,-54.024661,10.018072)">
	<g id="cl-9">
		<path inkscape:connector-curvature="0" class="st2" d="M44.7,10.9c0,0,1.4-1.1,1.4-2.7c0-0.9-0.8-2.5-2.7-2.5s-2.7,1.6-2.7,2.5
			c0,1.6,1.4,2.7,1.4,2.7c-1.6-1.3-4.4-0.4-4.4,2.1c0,1.3,1,2.6,2.6,2.6c1.9,0,2.7-2.1,2.7-2.1s0.2,2.3-1.1,3.6h3.1
			c-1.4-1.3-1.1-3.6-1.1-3.6s0.8,2.1,2.7,2.1c1.6,0,2.6-1.4,2.6-2.6C49.1,10.5,46.3,9.6,44.7,10.9z"/>
	</g>
</g>
<g class="st1">
	<path class="st2" d="M94.2,140.2v1.6h-8.9v-1.3c0.9-0.9,1.7-2.2,2.6-3.7c0.9-1.5,1.5-3.1,2-4.7c0.3-1.1,0.6-2.4,0.6-3.8h1.7
		c0,1.1-0.2,2.4-0.6,3.9c-0.4,1.5-1,3-1.7,4.4c-0.8,1.4-1.6,2.6-2.4,3.6H94.2z"/>
</g>
<g id="layer1-1-4-1" transform="matrix(-1.4856506,0,0,-1.4856506,221.19916,232.46182)">
	<g id="cl-9-7">
		<path inkscape:connector-curvature="0" class="st2" d="M89.9,76.4c0,0,1.4-1.1,1.4-2.7c0-0.9-0.8-2.5-2.7-2.5
			c-1.9,0-2.7,1.6-2.7,2.5c0,1.6,1.4,2.7,1.4,2.7C85.8,75.2,83,76,83,78.5c0,1.3,1,2.6,2.6,2.6c1.9,0,2.7-2.1,2.7-2.1
			s0.2,2.3-1.1,3.6h3.1c-1.4-1.3-1.1-3.6-1.1-3.6s0.8,2.1,2.7,2.1c1.6,0,2.6-1.4,2.6-2.6C94.3,76,91.4,75.2,89.9,76.4z"/>
	</g>
</g>
<g id="layer1-1-4-8" transform="matrix(2.5125778,0,0,2.5125778,-63.988386,-27.131116)">
	<g id="cl-9-8">
		<path inkscape:connector-curvature="0" class="st2" d="M40.3,17.9c0,0,1.4-1.1,1.4-2.7c0-0.9-0.8-2.5-2.7-2.5s-2.7,1.6-2.7,2.5
			c0,1.6,1.4,2.7,1.4,2.7c-1.6-1.3-4.4-0.4-4.4,2.1c0,1.3,1,2.6,2.6,2.6c1.9,0,2.7-2.1,2.7-2.1s0.2,2.3-1.1,3.6h3.1
			c-1.4-1.3-1.1-3.6-1.1-3.6s0.8,2.1,2.7,2.1c1.6,0,2.6-1.4,2.6-2.6C44.7,17.5,41.9,16.7,40.3,17.9z"/>
	</g>
</g>
<g id="layer1-1-4-8-0" transform="matrix(-2.5125778,0,0,-2.5125778,177.92954,269.27515)">
	<g id="cl-9-8-6">
		<path inkscape:connector-curvature="0" class="st2" d="M58.5,56.6c0,0,1.4-1.1,1.4-2.7c0-0.9-0.8-2.5-2.7-2.5s-2.7,1.6-2.7,2.5
			c0,1.6,1.4,2.7,1.4,2.7c-1.6-1.3-4.4-0.4-4.4,2.1c0,1.3,1,2.6,2.6,2.6c1.9,0,2.7-2.1,2.7-2.1s0.2,2.3-1.1,3.6h3.1
			c-1.4-1.3-1.1-3.6-1.1-3.6s0.8,2.1,2.7,2.1c1.6,0,2.6-1.4,2.6-2.6C62.9,56.2,60.1,55.4,58.5,56.6z"/>
	</g>
</g>
<g id="layer1-1-4-8-2" transform="matrix(2.5125778,0,0,2.5125778,-63.988386,63.369684)">
	<g id="cl-9-8-0">
		<path inkscape:connector-curvature="0" class="st2" d="M40.3,3.5c0,0,1.4-1.1,1.4-2.7c0-0.9-0.8-2.5-2.7-2.5s-2.7,1.6-2.7,2.5
			c0,1.6,1.4,2.7,1.4,2.7c-1.6-1.3-4.4-0.4-4.4,2.1c0,1.3,1,2.6,2.6,2.6c1.9,0,2.7-2.1,2.7-2.1s0.2,2.3-1.1,3.6h3.1
			C39.3,8.4,39.6,6,39.6,6s0.8,2.1,2.7,2.1c1.6,0,2.6-1.4,2.6-2.6C44.7,3,41.9,2.2,40.3,3.5z"/>
	</g>
</g>
<g id="layer1-1-4-8-8" transform="matrix(2.5125778,0,0,2.5125778,-11.20333,-27.304844)">
	<g id="cl-9-8-9">
		<path inkscape:connector-curvature="0" class="st2" d="M31.9,18c0,0,1.4-1.1,1.4-2.7c0-0.9-0.8-2.5-2.7-2.5
			c-1.9,0-2.7,1.6-2.7,2.5c0,1.6,1.4,2.7,1.4,2.7c-1.6-1.3-4.4-0.4-4.4,2.1c0,1.3,1,2.6,2.6,2.6c1.9,0,2.7-2.1,2.7-2.1
			s0.2,2.3-1.1,3.6h3.1c-1.4-1.3-1.1-3.6-1.1-3.6s0.8,2.1,2.7,2.1c1.6,0,2.6-1.4,2.6-2.6C36.3,17.5,33.5,16.7,31.9,18z"/>
	</g>
</g>
<g id="layer1-1-4-8-0-2" transform="matrix(-2.5125778,0,0,-2.5125778,230.7146,269.10142)">
	<g id="cl-9-8-6-6">
		<path inkscape:connector-curvature="0" class="st2" d="M67,56.6c0,0,1.4-1.1,1.4-2.7c0-0.9-0.8-2.5-2.7-2.5
			c-1.9,0-2.7,1.6-2.7,2.5c0,1.6,1.4,2.7,1.4,2.7c-1.6-1.3-4.4-0.4-4.4,2.1c0,1.3,1,2.6,2.6,2.6c1.9,0,2.7-2.1,2.7-2.1
			s0.2,2.3-1.1,3.6h3.1c-1.4-1.3-1.1-3.6-1.1-3.6s0.8,2.1,2.7,2.1c1.6,0,2.6-1.4,2.6-2.6C71.3,56.2,68.5,55.3,67,56.6z"/>
	</g>
</g>
<g id="layer1-1-4-8-2-6" transform="matrix(2.5125778,0,0,2.5125778,-11.20333,63.195956)">
	<g id="cl-9-8-0-4">
		<path inkscape:connector-curvature="0" class="st2" d="M31.9,3.5c0,0,1.4-1.1,1.4-2.7c0-0.9-0.8-2.5-2.7-2.5
			c-1.9,0-2.7,1.6-2.7,2.5c0,1.6,1.4,2.7,1.4,2.7C27.8,2.2,25,3.1,25,5.6c0,1.3,1,2.6,2.6,2.6c1.9,0,2.7-2.1,2.7-2.1
			s0.2,2.3-1.1,3.6h3.1c-1.4-1.3-1.1-3.6-1.1-3.6s0.8,2.1,2.7,2.1c1.6,0,2.6-1.4,2.6-2.6C36.3,3.1,33.5,2.2,31.9,3.5z"/>
	</g>
</g>
<g id="layer1-1-4-8-6" transform="matrix(2.5125778,0,0,2.5125778,-38.055702,18.622356)">
	<g id="cl-9-8-8">
		<path inkscape:connector-curvature="0" class="st2" d="M36.2,10.6c0,0,1.4-1.1,1.4-2.7c0-0.9-0.8-2.5-2.7-2.5S32.2,7,32.2,7.9
			c0,1.6,1.4,2.7,1.4,2.7c-1.6-1.3-4.4-0.4-4.4,2.1c0,1.3,1,2.6,2.6,2.6c1.9,0,2.7-2.1,2.7-2.1s0.2,2.3-1.1,3.6h3.1
			c-1.4-1.3-1.1-3.6-1.1-3.6s0.8,2.1,2.7,2.1c1.6,0,2.6-1.4,2.6-2.6C40.6,10.2,37.7,9.4,36.2,10.6z"/>
	</g>
</g>
</svg>
