<?xml version="1.0" encoding="utf-8"?>
<!-- Generator: Adobe Illustrator 22.0.0, SVG Export Plug-In . SVG Version: 6.00 Build 0)  -->
<svg version="1.1"
	 id="svg2" inkscape:export-filename="/home/byron/art/cards/final/PNGs/8_of_hearts.png" inkscape:export-xdpi="215.44792" inkscape:export-ydpi="215.44792" inkscape:version="0.48.0 r9654" sodipodi:docname="8_of_hearts.svg" xmlns:cc="http://creativecommons.org/ns#" xmlns:dc="http://purl.org/dc/elements/1.1/" xmlns:inkscape="http://www.inkscape.org/namespaces/inkscape" xmlns:rdf="http://www.w3.org/1999/02/22-rdf-syntax-ns#" xmlns:sodipodi="http://sodipodi.sourceforge.net/DTD/sodipodi-0.dtd" xmlns:svg="http://www.w3.org/2000/svg"
	 xmlns="http://www.w3.org/2000/svg" xmlns:xlink="http://www.w3.org/1999/xlink" x="0px" y="0px" viewBox="0 0 100 145.2"
	 style="enable-background:new 0 0 100 145.2;" xml:space="preserve" height="145.2px" width="100px">
<style type="text/css">
	.st0{fill:#FFFFFF;}
	.st1{enable-background:new    ;}
	.st2{fill:#FF0080;}
</style>
<sodipodi:namedview  bordercolor="#666666" borderopacity="1" gridtolerance="10" guidetolerance="10" id="namedview39" inkscape:current-layer="svg2" inkscape:cx="-28.405554" inkscape:cy="147.27218" inkscape:pageopacity="0" inkscape:pageshadow="2" inkscape:window-height="977" inkscape:window-maximized="1" inkscape:window-width="1680" inkscape:window-x="0" inkscape:window-y="25" inkscape:zoom="1.7208768" objecttolerance="10" pagecolor="#ffffff" showgrid="false">
	</sodipodi:namedview>
<g id="Layer_x0020_1">
	<g id="path5">
		<path class="st0" d="M99.8,140.9c0,2.3-1.9,4.1-4.1,4.1H4.3c-2.3,0-4.1-1.9-4.1-4.1V4.3C0.1,2,2,0.1,4.3,0.1h91.5
			c2.3,0,4.1,1.9,4.1,4.1L99.8,140.9L99.8,140.9z"/>
		<path d="M95.7,145.2H4.3c-2.4,0-4.3-1.9-4.3-4.3V4.3C0,1.9,1.9,0,4.3,0h91.5c2.4,0,4.3,1.9,4.3,4.3v136.8H100
			C99.9,143.4,98,145.2,95.7,145.2z M4.3,0.3c-2.2,0-4,1.8-4,4v136.6c0,2.2,1.8,4,4,4h91.4c2.2,0,4-1.8,4-4v-0.1h0.1V4.3
			c0-2.2-1.8-4-4-4H4.3z"/>
	</g>
	<g id="g7">
		<g id="g9">
		</g>
	</g>
	<g id="g15">
	</g>
	<g id="g19">
	</g>
	<g id="g23">
		<g id="g25">
		</g>
	</g>
	<g id="g31">
		<g id="g33">
		</g>
	</g>
</g>
<g class="st1">
	<path class="st2" d="M8.7,9.4C8,9.1,7.4,8.7,7.1,8.3c-0.3-0.5-0.5-1-0.5-1.7c0-1,0.4-1.8,1.1-2.5c0.7-0.7,1.7-1,2.9-1
		c1.2,0,2.2,0.3,2.9,1c0.7,0.7,1.1,1.5,1.1,2.5c0,0.6-0.2,1.2-0.5,1.7c-0.3,0.5-0.8,0.8-1.5,1.1c0.8,0.3,1.5,0.7,1.9,1.3
		c0.4,0.6,0.7,1.3,0.7,2.2c0,1.2-0.4,2.2-1.2,3C13,16.6,11.9,17,10.6,17c-1.4,0-2.4-0.4-3.3-1.2c-0.8-0.8-1.2-1.8-1.2-3
		c0-0.9,0.2-1.6,0.7-2.2C7.2,10,7.8,9.6,8.7,9.4z M7.8,12.8c0,0.5,0.1,0.9,0.3,1.4c0.2,0.4,0.6,0.8,1,1c0.4,0.2,0.9,0.4,1.4,0.4
		c0.8,0,1.5-0.3,2-0.8c0.5-0.5,0.8-1.2,0.8-2c0-0.8-0.3-1.5-0.8-2c-0.5-0.5-1.2-0.8-2-0.8c-0.8,0-1.4,0.3-2,0.8
		C8,11.4,7.8,12,7.8,12.8z M8.3,6.5c0,0.6,0.2,1.2,0.6,1.6c0.4,0.4,1,0.6,1.6,0.6c0.6,0,1.2-0.2,1.6-0.6c0.4-0.4,0.6-0.9,0.6-1.5
		c0-0.6-0.2-1.1-0.6-1.6c-0.4-0.4-1-0.6-1.6-0.6C9.9,4.4,9.4,4.6,9,5C8.5,5.4,8.3,5.9,8.3,6.5z"/>
</g>
<g id="layer1-9-6" transform="matrix(1.6743072,0,0,1.5669921,17.177511,46.385321)">
	<g id="hl-8">
		<path inkscape:connector-curvature="0" sodipodi:nodetypes="scsscss" class="st2" d="M-1.9-17.3c-2,0-2.2,2.1-2.2,2.1
			s-0.2-2.1-2.2-2.1c-1.3,0-2.6,1-2.6,2.7c0,2.3,3.9,4.7,4.8,8.1c0.8-3.4,4.8-5.7,4.8-8.1C0.7-16.3-0.6-17.3-1.9-17.3z"/>
	</g>
</g>
<g class="st1">
	<path class="st2" d="M91.7,135.2c0.7,0.3,1.2,0.6,1.6,1.1c0.3,0.5,0.5,1,0.5,1.7c0,1-0.4,1.8-1.1,2.5c-0.7,0.7-1.7,1-2.9,1
		c-1.2,0-2.2-0.3-2.9-1c-0.7-0.7-1.1-1.5-1.1-2.5c0-0.6,0.2-1.2,0.5-1.7c0.3-0.5,0.8-0.8,1.5-1.1c-0.8-0.3-1.5-0.7-1.9-1.3
		c-0.4-0.6-0.7-1.3-0.7-2.2c0-1.2,0.4-2.2,1.2-3c0.8-0.8,1.9-1.2,3.3-1.2c1.4,0,2.4,0.4,3.3,1.2c0.8,0.8,1.2,1.8,1.2,3
		c0,0.9-0.2,1.6-0.7,2.2C93.1,134.6,92.5,135,91.7,135.2z M92.5,131.7c0-0.5-0.1-0.9-0.3-1.4c-0.2-0.4-0.6-0.8-1-1
		c-0.4-0.2-0.9-0.4-1.4-0.4c-0.8,0-1.5,0.3-2,0.8c-0.5,0.5-0.8,1.2-0.8,2c0,0.8,0.3,1.5,0.8,2c0.5,0.5,1.2,0.8,2,0.8
		c0.8,0,1.4-0.3,2-0.8C92.3,133.2,92.5,132.5,92.5,131.7z M92,138.1c0-0.6-0.2-1.2-0.6-1.6c-0.4-0.4-1-0.6-1.6-0.6
		c-0.6,0-1.2,0.2-1.6,0.6c-0.4,0.4-0.6,0.9-0.6,1.5c0,0.6,0.2,1.1,0.6,1.6c0.4,0.4,1,0.6,1.6,0.6c0.6,0,1.2-0.2,1.6-0.6
		C91.8,139.1,92,138.6,92,138.1z"/>
</g>
<g id="layer1-9-6-5" transform="matrix(-1.6743072,0,0,-1.5669921,150.15601,195.14313)">
	<g id="hl-8-1">
		<path inkscape:connector-curvature="0" sodipodi:nodetypes="scsscss" class="st2" d="M38.2,44.6c-2,0-2.2,2.1-2.2,2.1
			s-0.2-2.1-2.2-2.1c-1.3,0-2.6,1-2.6,2.7c0,2.3,3.9,4.7,4.8,8.1c0.8-3.4,4.8-5.7,4.8-8.1C40.8,45.6,39.5,44.6,38.2,44.6z"/>
	</g>
</g>
<g id="layer1-9-6-8" transform="matrix(2.7790082,0,0,2.600887,54.512268,31.603768)">
	<g id="hl-8-8">
		<path inkscape:connector-curvature="0" sodipodi:nodetypes="scsscss" class="st2" d="M-5.7-10.3c-2,0-2.2,2.1-2.2,2.1
			s-0.2-2.1-2.2-2.1c-1.3,0-2.6,1-2.6,2.7c0,2.3,3.9,4.7,4.8,8.1C-7-2.9-3.1-5.2-3.1-7.6C-3.1-9.3-4.3-10.3-5.7-10.3z"/>
	</g>
</g>
<g id="layer1-9-6-8-9" transform="matrix(-2.7790082,0,0,-2.600887,54.512268,208.00617)">
	<g id="hl-8-8-5">
		<path inkscape:connector-curvature="0" sodipodi:nodetypes="scsscss" class="st2" d="M10.1,26.7c-2,0-2.2,2.1-2.2,2.1
			s-0.2-2.1-2.2-2.1c-1.3,0-2.6,1-2.6,2.7c0,2.3,3.9,4.7,4.8,8.1c0.8-3.4,4.8-5.7,4.8-8.1C12.7,27.7,11.4,26.7,10.1,26.7z"/>
	</g>
</g>
<g id="layer1-9-6-8-8" transform="matrix(2.7790082,0,0,2.600887,54.512268,125.30457)">
	<g id="hl-8-8-8">
		<path inkscape:connector-curvature="0" sodipodi:nodetypes="scsscss" class="st2" d="M-5.7-24.7c-2,0-2.2,2.1-2.2,2.1
			s-0.2-2.1-2.2-2.1c-1.3,0-2.6,1-2.6,2.7c0,2.3,3.9,4.7,4.8,8.1c0.8-3.4,4.8-5.7,4.8-8.1C-3.1-23.8-4.3-24.7-5.7-24.7z"/>
	</g>
</g>
<g id="layer1-9-6-8-88" transform="matrix(2.7790082,0,0,2.600887,112.2504,31.272778)">
	<g id="hl-8-8-4">
		<path inkscape:connector-curvature="0" sodipodi:nodetypes="scsscss" class="st2" d="M-14-10.2c-2,0-2.2,2.1-2.2,2.1
			s-0.2-2.1-2.2-2.1c-1.3,0-2.6,1-2.6,2.7c0,2.3,3.9,4.7,4.8,8.1c0.8-3.4,4.8-5.7,4.8-8.1C-11.4-9.2-12.7-10.2-14-10.2z"/>
	</g>
</g>
<g id="layer1-9-6-8-9-3" transform="matrix(-2.7790082,0,0,-2.600887,112.2504,209.27518)">
	<g id="hl-8-8-5-1">
		<path inkscape:connector-curvature="0" sodipodi:nodetypes="scsscss" class="st2" d="M18.4,26.9c-2,0-2.2,2.1-2.2,2.1
			S16,26.9,14,26.9c-1.3,0-2.6,1-2.6,2.7c0,2.3,3.9,4.7,4.8,8.1c0.8-3.4,4.8-5.7,4.8-8.1C21,27.9,19.7,26.9,18.4,26.9z"/>
	</g>
</g>
<g id="layer1-9-6-8-8-4" transform="matrix(2.7790082,0,0,2.600887,112.2504,124.97358)">
	<g id="hl-8-8-8-9">
		<path inkscape:connector-curvature="0" sodipodi:nodetypes="scsscss" class="st2" d="M-14-24.7c-2,0-2.2,2.1-2.2,2.1
			s-0.2-2.1-2.2-2.1c-1.3,0-2.6,1-2.6,2.7c0,2.3,3.9,4.7,4.8,8.1c0.8-3.4,4.8-5.7,4.8-8.1C-11.4-23.7-12.7-24.7-14-24.7z"/>
	</g>
</g>
<g id="layer1-9-6-8-884" transform="matrix(2.7790082,0,0,2.600887,83.678269,76.705082)">
	<g id="hl-8-8-3">
		<path inkscape:connector-curvature="0" sodipodi:nodetypes="scsscss" class="st2" d="M-9.9-17.2c-2,0-2.2,2.1-2.2,2.1
			s-0.2-2.1-2.2-2.1c-1.3,0-2.6,1-2.6,2.7c0,2.3,3.9,4.7,4.8,8.1c0.8-3.4,4.8-5.7,4.8-8.1C-7.3-16.3-8.6-17.2-9.9-17.2z"/>
	</g>
</g>
<g id="layer1-9-6-8-884-8" transform="matrix(-2.7790082,0,0,-2.600887,83.213395,162.70775)">
	<g id="hl-8-8-3-8">
		<path inkscape:connector-curvature="0" sodipodi:nodetypes="scsscss" class="st2" d="M14.2,19.7c-2,0-2.2,2.1-2.2,2.1
			s-0.2-2.1-2.2-2.1c-1.3,0-2.6,1-2.6,2.7c0,2.3,3.9,4.7,4.8,8.1c0.8-3.4,4.8-5.7,4.8-8.1C16.8,20.7,15.5,19.7,14.2,19.7z"/>
	</g>
</g>
</svg>
