<?xml version="1.0" encoding="utf-8"?>
<!-- Generator: Adobe Illustrator 22.0.0, SVG Export Plug-In . SVG Version: 6.00 Build 0)  -->
<svg version="1.1"
	 id="svg2" inkscape:export-filename="/home/byron/art/cards/final/PNGs/9_of_clubs.png" inkscape:export-xdpi="215.44792" inkscape:export-ydpi="215.44792" inkscape:version="0.48.0 r9654" sodipodi:docname="9_of_clubs.svg" xmlns:cc="http://creativecommons.org/ns#" xmlns:dc="http://purl.org/dc/elements/1.1/" xmlns:inkscape="http://www.inkscape.org/namespaces/inkscape" xmlns:rdf="http://www.w3.org/1999/02/22-rdf-syntax-ns#" xmlns:sodipodi="http://sodipodi.sourceforge.net/DTD/sodipodi-0.dtd" xmlns:svg="http://www.w3.org/2000/svg"
	 xmlns="http://www.w3.org/2000/svg" xmlns:xlink="http://www.w3.org/1999/xlink" x="0px" y="0px" viewBox="0 0 100 145.2"
	 style="enable-background:new 0 0 100 145.2;" xml:space="preserve" height="145.2px" width="100px">
<style type="text/css">
	.st0{fill:#FFFFFF;}
	.st1{enable-background:new    ;}
	.st2{fill:#231F20;}
</style>
<sodipodi:namedview  bordercolor="#666666" borderopacity="1" gridtolerance="10" guidetolerance="10" id="namedview39" inkscape:current-layer="svg2" inkscape:cx="117.62976" inkscape:cy="148.16686" inkscape:pageopacity="0" inkscape:pageshadow="2" inkscape:window-height="977" inkscape:window-maximized="1" inkscape:window-width="1680" inkscape:window-x="0" inkscape:window-y="25" inkscape:zoom="2.4336873" objecttolerance="10" pagecolor="#ffffff" showgrid="false">
	</sodipodi:namedview>
<g id="Layer_x0020_1">
	<g id="path5">
		<path class="st0" d="M99.8,140.9c0,2.3-1.9,4.1-4.1,4.1H4.3c-2.3,0-4.1-1.9-4.1-4.1V4.3C0.1,2,2,0.1,4.3,0.1h91.5
			c2.3,0,4.1,1.9,4.1,4.1L99.8,140.9L99.8,140.9z"/>
		<path d="M95.7,145.2H4.3c-2.4,0-4.3-1.9-4.3-4.3V4.3C0,1.9,1.9,0,4.3,0h91.5c2.4,0,4.3,1.9,4.3,4.3v136.8H100
			C99.9,143.4,98,145.2,95.7,145.2z M4.3,0.3c-2.2,0-4,1.8-4,4v136.6c0,2.2,1.8,4,4,4h91.4c2.2,0,4-1.8,4-4v-0.1h0.1V4.3
			c0-2.2-1.8-4-4-4H4.3z"/>
	</g>
	<g id="g7">
		<g id="g9">
		</g>
	</g>
	<g id="g15">
	</g>
	<g id="g19">
	</g>
	<g id="g23">
		<g id="g25">
		</g>
	</g>
	<g id="g31">
		<g id="g33">
		</g>
	</g>
</g>
<g class="st1">
	<path class="st2" d="M6,13.3l1.6-0.1c0.1,0.8,0.4,1.3,0.8,1.7c0.4,0.3,0.9,0.5,1.5,0.5c0.5,0,1-0.1,1.4-0.4c0.4-0.2,0.7-0.6,1-0.9
		c0.2-0.4,0.5-0.9,0.6-1.6c0.2-0.7,0.3-1.4,0.3-2.1c0-0.1,0-0.2,0-0.3c-0.3,0.5-0.8,1-1.4,1.3c-0.6,0.3-1.2,0.5-1.9,0.5
		c-1.1,0-2.1-0.4-2.9-1.2C6.2,9.8,5.8,8.7,5.8,7.4C5.8,6,6.2,4.9,7,4c0.8-0.8,1.8-1.3,3.1-1.3c0.9,0,1.7,0.2,2.4,0.7
		c0.7,0.5,1.3,1.2,1.7,2.1c0.4,0.9,0.6,2.2,0.6,3.9c0,1.8-0.2,3.1-0.6,4.2c-0.4,1-0.9,1.8-1.7,2.4c-0.8,0.5-1.6,0.8-2.6,0.8
		c-1.1,0-1.9-0.3-2.6-0.9C6.6,15.3,6.2,14.4,6,13.3z M12.9,7.3c0-1-0.3-1.7-0.8-2.3c-0.5-0.6-1.1-0.9-1.9-0.9c-0.7,0-1.4,0.3-2,0.9
		C7.8,5.7,7.5,6.5,7.5,7.4c0,0.9,0.3,1.6,0.8,2.1c0.5,0.5,1.2,0.8,1.9,0.8c0.8,0,1.4-0.3,1.9-0.8C12.7,9,12.9,8.3,12.9,7.3z"/>
</g>
<g id="layer1-1-4" transform="matrix(1.4856506,0,0,1.4856506,-54.024661,10.018072)">
	<g id="cl-9">
		<path inkscape:connector-curvature="0" class="st2" d="M44.7,10.9c0,0,1.4-1.1,1.4-2.7c0-0.9-0.8-2.5-2.7-2.5s-2.7,1.6-2.7,2.5
			c0,1.6,1.4,2.7,1.4,2.7c-1.6-1.3-4.4-0.4-4.4,2.1c0,1.3,1,2.6,2.6,2.6c1.9,0,2.7-2.1,2.7-2.1s0.2,2.3-1.1,3.6h3.1
			c-1.4-1.3-1.1-3.6-1.1-3.6s0.8,2.1,2.7,2.1c1.6,0,2.6-1.4,2.6-2.6C49.1,10.5,46.3,9.6,44.7,10.9z"/>
	</g>
</g>
<g class="st1">
	<path class="st2" d="M94,131.5l-1.6,0.1c-0.1-0.8-0.4-1.3-0.8-1.7c-0.4-0.3-0.9-0.5-1.5-0.5c-0.5,0-1,0.1-1.4,0.4
		c-0.4,0.2-0.7,0.6-1,0.9c-0.2,0.4-0.5,0.9-0.6,1.6c-0.2,0.7-0.3,1.4-0.3,2.1c0,0.1,0,0.2,0,0.3c0.3-0.5,0.8-1,1.4-1.3
		c0.6-0.3,1.2-0.5,1.9-0.5c1.1,0,2.1,0.4,2.9,1.2c0.8,0.8,1.2,1.9,1.2,3.3c0,1.4-0.4,2.5-1.2,3.4c-0.8,0.8-1.8,1.3-3.1,1.3
		c-0.9,0-1.7-0.2-2.4-0.7c-0.7-0.5-1.3-1.2-1.7-2.1c-0.4-0.9-0.6-2.2-0.6-3.9c0-1.8,0.2-3.1,0.6-4.2c0.4-1,0.9-1.8,1.7-2.4
		c0.8-0.5,1.6-0.8,2.6-0.8c1.1,0,1.9,0.3,2.6,0.9C93.5,129.6,93.9,130.4,94,131.5z M87.1,137.6c0,1,0.3,1.7,0.8,2.3
		c0.5,0.6,1.1,0.9,1.9,0.9c0.7,0,1.4-0.3,2-0.9c0.6-0.6,0.8-1.4,0.8-2.4c0-0.9-0.3-1.6-0.8-2.1c-0.5-0.5-1.2-0.8-1.9-0.8
		c-0.8,0-1.4,0.3-1.9,0.8C87.4,135.8,87.1,136.6,87.1,137.6z"/>
</g>
<g id="layer1-1-4-1" transform="matrix(-1.4856506,0,0,-1.4856506,221.19916,232.46182)">
	<g id="cl-9-7">
		<path inkscape:connector-curvature="0" class="st2" d="M89.9,76.4c0,0,1.4-1.1,1.4-2.7c0-0.9-0.8-2.5-2.7-2.5
			c-1.9,0-2.7,1.6-2.7,2.5c0,1.6,1.4,2.7,1.4,2.7C85.8,75.2,83,76,83,78.5c0,1.3,1,2.6,2.6,2.6c1.9,0,2.7-2.1,2.7-2.1
			s0.2,2.3-1.1,3.6h3.1c-1.4-1.3-1.1-3.6-1.1-3.6s0.8,2.1,2.7,2.1c1.6,0,2.6-1.4,2.6-2.6C94.3,76,91.4,75.2,89.9,76.4z"/>
	</g>
</g>
<g id="cl-9-8">
	<path inkscape:connector-curvature="0" class="st2" d="M34.5,15c0,0,3.6-2.9,3.6-6.8c0-2.3-2-6.2-6.8-6.2s-6.8,3.8-6.8,6.2
		c0,3.9,3.6,6.8,3.6,6.8c-3.9-3.1-11-1-11,5.2c0,3.1,2.5,6.5,6.5,6.5c4.8,0,6.8-5.2,6.8-5.2s0.6,5.9-2.9,9.1h7.8
		c-3.5-3.2-2.9-9.1-2.9-9.1s2,5.2,6.8,5.2c3.9,0,6.5-3.4,6.5-6.5C45.5,14.1,38.4,11.9,34.5,15z"/>
</g>
<g id="cl-9-8-0">
	<path inkscape:connector-curvature="0" class="st2" d="M34.2,55.8c0,0,3.6-2.9,3.6-6.8c0-2.3-2-6.2-6.8-6.2s-6.8,3.8-6.8,6.2
		c0,3.9,3.6,6.8,3.6,6.8c-3.9-3.1-11-1-11,5.2c0,3.1,2.5,6.5,6.5,6.5c4.8,0,6.8-5.2,6.8-5.2s0.6,5.9-2.9,9.1h7.8
		c-3.5-3.2-2.9-9.1-2.9-9.1s2,5.2,6.8,5.2c3.9,0,6.5-3.4,6.5-6.5C45.3,54.8,38.1,52.7,34.2,55.8z"/>
</g>
<g id="cl-9-8-9">
	<path inkscape:connector-curvature="0" class="st2" d="M72.8,14.9c0,0,3.6-2.9,3.6-6.8c0-2.3-2-6.2-6.8-6.2c-4.8,0-6.8,3.8-6.8,6.2
		c0,3.9,3.6,6.8,3.6,6.8c-3.9-3.1-11-1-11,5.2c0,3.1,2.5,6.5,6.5,6.5c4.8,0,6.8-5.2,6.8-5.2s0.6,5.9-2.9,9.1h7.8
		c-3.5-3.2-2.9-9.1-2.9-9.1s2,5.2,6.8,5.2c3.9,0,6.5-3.4,6.5-6.5C83.8,14,76.7,11.9,72.8,14.9z"/>
</g>
<g id="cl-9-8-0-4">
	<path inkscape:connector-curvature="0" class="st2" d="M72.8,55.7c0,0,3.6-2.9,3.6-6.8c0-2.3-2-6.2-6.8-6.2c-4.8,0-6.8,3.8-6.8,6.2
		c0,3.9,3.6,6.8,3.6,6.8c-3.9-3.1-11-1-11,5.2c0,3.1,2.5,6.5,6.5,6.5c4.8,0,6.8-5.2,6.8-5.2s0.6,5.9-2.9,9.1h7.8
		c-3.5-3.2-2.9-9.1-2.9-9.1s2,5.2,6.8,5.2c3.9,0,6.5-3.4,6.5-6.5C83.8,54.7,76.7,52.6,72.8,55.7z"/>
</g>
<g id="cl-9-8-8">
	<path inkscape:connector-curvature="0" class="st2" d="M53.6,35.5c0,0,3.6-2.9,3.6-6.8c0-2.3-2-6.2-6.8-6.2s-6.8,3.8-6.8,6.2
		c0,3.9,3.6,6.8,3.6,6.8c-3.9-3.1-11-1-11,5.2c0,3.1,2.5,6.5,6.5,6.5c4.8,0,6.8-5.2,6.8-5.2s0.6,5.9-2.9,9.1h7.8
		c-3.5-3.2-2.9-9.1-2.9-9.1s2,5.2,6.8,5.2c3.9,0,6.5-3.4,6.5-6.5C64.6,34.5,57.6,32.4,53.6,35.5z"/>
</g>
<g id="cl-9-8-4">
	<path inkscape:connector-curvature="0" class="st2" d="M65.9,130.3c0,0-3.6,2.9-3.6,6.8c0,2.3,2,6.2,6.8,6.2c4.8,0,6.8-3.8,6.8-6.2
		c0-3.9-3.6-6.8-3.6-6.8c3.9,3.1,11,1,11-5.2c0-3.1-2.5-6.5-6.5-6.5c-4.8,0-6.8,5.2-6.8,5.2s-0.6-5.9,2.9-9.1h-7.8
		c3.5,3.2,2.9,9.1,2.9,9.1s-2-5.2-6.8-5.2c-3.9,0-6.5,3.4-6.5,6.5C54.8,131.3,61.9,133.4,65.9,130.3z"/>
</g>
<g id="cl-9-8-0-2">
	<path inkscape:connector-curvature="0" class="st2" d="M66.3,89.6c0,0-3.6,2.9-3.6,6.8c0,2.3,2,6.2,6.8,6.2c4.8,0,6.8-3.8,6.8-6.2
		c0-3.9-3.6-6.8-3.6-6.8c3.9,3.1,11,1,11-5.2c0-3.1-2.5-6.5-6.5-6.5c-4.8,0-6.8,5.2-6.8,5.2s-0.6-5.9,2.9-9.1h-7.8
		c3.5,3.2,2.9,9.1,2.9,9.1s-2-5.2-6.8-5.2c-3.9,0-6.5,3.4-6.5,6.5C55.3,90.5,62.3,92.7,66.3,89.6z"/>
</g>
<g id="cl-9-8-9-6">
	<path inkscape:connector-curvature="0" class="st2" d="M27.6,130.5c0,0-3.6,2.9-3.6,6.8c0,2.3,2,6.2,6.8,6.2s6.8-3.8,6.8-6.2
		c0-3.9-3.6-6.8-3.6-6.8c3.9,3.1,11,1,11-5.2c0-3.1-2.5-6.5-6.5-6.5c-4.8,0-6.8,5.2-6.8,5.2s-0.6-5.9,2.9-9.1H27
		c3.5,3.2,2.9,9.1,2.9,9.1s-2-5.2-6.8-5.2c-3.9,0-6.5,3.4-6.5,6.5C16.5,131.4,23.6,133.5,27.6,130.5z"/>
</g>
<g id="cl-9-8-0-4-9">
	<path inkscape:connector-curvature="0" class="st2" d="M27.7,89.7c0,0-3.6,2.9-3.6,6.8c0,2.3,2,6.2,6.8,6.2s6.8-3.8,6.8-6.2
		c0-3.9-3.6-6.8-3.6-6.8c3.9,3.1,11,1,11-5.2c0-3.1-2.5-6.5-6.5-6.5c-4.8,0-6.8,5.2-6.8,5.2s-0.6-5.9,2.9-9.1h-7.8
		c3.5,3.2,2.9,9.1,2.9,9.1S28,78,23.2,78c-3.9,0-6.5,3.4-6.5,6.5C16.7,90.7,23.7,92.8,27.7,89.7z"/>
</g>
</svg>
