<?xml version="1.0" encoding="utf-8"?>
<!-- Generator: Adobe Illustrator 22.0.0, SVG Export Plug-In . SVG Version: 6.00 Build 0)  -->
<svg version="1.1"
	 id="svg2" inkscape:export-filename="/home/byron/art/cards/final/PNGs/9_of_hearts.png" inkscape:export-xdpi="215.44792" inkscape:export-ydpi="215.44792" inkscape:version="0.48.0 r9654" sodipodi:docname="9_of_hearts.svg" xmlns:cc="http://creativecommons.org/ns#" xmlns:dc="http://purl.org/dc/elements/1.1/" xmlns:inkscape="http://www.inkscape.org/namespaces/inkscape" xmlns:rdf="http://www.w3.org/1999/02/22-rdf-syntax-ns#" xmlns:sodipodi="http://sodipodi.sourceforge.net/DTD/sodipodi-0.dtd" xmlns:svg="http://www.w3.org/2000/svg"
	 xmlns="http://www.w3.org/2000/svg" xmlns:xlink="http://www.w3.org/1999/xlink" x="0px" y="0px" viewBox="0 0 100 145.2"
	 style="enable-background:new 0 0 100 145.2;" xml:space="preserve" height="145.2px" width="100px">
<style type="text/css">
	.st0{fill:#FFFFFF;}
	.st1{fill:#FF0080;}
	.st2{enable-background:new    ;}
</style>
<sodipodi:namedview  bordercolor="#666666" borderopacity="1" gridtolerance="10" guidetolerance="10" id="namedview39" inkscape:current-layer="svg2" inkscape:cx="-0.38353415" inkscape:cy="147.27218" inkscape:pageopacity="0" inkscape:pageshadow="2" inkscape:window-height="977" inkscape:window-maximized="1" inkscape:window-width="1680" inkscape:window-x="0" inkscape:window-y="25" inkscape:zoom="1.7208768" objecttolerance="10" pagecolor="#ffffff" showgrid="false">
	</sodipodi:namedview>
<g id="Layer_x0020_1">
	<g id="path5">
		<path class="st0" d="M99.8,140.9c0,2.3-1.9,4.1-4.1,4.1H4.3c-2.3,0-4.1-1.9-4.1-4.1V4.3C0.1,2,2,0.1,4.3,0.1h91.5
			c2.3,0,4.1,1.9,4.1,4.1L99.8,140.9L99.8,140.9z"/>
		<path d="M95.7,145.2H4.3c-2.4,0-4.3-1.9-4.3-4.3V4.3C0,1.9,1.9,0,4.3,0h91.5c2.4,0,4.3,1.9,4.3,4.3v136.8H100
			C99.9,143.4,98,145.2,95.7,145.2z M4.3,0.3c-2.2,0-4,1.8-4,4v136.6c0,2.2,1.8,4,4,4h91.4c2.2,0,4-1.8,4-4v-0.1h0.1V4.3
			c0-2.2-1.8-4-4-4H4.3z"/>
	</g>
	<g id="g7">
		<g id="g9">
		</g>
	</g>
	<g id="g15">
	</g>
	<g id="g19">
	</g>
	<g id="g23">
		<g id="g25">
		</g>
	</g>
	<g id="g31">
		<g id="g33">
		</g>
	</g>
</g>
<g id="layer1-9-6" transform="matrix(1.6743072,0,0,1.5669921,17.177511,46.385321)">
	<g id="hl-8">
		<path inkscape:connector-curvature="0" sodipodi:nodetypes="scsscss" class="st1" d="M-1.9-17.3c-2,0-2.2,2.1-2.2,2.1
			s-0.2-2.1-2.2-2.1c-1.3,0-2.6,1-2.6,2.7c0,2.3,3.9,4.7,4.8,8.1c0.8-3.4,4.8-5.7,4.8-8.1C0.7-16.3-0.6-17.3-1.9-17.3z"/>
	</g>
</g>
<g id="layer1-9-6-5" transform="matrix(-1.6743072,0,0,-1.5669921,150.15601,195.14313)">
	<g id="hl-8-1">
		<path inkscape:connector-curvature="0" sodipodi:nodetypes="scsscss" class="st1" d="M38.2,44.6c-2,0-2.2,2.1-2.2,2.1
			s-0.2-2.1-2.2-2.1c-1.3,0-2.6,1-2.6,2.7c0,2.3,3.9,4.7,4.8,8.1c0.8-3.4,4.8-5.7,4.8-8.1C40.8,45.6,39.5,44.6,38.2,44.6z"/>
	</g>
</g>
<g id="layer1-9-6-8" transform="matrix(2.7790082,0,0,2.600887,54.512268,30.003768)">
	<g id="hl-8-8">
		<path inkscape:connector-curvature="0" sodipodi:nodetypes="scsscss" class="st1" d="M-5.7-10c-2,0-2.2,2.1-2.2,2.1
			S-8.1-10-10.1-10c-1.3,0-2.6,1-2.6,2.7c0,2.3,3.9,4.7,4.8,8.1C-7-2.6-3.1-5-3.1-7.3C-3.1-9.1-4.3-10-5.7-10z"/>
	</g>
</g>
<g id="layer1-9-6-8-9" transform="matrix(-2.7790082,0,0,-2.600887,54.512268,212.80617)">
	<g id="hl-8-8-5">
		<path inkscape:connector-curvature="0" sodipodi:nodetypes="scsscss" class="st1" d="M10.1,27.5c-2,0-2.2,2.1-2.2,2.1
			s-0.2-2.1-2.2-2.1c-1.3,0-2.6,1-2.6,2.7c0,2.3,3.9,4.7,4.8,8.1c0.8-3.4,4.8-5.7,4.8-8.1C12.7,28.4,11.4,27.5,10.1,27.5z"/>
	</g>
</g>
<g id="layer1-9-6-8-8" transform="matrix(2.7790082,0,0,2.600887,54.512268,95.238623)">
	<g id="hl-8-8-8">
		<path inkscape:connector-curvature="0" sodipodi:nodetypes="scsscss" class="st1" d="M-5.7-20.1c-2,0-2.2,2.1-2.2,2.1
			s-0.2-2.1-2.2-2.1c-1.3,0-2.6,1-2.6,2.7c0,2.3,3.9,4.7,4.8,8.1c0.8-3.4,4.8-5.7,4.8-8.1C-3.1-19.1-4.3-20.1-5.7-20.1z"/>
	</g>
</g>
<g id="layer1-9-6-8-884-8" transform="matrix(-2.7790082,0,0,-2.600887,54.512268,145.35601)">
	<g id="hl-8-8-3-8">
		<path inkscape:connector-curvature="0" sodipodi:nodetypes="scsscss" class="st1" d="M10.1,17.1c-2,0-2.2,2.1-2.2,2.1
			s-0.2-2.1-2.2-2.1c-1.3,0-2.6,1-2.6,2.7c0,2.3,3.9,4.7,4.8,8.1c0.8-3.4,4.8-5.7,4.8-8.1C12.7,18,11.4,17.1,10.1,17.1z"/>
	</g>
</g>
<g id="layer1-9-6-8-7" transform="matrix(2.7790082,0,0,2.600887,111.99088,30.602538)">
	<g id="hl-8-8-1">
		<path inkscape:connector-curvature="0" sodipodi:nodetypes="scsscss" class="st1" d="M-14-10.1c-2,0-2.2,2.1-2.2,2.1
			s-0.2-2.1-2.2-2.1c-1.3,0-2.6,1-2.6,2.7c0,2.3,3.9,4.7,4.8,8.1c0.8-3.4,4.8-5.7,4.8-8.1C-11.4-9.1-12.6-10.1-14-10.1z"/>
	</g>
</g>
<g id="layer1-9-6-8-9-7" transform="matrix(-2.7790082,0,0,-2.600887,111.99088,213.40494)">
	<g id="hl-8-8-5-2">
		<path inkscape:connector-curvature="0" sodipodi:nodetypes="scsscss" class="st1" d="M18.4,27.6c-2,0-2.2,2.1-2.2,2.1
			s-0.2-2.1-2.2-2.1c-1.3,0-2.6,1-2.6,2.7c0,2.3,3.9,4.7,4.8,8.1c0.8-3.4,4.8-5.7,4.8-8.1C21,28.5,19.7,27.6,18.4,27.6z"/>
	</g>
</g>
<g id="layer1-9-6-8-8-7" transform="matrix(2.7790082,0,0,2.600887,111.99088,95.837397)">
	<g id="hl-8-8-8-2">
		<path inkscape:connector-curvature="0" sodipodi:nodetypes="scsscss" class="st1" d="M-14-20.2c-2,0-2.2,2.1-2.2,2.1
			s-0.2-2.1-2.2-2.1c-1.3,0-2.6,1-2.6,2.7c0,2.3,3.9,4.7,4.8,8.1c0.8-3.4,4.8-5.7,4.8-8.1C-11.4-19.2-12.6-20.2-14-20.2z"/>
	</g>
</g>
<g id="layer1-9-6-8-884-8-2" transform="matrix(-2.7790082,0,0,-2.600887,111.99088,145.95478)">
	<g id="hl-8-8-3-8-6">
		<path inkscape:connector-curvature="0" sodipodi:nodetypes="scsscss" class="st1" d="M18.4,17.1c-2,0-2.2,2.1-2.2,2.1
			s-0.2-2.1-2.2-2.1c-1.3,0-2.6,1-2.6,2.7c0,2.3,3.9,4.7,4.8,8.1c0.8-3.4,4.8-5.7,4.8-8.1C21,18.1,19.7,17.1,18.4,17.1z"/>
	</g>
</g>
<g id="layer1-9-6-8-91" transform="matrix(2.7790082,0,0,2.600887,83.213391,62.704546)">
	<g id="hl-8-8-7">
		<path inkscape:connector-curvature="0" sodipodi:nodetypes="scsscss" class="st1" d="M-9.8-15.1c-2,0-2.2,2.1-2.2,2.1
			s-0.2-2.1-2.2-2.1c-1.3,0-2.6,1-2.6,2.7c0,2.3,3.9,4.7,4.8,8.1c0.8-3.4,4.8-5.7,4.8-8.1C-7.2-14.1-8.5-15.1-9.8-15.1z"/>
	</g>
</g>
<g class="st2">
	<path class="st1" d="M6.3,13.6l1.6-0.1c0.1,0.8,0.4,1.3,0.8,1.7c0.4,0.3,0.9,0.5,1.5,0.5c0.5,0,1-0.1,1.4-0.4
		c0.4-0.2,0.7-0.6,1-0.9c0.2-0.4,0.5-0.9,0.6-1.6c0.2-0.7,0.3-1.4,0.3-2.1c0-0.1,0-0.2,0-0.3c-0.3,0.5-0.8,1-1.4,1.3
		c-0.6,0.3-1.2,0.5-1.9,0.5c-1.1,0-2.1-0.4-2.9-1.2C6.4,10.1,6.1,9,6.1,7.7c0-1.4,0.4-2.5,1.2-3.4C8.1,3.5,9.1,3,10.4,3
		c0.9,0,1.7,0.2,2.4,0.7c0.7,0.5,1.3,1.2,1.7,2.1c0.4,0.9,0.6,2.2,0.6,3.9c0,1.8-0.2,3.1-0.6,4.2c-0.4,1-0.9,1.8-1.7,2.4
		C12,16.8,11.2,17,10.2,17c-1.1,0-1.9-0.3-2.6-0.9C6.9,15.5,6.4,14.7,6.3,13.6z M13.2,7.6c0-1-0.3-1.7-0.8-2.3
		c-0.5-0.6-1.1-0.9-1.9-0.9c-0.7,0-1.4,0.3-2,0.9C8.1,5.9,7.8,6.7,7.8,7.7c0,0.9,0.3,1.6,0.8,2.1c0.5,0.5,1.2,0.8,1.9,0.8
		c0.8,0,1.4-0.3,1.9-0.8C12.9,9.3,13.2,8.5,13.2,7.6z"/>
</g>
<g class="st2">
	<path class="st1" d="M94,130.9l-1.6,0.1c-0.1-0.8-0.4-1.3-0.8-1.7c-0.4-0.3-0.9-0.5-1.5-0.5c-0.5,0-1,0.1-1.4,0.4
		c-0.4,0.2-0.7,0.6-1,0.9c-0.2,0.4-0.5,0.9-0.6,1.6c-0.2,0.7-0.3,1.4-0.3,2.1c0,0.1,0,0.2,0,0.3c0.3-0.5,0.8-1,1.4-1.3
		c0.6-0.3,1.2-0.5,1.9-0.5c1.1,0,2.1,0.4,2.9,1.2c0.8,0.8,1.2,1.9,1.2,3.3c0,1.4-0.4,2.5-1.2,3.4c-0.8,0.8-1.8,1.3-3.1,1.3
		c-0.9,0-1.7-0.2-2.4-0.7c-0.7-0.5-1.3-1.2-1.7-2.1c-0.4-0.9-0.6-2.2-0.6-3.9c0-1.8,0.2-3.1,0.6-4.2c0.4-1,0.9-1.8,1.7-2.4
		c0.8-0.5,1.6-0.8,2.6-0.8c1.1,0,1.9,0.3,2.6,0.9C93.5,129,93.9,129.9,94,130.9z M87.1,137c0,1,0.3,1.7,0.8,2.3
		c0.5,0.6,1.1,0.9,1.9,0.9c0.7,0,1.4-0.3,2-0.9c0.6-0.6,0.8-1.4,0.8-2.4c0-0.9-0.3-1.6-0.8-2.1c-0.5-0.5-1.2-0.8-1.9-0.8
		c-0.8,0-1.4,0.3-1.9,0.8C87.4,135.3,87.1,136,87.1,137z"/>
</g>
</svg>
