<?xml version="1.0" encoding="utf-8"?>
<!-- Generator: Adobe Illustrator 22.0.0, SVG Export Plug-In . SVG Version: 6.00 Build 0)  -->
<svg version="1.1"
	 id="svg2" inkscape:export-filename="/home/byron/art/cards/final/PNGs/A_of_clubs.png" inkscape:export-xdpi="215.44792" inkscape:export-ydpi="215.44792" inkscape:version="0.48.0 r9654" sodipodi:docname="A_of_clubs.svg" xmlns:cc="http://creativecommons.org/ns#" xmlns:dc="http://purl.org/dc/elements/1.1/" xmlns:inkscape="http://www.inkscape.org/namespaces/inkscape" xmlns:rdf="http://www.w3.org/1999/02/22-rdf-syntax-ns#" xmlns:sodipodi="http://sodipodi.sourceforge.net/DTD/sodipodi-0.dtd" xmlns:svg="http://www.w3.org/2000/svg"
	 xmlns="http://www.w3.org/2000/svg" xmlns:xlink="http://www.w3.org/1999/xlink" x="0px" y="0px" viewBox="0 0 100 145.2"
	 style="enable-background:new 0 0 100 145.2;" xml:space="preserve" height="145.2px" width="100px">
<style type="text/css">
	.st0{fill:#FFFFFF;}
	.st1{enable-background:new    ;}
	.st2{fill:#231F20;}
	.st3{fill:#FFFEFF;}
</style>
<sodipodi:namedview  bordercolor="#666666" borderopacity="1" gridtolerance="10" guidetolerance="10" id="namedview39" inkscape:current-layer="svg2" inkscape:cx="188.71531" inkscape:cy="148.16686" inkscape:pageopacity="0" inkscape:pageshadow="2" inkscape:window-height="977" inkscape:window-maximized="1" inkscape:window-width="1680" inkscape:window-x="0" inkscape:window-y="25" inkscape:zoom="2.4336873" objecttolerance="10" pagecolor="#ffffff" showgrid="false">
	</sodipodi:namedview>
<g id="Layer_x0020_1">
	<g id="path5">
		<path class="st0" d="M99.8,140.9c0,2.3-1.9,4.1-4.1,4.1H4.3c-2.3,0-4.1-1.9-4.1-4.1V4.3C0.1,2,2,0.1,4.3,0.1h91.5
			c2.3,0,4.1,1.9,4.1,4.1L99.8,140.9L99.8,140.9z"/>
		<path d="M95.7,145.2H4.3c-2.4,0-4.3-1.9-4.3-4.3V4.3C0,1.9,1.9,0,4.3,0h91.5c2.4,0,4.3,1.9,4.3,4.3v136.8H100
			C99.9,143.4,98,145.2,95.7,145.2z M4.3,0.3c-2.2,0-4,1.8-4,4v136.6c0,2.2,1.8,4,4,4h91.4c2.2,0,4-1.8,4-4v-0.1h0.1V4.3
			c0-2.2-1.8-4-4-4H4.3z"/>
	</g>
	<g id="g7">
		<g id="g9">
		</g>
	</g>
	<g id="g15">
	</g>
	<g id="g19">
	</g>
	<g id="g23">
		<g id="g25">
		</g>
	</g>
	<g id="g31">
		<g id="g33">
		</g>
	</g>
</g>
<g class="st1">
	<path class="st2" d="M4,16.5L9.3,2.8h2l5.6,13.7h-2.1l-1.6-4.2H7.4l-1.5,4.2H4z M8,10.9h4.6l-1.4-3.8c-0.4-1.2-0.8-2.1-1-2.8
		C10,5.1,9.8,6,9.5,6.9L8,10.9z"/>
</g>
<g id="g3804" transform="matrix(0.20614599,0,0,0.20614599,8.8705463,16.512759)">
	<g id="layer1-1" transform="matrix(28.969925,0,0,28.969925,-1031.5368,-187.37665)">
		<g id="cl">
			<path inkscape:connector-curvature="0" class="st2" d="M43.8,15.1c0,0,1.4-1.1,1.4-2.7c0-0.9-0.8-2.5-2.7-2.5
				c-1.9,0-2.7,1.6-2.7,2.5c0,1.6,1.4,2.7,1.4,2.7c-1.6-1.3-4.4-0.4-4.4,2.1c0,1.3,1,2.6,2.6,2.6c1.9,0,2.7-2.1,2.7-2.1
				s0.2,2.3-1.1,3.6h3.1C42.8,20,43,17.6,43,17.6s0.8,2.1,2.7,2.1c1.6,0,2.6-1.4,2.6-2.6C48.2,14.7,45.4,13.8,43.8,15.1z"/>
		</g>
	</g>
	<g id="rect3015">
		<path inkscape:connector-curvature="0" class="st3" d="M-0.2,41v439.3H399V41C399,41-0.2,41-0.2,41z M199.8,99.4
			c54.9,0,78.6,44.4,78.6,71.1c0,45.6-41.2,78.6-41.2,78.6c45.7-35.6,127.3-11.3,127.3,59.9c0,35.6-29.1,74.8-74.8,74.8
			c-54.9,0-78.6-59.9-78.6-59.9s-7,68.3,33.6,104.8h-89.8c40.6-36.6,33.7-104.8,33.7-104.8s-23.8,59.9-78.6,59.9
			c-45.7,0-74.8-39.2-74.8-74.8c0-71.2,81.5-95.5,127.3-59.9c0,0-41.2-32.9-41.2-78.6C121.2,143.8,144.9,99.4,199.8,99.4z"/>
	</g>
</g>
<g id="layer1-1-4" transform="matrix(1.4856506,0,0,1.4856506,-54.024661,10.018072)">
	<g id="cl-9">
		<path inkscape:connector-curvature="0" class="st2" d="M44.7,10.9c0,0,1.4-1.1,1.4-2.7c0-0.9-0.8-2.5-2.7-2.5s-2.7,1.6-2.7,2.5
			c0,1.6,1.4,2.7,1.4,2.7c-1.6-1.3-4.4-0.4-4.4,2.1c0,1.3,1,2.6,2.6,2.6c1.9,0,2.7-2.1,2.7-2.1s0.2,2.3-1.1,3.6h3.1
			c-1.4-1.3-1.1-3.6-1.1-3.6s0.8,2.1,2.7,2.1c1.6,0,2.6-1.4,2.6-2.6C49.1,10.5,46.3,9.6,44.7,10.9z"/>
	</g>
</g>
<g class="st1">
	<path class="st2" d="M96.1,128.3L90.8,142h-2l-5.6-13.7h2.1l1.6,4.2h5.7l1.5-4.2H96.1z M92.1,134h-4.6l1.4,3.8
		c0.4,1.2,0.8,2.1,1,2.8c0.2-0.9,0.4-1.8,0.7-2.6L92.1,134z"/>
</g>
<g id="layer1-1-4-1" transform="matrix(-1.4856506,0,0,-1.4856506,221.19916,232.46182)">
	<g id="cl-9-7">
		<path inkscape:connector-curvature="0" class="st2" d="M89.9,76.4c0,0,1.4-1.1,1.4-2.7c0-0.9-0.8-2.5-2.7-2.5
			c-1.9,0-2.7,1.6-2.7,2.5c0,1.6,1.4,2.7,1.4,2.7C85.8,75.2,83,76,83,78.5c0,1.3,1,2.6,2.6,2.6c1.9,0,2.7-2.1,2.7-2.1
			s0.2,2.3-1.1,3.6h3.1c-1.4-1.3-1.1-3.6-1.1-3.6s0.8,2.1,2.7,2.1c1.6,0,2.6-1.4,2.6-2.6C94.3,76,91.4,75.2,89.9,76.4z"/>
	</g>
</g>
</svg>
