<?xml version="1.0" encoding="utf-8"?>
<!-- Generator: Adobe Illustrator 22.0.0, SVG Export Plug-In . SVG Version: 6.00 Build 0)  -->
<svg version="1.1"
	 id="svg2" inkscape:export-filename="/home/byron/art/cards/final/PNGs/ace_of_diamonds.png" inkscape:export-xdpi="215.44792" inkscape:export-ydpi="215.44792" inkscape:version="0.48.0 r9654" sodipodi:docname="ace_of_diamonds.svg" xmlns:cc="http://creativecommons.org/ns#" xmlns:dc="http://purl.org/dc/elements/1.1/" xmlns:inkscape="http://www.inkscape.org/namespaces/inkscape" xmlns:rdf="http://www.w3.org/1999/02/22-rdf-syntax-ns#" xmlns:sodipodi="http://sodipodi.sourceforge.net/DTD/sodipodi-0.dtd" xmlns:svg="http://www.w3.org/2000/svg"
	 xmlns="http://www.w3.org/2000/svg" xmlns:xlink="http://www.w3.org/1999/xlink" x="0px" y="0px" viewBox="0 0 100 145.2"
	 style="enable-background:new 0 0 100 145.2;" xml:space="preserve" height="145.2px" width="100px">
<style type="text/css">
	.st0{fill:#FFFFFF;}
	.st1{enable-background:new    ;}
	.st2{fill:#FF0080;}
</style>
<sodipodi:namedview  bordercolor="#666666" borderopacity="1" gridtolerance="10" guidetolerance="10" id="namedview39" inkscape:current-layer="svg2" inkscape:cx="72.124594" inkscape:cy="147.27218" inkscape:pageopacity="0" inkscape:pageshadow="2" inkscape:window-height="977" inkscape:window-maximized="1" inkscape:window-width="1680" inkscape:window-x="0" inkscape:window-y="25" inkscape:zoom="1.7208768" objecttolerance="10" pagecolor="#ffffff" showgrid="false">
	</sodipodi:namedview>
<g id="Layer_x0020_1">
	<g id="path5">
		<path class="st0" d="M99.8,140.9c0,2.3-1.9,4.1-4.1,4.1H4.3c-2.3,0-4.1-1.9-4.1-4.1V4.3C0.1,2,2,0.1,4.3,0.1h91.5
			c2.3,0,4.1,1.9,4.1,4.1L99.8,140.9L99.8,140.9z"/>
		<path d="M95.7,145.2H4.3c-2.4,0-4.3-1.9-4.3-4.3V4.3C0,1.9,1.9,0,4.3,0h91.5c2.4,0,4.3,1.9,4.3,4.3v136.8H100
			C99.9,143.4,98,145.2,95.7,145.2z M4.3,0.3c-2.2,0-4,1.8-4,4v136.6c0,2.2,1.8,4,4,4h91.4c2.2,0,4-1.8,4-4v-0.1h0.1V4.3
			c0-2.2-1.8-4-4-4H4.3z"/>
	</g>
	<g id="g7">
		<g id="g9">
		</g>
	</g>
	<g id="g15">
	</g>
	<g id="g19">
	</g>
	<g id="g23">
		<g id="g25">
		</g>
	</g>
	<g id="g31">
		<g id="g33">
		</g>
	</g>
</g>
<g class="st1">
	<path class="st2" d="M3.7,16.8L9,3.1h2l5.6,13.7h-2.1l-1.6-4.2H7.2l-1.5,4.2H3.7z M7.7,11.2h4.6l-1.4-3.8c-0.4-1.2-0.8-2.1-1-2.8
		C9.8,5.4,9.5,6.3,9.2,7.1L7.7,11.2z"/>
</g>
<g class="st1">
	<path class="st2" d="M96.4,127.8l-5.3,13.7h-2l-5.6-13.7h2.1l1.6,4.2H93l1.5-4.2H96.4z M92.5,133.4h-4.6l1.4,3.8
		c0.4,1.2,0.8,2.1,1,2.8c0.2-0.9,0.4-1.8,0.7-2.6L92.5,133.4z"/>
</g>
<g id="g3011" transform="matrix(0.17001436,0,0,0.17001436,19.517107,29.794341)">
	<g id="layer1-2" transform="matrix(35.005102,0,0,35.005102,369.18369,512.27289)">
		<g id="dl">
			<path inkscape:connector-curvature="0" sodipodi:nodetypes="ccccccccc" class="st2" d="M-3.6-10.7c-1.3-1.7-1.9-3.5-1.9-3.5
				s-0.7,1.7-1.9,3.5c-1.3,1.7-2.9,2.8-2.9,2.8s1.6,1.1,2.9,2.8c1.3,1.7,1.9,3.5,1.9,3.5s0.7-1.7,1.9-3.5c1.3-1.7,2.9-2.8,2.9-2.8
				S-2.3-9-3.6-10.7z"/>
		</g>
	</g>
</g>
<g id="layer1-2-6" transform="matrix(1.4769065,0,0,1.4769065,16.968095,44.236162)">
	<g id="dl-6">
		<path inkscape:connector-curvature="0" sodipodi:nodetypes="ccccccccc" class="st2" d="M-2.7-14.8c-1.3-1.7-1.9-3.5-1.9-3.5
			s-0.7,1.7-1.9,3.5C-7.8-13.1-9.4-12-9.4-12s1.6,1.1,2.9,2.8c1.3,1.7,1.9,3.5,1.9,3.5s0.7-1.7,1.9-3.5c1.3-1.7,2.9-2.8,2.9-2.8
			S-1.4-13.1-2.7-14.8z"/>
	</g>
</g>
<g id="layer1-2-6-4" transform="matrix(1.4769065,0,0,1.4769065,150.62089,198.50346)">
	<g id="dl-6-9">
		<path inkscape:connector-curvature="0" sodipodi:nodetypes="ccccccccc" class="st2" d="M-39-56.8c-1.3-1.7-1.9-3.5-1.9-3.5
			s-0.7,1.7-1.9,3.5c-1.3,1.7-2.9,2.8-2.9,2.8s1.6,1.1,2.9,2.8c1.3,1.7,1.9,3.5,1.9,3.5s0.7-1.7,1.9-3.5c1.3-1.7,2.9-2.8,2.9-2.8
			S-37.7-55.1-39-56.8z"/>
	</g>
</g>
</svg>
