<?xml version="1.0" encoding="utf-8"?>
<!-- Generator: Adobe Illustrator 22.0.0, SVG Export Plug-In . SVG Version: 6.00 Build 0)  -->
<svg version="1.1"
	 id="svg2" inkscape:export-filename="/home/byron/art/cards/final/PNGs/A_of_hearts.png" inkscape:export-xdpi="215.44792" inkscape:export-ydpi="215.44792" inkscape:version="0.48.0 r9654" sodipodi:docname="A_of_hearts.svg" xmlns:cc="http://creativecommons.org/ns#" xmlns:dc="http://purl.org/dc/elements/1.1/" xmlns:inkscape="http://www.inkscape.org/namespaces/inkscape" xmlns:rdf="http://www.w3.org/1999/02/22-rdf-syntax-ns#" xmlns:sodipodi="http://sodipodi.sourceforge.net/DTD/sodipodi-0.dtd" xmlns:svg="http://www.w3.org/2000/svg"
	 xmlns="http://www.w3.org/2000/svg" xmlns:xlink="http://www.w3.org/1999/xlink" x="0px" y="0px" viewBox="0 0 100 145.2"
	 style="enable-background:new 0 0 100 145.2;" xml:space="preserve" height="145.2px" width="100px">
<style type="text/css">
	.st0{fill:#FFFFFF;}
	.st1{enable-background:new    ;}
	.st2{fill:#FF0080;}
	.st3{clip-path:url(#SVGID_2_);}
	.st4{clip-path:url(#SVGID_2_);fill:#010101;}
	.st5{clip-path:url(#SVGID_2_);fill:#020202;}
	.st6{clip-path:url(#SVGID_2_);fill:#030303;}
	.st7{clip-path:url(#SVGID_2_);fill:#040404;}
	.st8{clip-path:url(#SVGID_2_);fill:#050505;}
	.st9{clip-path:url(#SVGID_2_);fill:#060606;}
	.st10{clip-path:url(#SVGID_2_);fill:#070707;}
	.st11{clip-path:url(#SVGID_2_);fill:#080808;}
	.st12{clip-path:url(#SVGID_2_);fill:#090909;}
	.st13{clip-path:url(#SVGID_2_);fill:#0A0A0A;}
	.st14{clip-path:url(#SVGID_2_);fill:#0B0B0B;}
	.st15{clip-path:url(#SVGID_2_);fill:#0C0C0C;}
	.st16{clip-path:url(#SVGID_2_);fill:#0D0D0D;}
	.st17{clip-path:url(#SVGID_2_);fill:#0E0E0E;}
	.st18{clip-path:url(#SVGID_2_);fill:#0F0F0F;}
	.st19{clip-path:url(#SVGID_2_);fill:#101010;}
	.st20{clip-path:url(#SVGID_2_);fill:#111111;}
	.st21{clip-path:url(#SVGID_2_);fill:#121212;}
	.st22{clip-path:url(#SVGID_2_);fill:#131313;}
	.st23{clip-path:url(#SVGID_2_);fill:#141414;}
	.st24{clip-path:url(#SVGID_2_);fill:#151515;}
	.st25{clip-path:url(#SVGID_2_);fill:#161616;}
	.st26{clip-path:url(#SVGID_2_);fill:#171717;}
	.st27{clip-path:url(#SVGID_2_);fill:#181818;}
	.st28{clip-path:url(#SVGID_2_);fill:#191919;}
	.st29{clip-path:url(#SVGID_2_);fill:#1A1A1A;}
	.st30{clip-path:url(#SVGID_2_);fill:#1B1B1B;}
	.st31{clip-path:url(#SVGID_2_);fill:#1C1C1C;}
	.st32{clip-path:url(#SVGID_2_);fill:#1D1D1D;}
	.st33{clip-path:url(#SVGID_2_);fill:#1E1E1E;}
	.st34{clip-path:url(#SVGID_2_);fill:#1F1F1F;}
	.st35{clip-path:url(#SVGID_2_);fill:#202020;}
	.st36{clip-path:url(#SVGID_2_);fill:#212121;}
	.st37{clip-path:url(#SVGID_2_);fill:#222222;}
	.st38{clip-path:url(#SVGID_2_);fill:#232323;}
	.st39{clip-path:url(#SVGID_2_);fill:#242424;}
	.st40{clip-path:url(#SVGID_2_);fill:#252525;}
	.st41{clip-path:url(#SVGID_2_);fill:#262626;}
	.st42{clip-path:url(#SVGID_2_);fill:#272727;}
	.st43{clip-path:url(#SVGID_2_);fill:#282828;}
	.st44{clip-path:url(#SVGID_2_);fill:#292929;}
	.st45{clip-path:url(#SVGID_2_);fill:#2A2A2A;}
	.st46{clip-path:url(#SVGID_2_);fill:#2B2B2B;}
	.st47{clip-path:url(#SVGID_2_);fill:#2C2C2C;}
	.st48{clip-path:url(#SVGID_2_);fill:#2D2D2D;}
	.st49{clip-path:url(#SVGID_2_);fill:#2E2E2E;}
	.st50{clip-path:url(#SVGID_2_);fill:#2F2F2F;}
	.st51{clip-path:url(#SVGID_2_);fill:#303030;}
	.st52{clip-path:url(#SVGID_2_);fill:#313131;}
	.st53{clip-path:url(#SVGID_2_);fill:#323232;}
	.st54{clip-path:url(#SVGID_2_);fill:#333333;}
	.st55{clip-path:url(#SVGID_2_);fill:#343434;}
	.st56{clip-path:url(#SVGID_2_);fill:#353535;}
	.st57{clip-path:url(#SVGID_2_);fill:#363636;}
	.st58{clip-path:url(#SVGID_2_);fill:#373737;}
	.st59{clip-path:url(#SVGID_2_);fill:#383838;}
	.st60{clip-path:url(#SVGID_2_);fill:#393939;}
	.st61{clip-path:url(#SVGID_2_);fill:#3A3A3A;}
	.st62{clip-path:url(#SVGID_2_);fill:#3B3B3B;}
	.st63{clip-path:url(#SVGID_2_);fill:#3C3C3C;}
	.st64{clip-path:url(#SVGID_2_);fill:#3D3D3D;}
	.st65{clip-path:url(#SVGID_2_);fill:#3E3E3E;}
	.st66{clip-path:url(#SVGID_2_);fill:#3F3F3F;}
	.st67{clip-path:url(#SVGID_2_);fill:#404040;}
	.st68{clip-path:url(#SVGID_2_);fill:#414141;}
	.st69{clip-path:url(#SVGID_2_);fill:#424242;}
	.st70{clip-path:url(#SVGID_2_);fill:#434343;}
	.st71{clip-path:url(#SVGID_2_);fill:#444444;}
	.st72{clip-path:url(#SVGID_2_);fill:#454545;}
	.st73{clip-path:url(#SVGID_2_);fill:#464646;}
	.st74{clip-path:url(#SVGID_2_);fill:#474747;}
	.st75{clip-path:url(#SVGID_2_);fill:#484848;}
	.st76{clip-path:url(#SVGID_2_);fill:#494949;}
	.st77{clip-path:url(#SVGID_2_);fill:#4A4A4A;}
	.st78{clip-path:url(#SVGID_2_);fill:#4B4B4B;}
	.st79{clip-path:url(#SVGID_2_);fill:#4C4C4C;}
	.st80{clip-path:url(#SVGID_2_);fill:#4D4D4D;}
	.st81{clip-path:url(#SVGID_2_);fill:#4E4E4E;}
	.st82{clip-path:url(#SVGID_2_);fill:#4F4F4F;}
	.st83{clip-path:url(#SVGID_2_);fill:#505050;}
	.st84{clip-path:url(#SVGID_2_);fill:#515151;}
	.st85{clip-path:url(#SVGID_2_);fill:#525252;}
	.st86{clip-path:url(#SVGID_2_);fill:#535353;}
	.st87{clip-path:url(#SVGID_2_);fill:#545454;}
	.st88{clip-path:url(#SVGID_2_);fill:#555555;}
	.st89{clip-path:url(#SVGID_2_);fill:#565656;}
	.st90{clip-path:url(#SVGID_2_);fill:#575757;}
	.st91{clip-path:url(#SVGID_2_);fill:#585858;}
	.st92{clip-path:url(#SVGID_2_);fill:#595959;}
	.st93{clip-path:url(#SVGID_2_);fill:#5A5A5A;}
	.st94{clip-path:url(#SVGID_2_);fill:#5B5B5B;}
	.st95{clip-path:url(#SVGID_2_);fill:#5C5C5C;}
	.st96{clip-path:url(#SVGID_2_);fill:#5D5D5D;}
	.st97{clip-path:url(#SVGID_2_);fill:#5E5E5E;}
	.st98{clip-path:url(#SVGID_2_);fill:#5F5F5F;}
	.st99{clip-path:url(#SVGID_2_);fill:#606060;}
	.st100{clip-path:url(#SVGID_2_);fill:#616161;}
	.st101{clip-path:url(#SVGID_2_);fill:#626262;}
	.st102{clip-path:url(#SVGID_2_);fill:#636363;}
	.st103{clip-path:url(#SVGID_2_);fill:#646464;}
	.st104{clip-path:url(#SVGID_2_);fill:#656565;}
	.st105{clip-path:url(#SVGID_2_);fill:#666666;}
	.st106{clip-path:url(#SVGID_2_);fill:#676767;}
	.st107{clip-path:url(#SVGID_2_);fill:#686868;}
	.st108{clip-path:url(#SVGID_2_);fill:#696969;}
	.st109{clip-path:url(#SVGID_2_);fill:#6A6A6A;}
	.st110{clip-path:url(#SVGID_2_);fill:#6B6B6B;}
	.st111{clip-path:url(#SVGID_2_);fill:#6C6C6C;}
	.st112{clip-path:url(#SVGID_2_);fill:#6D6D6D;}
	.st113{clip-path:url(#SVGID_2_);fill:#6E6E6E;}
	.st114{clip-path:url(#SVGID_2_);fill:#6F6F6F;}
	.st115{clip-path:url(#SVGID_2_);fill:#707070;}
	.st116{clip-path:url(#SVGID_2_);fill:#717171;}
	.st117{clip-path:url(#SVGID_2_);fill:#727272;}
	.st118{clip-path:url(#SVGID_2_);fill:#737373;}
	.st119{clip-path:url(#SVGID_2_);fill:#747474;}
	.st120{clip-path:url(#SVGID_2_);fill:#757575;}
	.st121{clip-path:url(#SVGID_2_);fill:#767676;}
	.st122{clip-path:url(#SVGID_2_);fill:#777777;}
	.st123{clip-path:url(#SVGID_2_);fill:#787878;}
	.st124{clip-path:url(#SVGID_2_);fill:#797979;}
	.st125{clip-path:url(#SVGID_2_);fill:#7A7A7A;}
	.st126{clip-path:url(#SVGID_2_);fill:#7B7B7B;}
	.st127{clip-path:url(#SVGID_2_);fill:#7C7C7C;}
	.st128{clip-path:url(#SVGID_2_);fill:#7D7D7D;}
	.st129{clip-path:url(#SVGID_2_);fill:#7E7E7E;}
	.st130{clip-path:url(#SVGID_2_);fill:#808080;}
	.st131{clip-path:url(#SVGID_2_);fill:#818181;}
	.st132{clip-path:url(#SVGID_2_);fill:#828282;}
	.st133{clip-path:url(#SVGID_2_);fill:#838383;}
	.st134{clip-path:url(#SVGID_2_);fill:#848484;}
	.st135{clip-path:url(#SVGID_2_);fill:#858585;}
	.st136{clip-path:url(#SVGID_2_);fill:#868686;}
	.st137{clip-path:url(#SVGID_2_);fill:#878787;}
	.st138{clip-path:url(#SVGID_2_);fill:#888888;}
	.st139{clip-path:url(#SVGID_2_);fill:#898989;}
	.st140{clip-path:url(#SVGID_2_);fill:#8A8A8A;}
	.st141{clip-path:url(#SVGID_2_);fill:#8B8B8B;}
	.st142{clip-path:url(#SVGID_2_);fill:#8C8C8C;}
	.st143{clip-path:url(#SVGID_2_);fill:#8D8D8D;}
	.st144{clip-path:url(#SVGID_2_);fill:#8E8E8E;}
	.st145{clip-path:url(#SVGID_2_);fill:#8F8F8F;}
	.st146{clip-path:url(#SVGID_2_);fill:#909090;}
	.st147{clip-path:url(#SVGID_2_);fill:#919191;}
	.st148{clip-path:url(#SVGID_2_);fill:#929292;}
	.st149{clip-path:url(#SVGID_2_);fill:#939393;}
	.st150{clip-path:url(#SVGID_2_);fill:#949494;}
	.st151{clip-path:url(#SVGID_2_);fill:#959595;}
	.st152{clip-path:url(#SVGID_2_);fill:#969696;}
	.st153{clip-path:url(#SVGID_2_);fill:#979797;}
	.st154{clip-path:url(#SVGID_2_);fill:#989898;}
	.st155{clip-path:url(#SVGID_2_);fill:#999999;}
	.st156{clip-path:url(#SVGID_2_);fill:#9A9A9A;}
	.st157{clip-path:url(#SVGID_2_);fill:#9B9B9B;}
	.st158{clip-path:url(#SVGID_2_);fill:#9C9C9C;}
	.st159{clip-path:url(#SVGID_2_);fill:#9D9D9D;}
	.st160{clip-path:url(#SVGID_2_);fill:#9E9E9E;}
	.st161{clip-path:url(#SVGID_2_);fill:#9F9F9F;}
	.st162{clip-path:url(#SVGID_2_);fill:#A0A0A0;}
	.st163{clip-path:url(#SVGID_2_);fill:#A1A1A1;}
	.st164{clip-path:url(#SVGID_2_);fill:#A2A2A2;}
	.st165{clip-path:url(#SVGID_2_);fill:#A3A3A3;}
	.st166{clip-path:url(#SVGID_2_);fill:#A4A4A4;}
	.st167{clip-path:url(#SVGID_2_);fill:#A5A5A5;}
	.st168{clip-path:url(#SVGID_2_);fill:#A6A6A6;}
	.st169{clip-path:url(#SVGID_2_);fill:#A7A7A7;}
	.st170{clip-path:url(#SVGID_2_);fill:#A8A8A8;}
	.st171{clip-path:url(#SVGID_2_);fill:#A9A9A9;}
	.st172{clip-path:url(#SVGID_2_);fill:#AAAAAA;}
	.st173{clip-path:url(#SVGID_2_);fill:#ABABAB;}
	.st174{clip-path:url(#SVGID_2_);fill:#ACACAC;}
	.st175{clip-path:url(#SVGID_2_);fill:#ADADAD;}
	.st176{clip-path:url(#SVGID_2_);fill:#AEAEAE;}
	.st177{clip-path:url(#SVGID_2_);fill:#AFAFAF;}
	.st178{clip-path:url(#SVGID_2_);fill:#B0B0B0;}
	.st179{clip-path:url(#SVGID_2_);fill:#B1B1B1;}
	.st180{clip-path:url(#SVGID_2_);fill:#B2B2B2;}
	.st181{clip-path:url(#SVGID_2_);fill:#B3B3B3;}
	.st182{clip-path:url(#SVGID_2_);fill:#B4B4B4;}
	.st183{clip-path:url(#SVGID_2_);fill:#B5B5B5;}
	.st184{clip-path:url(#SVGID_2_);fill:#B6B6B6;}
	.st185{clip-path:url(#SVGID_2_);fill:#B7B7B7;}
	.st186{clip-path:url(#SVGID_2_);fill:#B8B8B8;}
	.st187{clip-path:url(#SVGID_2_);fill:#B9B9B9;}
	.st188{clip-path:url(#SVGID_2_);fill:#BABABA;}
	.st189{clip-path:url(#SVGID_2_);fill:#BBBBBB;}
	.st190{clip-path:url(#SVGID_2_);fill:#BCBCBC;}
	.st191{clip-path:url(#SVGID_2_);fill:#BDBDBD;}
	.st192{clip-path:url(#SVGID_2_);fill:#BEBEBE;}
	.st193{clip-path:url(#SVGID_2_);fill:#BFBFBF;}
	.st194{clip-path:url(#SVGID_2_);fill:#C0C0C0;}
	.st195{clip-path:url(#SVGID_2_);fill:#C1C1C1;}
	.st196{clip-path:url(#SVGID_2_);fill:#C2C2C2;}
	.st197{clip-path:url(#SVGID_2_);fill:#C3C3C3;}
	.st198{clip-path:url(#SVGID_2_);fill:#C4C4C4;}
	.st199{clip-path:url(#SVGID_2_);fill:#C5C5C5;}
	.st200{clip-path:url(#SVGID_2_);fill:#C6C6C6;}
	.st201{clip-path:url(#SVGID_2_);fill:#C7C7C7;}
	.st202{clip-path:url(#SVGID_2_);fill:#C8C8C8;}
	.st203{clip-path:url(#SVGID_2_);fill:#C9C9C9;}
	.st204{clip-path:url(#SVGID_2_);fill:#CACACA;}
	.st205{clip-path:url(#SVGID_2_);fill:#CBCBCB;}
	.st206{clip-path:url(#SVGID_2_);fill:#CCCCCC;}
	.st207{clip-path:url(#SVGID_2_);fill:#CDCDCD;}
	.st208{clip-path:url(#SVGID_2_);fill:#CECECE;}
	.st209{clip-path:url(#SVGID_2_);fill:#CFCFCF;}
	.st210{clip-path:url(#SVGID_2_);fill:#D0D0D0;}
	.st211{clip-path:url(#SVGID_2_);fill:#D1D1D1;}
	.st212{clip-path:url(#SVGID_2_);fill:#D2D2D2;}
	.st213{clip-path:url(#SVGID_2_);fill:#D3D3D3;}
	.st214{clip-path:url(#SVGID_2_);fill:#D4D4D4;}
	.st215{clip-path:url(#SVGID_2_);fill:#D5D5D5;}
	.st216{clip-path:url(#SVGID_2_);fill:#D6D6D6;}
	.st217{clip-path:url(#SVGID_2_);fill:#D7D7D7;}
	.st218{clip-path:url(#SVGID_2_);fill:#D8D8D8;}
	.st219{clip-path:url(#SVGID_2_);fill:#D9D9D9;}
	.st220{clip-path:url(#SVGID_2_);fill:#DADADA;}
	.st221{clip-path:url(#SVGID_2_);fill:#DBDBDB;}
	.st222{clip-path:url(#SVGID_2_);fill:#DCDCDC;}
	.st223{clip-path:url(#SVGID_2_);fill:#DDDDDD;}
	.st224{clip-path:url(#SVGID_2_);fill:#DEDEDE;}
	.st225{clip-path:url(#SVGID_2_);fill:#DFDFDF;}
	.st226{clip-path:url(#SVGID_2_);fill:#E0E0E0;}
	.st227{clip-path:url(#SVGID_2_);fill:#E1E1E1;}
	.st228{clip-path:url(#SVGID_2_);fill:#E2E2E2;}
	.st229{clip-path:url(#SVGID_2_);fill:#E3E3E3;}
	.st230{clip-path:url(#SVGID_2_);fill:#E4E4E4;}
	.st231{clip-path:url(#SVGID_2_);fill:#E5E5E5;}
	.st232{clip-path:url(#SVGID_2_);fill:#E6E6E6;}
	.st233{clip-path:url(#SVGID_2_);fill:#E7E7E7;}
	.st234{clip-path:url(#SVGID_2_);fill:#E8E8E8;}
	.st235{clip-path:url(#SVGID_2_);fill:#E9E9E9;}
	.st236{clip-path:url(#SVGID_2_);fill:#EAEAEA;}
	.st237{clip-path:url(#SVGID_2_);fill:#EBEBEB;}
	.st238{clip-path:url(#SVGID_2_);fill:#ECECEC;}
	.st239{clip-path:url(#SVGID_2_);fill:#EDEDED;}
	.st240{clip-path:url(#SVGID_2_);fill:#EEEEEE;}
	.st241{clip-path:url(#SVGID_2_);fill:#EFEFEF;}
	.st242{clip-path:url(#SVGID_2_);fill:#F0F0F0;}
	.st243{clip-path:url(#SVGID_2_);fill:#F1F1F1;}
	.st244{clip-path:url(#SVGID_2_);fill:#F2F2F2;}
	.st245{clip-path:url(#SVGID_2_);fill:#F3F3F3;}
	.st246{clip-path:url(#SVGID_2_);fill:#F4F4F4;}
	.st247{clip-path:url(#SVGID_2_);fill:#F5F5F5;}
	.st248{clip-path:url(#SVGID_2_);fill:#F6F6F6;}
	.st249{clip-path:url(#SVGID_2_);fill:#F7F7F7;}
	.st250{clip-path:url(#SVGID_2_);fill:#F8F8F8;}
	.st251{clip-path:url(#SVGID_2_);fill:#F9F9F9;}
	.st252{clip-path:url(#SVGID_2_);fill:#FAFAFA;}
	.st253{clip-path:url(#SVGID_2_);fill:#FBFBFB;}
	.st254{clip-path:url(#SVGID_2_);fill:#FCFCFC;}
	.st255{clip-path:url(#SVGID_2_);fill:#FDFDFD;}
	.st256{clip-path:url(#SVGID_2_);fill:#FEFEFE;}
	.st257{clip-path:url(#SVGID_2_);fill:#FFFFFF;}
</style>
<sodipodi:namedview  bordercolor="#666666" borderopacity="1" gridtolerance="10" guidetolerance="10" id="namedview39" inkscape:current-layer="svg2" inkscape:cx="72.124594" inkscape:cy="147.27218" inkscape:pageopacity="0" inkscape:pageshadow="2" inkscape:window-height="977" inkscape:window-maximized="1" inkscape:window-width="1680" inkscape:window-x="0" inkscape:window-y="25" inkscape:zoom="1.7208768" objecttolerance="10" pagecolor="#ffffff" showgrid="false">
	</sodipodi:namedview>
<g id="Layer_x0020_1">
	<g id="path5">
		<path class="st0" d="M99.8,140.9c0,2.3-1.9,4.1-4.1,4.1H4.3c-2.3,0-4.1-1.9-4.1-4.1V4.3C0.1,2,2,0.1,4.3,0.1h91.5
			c2.3,0,4.1,1.9,4.1,4.1L99.8,140.9L99.8,140.9z"/>
		<path d="M95.7,145.2H4.3c-2.4,0-4.3-1.9-4.3-4.3V4.3C0,1.9,1.9,0,4.3,0h91.5c2.4,0,4.3,1.9,4.3,4.3v136.8H100
			C99.9,143.4,98,145.2,95.7,145.2z M4.3,0.3c-2.2,0-4,1.8-4,4v136.6c0,2.2,1.8,4,4,4h91.4c2.2,0,4-1.8,4-4v-0.1h0.1V4.3
			c0-2.2-1.8-4-4-4H4.3z"/>
	</g>
	<g id="g7">
		<g id="g9">
		</g>
	</g>
	<g id="g15">
	</g>
	<g id="g19">
	</g>
	<g id="g23">
		<g id="g25">
		</g>
	</g>
	<g id="g31">
		<g id="g33">
		</g>
	</g>
</g>
<g class="st1">
	<path class="st2" d="M3.7,16.8L9,3.1h2l5.6,13.7h-2.1l-1.6-4.2H7.2l-1.5,4.2H3.7z M7.7,11.2h4.6l-1.4-3.8c-0.4-1.2-0.8-2.1-1-2.8
		C9.8,5.4,9.5,6.3,9.2,7.1L7.7,11.2z"/>
</g>
<g id="g3036" transform="matrix(0.19686979,0,0,0.19686979,11.54991,16.869674)">
	<g id="layer1-9" transform="matrix(34.670635,0,0,32.448413,363.65075,535.3979)">
		<g id="hl">
			<path inkscape:connector-curvature="0" sodipodi:nodetypes="scsscss" class="st2" d="M-2.7-13.1c-2,0-2.2,2.1-2.2,2.1
				s-0.2-2.1-2.2-2.1c-1.3,0-2.6,1-2.6,2.7c0,2.3,3.9,4.7,4.8,8.1c0.8-3.4,4.8-5.7,4.8-8.1C-0.1-12.1-1.4-13.1-2.7-13.1z"/>
		</g>
	</g>
	<g id="path3762-6-4_2_" inkscape:connector-curvature="0" sodipodi:nodetypes="cscsc">
		<g>
			<g>
				<defs>
					<path id="SVGID_1_" d="M32.5,251.8"/>
				</defs>
				<clipPath id="SVGID_2_">
					<use xlink:href="#SVGID_1_"  style="overflow:visible;"/>
				</clipPath>
				<path class="st3" d="M32.5,251.8L32.5,251.8L32.5,251.8z"/>
				<path class="st3" d="M32.5,251.8L32.5,251.8z"/>
				<path class="st4" d="M32.5,251.8L32.5,251.8z"/>
				<path class="st5" d="M32.5,251.8L32.5,251.8z"/>
				<path class="st6" d="M32.5,251.8L32.5,251.8z"/>
				<path class="st7" d="M32.5,251.8L32.5,251.8z"/>
				<path class="st8" d="M32.5,251.8L32.5,251.8z"/>
				<path class="st9" d="M32.5,251.8L32.5,251.8z"/>
				<path class="st10" d="M32.5,251.8L32.5,251.8z"/>
				<path class="st11" d="M32.5,251.8L32.5,251.8z"/>
				<path class="st12" d="M32.5,251.8L32.5,251.8z"/>
				<path class="st13" d="M32.5,251.8L32.5,251.8z"/>
				<path class="st14" d="M32.5,251.8L32.5,251.8z"/>
				<path class="st15" d="M32.5,251.8L32.5,251.8z"/>
				<path class="st16" d="M32.5,251.8L32.5,251.8z"/>
				<path class="st17" d="M32.5,251.8L32.5,251.8z"/>
				<path class="st18" d="M32.5,251.8L32.5,251.8z"/>
				<path class="st19" d="M32.5,251.8L32.5,251.8z"/>
				<path class="st20" d="M32.5,251.8L32.5,251.8z"/>
				<path class="st21" d="M32.5,251.8L32.5,251.8z"/>
				<path class="st22" d="M32.5,251.8L32.5,251.8z"/>
				<path class="st23" d="M32.5,251.8L32.5,251.8z"/>
				<path class="st24" d="M32.5,251.8L32.5,251.8z"/>
				<path class="st25" d="M32.5,251.8L32.5,251.8z"/>
				<path class="st26" d="M32.5,251.8L32.5,251.8z"/>
				<path class="st27" d="M32.5,251.8L32.5,251.8z"/>
				<path class="st28" d="M32.5,251.8L32.5,251.8z"/>
				<path class="st29" d="M32.5,251.8L32.5,251.8z"/>
				<path class="st30" d="M32.5,251.8L32.5,251.8z"/>
				<path class="st31" d="M32.5,251.8L32.5,251.8z"/>
				<path class="st32" d="M32.5,251.8L32.5,251.8z"/>
				<path class="st33" d="M32.5,251.8L32.5,251.8z"/>
				<path class="st34" d="M32.5,251.8L32.5,251.8z"/>
				<path class="st35" d="M32.5,251.8L32.5,251.8z"/>
				<path class="st36" d="M32.5,251.8L32.5,251.8z"/>
				<path class="st37" d="M32.5,251.8L32.5,251.8z"/>
				<path class="st38" d="M32.5,251.8L32.5,251.8z"/>
				<path class="st39" d="M32.5,251.8L32.5,251.8z"/>
				<path class="st40" d="M32.5,251.8L32.5,251.8z"/>
				<path class="st41" d="M32.5,251.8L32.5,251.8z"/>
				<path class="st42" d="M32.5,251.8L32.5,251.8z"/>
				<path class="st43" d="M32.5,251.8L32.5,251.8z"/>
				<path class="st44" d="M32.5,251.8L32.5,251.8z"/>
				<path class="st45" d="M32.5,251.8L32.5,251.8z"/>
				<path class="st46" d="M32.5,251.8L32.5,251.8z"/>
				<path class="st47" d="M32.5,251.8L32.5,251.8z"/>
				<path class="st48" d="M32.5,251.8L32.5,251.8z"/>
				<path class="st49" d="M32.5,251.8L32.5,251.8z"/>
				<path class="st50" d="M32.5,251.8L32.5,251.8z"/>
				<path class="st51" d="M32.5,251.8L32.5,251.8z"/>
				<path class="st52" d="M32.5,251.8L32.5,251.8z"/>
				<path class="st53" d="M32.5,251.8L32.5,251.8z"/>
				<path class="st54" d="M32.5,251.8L32.5,251.8z"/>
				<path class="st55" d="M32.5,251.8L32.5,251.8z"/>
				<path class="st56" d="M32.5,251.8L32.5,251.8z"/>
				<path class="st57" d="M32.5,251.8L32.5,251.8z"/>
				<path class="st58" d="M32.5,251.8L32.5,251.8z"/>
				<path class="st59" d="M32.5,251.8L32.5,251.8z"/>
				<path class="st60" d="M32.5,251.8L32.5,251.8z"/>
				<path class="st61" d="M32.5,251.8L32.5,251.8z"/>
				<path class="st62" d="M32.5,251.8L32.5,251.8z"/>
				<path class="st63" d="M32.5,251.8L32.5,251.8z"/>
				<path class="st64" d="M32.5,251.8L32.5,251.8z"/>
				<path class="st65" d="M32.5,251.8L32.5,251.8z"/>
				<path class="st66" d="M32.5,251.8L32.5,251.8z"/>
				<path class="st67" d="M32.5,251.8L32.5,251.8z"/>
				<path class="st68" d="M32.5,251.8L32.5,251.8z"/>
				<path class="st69" d="M32.5,251.8L32.5,251.8z"/>
				<path class="st70" d="M32.5,251.8L32.5,251.8z"/>
				<path class="st71" d="M32.5,251.8L32.5,251.8z"/>
				<path class="st72" d="M32.5,251.8L32.5,251.8z"/>
				<path class="st73" d="M32.5,251.8L32.5,251.8z"/>
				<path class="st74" d="M32.5,251.8L32.5,251.8z"/>
				<path class="st75" d="M32.5,251.8L32.5,251.8z"/>
				<path class="st76" d="M32.5,251.8L32.5,251.8z"/>
				<path class="st77" d="M32.5,251.8L32.5,251.8z"/>
				<path class="st78" d="M32.5,251.8L32.5,251.8z"/>
				<path class="st79" d="M32.5,251.8L32.5,251.8z"/>
				<path class="st80" d="M32.5,251.8L32.5,251.8z"/>
				<path class="st81" d="M32.5,251.8L32.5,251.8z"/>
				<path class="st82" d="M32.5,251.8L32.5,251.8z"/>
				<path class="st83" d="M32.5,251.8L32.5,251.8z"/>
				<path class="st84" d="M32.5,251.8L32.5,251.8z"/>
				<path class="st85" d="M32.5,251.8L32.5,251.8z"/>
				<path class="st86" d="M32.5,251.8L32.5,251.8z"/>
				<path class="st87" d="M32.5,251.8L32.5,251.8z"/>
				<path class="st88" d="M32.5,251.8L32.5,251.8z"/>
				<path class="st89" d="M32.5,251.8L32.5,251.8z"/>
				<path class="st90" d="M32.5,251.8L32.5,251.8z"/>
				<path class="st91" d="M32.5,251.8L32.5,251.8z"/>
				<path class="st92" d="M32.5,251.8L32.5,251.8z"/>
				<path class="st93" d="M32.5,251.8L32.5,251.8z"/>
				<path class="st94" d="M32.5,251.8L32.5,251.8z"/>
				<path class="st95" d="M32.5,251.8L32.5,251.8z"/>
				<path class="st96" d="M32.5,251.8L32.5,251.8z"/>
				<path class="st97" d="M32.5,251.8L32.5,251.8z"/>
				<path class="st98" d="M32.5,251.8L32.5,251.8z"/>
				<path class="st99" d="M32.5,251.8L32.5,251.8z"/>
				<path class="st100" d="M32.5,251.8L32.5,251.8z"/>
				<path class="st101" d="M32.5,251.8L32.5,251.8z"/>
				<path class="st102" d="M32.5,251.8L32.5,251.8z"/>
				<path class="st103" d="M32.5,251.8L32.5,251.8z"/>
				<path class="st104" d="M32.5,251.8L32.5,251.8z"/>
				<path class="st105" d="M32.5,251.8L32.5,251.8z"/>
				<path class="st106" d="M32.5,251.8L32.5,251.8z"/>
				<path class="st107" d="M32.5,251.8L32.5,251.8z"/>
				<path class="st108" d="M32.5,251.8L32.5,251.8z"/>
				<path class="st109" d="M32.5,251.8L32.5,251.8z"/>
				<path class="st110" d="M32.5,251.8L32.5,251.8z"/>
				<path class="st111" d="M32.5,251.8L32.5,251.8z"/>
				<path class="st112" d="M32.5,251.8L32.5,251.8z"/>
				<path class="st113" d="M32.5,251.8L32.5,251.8z"/>
				<path class="st114" d="M32.5,251.8L32.5,251.8z"/>
				<path class="st115" d="M32.5,251.8L32.5,251.8z"/>
				<path class="st116" d="M32.5,251.8L32.5,251.8z"/>
				<path class="st117" d="M32.5,251.8L32.5,251.8z"/>
				<path class="st118" d="M32.5,251.8L32.5,251.8z"/>
				<path class="st119" d="M32.5,251.8L32.5,251.8z"/>
				<path class="st120" d="M32.5,251.8L32.5,251.8z"/>
				<path class="st121" d="M32.5,251.8L32.5,251.8z"/>
				<path class="st122" d="M32.5,251.8L32.5,251.8z"/>
				<path class="st123" d="M32.5,251.8L32.5,251.8z"/>
				<path class="st124" d="M32.5,251.8L32.5,251.8z"/>
				<path class="st125" d="M32.5,251.8L32.5,251.8z"/>
				<path class="st126" d="M32.5,251.8L32.5,251.8z"/>
				<path class="st127" d="M32.5,251.8L32.5,251.8z"/>
				<path class="st128" d="M32.5,251.8L32.5,251.8z"/>
				<path class="st129" d="M32.5,251.8L32.5,251.8z"/>
				<path class="st130" d="M32.5,251.8L32.5,251.8z"/>
				<path class="st131" d="M32.5,251.8L32.5,251.8z"/>
				<path class="st132" d="M32.5,251.8L32.5,251.8z"/>
				<path class="st133" d="M32.5,251.8L32.5,251.8z"/>
				<path class="st134" d="M32.5,251.8L32.5,251.8z"/>
				<path class="st135" d="M32.5,251.8L32.5,251.8z"/>
				<path class="st136" d="M32.5,251.8L32.5,251.8z"/>
				<path class="st137" d="M32.5,251.8L32.5,251.8z"/>
				<path class="st138" d="M32.5,251.8L32.5,251.8z"/>
				<path class="st139" d="M32.5,251.8L32.5,251.8z"/>
				<path class="st140" d="M32.5,251.8L32.5,251.8z"/>
				<path class="st141" d="M32.5,251.8L32.5,251.8z"/>
				<path class="st142" d="M32.5,251.8L32.5,251.8z"/>
				<path class="st143" d="M32.5,251.8L32.5,251.8z"/>
				<path class="st144" d="M32.5,251.8L32.5,251.8z"/>
				<path class="st145" d="M32.5,251.8L32.5,251.8z"/>
				<path class="st146" d="M32.5,251.8L32.5,251.8z"/>
				<path class="st147" d="M32.5,251.8L32.5,251.8z"/>
				<path class="st148" d="M32.5,251.8L32.5,251.8z"/>
				<path class="st149" d="M32.5,251.8L32.5,251.8z"/>
				<path class="st150" d="M32.5,251.8L32.5,251.8z"/>
				<path class="st151" d="M32.5,251.8L32.5,251.8z"/>
				<path class="st152" d="M32.5,251.8L32.5,251.8z"/>
				<path class="st153" d="M32.5,251.8L32.5,251.8z"/>
				<path class="st154" d="M32.5,251.8L32.5,251.8z"/>
				<path class="st155" d="M32.5,251.8L32.5,251.8z"/>
				<path class="st156" d="M32.5,251.8L32.5,251.8z"/>
				<path class="st157" d="M32.5,251.8L32.5,251.8z"/>
				<path class="st158" d="M32.5,251.8L32.5,251.8z"/>
				<path class="st159" d="M32.5,251.8L32.5,251.8z"/>
				<path class="st160" d="M32.5,251.8L32.5,251.8z"/>
				<path class="st161" d="M32.5,251.8L32.5,251.8z"/>
				<path class="st162" d="M32.5,251.8L32.5,251.8z"/>
				<path class="st163" d="M32.5,251.8L32.5,251.8z"/>
				<path class="st164" d="M32.5,251.8L32.5,251.8z"/>
				<path class="st165" d="M32.5,251.8L32.5,251.8z"/>
				<path class="st166" d="M32.5,251.8L32.5,251.8z"/>
				<path class="st167" d="M32.5,251.8L32.5,251.8z"/>
				<path class="st168" d="M32.5,251.8L32.5,251.8z"/>
				<path class="st169" d="M32.5,251.8L32.5,251.8z"/>
				<path class="st170" d="M32.5,251.8L32.5,251.8z"/>
				<path class="st171" d="M32.5,251.8L32.5,251.8z"/>
				<path class="st172" d="M32.5,251.8L32.5,251.8z"/>
				<path class="st173" d="M32.5,251.8L32.5,251.8z"/>
				<path class="st174" d="M32.5,251.8L32.5,251.8z"/>
				<path class="st175" d="M32.5,251.8L32.5,251.8z"/>
				<path class="st176" d="M32.5,251.8L32.5,251.8z"/>
				<path class="st177" d="M32.5,251.8L32.5,251.8z"/>
				<path class="st178" d="M32.5,251.8L32.5,251.8z"/>
				<path class="st179" d="M32.5,251.8L32.5,251.8z"/>
				<path class="st180" d="M32.5,251.8L32.5,251.8z"/>
				<path class="st181" d="M32.5,251.8L32.5,251.8z"/>
				<path class="st182" d="M32.5,251.8L32.5,251.8z"/>
				<path class="st183" d="M32.5,251.8L32.5,251.8z"/>
				<path class="st184" d="M32.5,251.8L32.5,251.8z"/>
				<path class="st185" d="M32.5,251.8L32.5,251.8z"/>
				<path class="st186" d="M32.5,251.8L32.5,251.8z"/>
				<path class="st187" d="M32.5,251.8L32.5,251.8z"/>
				<path class="st188" d="M32.5,251.8L32.5,251.8z"/>
				<path class="st189" d="M32.5,251.8L32.5,251.8z"/>
				<path class="st190" d="M32.5,251.8L32.5,251.8z"/>
				<path class="st191" d="M32.5,251.8L32.5,251.8z"/>
				<path class="st192" d="M32.5,251.8L32.5,251.8z"/>
				<path class="st193" d="M32.5,251.8L32.5,251.8z"/>
				<path class="st194" d="M32.5,251.8L32.5,251.8z"/>
				<path class="st195" d="M32.5,251.8L32.5,251.8z"/>
				<path class="st196" d="M32.5,251.8L32.5,251.8z"/>
				<path class="st197" d="M32.5,251.8L32.5,251.8z"/>
				<path class="st198" d="M32.5,251.8L32.5,251.8z"/>
				<path class="st199" d="M32.5,251.8L32.5,251.8z"/>
				<path class="st200" d="M32.5,251.8L32.5,251.8z"/>
				<path class="st201" d="M32.5,251.8L32.5,251.8z"/>
				<path class="st202" d="M32.5,251.8L32.5,251.8z"/>
				<path class="st203" d="M32.5,251.8L32.5,251.8z"/>
				<path class="st204" d="M32.5,251.8L32.5,251.8z"/>
				<path class="st205" d="M32.5,251.8L32.5,251.8z"/>
				<path class="st206" d="M32.5,251.8L32.5,251.8z"/>
				<path class="st207" d="M32.5,251.8L32.5,251.8z"/>
				<path class="st208" d="M32.5,251.8L32.5,251.8z"/>
				<path class="st209" d="M32.5,251.8L32.5,251.8z"/>
				<path class="st210" d="M32.5,251.8L32.5,251.8z"/>
				<path class="st211" d="M32.5,251.8L32.5,251.8z"/>
				<path class="st212" d="M32.5,251.8L32.5,251.8z"/>
				<path class="st213" d="M32.5,251.8L32.5,251.8z"/>
				<path class="st214" d="M32.5,251.8L32.5,251.8z"/>
				<path class="st215" d="M32.5,251.8L32.5,251.8z"/>
				<path class="st216" d="M32.5,251.8L32.5,251.8z"/>
				<path class="st217" d="M32.5,251.8L32.5,251.8z"/>
				<path class="st218" d="M32.5,251.8L32.5,251.8z"/>
				<path class="st219" d="M32.5,251.8L32.5,251.8z"/>
				<path class="st220" d="M32.5,251.8L32.5,251.8z"/>
				<path class="st221" d="M32.5,251.8L32.5,251.8z"/>
				<path class="st222" d="M32.5,251.8L32.5,251.8z"/>
				<path class="st223" d="M32.5,251.8L32.5,251.8z"/>
				<path class="st224" d="M32.5,251.8L32.5,251.8z"/>
				<path class="st225" d="M32.5,251.8L32.5,251.8z"/>
				<path class="st226" d="M32.5,251.8L32.5,251.8z"/>
				<path class="st227" d="M32.5,251.8L32.5,251.8z"/>
				<path class="st228" d="M32.5,251.8L32.5,251.8z"/>
				<path class="st229" d="M32.5,251.8L32.5,251.8z"/>
				<path class="st230" d="M32.5,251.8L32.5,251.8z"/>
				<path class="st231" d="M32.5,251.8L32.5,251.8z"/>
				<path class="st232" d="M32.5,251.8L32.5,251.8z"/>
				<path class="st233" d="M32.5,251.8L32.5,251.8z"/>
				<path class="st234" d="M32.5,251.8L32.5,251.8z"/>
				<path class="st235" d="M32.5,251.8L32.5,251.8z"/>
				<path class="st236" d="M32.5,251.8L32.5,251.8z"/>
				<path class="st237" d="M32.5,251.8L32.5,251.8z"/>
				<path class="st238" d="M32.5,251.8L32.5,251.8z"/>
				<path class="st239" d="M32.5,251.8L32.5,251.8z"/>
				<path class="st240" d="M32.5,251.8L32.5,251.8z"/>
				<path class="st241" d="M32.5,251.8L32.5,251.8z"/>
				<path class="st242" d="M32.5,251.8L32.5,251.8z"/>
				<path class="st243" d="M32.5,251.8L32.5,251.8z"/>
				<path class="st244" d="M32.5,251.8L32.5,251.8z"/>
				<path class="st245" d="M32.5,251.8L32.5,251.8z"/>
				<path class="st246" d="M32.5,251.8L32.5,251.8z"/>
				<path class="st247" d="M32.5,251.8L32.5,251.8z"/>
				<path class="st248" d="M32.5,251.8L32.5,251.8z"/>
				<path class="st249" d="M32.5,251.8L32.5,251.8z"/>
				<path class="st250" d="M32.5,251.8L32.5,251.8z"/>
				<path class="st251" d="M32.5,251.8L32.5,251.8z"/>
				<path class="st252" d="M32.5,251.8L32.5,251.8z"/>
				<path class="st253" d="M32.5,251.8L32.5,251.8z"/>
				<path class="st254" d="M32.5,251.8L32.5,251.8z"/>
				<path class="st255" d="M32.5,251.8L32.5,251.8z"/>
				<path class="st256" d="M32.5,251.8L32.5,251.8z"/>
				<path class="st257" d="M32.5,251.8L32.5,251.8z"/>
			</g>
		</g>
	</g>
</g>
<g id="layer1-9-6" transform="matrix(1.6743072,0,0,1.5669921,17.177511,46.385321)">
	<g id="hl-8">
		<path inkscape:connector-curvature="0" sodipodi:nodetypes="scsscss" class="st2" d="M-1.9-17.3c-2,0-2.2,2.1-2.2,2.1
			s-0.2-2.1-2.2-2.1c-1.3,0-2.6,1-2.6,2.7c0,2.3,3.9,4.7,4.8,8.1c0.8-3.4,4.8-5.7,4.8-8.1C0.7-16.3-0.6-17.3-1.9-17.3z"/>
	</g>
</g>
<g class="st1">
	<path class="st2" d="M96.4,127.8l-5.3,13.7h-2l-5.6-13.7h2.1l1.6,4.2H93l1.5-4.2H96.4z M92.5,133.4h-4.6l1.4,3.8
		c0.4,1.2,0.8,2.1,1,2.8c0.2-0.9,0.4-1.8,0.7-2.6L92.5,133.4z"/>
</g>
<g id="layer1-9-6-5" transform="matrix(-1.6743072,0,0,-1.5669921,150.15601,195.14313)">
	<g id="hl-8-1">
		<path inkscape:connector-curvature="0" sodipodi:nodetypes="scsscss" class="st2" d="M38.2,44.6c-2,0-2.2,2.1-2.2,2.1
			s-0.2-2.1-2.2-2.1c-1.3,0-2.6,1-2.6,2.7c0,2.3,3.9,4.7,4.8,8.1c0.8-3.4,4.8-5.7,4.8-8.1C40.8,45.6,39.5,44.6,38.2,44.6z"/>
	</g>
</g>
</svg>
