<?xml version="1.0" encoding="utf-8"?>
<!-- Generator: Adobe Illustrator 22.0.0, SVG Export Plug-In . SVG Version: 6.00 Build 0)  -->
<svg version="1.1" id="Layer_1" xmlns="http://www.w3.org/2000/svg" xmlns:xlink="http://www.w3.org/1999/xlink" x="0px" y="0px"
	 viewBox="0 0 2655.3 560.3" enable-background="new 0 0 2655.3 560.3" xml:space="preserve">
<g id="Layer_2_1_">
	<g id="Layer_1-2">
		
			<linearGradient id="SVGID_1_" gradientUnits="userSpaceOnUse" x1="1327.635" y1="-9.094947e-13" x2="1327.635" y2="560" gradientTransform="matrix(1 0 0 -1 0 560)">
			<stop  offset="0" style="stop-color:#FF0080"/>
			<stop  offset="0.81" style="stop-color:#0000FF"/>
		</linearGradient>
		<rect fill="url(#SVGID_1_)" width="2655.3" height="560"/>
		<path fill="#0F0F0F" d="M59.3,560.3l2596-0.3v-48c0,0-21.3,0-35.1-4.1c-20.7-6.2-73.7-53.1-121.6-41.3
			c-43.4,10.7-50.4,9.5-96.2-3.5c-55.8-15.9-167.2,13.2-243.7,22.9C2079,496,1847,433,1797.1,442.7c-26,5.1-45,39.5-122.8,34
			c-90.6-6.5-125.3-19.2-211,10.6l-199.2-0.5c0,0-52.4,26.6-111.2,1.8s-102-17.5-118.6-4.6s-93.7-0.9-93.7-0.9l-102,14.7l-51.5-13.8
			c0,0-92.3-19.9-177.5,3.6c-35.9,9.8-73.2,13.2-110.3,10.1l-71.4-5.7L310.9,490l-21.4,20c0,0-77.2-26.2-100.6-11
			s-73.1-4.8-73.1-4.8L56.5,513L59.3,560.3z"/>
		<polygon fill="#0F0F0F" points="541.5,527.4 473.2,444.7 529.7,452 439.7,355.2 511.1,377.8 442.5,297.4 511.1,322.2 387.5,156.1 
			264,322.2 264,322.2 332.6,297.4 264,377.8 335.4,355.2 245.4,452 301.9,444.7 233.6,527.4 233.6,527.4 364.1,508.4 364.1,524 
			411,524 411,508.4 		"/>
		<polygon fill="#0F0F0F" points="1452.5,522.2 1409.4,452.9 1445,459 1388.2,378 1433.3,396.9 1390,329.4 1433.3,350.3 1355.3,211 
			1277.4,350.3 1277.4,350.3 1320.7,329.4 1277.4,396.9 1322.4,378 1265.7,459 1301.2,452.9 1258.2,522.2 1258.2,522.2 
			1340.5,506.4 1340.5,553.6 1370.2,553.6 1370.2,506.4 		"/>
		<polygon fill="#0F0F0F" points="1871.1,453.7 1840.4,404.3 1865.8,408.6 1825.3,350.8 1857.4,364.3 1826.6,316.2 1857.4,331 
			1801.8,231.7 1746.2,331 1746.2,331 1777.1,316.2 1746.2,364.3 1778.4,350.8 1737.9,408.6 1763.3,404.3 1732.5,453.7 
			1732.5,453.7 1791.3,442.4 1791.3,476 1812.4,476 1812.4,442.4 		"/>
		<polygon fill="#0F0F0F" points="1013.2,495.4 989.1,466.2 1009,468.8 977.2,434.6 1002.4,442.6 978.2,414.2 1002.4,423 
			958.8,364.3 915.2,423 915.2,423 939.4,414.2 915.2,442.6 940.4,434.6 908.6,468.8 928.5,466.2 904.5,495.4 904.5,495.4 
			950.5,488.7 950.5,508.6 967.1,508.6 967.1,488.7 		"/>
		<polygon fill="#0F0F0F" points="231.9,491.6 186.9,437.1 224.1,441.9 164.7,378.1 211.8,393 166.6,340 211.8,356.4 130.4,246.8 
			48.9,356.4 48.9,356.4 94.1,340 48.9,393 96,378.1 36.7,441.9 73.8,437.1 28.8,491.6 28.8,491.6 114.9,479.1 114.9,516.3 
			145.8,516.3 145.8,479.1 		"/>
		<polygon fill="#0F0F0F" points="1229.9,499.4 1158,268.1 1086.1,499.4 1140.2,499.4 1140.2,508 1175.8,508 1175.8,499.4 		"/>
		<polygon fill="#0F0F0F" points="1121,500.8 1085,385.2 1049.1,500.8 1076.2,500.8 1076.2,505.1 1093.9,505.1 1093.9,500.8 		"/>
		<polygon fill="#0F0F0F" points="1634.9,496.5 1586.8,341.7 1538.7,496.5 1574.9,496.5 1574.9,502.2 1598.7,502.2 1598.7,496.5 		
			"/>
		<polygon fill="#0F0F0F" points="1683.7,493.8 1635.6,268.1 1587.5,493.8 1623.7,493.8 1623.7,502.2 1647.5,502.2 1647.5,493.8 		
			"/>
		<polygon fill="#0F0F0F" points="2613.4,454.9 2565.3,300.2 2517.2,454.9 2553.4,454.9 2553.4,487.5 2577.2,487.5 2577.2,454.9 		
			"/>
		<polygon fill="#0F0F0F" points="2035.6,178.1 1899,495.5 2172.1,495.5 		"/>
		<polygon fill="#0F0F0F" points="2244.1,211 2143.9,495.5 2344.4,495.5 		"/>
		<polygon fill="#0F0F0F" points="2155.5,246.8 2048.5,495.5 2262.5,495.5 		"/>
		<polygon fill="#0F0F0F" points="609.2,512 553.4,512 621.8,318.1 653.7,408.6 682.1,342.5 712.9,414.1 763.8,295.7 856.9,512 
			670.8,512 670.8,512 609.2,512 		"/>
		<path fill="#0F0F0F" d="M2493.1,416.2c0-52.2-60-152.3-60-152.3s-60,97.7-60,149.9c0,47.1,20.9,32.8,48.3,40V501h18.2v-47.1
			C2467,446.7,2493.1,463.4,2493.1,416.2z"/>
		<polygon fill="#0F0F0F" points="157.3,560.3 56.5,560 0,560 0,512 63.5,512 		"/>
	</g>
</g>
</svg>
