<?xml version="1.0" encoding="utf-8"?>
<!-- Generator: Adobe Illustrator 22.0.0, SVG Export Plug-In . SVG Version: 6.00 Build 0)  -->
<svg version="1.1" id="Capa_1" xmlns="http://www.w3.org/2000/svg" xmlns:xlink="http://www.w3.org/1999/xlink" x="0px" y="0px"
	 viewBox="0 0 60 60" enable-background="new 0 0 60 60" xml:space="preserve">
<path opacity="0.84" d="M30,1.2C14.1,1.2,1.2,14.1,1.2,30S14.1,58.8,30,58.8S58.8,45.9,58.8,30S45.9,1.2,30,1.2z M30,41.2
	c-6.2,0-11.2-5-11.2-11.2s5-11.2,11.2-11.2s11.2,5,11.2,11.2S36.2,41.2,30,41.2z"/>
<path opacity="0.85" d="M30,0C13.5,0,0,13.5,0,30s13.5,30,30,30s30-13.5,30-30S46.5,0,30,0z M30,58C14.6,58,2,45.4,2,30S14.6,2,30,2
	s28,12.6,28,28S45.4,58,30,58z"/>
<g>
	<g>
		<path fill="#FFFFFF" d="M7.5,23.7c-0.1,0-0.1,0-0.2,0c-0.2,0-0.4-0.2-0.5-0.3c-0.1-0.2-0.1-0.4-0.1-0.6c0.9-3.9,2.9-7.4,5.7-10.3
			c2.8-2.8,6.4-4.8,10.3-5.7c0.1,0,0.1,0,0.2,0c0.3,0,0.6,0.2,0.7,0.6c0,0.2,0,0.4-0.1,0.6c-0.1,0.2-0.3,0.3-0.5,0.3
			c-3.6,0.9-6.9,2.7-9.5,5.3c-2.6,2.6-4.5,5.9-5.3,9.5C8.1,23.4,7.8,23.7,7.5,23.7z"/>
		<path fill="#FFFFFF" d="M37.1,53.3c-0.3,0-0.6-0.2-0.7-0.6c0-0.2,0-0.4,0.1-0.6s0.3-0.3,0.5-0.3c3.6-0.9,6.9-2.7,9.5-5.3
			c2.6-2.6,4.5-5.9,5.3-9.5c0.1-0.3,0.4-0.6,0.7-0.6c0.1,0,0.1,0,0.2,0c0.4,0.1,0.6,0.5,0.6,0.9c-0.9,3.9-2.9,7.4-5.7,10.3
			c-2.8,2.8-6.4,4.8-10.3,5.7C37.2,53.3,37.1,53.3,37.1,53.3z"/>
		<path fill="#FFFFFF" d="M12.3,25c-0.1,0-0.1,0-0.2,0c-0.2,0-0.4-0.2-0.5-0.3c-0.1-0.2-0.1-0.4-0.1-0.6c0.7-3,2.2-5.8,4.5-8
			c2.2-2.2,5-3.7,8-4.5c0.1,0,0.1,0,0.2,0c0.3,0,0.6,0.2,0.7,0.6c0,0.2,0,0.4-0.1,0.6c-0.1,0.2-0.3,0.3-0.5,0.3
			c-2.8,0.6-5.3,2-7.3,4.1c-2,2-3.4,4.5-4.1,7.3C13,24.7,12.7,25,12.3,25z"/>
		<path fill="#FFFFFF" d="M35.8,48.4c-0.4,0-0.7-0.2-0.7-0.6c0-0.2,0-0.4,0.1-0.6c0.1-0.2,0.3-0.3,0.5-0.3c2.8-0.6,5.3-2,7.3-4.1
			c2-2,3.4-4.5,4.1-7.3c0.1-0.3,0.4-0.6,0.7-0.6c0.1,0,0.1,0,0.2,0c0.2,0,0.4,0.2,0.5,0.3c0.1,0.2,0.1,0.4,0.1,0.6
			c-0.7,3-2.2,5.8-4.5,8c-2.2,2.2-5,3.7-8,4.5C35.9,48.4,35.8,48.4,35.8,48.4z"/>
	</g>
</g>
<circle fill="#FFFFFF" stroke="#231F20" stroke-width="2" stroke-miterlimit="10" cx="30" cy="30" r="7"/>
<circle cx="30" cy="30" r="1.5"/>
</svg>
