<?xml version="1.0" encoding="utf-8"?>
<!-- Generator: Adobe Illustrator 22.0.0, SVG Export Plug-In . SVG Version: 6.00 Build 0)  -->
<svg version="1.1" id="Layer_1_copy" xmlns="http://www.w3.org/2000/svg" xmlns:xlink="http://www.w3.org/1999/xlink" x="0px"
	 y="0px" viewBox="0 0 24 24" style="enable-background:new 0 0 24 24;" xml:space="preserve">
<style type="text/css">
	.st0{fill:#0000FF;stroke:#000000;stroke-miterlimit:10;}
	.st1{fill:#FF0080;stroke:#000000;stroke-miterlimit:10;}
	.st2{fill:#FFFF00;stroke:#000000;stroke-miterlimit:10;}
	.st3{fill:#00FF80;stroke:#000000;stroke-miterlimit:10;}
	.st4{fill:none;stroke:#231F20;stroke-miterlimit:10;}
	.st5{fill:#FFFFFF;stroke:#000000;stroke-linejoin:round;stroke-miterlimit:10;}
	.st6{stroke:#FFFFFF;stroke-linecap:round;stroke-linejoin:round;stroke-miterlimit:10;}
	.st7{fill:#FFFFFF;stroke:#000000;stroke-linecap:square;stroke-linejoin:round;stroke-miterlimit:10;}
	.st8{fill:#FFFFFF;stroke:#000000;stroke-linecap:round;stroke-miterlimit:10;}
	.st9{display:none;}
	.st10{display:inline;fill:#FFFFFF;stroke:#000000;stroke-linecap:round;stroke-miterlimit:10;}
	.st11{fill:none;stroke:#000000;stroke-linecap:round;stroke-miterlimit:10;}
	.st12{display:none;fill:none;stroke:#000000;stroke-linecap:round;stroke-miterlimit:10;}
	.st13{fill:#DEDEDE;stroke:#000000;stroke-linecap:round;stroke-linejoin:round;stroke-miterlimit:10;}
	.st14{fill:#00FF80;stroke:#000000;stroke-linejoin:round;stroke-miterlimit:10;}
	.st15{fill:#0000FF;stroke:#000000;stroke-linejoin:round;stroke-miterlimit:10;}
	.st16{fill:#FFFF00;stroke:#000000;stroke-linejoin:round;stroke-miterlimit:10;}
	.st17{fill:#FF0080;stroke:#000000;stroke-linejoin:round;stroke-miterlimit:10;}
	.st18{fill:#FFFFFF;stroke:#231F20;stroke-miterlimit:10;}
</style>
<g>
	<path class="st7" d="M8,16.4c-1.9-1-3.1-2.7-3.1-4.6c0,4.2,3.4,7.7,7.7,7.7C10.7,19.4,9.1,18.2,8,16.4z"/>
	<path class="st7" d="M17.2,16.4c-1,1.9-2.7,3.1-4.6,3.1c4.2,0,7.7-3.4,7.7-7.7C20.3,13.6,19.1,15.3,17.2,16.4z"/>
	<path class="st7" d="M8,7.2c1-1.9,2.7-3.1,4.6-3.1C8.4,4.1,5,7.5,5,11.8C5,9.9,6.2,8.2,8,7.2z"/>
	<path class="st7" d="M17.2,7.2c1.9,1,3.1,2.7,3.1,4.6c0-4.2-3.4-7.7-7.7-7.7C14.5,4.1,16.2,5.3,17.2,7.2z"/>
	<path class="st7" d="M8,7.2c1-0.5,2.1-0.9,3.3-1.1c0.3-1.2,0.8-2,1.3-2C10.7,4.1,9.1,5.3,8,7.2z"/>
	<path class="st14" d="M11.3,17.4C10.1,17.3,9,16.9,8,16.4c1,1.9,2.7,3.1,4.6,3.1C12.1,19.4,11.7,18.7,11.3,17.4z"/>
	<path class="st17" d="M13.9,6.1c1.2,0.2,2.3,0.5,3.3,1.1c-1-1.9-2.7-3.1-4.6-3.1C13.1,4.1,13.6,4.9,13.9,6.1z"/>
	<path class="st7" d="M17.2,16.4c-1,0.5-2.1,0.9-3.3,1.1c-0.3,1.2-0.8,2-1.3,2C14.5,19.4,16.2,18.2,17.2,16.4z"/>
	<path class="st7" d="M13.9,17.4c-0.4,0.1-0.8,0.1-1.3,0.1c-0.4,0-0.9,0-1.3-0.1c0.3,1.2,0.8,2,1.3,2C13.1,19.4,13.6,18.7,13.9,17.4
		z"/>
	<path class="st7" d="M11.3,6.1C11.8,6.1,12.2,6,12.6,6c0.4,0,0.9,0,1.3,0.1c-0.3-1.2-0.8-2-1.3-2C12.1,4.1,11.7,4.9,11.3,6.1z"/>
	<path class="st7" d="M17.2,7.2c0.5,1,0.9,2.1,1.1,3.3c1.2,0.3,2,0.8,2,1.3C20.3,9.9,19.1,8.2,17.2,7.2z"/>
	<path class="st7" d="M18.3,13.1c-0.2,1.2-0.5,2.3-1.1,3.3c1.9-1,3.1-2.7,3.1-4.6C20.3,12.3,19.5,12.7,18.3,13.1z"/>
	<path class="st7" d="M7,10.5C7.1,9.3,7.5,8.1,8,7.2C6.2,8.2,5,9.9,5,11.8C5,11.3,5.7,10.8,7,10.5z"/>
	<path class="st7" d="M8,16.4c-0.5-1-0.9-2.1-1.1-3.3c-1.2-0.3-2-0.8-2-1.3C5,13.6,6.2,15.3,8,16.4z"/>
	<path class="st7" d="M7,13.1c0.2,1.2,0.5,2.3,1.1,3.3c1,0.5,2.1,0.9,3.3,1.1c-0.3-1-0.5-2.3-0.6-3.8C9.3,13.5,8,13.3,7,13.1z"/>
	<path class="st15" d="M11.3,6.1C10.1,6.3,9,6.6,8,7.2c-0.5,1-0.9,2.1-1.1,3.3c1-0.3,2.3-0.5,3.8-0.6C10.9,8.4,11.1,7.1,11.3,6.1z"
		/>
	<path class="st16" d="M14.5,13.6c-0.1,1.5-0.3,2.8-0.6,3.8c1.2-0.2,2.3-0.5,3.3-1.1c0.5-1,0.9-2.1,1.1-3.3
		C17.3,13.3,16,13.5,14.5,13.6z"/>
	<path class="st7" d="M18.3,10.5c-0.2-1.2-0.5-2.3-1.1-3.3c-1-0.5-2.1-0.9-3.3-1.1c0.3,1,0.5,2.3,0.6,3.8C16,10,17.3,10.2,18.3,10.5
		z"/>
	<path class="st7" d="M12.6,13.7c-0.6,0-1.3,0-1.9-0.1c0.1,1.5,0.3,2.8,0.6,3.8c0.4,0.1,0.8,0.1,1.3,0.1c0.4,0,0.9,0,1.3-0.1
		c0.3-1,0.5-2.3,0.6-3.8C13.9,13.7,13.3,13.7,12.6,13.7z"/>
	<path class="st7" d="M12.6,9.9c0.6,0,1.3,0,1.9,0.1c-0.1-1.5-0.3-2.8-0.6-3.8C13.5,6.1,13.1,6,12.6,6c-0.4,0-0.9,0-1.3,0.1
		c-0.3,1-0.5,2.3-0.6,3.8C11.4,9.9,12,9.9,12.6,9.9z"/>
	<path class="st7" d="M18.3,10.5c0.1,0.4,0.1,0.8,0.1,1.3c0,0.4,0,0.9-0.1,1.3c1.2-0.3,2-0.8,2-1.3S19.5,10.8,18.3,10.5z"/>
	<path class="st7" d="M7,13.1c-0.1-0.4-0.1-0.8-0.1-1.3s0-0.9,0.1-1.3c-1.2,0.3-2,0.8-2,1.3S5.7,12.7,7,13.1z"/>
	<path class="st7" d="M14.5,11.8c0,0.6,0,1.3-0.1,1.9c1.5-0.1,2.8-0.3,3.8-0.6c0.1-0.4,0.1-0.8,0.1-1.3c0-0.4,0-0.9-0.1-1.3
		c-1-0.3-2.3-0.5-3.8-0.6C14.5,10.5,14.5,11.1,14.5,11.8z"/>
	<path class="st7" d="M10.7,11.8c0-0.6,0-1.3,0.1-1.9C9.3,10,8,10.2,7,10.5c-0.1,0.4-0.1,0.8-0.1,1.3s0,0.9,0.1,1.3
		c1,0.3,2.3,0.5,3.8,0.6C10.7,13,10.7,12.4,10.7,11.8z"/>
	<path class="st14" d="M14.5,9.9c-0.6,0-1.2-0.1-1.9-0.1s-1.3,0-1.9,0.1c0,0.6-0.1,1.2-0.1,1.9s0,1.3,0.1,1.9c0.6,0,1.2,0.1,1.9,0.1
		s1.3,0,1.9-0.1c0-0.6,0.1-1.2,0.1-1.9S14.5,10.5,14.5,9.9z"/>
	<path class="st16" d="M6.9,4L6,3.7C5.3,3.5,4.8,2.9,4.5,2.2L4.2,1.4c0,0,0-0.1-0.1-0.1c0,0-0.1,0-0.1,0.1L3.7,2.2
		C3.5,2.9,2.9,3.5,2.3,3.7L1.4,4c0,0-0.1,0-0.1,0.1s0,0.1,0.1,0.1l0.8,0.3C2.9,4.8,3.5,5.3,3.7,6l0.3,0.8c0,0,0,0.1,0.1,0.1
		c0,0,0.1,0,0.1-0.1L4.5,6C4.8,5.3,5.3,4.8,6,4.5l0.8-0.3C6.9,4.2,6.9,4.2,6.9,4C6.9,4.1,6.9,4.1,6.9,4z"/>
	<path class="st7" d="M22.6,20l-0.8-0.3c-0.6-0.2-1.1-0.7-1.4-1.4l-0.3-0.8c0,0,0,0-0.1,0c0,0-0.1,0-0.1,0l-0.3,0.8
		c-0.2,0.6-0.7,1.1-1.4,1.4L17.6,20c0,0,0,0,0,0.1c0,0,0,0.1,0,0.1l0.8,0.3c0.6,0.2,1.1,0.7,1.4,1.4l0.3,0.8c0,0,0,0,0.1,0
		s0.1,0,0.1,0l0.3-0.8c0.2-0.6,0.7-1.1,1.4-1.4l0.8-0.3C22.6,20.1,22.6,20.1,22.6,20C22.6,20.1,22.6,20,22.6,20z"/>
</g>
</svg>
