<?xml version="1.0" encoding="utf-8"?>
<!-- Generator: Adobe Illustrator 22.0.0, SVG Export Plug-In . SVG Version: 6.00 Build 0)  -->
<svg version="1.1" id="Layer_1_copy" xmlns="http://www.w3.org/2000/svg" xmlns:xlink="http://www.w3.org/1999/xlink" x="0px"
	 y="0px" viewBox="0 0 24 24" style="enable-background:new 0 0 24 24;" xml:space="preserve">
<style type="text/css">
	.st0{fill:#0000FF;stroke:#000000;stroke-miterlimit:10;}
	.st1{fill:#FF0080;stroke:#000000;stroke-miterlimit:10;}
	.st2{fill:#FFFF00;stroke:#000000;stroke-miterlimit:10;}
	.st3{fill:#00FF80;stroke:#000000;stroke-miterlimit:10;}
	.st4{fill:none;stroke:#231F20;stroke-miterlimit:10;}
	.st5{fill:#FFFFFF;stroke:#000000;stroke-linejoin:round;stroke-miterlimit:10;}
	.st6{stroke:#FFFFFF;stroke-linecap:round;stroke-linejoin:round;stroke-miterlimit:10;}
	.st7{fill:#FFFFFF;stroke:#000000;stroke-linecap:square;stroke-linejoin:round;stroke-miterlimit:10;}
	.st8{fill:#FFFFFF;stroke:#000000;stroke-linecap:round;stroke-miterlimit:10;}
	.st9{display:none;}
	.st10{display:inline;fill:#FFFFFF;stroke:#000000;stroke-linecap:round;stroke-miterlimit:10;}
	.st11{fill:none;stroke:#000000;stroke-linecap:round;stroke-miterlimit:10;}
	.st12{display:none;fill:none;stroke:#000000;stroke-linecap:round;stroke-miterlimit:10;}
	.st13{fill:#DEDEDE;stroke:#000000;stroke-linecap:round;stroke-linejoin:round;stroke-miterlimit:10;}
	.st14{fill:#00FF80;stroke:#000000;stroke-linejoin:round;stroke-miterlimit:10;}
	.st15{fill:#0000FF;stroke:#000000;stroke-linejoin:round;stroke-miterlimit:10;}
	.st16{fill:#FFFF00;stroke:#000000;stroke-linejoin:round;stroke-miterlimit:10;}
	.st17{fill:#FF0080;stroke:#000000;stroke-linejoin:round;stroke-miterlimit:10;}
	.st18{fill:#FFFFFF;stroke:#231F20;stroke-miterlimit:10;}
</style>
<g>
	<g>
		<path class="st7" d="M11.6,11l0-3.9c0-0.4-0.4-0.8-0.8-0.8h-0.3c-0.5,0-0.8,0.4-0.8,0.8v5.4v0.7l-1-1c-0.3-0.3-0.8-0.3-1.1,0
			l-0.5,0.5c-0.3,0.3-0.3,0.8,0,1.1l2.7,2.6v0l0,0c1.1,2.7,3.7,4.4,6.5,4.4l0.7-1.7c0.5-1.2,0.8-2.6,0.8-3.9l0-3.3
			c0-0.4-0.4-0.8-0.8-0.8H11.6z"/>
		<line class="st8" x1="11.6" y1="13.5" x2="11.6" y2="11"/>
		<line class="st8" x1="13.6" y1="13.6" x2="13.6" y2="11"/>
		<line class="st8" x1="15.6" y1="13.6" x2="15.6" y2="11"/>
		<rect x="10" y="19.1" class="st5" width="7.6" height="2.7"/>
		<g class="st9">
			<line class="st10" x1="12.2" y1="14.7" x2="12.2" y2="16"/>
			<line class="st10" x1="13.8" y1="14.7" x2="13.8" y2="16"/>
			<line class="st10" x1="15.4" y1="14.7" x2="15.4" y2="16"/>
		</g>
	</g>
	<line class="st11" x1="10.5" y1="2.2" x2="10.5" y2="3.9"/>
	<line class="st11" x1="14.7" y1="4.3" x2="13.4" y2="5.6"/>
	<line class="st11" x1="6.4" y1="4.3" x2="7.6" y2="5.6"/>
</g>
</svg>
