<?xml version="1.0" encoding="utf-8"?>
<!-- Generator: Adobe Illustrator 22.0.0, SVG Export Plug-In . SVG Version: 6.00 Build 0)  -->
<svg version="1.1" id="Layer_1_copy" xmlns="http://www.w3.org/2000/svg" xmlns:xlink="http://www.w3.org/1999/xlink" x="0px"
	 y="0px" viewBox="0 0 24 24" style="enable-background:new 0 0 24 24;" xml:space="preserve">
<style type="text/css">
	.st0{fill:#0000FF;stroke:#000000;stroke-miterlimit:10;}
	.st1{fill:#FF0080;stroke:#000000;stroke-miterlimit:10;}
	.st2{fill:#FFFF00;stroke:#000000;stroke-miterlimit:10;}
	.st3{fill:#00FF80;stroke:#000000;stroke-miterlimit:10;}
	.st4{fill:none;stroke:#231F20;stroke-miterlimit:10;}
	.st5{fill:#FFFFFF;stroke:#000000;stroke-linejoin:round;stroke-miterlimit:10;}
	.st6{stroke:#FFFFFF;stroke-linecap:round;stroke-linejoin:round;stroke-miterlimit:10;}
	.st7{fill:#FFFFFF;stroke:#000000;stroke-linecap:square;stroke-linejoin:round;stroke-miterlimit:10;}
	.st8{fill:#FFFFFF;stroke:#000000;stroke-linecap:round;stroke-miterlimit:10;}
	.st9{display:none;}
	.st10{display:inline;fill:#FFFFFF;stroke:#000000;stroke-linecap:round;stroke-miterlimit:10;}
	.st11{fill:none;stroke:#000000;stroke-linecap:round;stroke-miterlimit:10;}
	.st12{display:none;fill:none;stroke:#000000;stroke-linecap:round;stroke-miterlimit:10;}
	.st13{fill:#DEDEDE;stroke:#000000;stroke-linecap:round;stroke-linejoin:round;stroke-miterlimit:10;}
	.st14{fill:#00FF80;stroke:#000000;stroke-linejoin:round;stroke-miterlimit:10;}
	.st15{fill:#0000FF;stroke:#000000;stroke-linejoin:round;stroke-miterlimit:10;}
	.st16{fill:#FFFF00;stroke:#000000;stroke-linejoin:round;stroke-miterlimit:10;}
	.st17{fill:#FF0080;stroke:#000000;stroke-linejoin:round;stroke-miterlimit:10;}
	.st18{fill:#FFFFFF;stroke:#231F20;stroke-miterlimit:10;}
</style>
<path class="st18" d="M17.5,13.5v1.2c0,0.2,0.1,0.3,0.2,0.4c0.1,0.1,0.3,0.1,0.5,0l4.7-2.7c0.3-0.2,0.3-0.6,0-0.8l-4.7-2.7
	c-0.1-0.1-0.3-0.1-0.5,0c-0.1,0.1-0.2,0.2-0.2,0.4v1.2h-11V9.3c0-0.2-0.1-0.3-0.2-0.4C6.1,8.8,6,8.8,5.8,8.9l-4.7,2.7
	C1,11.7,0.9,11.8,0.9,12c0,0.2,0.1,0.3,0.2,0.4l4.7,2.7c0.1,0.1,0.3,0.1,0.5,0c0.1-0.1,0.2-0.2,0.2-0.4v-1.2H17.5z"/>
</svg>
