<?xml version="1.0" encoding="utf-8"?>
<!-- Generator: Adobe Illustrator 22.0.0, SVG Export Plug-In . SVG Version: 6.00 Build 0)  -->
<svg version="1.1" id="Layer_1_copy" xmlns="http://www.w3.org/2000/svg" xmlns:xlink="http://www.w3.org/1999/xlink" x="0px"
	 y="0px" viewBox="0 0 24 24" style="enable-background:new 0 0 24 24;" xml:space="preserve">
<style type="text/css">
	.st0{fill:#0000FF;stroke:#000000;stroke-miterlimit:10;}
	.st1{fill:#FF0080;stroke:#000000;stroke-miterlimit:10;}
	.st2{fill:#FFFF00;stroke:#000000;stroke-miterlimit:10;}
	.st3{fill:#00FF80;stroke:#000000;stroke-miterlimit:10;}
	.st4{fill:none;stroke:#231F20;stroke-miterlimit:10;}
	.st5{fill:#FFFFFF;stroke:#000000;stroke-linejoin:round;stroke-miterlimit:10;}
	.st6{stroke:#FFFFFF;stroke-linecap:round;stroke-linejoin:round;stroke-miterlimit:10;}
	.st7{fill:#FFFFFF;stroke:#000000;stroke-linecap:square;stroke-linejoin:round;stroke-miterlimit:10;}
	.st8{fill:#FFFFFF;stroke:#000000;stroke-linecap:round;stroke-miterlimit:10;}
	.st9{display:none;}
	.st10{display:inline;fill:#FFFFFF;stroke:#000000;stroke-linecap:round;stroke-miterlimit:10;}
	.st11{fill:none;stroke:#000000;stroke-linecap:round;stroke-miterlimit:10;}
	.st12{display:none;fill:none;stroke:#000000;stroke-linecap:round;stroke-miterlimit:10;}
	.st13{fill:#DEDEDE;stroke:#000000;stroke-linecap:round;stroke-linejoin:round;stroke-miterlimit:10;}
	.st14{fill:#00FF80;stroke:#000000;stroke-linejoin:round;stroke-miterlimit:10;}
	.st15{fill:#0000FF;stroke:#000000;stroke-linejoin:round;stroke-miterlimit:10;}
	.st16{fill:#FFFF00;stroke:#000000;stroke-linejoin:round;stroke-miterlimit:10;}
	.st17{fill:#FF0080;stroke:#000000;stroke-linejoin:round;stroke-miterlimit:10;}
	.st18{fill:#FFFFFF;stroke:#231F20;stroke-miterlimit:10;}
</style>
<path class="st18" d="M7.1,14.9L6.2,14c-0.1-0.1-0.3-0.2-0.4-0.1c-0.2,0-0.3,0.2-0.3,0.3l-1.4,5.2C4,19.7,4.3,20,4.6,20l5.2-1.4
	c0.2,0,0.3-0.2,0.3-0.3c0-0.2,0-0.3-0.1-0.4l-0.9-0.9l7.8-7.8l0.9,0.9c0.1,0.1,0.3,0.2,0.4,0.1c0.2,0,0.3-0.2,0.3-0.3l1.4-5.2
	c0-0.2,0-0.3-0.1-0.4c-0.1-0.1-0.3-0.2-0.4-0.1l-5.2,1.4c-0.2,0-0.3,0.2-0.3,0.3c0,0.2,0,0.3,0.1,0.4l0.9,0.9L7.1,14.9z"/>
</svg>
