<?xml version="1.0" encoding="utf-8"?>
<!-- Generator: Adobe Illustrator 22.0.0, SVG Export Plug-In . SVG Version: 6.00 Build 0)  -->
<svg version="1.1" id="finger" xmlns="http://www.w3.org/2000/svg" xmlns:xlink="http://www.w3.org/1999/xlink" x="0px" y="0px"
	 viewBox="0 0 24 24" enable-background="new 0 0 24 24" xml:space="preserve" height="24" width="24">
<title>finger</title>
<g>
	<path fill="#FFFFFF" d="M11.6,11V7.1c0-0.5-0.4-0.8-0.8-0.8l0,0h-0.3c-0.5,0-0.8,0.4-0.8,0.8v6.1l-1-1c-0.3-0.3-0.8-0.3-1.1,0
		l-0.5,0.5c-0.3,0.3-0.3,0.8,0,1.1l0,0l2.7,2.6l0,0c1.1,2.7,3.7,4.4,6.5,4.4l0.7-1.7c0.5-1.2,0.8-2.6,0.8-3.9v-3.3
		c0-0.4-0.4-0.8-0.8-0.8l0,0L11.6,11z"/>
	<path d="M16.3,21.3c-3,0-5.7-1.8-6.9-4.6l-2.6-2.5c-0.2-0.2-0.4-0.6-0.4-0.9c0-0.3,0.1-0.7,0.4-0.9l0.5-0.5c0.5-0.5,1.3-0.5,1.8,0
		L9.2,12V7.1c0-0.6,0.5-1.3,1.3-1.3h0.3c0.6,0,1.3,0.5,1.3,1.3v3.4l4.9,0.1c0.7,0,1.3,0.6,1.3,1.3v3.3c0,1.3-0.3,2.8-0.8,4.1
		L16.8,21C16.7,21.2,16.5,21.3,16.3,21.3z M8.1,12.5c0,0-0.1,0-0.2,0.1l-0.5,0.5c-0.1,0.1-0.1,0.2-0.1,0.2s0,0.1,0.1,0.2l2.7,2.6
		c0.1,0,0.1,0.1,0.1,0.2c1,2.4,3.2,4,5.7,4.1l0.6-1.4c0.5-1.2,0.8-2.5,0.8-3.7v-3.3c0-0.1-0.2-0.3-0.3-0.3l-5.4-0.1
		c-0.3,0-0.5-0.2-0.5-0.5V7.1c0-0.2-0.2-0.3-0.3-0.3h-0.3c-0.2,0-0.3,0.2-0.3,0.3v6.1c0,0.2-0.1,0.4-0.3,0.5c-0.2,0.1-0.4,0-0.5-0.1
		l-1-1C8.3,12.5,8.2,12.5,8.1,12.5z"/>
</g>
<g>
	<path d="M11.6,14c-0.3,0-0.5-0.2-0.5-0.5V11c0-0.3,0.2-0.5,0.5-0.5s0.5,0.2,0.5,0.5v2.5C12.1,13.8,11.9,14,11.6,14z"/>
</g>
<g>
	<path d="M13.6,14.1c-0.3,0-0.5-0.2-0.5-0.5v-2.5c0-0.3,0.2-0.5,0.5-0.5s0.5,0.2,0.5,0.5v2.5C14.1,13.9,13.9,14.1,13.6,14.1z"/>
</g>
<g>
	<path d="M15.6,14.1c-0.3,0-0.5-0.2-0.5-0.5v-2.5c0-0.3,0.2-0.5,0.5-0.5s0.5,0.2,0.5,0.5v2.5C16.1,13.9,15.9,14.1,15.6,14.1z"/>
</g>
<g>
	<rect x="10" y="19.1" fill="#FFFFFF" width="7.6" height="2.7"/>
	<path d="M17.6,22.3H10c-0.3,0-0.5-0.2-0.5-0.5v-2.7c0-0.3,0.2-0.5,0.5-0.5h7.6c0.3,0,0.5,0.2,0.5,0.5v2.7
		C18.1,22.1,17.9,22.3,17.6,22.3z M10.5,21.3h6.6v-1.7h-6.6V21.3z"/>
</g>
</svg>
