<?xml version="1.0" encoding="utf-8"?>
<!-- Generator: Adobe Illustrator 22.0.0, SVG Export Plug-In . SVG Version: 6.00 Build 0)  -->
<svg version="1.1" xmlns="http://www.w3.org/2000/svg" xmlns:xlink="http://www.w3.org/1999/xlink" x="0px" y="0px"
	 viewBox="0 0 507.6 507.5" enable-background="new 0 0 507.6 507.5" xml:space="preserve" height="75" width="75">
<g id="land">
	<g>
		<g>
			<path fill="#FF0080" d="M64,50.7c-3.2,15.2-5.4,34.6-6.9,49.8C66,85.1,75.3,68.1,83.6,52.8c5.2-0.4,12.1-0.4,18.4-0.1
				c-1.5,14.9-2.5,33.5-2.8,46.9c8.8-15.8,16.9-33,24-48.3c10.4-0.2,22.2,0,33.1,0.9c-20,33.1-38,65.8-60.6,99.6
				c-8.4-0.6-14.7-0.5-21.3-0.1c0.3-10.9,0.6-26.5,2-43.1c-7.3,13-18.4,29.8-26.4,42.5c-7.6-0.5-12.2-0.6-19.9,0.1
				C30.3,119.7,31.8,85,34.9,51C44.2,50.2,53.6,50,64,50.7z"/>
			<path fill="#FFFFFF" d="M96.8,153.8l-1.2-0.1c-9-0.7-15.4-0.4-21.1-0.1l-2.2,0.1l0.1-2.2c0.2-9.2,0.5-21.3,1.3-34.5
				c-4.8,7.9-10.3,16.6-15.3,24.4c-2.4,3.7-4.7,7.3-6.8,10.6l-0.6,1l-1.2-0.1c-7.7-0.5-12.1-0.6-19.7,0.1l-2.2,0.2l0-2.2
				c0.2-33.5,1.9-68.2,4.9-100.4l0.2-1.7l1.7-0.1c10.2-0.8,19.5-0.9,29.4-0.3l2.3,0.1L66,51.1c-2.2,10.5-4.2,24-5.9,40.3
				c6.1-10.7,12.2-21.9,18.2-32.8l4.2-7.6l1.1-0.1c4.8-0.4,11.6-0.5,18.7-0.1l2.1,0.1l-0.2,2.1c-1.1,11-2,25.3-2.5,38.3
				c7.3-13.7,14-28.1,19.9-40.8l0.5-1.1l1.3,0c12.7-0.2,23.9,0.1,33.3,0.9l3.2,0.3l-1.7,2.7c-6.2,10.2-12.3,20.6-18.2,30.6
				c-13.2,22.5-26.9,45.7-42.5,69L96.8,153.8z M84.7,149.3c3,0,6.3,0.1,10.1,0.3c15.3-22.9,28.7-45.8,41.7-67.9
				c5.4-9.1,10.9-18.6,16.5-27.9c-8.3-0.6-17.9-0.8-28.5-0.7C117.7,68,109.7,85,101,100.5l-3.9,7.1l0.2-8.1
				c0.3-14.2,1.3-31.5,2.6-44.9c-5.6-0.2-10.9-0.1-15,0.1l-3.1,5.8c-7.5,13.7-15.2,27.9-22.9,41l-4.6,7.9l0.9-9.1
				c1.9-19.4,4.1-35.5,6.5-47.8c-8.3-0.4-16.3-0.3-24.8,0.3c-2.8,30.9-4.4,64-4.7,96.2c6.1-0.4,10.5-0.4,16.9,0c1.9-3,4-6.3,6.2-9.7
				c6.6-10.4,14.2-22.2,19.6-31.8l4.5-8l-0.8,9.1c-1.3,15.5-1.7,29.9-1.9,40.8C79,149.4,81.7,149.3,84.7,149.3z"/>
		</g>
		<g>
			<path fill="#FF0080" d="M136.1,98.1c10.9-29.9,22.6-62.2,35.3-92c11.7-2.8,22.2-3.6,33.3-4c2.5,30.3,5.7,61.8,6.5,91.1
				c-7.5,0.3-15.9,0.7-23.3,2.1c0-5.2-0.3-10.7-0.6-15.9c-7.1,0.8-13.9,1.3-22.3,2.6c-2,4.7-3.9,9.6-6.3,14.4
				C150.7,96.4,143.1,97,136.1,98.1z M189.3,58c-0.7-10.4-2.2-21.8-3.6-32.4c-5.6,11-10.5,22.8-15.3,33.6
				C176.7,58.5,182.5,57.9,189.3,58z"/>
			<path fill="#FFFFFF" d="M133.1,100.6l4.2-11.5c10.2-27.9,20.7-56.7,32.3-83.8l0.4-0.9l1-0.2c11.4-2.7,21.7-3.6,33.6-4.1l1.9-0.1
				l0.2,1.9c0.5,5.7,1,11.5,1.5,17.3c2.1,24.6,4.3,50.1,5,74l0.1,2l-2,0.1c-6.9,0.3-15.6,0.7-23,2.1l-2.4,0.5l0-2.4
				c0-4.4-0.2-9.1-0.5-13.7c-1.4,0.1-2.8,0.3-4.1,0.4c-4.6,0.5-9.4,1-14.9,1.7c-0.5,1.1-0.9,2.2-1.4,3.4c-1.4,3.3-2.8,6.8-4.5,10.1
				l-0.6,1.1l-1.2,0c-7.8-0.1-15.3,0.5-22.2,1.7L133.1,100.6z M172.8,7.8C161.5,34.6,151.1,63,141,90.5l-1.9,5.1
				c5.8-0.8,11.9-1.2,18.2-1.2c1.4-2.9,2.7-5.9,3.9-8.8c0.6-1.5,1.2-3,1.9-4.4l0.4-1l1.1-0.2c6-0.9,11.2-1.4,16.2-1.9
				c2.1-0.2,4.1-0.4,6.2-0.6l2.1-0.2l0.1,2.6c0.2,4.4,0.5,8.9,0.5,13.2c6.4-1,13.4-1.4,19.3-1.7c-0.7-23.2-2.9-47.9-5-71.7
				c-0.4-5.1-0.9-10.3-1.3-15.4C192.3,4.6,183,5.5,172.8,7.8z M167.1,61.6l1.4-3.2c1.3-2.9,2.6-5.9,4-9c3.6-8.2,7.3-16.7,11.4-24.7
				l2.9-5.7l0.9,6.4c1.5,10.8,2.9,22.3,3.6,32.5l0.1,2.2l-2.2,0c-6.9-0.1-12.7,0.5-18.6,1.2L167.1,61.6z M184.6,32.4
				c-2.9,6.1-5.7,12.5-8.4,18.6c-0.9,2-1.7,3.9-2.6,5.8c4.3-0.5,8.6-0.8,13.5-0.8C186.6,48.5,185.6,40.4,184.6,32.4z"/>
		</g>
		<g>
			<path fill="#FF0080" d="M271.9,23.9c8.9,2.7,15.7,5.6,24,9.6c-3.7,11.2-8.7,26.1-12,37.6c11.4-8.2,23.9-19.1,35.2-27.4
				c9.8,2.5,14.8,4.5,23.9,9c-14,25.2-29.9,54.3-43,78.6c-7.2-3.2-13.5-5.3-21.1-8c5.5-12,13-28.4,18.7-40
				c-12.7,10.3-25.8,21.7-39,31.4c-5.8-2.8-7.2-3.3-12.7-5c3.9-13.2,9.3-28.7,14.4-41.2C247,80.5,237.6,92,227.6,102.6
				c-7-3.8-13.8-6.3-21.3-8.8C229,68.4,247.9,46.2,271.9,23.9z"/>
			<path fill="#FFFFFF" d="M300.8,133.9l-1.7-0.8c-6.5-2.9-12.3-4.9-19-7.3l-4-1.4l0.9-2c1.2-2.5,2.4-5.3,3.8-8.2
				c3.6-7.7,7.5-16.2,11-23.8c-1.7,1.4-3.3,2.7-4.9,4.1c-8.9,7.4-18,15-27.2,21.7l-1,0.7l-1.1-0.5c-5.8-2.8-7.1-3.3-12.4-4.9
				l-1.9-0.6l0.6-1.9c3-10.2,7-22,11.2-33c-6.3,6.2-11.8,12.3-17.1,18.2c-3.1,3.4-5.9,6.6-8.9,9.8l-1.1,1.1l-1.4-0.7
				c-6.6-3.6-12.9-5.9-21-8.6l-2.9-1l2-2.3c3.9-4.4,7.8-8.7,11.5-12.9c17.6-19.9,34.3-38.6,54.2-57.2l0.8-0.8l1.1,0.3
				c9.4,2.8,16.5,5.9,24.3,9.7l1.6,0.8l-0.6,1.7c-3.1,9.2-7.1,21.3-10.3,31.8c4.4-3.4,9-7,13.4-10.6c5.6-4.5,11.5-9.2,17-13.2
				l0.8-0.6l0.9,0.2c10.1,2.6,15.1,4.6,24.3,9.2l1.9,0.9l-1,1.8c-16.9,30.4-34.2,62.3-43,78.6L300.8,133.9z M281.6,122.1
				c6.1,2.2,11.5,4.1,17.5,6.6c8.8-16.4,25-46.3,41.1-75.1c-7.5-3.7-12.3-5.5-20.7-7.7c-5.2,3.8-10.7,8.3-16,12.6
				c-6.1,4.9-12.4,10-18.4,14.3l-4.7,3.4l1.6-5.5c3.2-11,7.9-25.2,11.5-36c-6.7-3.2-13-5.9-21-8.4c-19.4,18.2-35.7,36.6-53.1,56.1
				c-3.1,3.5-6.3,7.1-9.5,10.7c6.3,2.2,11.9,4.4,17.4,7.2c2.6-2.8,5.2-5.6,7.8-8.6c7.1-7.9,14.5-16.1,23.9-24.6l6.5-5.9l-3.3,8.1
				c-5,12.4-10.1,26.8-13.8,39.1c3.8,1.2,5.6,1.9,10,4c8.7-6.5,17.5-13.8,26-20.8c3.9-3.3,8-6.6,11.9-9.8l7-5.7l-3.9,8.1
				c-4.4,9.1-10,21.2-14.9,31.8C283.5,118.1,282.5,120.1,281.6,122.1z"/>
		</g>
		<g>
			<path fill="#FF0080" d="M316.4,98.6c9.3-0.8,16.7-0.6,25.8,0.1c0.7,11.8,1.5,27.5,2.7,39.4c7.6-11.8,15.1-26.6,22.6-38.4
				c10-1.3,15.4-1.2,25.6-0.4c-3.8,28.5-7.8,61.5-11,88.9c-7.9-0.3-14.5,0-22.6,0.3c0.7-13.2,1.6-31.2,2.6-44.1
				c-8,14.2-16,29.7-24.7,43.5c-6.4-0.4-7.9-0.4-13.7,0c-1.3-13.7-1.9-30.1-1.8-43.6c-7.9,16.1-12.4,30.3-17.8,43.8
				c-7.9-0.9-15.2-0.8-23.1-0.3C293,155.8,302.4,128.2,316.4,98.6z"/>
			<path fill="#FFFFFF" d="M357.4,190.5l0.1-2.2c0.2-2.9,0.3-6,0.5-9.3c0.5-8.4,1-17.6,1.5-25.9c-1,1.9-2.1,3.8-3.1,5.6
				c-5.5,10.1-11.3,20.5-17.3,30.1l-0.6,1l-1.2-0.1c-6.4-0.4-7.8-0.4-13.4,0l-2,0.2l-0.2-2c-1-10.6-1.6-23.1-1.7-34.8
				c-3.6,8.1-6.4,15.8-9.2,23.2c-1.6,4.3-3.1,8.3-4.7,12.4l-0.6,1.4l-1.5-0.2c-7.4-0.9-14.2-0.8-22.7-0.3l-3,0.2l1.1-2.9
				c2.1-5.6,4-11,6-16.3c9.1-24.9,17.7-48.5,29.3-73l0.5-1l1.1-0.1c9.8-0.8,17.5-0.6,26.1,0.1l1.7,0.1l0.1,1.7
				c0.5,9.7,1.2,22.4,2.1,33.4c2.9-4.8,5.8-9.8,8.6-14.8c3.6-6.3,7.3-12.8,10.9-18.5l0.5-0.8l0.9-0.1c10.3-1.3,15.8-1.3,26-0.4
				l2.1,0.2l-0.3,2.1c-4.5,34.5-8.9,70.5-11,88.9l-0.2,1.8l-1.8-0.1c-7.1-0.3-13.2,0-20.3,0.2L357.4,190.5z M364.8,135.5l-0.7,9
				c-0.8,10-1.5,23.2-2.1,34.8c-0.1,2.4-0.3,4.8-0.4,7.1c6.5-0.3,12.2-0.5,18.7-0.3c2.2-18.5,6.3-52.2,10.5-85
				c-8.3-0.6-13.5-0.6-22.1,0.4c-3.4,5.5-6.9,11.6-10.3,17.6c-3.9,6.8-7.9,13.9-11.8,20l-3.1,4.8l-0.6-5.7
				c-1.1-11.5-2-26.3-2.6-37.7c-7.4-0.5-14.3-0.7-22.6-0.1c-11.3,24-19.7,47.1-28.7,71.6c-1.6,4.4-3.2,8.9-4.9,13.5
				c6.7-0.3,12.6-0.3,18.8,0.3c1.4-3.5,2.7-7.1,4.1-10.9c3.7-10,7.6-20.3,13.2-31.7l3.9-7.9l-0.1,8.8c-0.1,13.3,0.5,28.7,1.6,41.5
				c4-0.3,5.9-0.3,10.8,0.1c5.7-9.2,11.2-19.2,16.5-28.9c2.5-4.5,5-9.1,7.5-13.5L364.8,135.5z"/>
		</g>
		<g>
			<path fill="#FF0080" d="M388,231.7c-7.7,8.4-22.5,9.8-33.1,3.5c-10.6-6.7-12.8-18.5-5.5-26.6c8.1-8.2,22.9-9.8,33.5-3
				C393.4,211.7,395.9,223.4,388,231.7z M442.8,119.2c15.2,5.1,30,14.8,42.1,23.4c-31.8,19.3-65.6,46.3-85.4,62.6
				c-8.8-6.2-15.8-10-24.3-13.5C394.4,166.8,429.3,129.5,442.8,119.2z"/>
			<path fill="#FFFFFF" d="M369.6,241.1c-5.4,0-10.8-1.4-15.6-4.2c-6-3.8-9.8-9.3-10.6-15.3c-0.7-5.2,1-10.3,4.7-14.4
				c9-9.1,24.8-10.5,36-3.4c5.8,3.5,9.7,8.8,10.5,14.6c0.7,5.2-1.1,10.4-5,14.5C384.6,238.3,377.2,241.1,369.6,241.1z M368.1,203.4
				c-6.5,0-12.9,2.3-17.2,6.6c-2.8,3.1-4.1,7.1-3.6,11.1c0.6,4.8,3.7,9.2,8.7,12.4c9.8,5.8,23.5,4.4,30.5-3.2l0,0
				c3.1-3.2,4.5-7.2,4-11.2c-0.6-4.6-3.8-8.9-8.6-11.8C377.8,204.6,372.9,203.4,368.1,203.4z M399.5,207.6l-1.2-0.9
				c-8.9-6.2-15.6-9.9-23.9-13.3l-2.5-1l1.6-2.1c19.5-25.1,54.5-62.5,68.1-72.8l0.8-0.6l1,0.3c15.5,5.2,30.2,14.9,42.6,23.6l2.5,1.8
				l-2.6,1.6c-34.9,21.2-72.8,52.2-85.2,62.4L399.5,207.6z M378.3,190.8c7.1,3.1,13.5,6.6,21,11.8c13.2-10.8,48.6-39.6,81.9-60.2
				c-11.3-7.9-24.4-16.2-38.1-21C429.6,132.1,397.5,166.5,378.3,190.8z"/>
		</g>
		<g>
			<g>
				<path fill="#FFFF00" d="M14.2,306.4c-4.9-2.1-4.9-13.1,0-24.5c4.9-11.4,12.9-19,17.8-16.8c0.4,0.2,1.1,0.5,1.1,0.5l80.5,34.6
					l-17.8,41.3l-80.5-34.6C15.3,306.9,14.6,306.6,14.2,306.4z"/>
				<path d="M96.9,344.1l-83.5-35.9c-6.1-2.6-6.6-14.3-1.1-27.1c2.5-5.8,5.8-10.8,9.4-14.2c4-3.8,7.9-5.1,11.1-3.7l83.5,35.9
					L96.9,344.1z M30.2,266.7c-1.5,0-3.6,1.1-5.7,3.2c-3.2,3-6.2,7.6-8.4,12.8c-4.6,10.8-4.4,20.4-1,21.9l0,0l79.8,34.3l16.2-37.7
					l-79.8-34.3C30.9,266.8,30.5,266.7,30.2,266.7z"/>
			</g>
			<g>
				<path fill="#686868" d="M289.1,284.8c0,0,11,106.5-80.5,191.8c0,0-106.9,8.1-190.2-83c0,0-12.1-103.7,79.4-189L289.1,284.8z"/>
				<path d="M201.9,478.8c-10.3,0-31.6-1-57.7-7.6c-34.1-8.6-84-28.8-127.3-76.2l-0.4-0.5l-0.1-0.6c-0.1-1.1-3-26.7,5.4-63.2
					c7.7-33.6,27-83.1,74.6-127.5l0.9-0.9l193.6,81.1l0.1,1.2c0,0.3,2.7,27.4-6,64.6c-8,34.3-27.5,84.5-75.1,128.9l-0.5,0.5
					l-0.7,0.1C208.7,478.7,206.2,478.8,201.9,478.8z M20.3,392.8c42.5,46.3,91.3,66.1,124.7,74.5c33.2,8.4,58.3,7.6,62.7,7.3
					c46.5-43.6,65.6-92.8,73.4-126.4c7.5-32.2,6.4-56.6,6-62.1L98.2,207c-46.1,43.4-64.8,91.6-72.4,124.4
					C18.2,364.2,20,388.6,20.3,392.8z"/>
			</g>
			<g>
				<path fill="#757575" d="M3.4,398.7c-9.6,22.2,30.4,60.8,89.3,86.1c58.9,25.3,112.1,27.7,121.7,5.5l6.5-17.4
					c0.7-1.9-1.4-3.6-3.1-2.5c-18.4,11.7-63.9,3.4-114-18.1c-46-19.8-80.5-47.6-88.8-69.5c-0.5-1.2-2.1-1.5-2.9-0.4
					c-1.9,2.5-5.5,7.3-8.7,16.6L3.4,398.7z"/>
				<path d="M177.2,507.5c-22.8,0-53-7-85.3-20.9c-60.6-26-100.2-64.8-90.4-88.4c3.4-9.7,7.2-14.7,9-17.1c0.8-1.1,2.1-1.6,3.4-1.4
					c1.3,0.2,2.4,1.1,2.9,2.4c8.3,21.9,43.6,49.4,87.7,68.4c51,21.9,95,29.1,112.1,18.3c1.5-1,3.4-0.9,4.8,0.3
					c1.4,1.1,1.9,3,1.3,4.6l-6.5,17.5C211.5,502,197.2,507.5,177.2,507.5z M5.3,399.5c-4.2,9.8,2.6,24.2,18.5,39.6
					c16.7,16.1,41.4,31.6,69.7,43.8c28.3,12.1,56.2,19.4,78.6,20.4c21.8,1,36.1-3.9,40.4-13.8l6.5-17.4c0-0.1,0-0.1,0-0.1
					c-0.1-0.1-0.1,0-0.2,0c-18.4,11.7-62.8,4.8-115.8-18c-44.7-19.2-80.6-47.3-89.7-70.1C11.5,386.3,8.2,390.9,5.3,399.5L5.3,399.5
					L5.3,399.5z"/>
			</g>
			<g>
				<g>
					<path fill="#757575" d="M93.9,181.2c1-2.4,2.5-4.4,4.5-6.2c16.8-15.2,66.7-10.9,119.3,11.7c52.6,22.6,90.2,55.8,90.7,78.5
						c0.1,2.7-0.4,5.2-1.4,7.6c-9.6,22.2-65,19.8-123.9-5.5C124.3,242,84.4,203.4,93.9,181.2z"/>
				</g>
				<g>
					<path fill="#5E5E5E" d="M95.2,181.8c1-2.4,2.5-4.4,4.5-6.2c2.9,17.1,42.2,46.1,94.9,68.7c52.6,22.6,100.7,31.2,115.2,21.5
						c0.1,2.7-0.4,5.2-1.4,7.6c-9.6,22.2-65,19.8-123.9-5.5C125.6,242.5,85.6,204,95.2,181.8z"/>
				</g>
				<g>
					<path d="M182.4,269.1C121.6,243,81.9,204,92.1,180.4c1.1-2.6,2.8-4.9,5-6.9c17.7-16,68.8-11.2,121.5,11.4s91.3,56.4,91.9,80.3
						c0.1,3-0.5,5.8-1.6,8.4C298.8,297.2,243.2,295.2,182.4,269.1z M114.3,221.6c16.7,16.1,41.4,31.6,69.7,43.8
						c28.3,12.1,56.6,19.4,79.7,20.4c22.2,1,37.3-4.1,41.5-13.9c0.9-2,1.3-4.3,1.2-6.7c-0.5-22-39-55-89.5-76.7
						s-100.9-26.9-117.2-12.1c-1.8,1.6-3.2,3.5-4,5.5C91.5,191.8,98.3,206.2,114.3,221.6z"/>
				</g>
			</g>
			<g>
				<path fill="#FFFF00" d="M245.4,405.7c-4.9-2.1-4.9-13,0-24.5c4.9-11.4,12.8-19,17.7-16.9c0.4,0.2,1.1,0.5,1.1,0.5l202.3,86.9
					c7,3,10.2,11.1,7.2,18.1l-6.9,16.1c-3,7-11.1,10.2-18.1,7.2l-202.3-86.9C246.5,406.2,245.7,405.9,245.4,405.7z"/>
				<path d="M454.1,496.2c-2.1,0-4.2-0.4-6.2-1.3l-203.4-87.4c-6.1-2.6-6.5-14.3-1-27.1c2.5-5.8,5.8-10.8,9.3-14.2
					c4-3.8,7.9-5.1,11-3.8l203.4,87.4c3.9,1.7,6.9,4.7,8.4,8.6c1.6,3.9,1.5,8.2-0.2,12.1l-6.9,16.1c-1.7,3.9-4.7,6.9-8.6,8.4
					C458.1,495.9,456.1,496.2,454.1,496.2z M246.1,403.9l203.4,87.4c6,2.6,12.9-0.2,15.5-6.2l6.9-16.1c1.2-2.9,1.3-6.1,0.1-9
					c-1.2-2.9-3.4-5.2-6.3-6.4l-203.4-87.4c-1.5-0.7-4,0.5-6.7,3c-3.2,3-6.1,7.6-8.4,12.8C242.6,392.8,242.8,402.5,246.1,403.9
					L246.1,403.9z"/>
			</g>
		</g>
	</g>
</g>
<g id="swing" display="none">
	<g display="inline">
		<g>
			<g>
				<path fill="#FFFF00" d="M14.2,306.4c-4.9-2.1-4.9-13.1,0-24.5c4.9-11.4,12.9-19,17.8-16.8c0.4,0.2,1.1,0.5,1.1,0.5l80.5,34.6
					l-17.8,41.3l-80.5-34.6C15.3,306.9,14.6,306.6,14.2,306.4z"/>
				<path d="M96.9,344.1l-83.5-35.9c-6.1-2.6-6.6-14.3-1.1-27.1c2.5-5.8,5.8-10.8,9.4-14.2c4-3.8,7.9-5.1,11.1-3.7l83.5,35.9
					L96.9,344.1z M30.2,266.7c-1.5,0-3.6,1.1-5.7,3.2c-3.2,3-6.2,7.6-8.4,12.8c-4.6,10.8-4.4,20.4-1,21.9l0,0l79.8,34.3l16.2-37.7
					l-79.8-34.3C30.9,266.8,30.5,266.7,30.2,266.7z"/>
			</g>
			<g>
				<path fill="#686868" d="M289.1,284.8c0,0,11,106.5-80.5,191.8c0,0-106.9,8.1-190.2-83c0,0-12.1-103.7,79.4-189L289.1,284.8z"/>
				<path d="M201.9,478.8c-10.3,0-31.6-1-57.7-7.6c-34.1-8.6-84-28.8-127.3-76.2l-0.4-0.5l-0.1-0.6c-0.1-1.1-3-26.7,5.4-63.2
					c7.7-33.6,27-83.1,74.6-127.5l0.9-0.9l193.6,81.1l0.1,1.2c0,0.3,2.7,27.4-6,64.6c-8,34.3-27.5,84.5-75.1,128.9l-0.5,0.5
					l-0.7,0.1C208.7,478.7,206.2,478.8,201.9,478.8z M20.3,392.8c42.5,46.3,91.3,66.1,124.7,74.5c33.2,8.4,58.3,7.6,62.7,7.3
					c46.5-43.6,65.6-92.8,73.4-126.4c7.5-32.2,6.4-56.6,6-62.1L98.2,207c-46.1,43.4-64.8,91.6-72.4,124.4
					C18.2,364.2,20,388.6,20.3,392.8z"/>
			</g>
			<g>
				<path fill="#757575" d="M3.4,398.7c-9.6,22.2,30.4,60.8,89.3,86.1c58.9,25.3,112.1,27.7,121.7,5.5l6.5-17.4
					c0.7-1.9-1.4-3.6-3.1-2.5c-18.4,11.7-63.9,3.4-114-18.1c-46-19.8-80.5-47.6-88.8-69.5c-0.5-1.2-2.1-1.5-2.9-0.4
					c-1.9,2.5-5.5,7.3-8.7,16.6L3.4,398.7z"/>
				<path d="M177.2,507.5c-22.8,0-53-7-85.3-20.9c-60.6-26-100.2-64.8-90.4-88.4c3.4-9.7,7.2-14.7,9-17.1c0.8-1.1,2.1-1.6,3.4-1.4
					c1.3,0.2,2.4,1.1,2.9,2.4c8.3,21.9,43.6,49.4,87.7,68.4c51,21.9,95,29.1,112.1,18.3c1.5-1,3.4-0.9,4.8,0.3
					c1.4,1.1,1.9,3,1.3,4.6l-6.5,17.5C211.5,502,197.2,507.5,177.2,507.5z M5.3,399.5c-4.2,9.8,2.6,24.2,18.5,39.6
					c16.7,16.1,41.4,31.6,69.7,43.8c28.3,12.1,56.2,19.4,78.6,20.4c21.8,1,36.1-3.9,40.4-13.8l6.5-17.4c0-0.1,0-0.1,0-0.1
					c-0.1-0.1-0.1,0-0.2,0c-18.4,11.7-62.8,4.8-115.8-18c-44.7-19.2-80.6-47.3-89.7-70.1C11.5,386.3,8.2,390.9,5.3,399.5L5.3,399.5
					L5.3,399.5z"/>
			</g>
			<g>
				<g>
					<path fill="#757575" d="M93.9,181.2c1-2.4,2.5-4.4,4.5-6.2c16.8-15.2,66.7-10.9,119.3,11.7c52.6,22.6,90.2,55.8,90.7,78.5
						c0.1,2.7-0.4,5.2-1.4,7.6c-9.6,22.2-65,19.8-123.9-5.5C124.3,242,84.4,203.4,93.9,181.2z"/>
				</g>
				<g>
					<path fill="#5E5E5E" d="M95.2,181.8c1-2.4,2.5-4.4,4.5-6.2c2.9,17.1,42.2,46.1,94.9,68.7c52.6,22.6,100.7,31.2,115.2,21.5
						c0.1,2.7-0.4,5.2-1.4,7.6c-9.6,22.2-65,19.8-123.9-5.5C125.6,242.5,85.6,204,95.2,181.8z"/>
				</g>
				<g>
					<path d="M182.4,269.1C121.6,243,81.9,204,92.1,180.4c1.1-2.6,2.8-4.9,5-6.9c17.7-16,68.8-11.2,121.5,11.4s91.3,56.4,91.9,80.3
						c0.1,3-0.5,5.8-1.6,8.4C298.8,297.2,243.2,295.2,182.4,269.1z M114.3,221.6c16.7,16.1,41.4,31.6,69.7,43.8
						c28.3,12.1,56.6,19.4,79.7,20.4c22.2,1,37.3-4.1,41.5-13.9c0.9-2,1.3-4.3,1.2-6.7c-0.5-22-39-55-89.5-76.7
						s-100.9-26.9-117.2-12.1c-1.8,1.6-3.2,3.5-4,5.5C91.5,191.8,98.3,206.2,114.3,221.6z"/>
				</g>
			</g>
			<g>
				<path fill="#FFFF00" d="M245.4,405.7c-4.9-2.1-4.9-13,0-24.5c4.9-11.4,12.8-19,17.7-16.9c0.4,0.2,1.1,0.5,1.1,0.5l202.3,86.9
					c7,3,10.2,11.1,7.2,18.1l-6.9,16.1c-3,7-11.1,10.2-18.1,7.2l-202.3-86.9C246.5,406.2,245.7,405.9,245.4,405.7z"/>
				<path d="M454.1,496.2c-2.1,0-4.2-0.4-6.2-1.3l-203.4-87.4c-6.1-2.6-6.5-14.3-1-27.1c2.5-5.8,5.8-10.8,9.3-14.2
					c4-3.8,7.9-5.1,11-3.8l203.4,87.4c3.9,1.7,6.9,4.7,8.4,8.6c1.6,3.9,1.5,8.2-0.2,12.1l-6.9,16.1c-1.7,3.9-4.7,6.9-8.6,8.4
					C458.1,495.9,456.1,496.2,454.1,496.2z M246.1,403.9l203.4,87.4c6,2.6,12.9-0.2,15.5-6.2l6.9-16.1c1.2-2.9,1.3-6.1,0.1-9
					c-1.2-2.9-3.4-5.2-6.3-6.4l-203.4-87.4c-1.5-0.7-4,0.5-6.7,3c-3.2,3-6.1,7.6-8.4,12.8C242.6,392.8,242.8,402.5,246.1,403.9
					L246.1,403.9z"/>
			</g>
		</g>
	</g>
</g>
<g id="default" display="none">
	<g display="inline">
		<g>
			<g>
				<path fill="#FFFF00" d="M174.9,46.5c-2-5,5.8-12.8,17.3-17.4c11.5-4.6,22.5-4.3,24.5,0.7c0.2,0.4,0.4,1.1,0.4,1.1l32.5,81.4
					L207.8,129l-32.5-81.4C175.3,47.6,175,46.8,174.9,46.5z"/>
				<path d="M206.7,131.6L173,47.2c-2.5-6.2,5.4-14.8,18.4-20c13-5.2,24.6-4.4,27.1,1.8l33.7,84.4L206.7,131.6z M207.3,27.9
					c-3.9,0-9,1-14.5,3.1c-10.9,4.3-17.5,11.4-16.2,14.8h0l32.2,80.7l38.1-15.2l-32.2-80.7C214.1,28.8,211.3,27.9,207.3,27.9z"/>
			</g>
			<g>
				<path fill="#686868" d="M384.5,225.6c0,0-67.6,83.1-192.5,78.8c0,0-81.3-69.8-75.8-193.2c0,0,64.8-81.8,189.8-77.5L384.5,225.6z
					"/>
				<path d="M201.2,306.5c-3.1,0-6.2-0.1-9.3-0.2l-0.7,0l-0.5-0.5c-0.2-0.2-20.8-18-40.4-50.8c-18.1-30.2-39-79.7-36.1-143.9l0-0.6
					l0.4-0.5c0.7-0.8,16.8-21,48.5-40.8c29.3-18.3,77.8-39.7,142.9-37.4l1.3,0l79.5,194.2l-0.7,0.9c-0.2,0.2-17.5,21.3-49.9,41.4
					C307.7,286,261.7,306.5,201.2,306.5z M192.7,302.3c63.7,2,112-19.2,141.3-37.5c28.1-17.5,44.5-35.5,48.2-39.7L304.5,35.6
					c-63.3-1.9-110.6,18.9-139.2,36.8c-28.5,17.8-44.6,36.3-47.3,39.5c-2.7,62.8,17.8,111.3,35.5,140.9
					C171.1,282.2,189.5,299.4,192.7,302.3z"/>
			</g>
			<g>
				<path fill="#757575" d="M102,104.1c-22.5,9-21.5,64.5,2.3,124S164,327,186.5,318l16.9-7.7c1.9-0.9,1.6-3.6-0.4-4
					c-21.3-4.8-47.6-42.8-67.8-93.4c-18.6-46.5-23.2-90.6-13.6-111.9c0.5-1.2-0.4-2.5-1.7-2.4c-3.1,0.4-9,1.3-17.9,5.6L102,104.1z"
					/>
				<path d="M179.7,321.3c-23.5,0-55.2-37.2-77.2-92.5c-24.4-61.2-25-116.7-1.4-126.5c9.2-4.5,15.5-5.3,18.5-5.7
					c1.3-0.2,2.6,0.4,3.4,1.4c0.8,1.1,1,2.5,0.4,3.7c-9.6,21.4-4.1,65.7,13.7,110.4c20.6,51.6,46.6,87.8,66.4,92.2
					c1.8,0.4,3,1.8,3.2,3.6c0.2,1.8-0.7,3.4-2.4,4.2l-17,7.8C184.8,320.8,182.3,321.3,179.7,321.3z M102.8,105.9
					c-9.9,4-15.3,18.9-14.9,41.1c0.4,23.2,6.9,51.7,18.3,80.2c11.4,28.6,26,53.4,41.2,70c14.7,16.1,28.3,22.8,38.4,18.8l16.9-7.7
					c0.1,0,0.1,0,0.1-0.1c0-0.1,0-0.1-0.1-0.1c-21.3-4.8-47.8-41-69.2-94.6c-18-45.2-23.6-90.5-13.8-113
					C116.5,101.1,110.9,102,102.8,105.9L102.8,105.9C102.8,105.9,102.8,105.9,102.8,105.9L102.8,105.9z"/>
			</g>
			<g>
				<g>
					<path fill="#757575" d="M319.8,14.3c2.4-0.9,4.9-1.3,7.6-1.2c22.7,1.1,54.9,39.5,76.1,92.7c21.2,53.2,24.3,103.2,8.6,119.6
						c-1.9,1.9-4,3.4-6.3,4.4c-22.5,9-60-32-83.7-91.5C298.3,78.8,297.3,23.3,319.8,14.3z"/>
				</g>
				<g>
					<path fill="#5E5E5E" d="M320.3,15.6c2.4-0.9,4.9-1.3,7.6-1.2c-10.1,14.2-2.7,62.5,18.5,115.7c21.2,53.2,49.2,93.3,66.2,96.6
						c-1.9,1.9-4,3.4-6.3,4.4c-22.5,9-60-32-83.7-91.5C298.8,80.1,297.8,24.6,320.3,15.6z"/>
				</g>
				<g>
					<path d="M320.2,139C295.7,77.6,295.2,22,319,12.4c2.6-1,5.4-1.5,8.5-1.3c23.9,1.2,56.6,40.7,77.8,94s24.7,104.5,8.2,121.7
						c-2.1,2.2-4.5,3.8-7.1,4.8C382.6,241.2,344.7,200.5,320.2,139z M305.6,57.3c0.4,23.2,6.9,51.7,18.3,80.2
						c11.4,28.6,26.3,53.7,41.9,70.8c15,16.4,29.3,23.5,39.2,19.6c2.1-0.8,4-2.1,5.6-3.9c15.2-15.9,11.3-66.4-9-117.5
						c-20.4-51-52.3-90.4-74.3-91.4c-2.4-0.1-4.7,0.2-6.8,1.1C310.6,20.1,305.2,35.1,305.6,57.3z"/>
				</g>
			</g>
			<g>
				<path fill="#FFFF00" d="M268.1,280.2c-2-4.9,5.8-12.7,17.3-17.3c11.5-4.6,22.5-4.3,24.5,0.6c0.2,0.4,0.4,1.1,0.4,1.1l81.6,204.5
					c2.8,7.1-0.6,15.1-7.7,17.9l-16.2,6.5c-7.1,2.8-15.1-0.6-17.9-7.7l-81.6-204.5C268.5,281.3,268.2,280.5,268.1,280.2z"/>
				<path d="M362.9,496.4c-6.3,0-12.2-3.8-14.7-9.9l-82-205.6c-1.3-3.2,0.2-7.1,4-10.9c3.5-3.4,8.6-6.6,14.4-9
					c13-5.2,24.6-4.4,27.1,1.7l82,205.6c1.6,3.9,1.5,8.2-0.2,12.1c-1.7,3.9-4.7,6.9-8.6,8.4l-16.2,6.5
					C366.8,496,364.9,496.4,362.9,496.4z M300.7,261.6c-3.9,0-9.1,1-14.5,3.1c-5.3,2.1-10,5-13.1,8.1c-2.6,2.6-3.8,5-3.2,6.6
					L352,485c2.4,6,9.3,9,15.3,6.6l16.2-6.5c2.9-1.2,5.2-3.4,6.4-6.3s1.3-6.1,0.1-9l-82-205.6C307.4,262.6,304.6,261.6,300.7,261.6z
					"/>
			</g>
		</g>
		<g>
			<path fill="none" d="M291.5,123.7"/>
		</g>
		<g>
			<path fill="none" d="M188.9,154"/>
		</g>
	</g>
</g>
</svg>
