<?xml version="1.0" encoding="utf-8"?>
<!-- Generator: Adobe Illustrator 22.0.0, SVG Export Plug-In . SVG Version: 6.00 Build 0)  -->
<svg version="1.1" id="Layer_1_copy" xmlns="http://www.w3.org/2000/svg" xmlns:xlink="http://www.w3.org/1999/xlink" x="0px"
	 y="0px" viewBox="0 0 24 24" style="enable-background:new 0 0 24 24;" xml:space="preserve" height="24" width="24">
<style type="text/css">
	.st0{fill:#0000FF;stroke:#000000;stroke-miterlimit:10;}
	.st1{fill:#FF0080;stroke:#000000;stroke-miterlimit:10;}
	.st2{fill:#FFFF00;stroke:#000000;stroke-miterlimit:10;}
	.st3{fill:#00FF80;stroke:#000000;stroke-miterlimit:10;}
	.st4{fill:none;stroke:#231F20;stroke-miterlimit:10;}
	.st5{fill:#FFFFFF;stroke:#000000;stroke-linejoin:round;stroke-miterlimit:10;}
	.st6{stroke:#FFFFFF;stroke-linecap:round;stroke-linejoin:round;stroke-miterlimit:10;}
	.st7{fill:#FFFFFF;stroke:#000000;stroke-linecap:square;stroke-linejoin:round;stroke-miterlimit:10;}
	.st8{fill:#FFFFFF;stroke:#000000;stroke-linecap:round;stroke-miterlimit:10;}
	.st9{display:none;}
	.st10{display:inline;fill:#FFFFFF;stroke:#000000;stroke-linecap:round;stroke-miterlimit:10;}
	.st11{fill:none;stroke:#000000;stroke-linecap:round;stroke-miterlimit:10;}
	.st12{display:none;fill:none;stroke:#000000;stroke-linecap:round;stroke-miterlimit:10;}
	.st13{fill:#DEDEDE;stroke:#000000;stroke-linecap:round;stroke-linejoin:round;stroke-miterlimit:10;}
	.st14{fill:#00FF80;stroke:#000000;stroke-linejoin:round;stroke-miterlimit:10;}
	.st15{fill:#0000FF;stroke:#000000;stroke-linejoin:round;stroke-miterlimit:10;}
	.st16{fill:#FFFF00;stroke:#000000;stroke-linejoin:round;stroke-miterlimit:10;}
	.st17{fill:#FF0080;stroke:#000000;stroke-linejoin:round;stroke-miterlimit:10;}
	.st18{fill:#FFFFFF;stroke:#231F20;stroke-miterlimit:10;}
</style>
<path class="st13" d="M7.9,12c-0.8-2.9,0.3-5.8,2.6-7.4c-0.7,0-1.5,0-2.2,0.3c-3.6,1-5.6,4.8-4.6,8.4s4.8,5.6,8.4,4.6
	c0.7-0.2,1.4-0.5,2-1C11.3,16.7,8.7,14.8,7.9,12z"/>
<polygon class="st13" points="16.9,5.8 17.8,7.7 19.9,8.1 18.4,9.6 18.8,11.7 16.9,10.7 15,11.7 15.3,9.6 13.8,8.1 15.9,7.7 "/>
</svg>
