<?xml version="1.0" encoding="utf-8"?>
<!-- Generator: Adobe Illustrator 22.0.0, SVG Export Plug-In . SVG Version: 6.00 Build 0)  -->
<svg version="1.1" id="Capa_1" xmlns="http://www.w3.org/2000/svg" xmlns:xlink="http://www.w3.org/1999/xlink" x="0px" y="0px"
	 viewBox="0 0 512 512" enable-background="new 0 0 512 512" xml:space="preserve">
<g>
	<g>
		<path fill="#0000FF" d="M350.5,60v30c27.6,0,50,22.4,50,50h30C430.5,95.9,394.6,60,350.5,60z"/>
	</g>
</g>
<g>
	<g>
		<path fill="#0000FF" d="M350.5,0v30c60.7,0,110,49.3,110,110h30C490.5,62.8,427.7,0,350.5,0z"/>
	</g>
</g>
<g>
	<g>
		<path fill="#0000FF" d="M304.4,164.9c3.6,3.4,7.2,6.9,10.7,10.5s7.1,7.1,10.5,10.7l26.1-26.1c10.4-0.7,18.7-9.3,18.7-19.9
			c0-11-9-20-20-20c-10.6,0-19.3,8.3-19.9,18.7L304.4,164.9z"/>
	</g>
</g>
<g>
	<g>
		<path fill="#0000FF" d="M21.5,491.8V512h190v-20.2l-42.9-69.6c28.8,13.9,60.6,21.3,93.5,21.3c57.4,0,111.4-22.4,152-63
			c11.6-11.6,19.5-36.5-8.8-89.1c-17.6-32.7-45.6-69.6-79.7-105.2L241,270.7c-3.6-3.4-7.2-6.9-10.7-10.5s-7.1-7.1-10.5-10.7
			l84.6-84.6c-35.6-34.1-72.5-62.1-105.2-79.7c-52.6-28.3-77.5-20.4-89.1-8.8c-40.6,40.6-63,94.6-63,152c0,51.5,18,100.2,50.9,139
			L21.5,491.8z M131.3,359.2c-34.9-34.9-54.2-81.4-54.2-130.8c0-34.6,9.4-67.8,27.1-96.5c3.1,9.7,7.8,20.9,14.7,33.6
			c19.4,36,51.4,77.1,90.2,115.9S289,352.2,325,371.6c12.8,6.9,23.9,11.6,33.6,14.7c-28.8,17.7-61.9,27.1-96.5,27.1
			C212.7,413.4,166.2,394.1,131.3,359.2z"/>
	</g>
</g>
</svg>
