<?xml version="1.0" encoding="utf-8"?>
<!-- Generator: Adobe Illustrator 22.0.0, SVG Export Plug-In . SVG Version: 6.00 Build 0)  -->
<svg version="1.1" id="Layer_1_copy" xmlns="http://www.w3.org/2000/svg" xmlns:xlink="http://www.w3.org/1999/xlink" x="0px"
	 y="0px" viewBox="0 0 25 30" enable-background="new 0 0 25 30" xml:space="preserve">
<g>
	<path fill="#FFFFFF" stroke="#000000" stroke-linecap="square" stroke-linejoin="round" stroke-miterlimit="10" d="M8.5,16.3
		c-1.9-1-3.1-2.7-3.1-4.6c0,4.2,3.4,7.7,7.7,7.7C11.2,19.3,9.6,18.1,8.5,16.3z"/>
	<path fill="#FFFFFF" stroke="#000000" stroke-linecap="square" stroke-linejoin="round" stroke-miterlimit="10" d="M17.7,16.3
		c-1,1.9-2.7,3.1-4.6,3.1c4.2,0,7.7-3.4,7.7-7.7C20.8,13.5,19.6,15.2,17.7,16.3z"/>
	<path fill="#FFFFFF" stroke="#000000" stroke-linecap="square" stroke-linejoin="round" stroke-miterlimit="10" d="M8.5,7.1
		c1-1.9,2.7-3.1,4.6-3.1c-4.2,0-7.6,3.4-7.6,7.7C5.5,9.8,6.7,8.1,8.5,7.1z"/>
	<path fill="#FFFFFF" stroke="#000000" stroke-linecap="square" stroke-linejoin="round" stroke-miterlimit="10" d="M17.7,7.1
		c1.9,1,3.1,2.7,3.1,4.6c0-4.2-3.4-7.7-7.7-7.7C15,4,16.7,5.2,17.7,7.1z"/>
	<path fill="#FFFFFF" stroke="#000000" stroke-linecap="square" stroke-linejoin="round" stroke-miterlimit="10" d="M8.5,7.1
		c1-0.5,2.1-0.9,3.3-1.1c0.3-1.2,0.8-2,1.3-2C11.2,4,9.6,5.2,8.5,7.1z"/>
	<path fill="#00FF80" stroke="#000000" stroke-linejoin="round" stroke-miterlimit="10" d="M11.8,17.3c-1.2-0.1-2.3-0.5-3.3-1
		c1,1.9,2.7,3.1,4.6,3.1C12.6,19.3,12.2,18.6,11.8,17.3z"/>
	<path fill="#FF0080" stroke="#000000" stroke-linejoin="round" stroke-miterlimit="10" d="M14.4,6c1.2,0.2,2.3,0.5,3.3,1.1
		C16.7,5.2,15,4,13.1,4C13.6,4,14.1,4.8,14.4,6z"/>
	<path fill="#FFFFFF" stroke="#000000" stroke-linecap="square" stroke-linejoin="round" stroke-miterlimit="10" d="M17.7,16.3
		c-1,0.5-2.1,0.9-3.3,1.1c-0.3,1.2-0.8,2-1.3,2C15,19.3,16.7,18.1,17.7,16.3z"/>
	<path fill="#FFFFFF" stroke="#000000" stroke-linecap="square" stroke-linejoin="round" stroke-miterlimit="10" d="M14.4,17.3
		c-0.4,0.1-0.8,0.1-1.3,0.1c-0.4,0-0.9,0-1.3-0.1c0.3,1.2,0.8,2,1.3,2C13.6,19.3,14.1,18.6,14.4,17.3z"/>
	<path fill="#FFFFFF" stroke="#000000" stroke-linecap="square" stroke-linejoin="round" stroke-miterlimit="10" d="M11.8,6
		c0.5,0,0.9-0.1,1.3-0.1c0.4,0,0.9,0,1.3,0.1c-0.3-1.2-0.8-2-1.3-2S12.2,4.8,11.8,6z"/>
	<path fill="#FFFFFF" stroke="#000000" stroke-linecap="square" stroke-linejoin="round" stroke-miterlimit="10" d="M17.7,7.1
		c0.5,1,0.9,2.1,1.1,3.3c1.2,0.3,2,0.8,2,1.3C20.8,9.8,19.6,8.1,17.7,7.1z"/>
	<path fill="#FFFFFF" stroke="#000000" stroke-linecap="square" stroke-linejoin="round" stroke-miterlimit="10" d="M18.8,13
		c-0.2,1.2-0.5,2.3-1.1,3.3c1.9-1,3.1-2.7,3.1-4.6C20.8,12.2,20,12.6,18.8,13z"/>
	<path fill="#FFFFFF" stroke="#000000" stroke-linecap="square" stroke-linejoin="round" stroke-miterlimit="10" d="M7.5,10.4
		C7.6,9.2,8,8,8.5,7.1c-1.8,1-3,2.7-3,4.6C5.5,11.2,6.2,10.7,7.5,10.4z"/>
	<path fill="#FFFFFF" stroke="#000000" stroke-linecap="square" stroke-linejoin="round" stroke-miterlimit="10" d="M8.5,16.3
		c-0.5-1-0.9-2.1-1.1-3.3c-1.2-0.3-2-0.8-2-1.3C5.5,13.5,6.7,15.2,8.5,16.3z"/>
	<path fill="#FFFFFF" stroke="#000000" stroke-linecap="square" stroke-linejoin="round" stroke-miterlimit="10" d="M7.5,13
		c0.2,1.2,0.5,2.3,1.1,3.3c1,0.5,2.1,0.9,3.3,1.1c-0.3-1-0.5-2.3-0.6-3.8C9.8,13.4,8.5,13.2,7.5,13z"/>
	<path fill="#0000FF" stroke="#000000" stroke-linejoin="round" stroke-miterlimit="10" d="M11.8,6c-1.2,0.2-2.3,0.5-3.3,1.1
		c-0.5,1-0.9,2.1-1.1,3.3c1-0.3,2.3-0.5,3.8-0.6C11.4,8.3,11.6,7,11.8,6z"/>
	<path fill="#FFFF00" stroke="#000000" stroke-linejoin="round" stroke-miterlimit="10" d="M15,13.5c-0.1,1.5-0.3,2.8-0.6,3.8
		c1.2-0.2,2.3-0.5,3.3-1.1c0.5-1,0.9-2.1,1.1-3.3C17.8,13.2,16.5,13.4,15,13.5z"/>
	<path fill="#FFFFFF" stroke="#000000" stroke-linecap="square" stroke-linejoin="round" stroke-miterlimit="10" d="M18.8,10.4
		c-0.2-1.2-0.5-2.3-1.1-3.3c-1-0.5-2.1-0.9-3.3-1.1c0.3,1,0.5,2.3,0.6,3.8C16.5,9.9,17.8,10.1,18.8,10.4z"/>
	<path fill="#FFFFFF" stroke="#000000" stroke-linecap="square" stroke-linejoin="round" stroke-miterlimit="10" d="M13.1,13.6
		c-0.6,0-1.3,0-1.9-0.1c0.1,1.5,0.3,2.8,0.6,3.8c0.4,0.1,0.8,0.1,1.3,0.1c0.4,0,0.9,0,1.3-0.1c0.3-1,0.5-2.3,0.6-3.8
		C14.4,13.6,13.8,13.6,13.1,13.6z"/>
	<path fill="#FFFFFF" stroke="#000000" stroke-linecap="square" stroke-linejoin="round" stroke-miterlimit="10" d="M13.1,9.8
		c0.6,0,1.3,0,1.9,0.1c-0.1-1.5-0.3-2.8-0.6-3.8C14,6,13.6,5.9,13.1,5.9c-0.4,0-0.9,0-1.3,0.1c-0.3,1-0.5,2.3-0.6,3.8
		C11.9,9.8,12.5,9.8,13.1,9.8z"/>
	<path fill="#FFFFFF" stroke="#000000" stroke-linecap="square" stroke-linejoin="round" stroke-miterlimit="10" d="M18.8,10.4
		c0.1,0.4,0.1,0.8,0.1,1.3c0,0.4,0,0.9-0.1,1.3c1.2-0.3,2-0.8,2-1.3S20,10.7,18.8,10.4z"/>
	<path fill="#FFFFFF" stroke="#000000" stroke-linecap="square" stroke-linejoin="round" stroke-miterlimit="10" d="M7.5,13
		c-0.1-0.4-0.1-0.8-0.1-1.3s0-0.9,0.1-1.3c-1.2,0.3-2,0.8-2,1.3S6.2,12.6,7.5,13z"/>
	<path fill="#FFFFFF" stroke="#000000" stroke-linecap="square" stroke-linejoin="round" stroke-miterlimit="10" d="M15,11.7
		c0,0.6,0,1.3-0.1,1.9c1.5-0.1,2.8-0.3,3.8-0.6c0.1-0.4,0.1-0.8,0.1-1.3c0-0.4,0-0.9-0.1-1.3c-1-0.3-2.3-0.5-3.8-0.6
		C15,10.4,15,11,15,11.7z"/>
	<path fill="#FFFFFF" stroke="#000000" stroke-linecap="square" stroke-linejoin="round" stroke-miterlimit="10" d="M11.2,11.7
		c0-0.6,0-1.3,0.1-1.9c-1.5,0.1-2.8,0.3-3.8,0.6c-0.1,0.4-0.1,0.8-0.1,1.3s0,0.9,0.1,1.3c1,0.3,2.3,0.5,3.8,0.6
		C11.2,12.9,11.2,12.3,11.2,11.7z"/>
	<path fill="#00FF80" stroke="#000000" stroke-linejoin="round" stroke-miterlimit="10" d="M15,9.8c-0.6,0-1.2-0.1-1.9-0.1
		s-1.3,0-1.9,0.1c0,0.6-0.1,1.2-0.1,1.9s0,1.3,0.1,1.9c0.6,0,1.2,0.1,1.9,0.1s1.3,0,1.9-0.1c0-0.6,0.1-1.2,0.1-1.9S15,10.4,15,9.8z"
		/>
	<path fill="#FFFF00" stroke="#000000" stroke-linejoin="round" stroke-miterlimit="10" d="M7.4,3.9L6.5,3.6C5.8,3.4,5.3,2.8,5,2.1
		L4.7,1.3c0,0,0-0.1-0.1-0.1c0,0-0.1,0-0.1,0.1L4.2,2.1C4,2.8,3.4,3.4,2.8,3.6L1.9,3.9c0,0-0.1,0-0.1,0.1s0,0.1,0.1,0.1l0.8,0.3
		C3.4,4.7,4,5.2,4.2,5.9l0.3,0.8c0,0,0,0.1,0.1,0.1c0,0,0.1,0,0.1-0.1L5,5.9c0.3-0.7,0.8-1.2,1.5-1.5l0.8-0.3
		C7.4,4.1,7.4,4.1,7.4,3.9C7.4,4,7.4,4,7.4,3.9z"/>
	<path fill="#FFFFFF" stroke="#000000" stroke-linecap="square" stroke-linejoin="round" stroke-miterlimit="10" d="M23.1,19.9
		l-0.8-0.3c-0.6-0.2-1.1-0.7-1.4-1.4l-0.3-0.8c0,0,0,0-0.1,0h-0.1l-0.3,0.8c-0.2,0.6-0.7,1.1-1.4,1.4l-0.6,0.3c0,0,0,0,0,0.1v0.1
		l0.8,0.3c0.6,0.2,1.1,0.7,1.4,1.4l0.3,0.8c0,0,0,0,0.1,0s0.1,0,0.1,0l0.3-0.8c0.2-0.6,0.7-1.1,1.4-1.4l0.8-0.3
		C23.1,20,23.1,20,23.1,19.9C23.1,20,23.1,19.9,23.1,19.9z"/>
</g>
<text transform="matrix(1 0 0 1 2.501 27.7165)"><tspan x="0" y="0" font-family="'Arial-BlackItalic'" font-size="4.0284px">WM</tspan><tspan x="7.8" y="0" font-family="'Arial-BoldItalicMT'" font-size="4.0284px">sound</tspan></text>
<polygon points="21.9,29.1 2.9,29.1 3,28.6 22,28.6 "/>
</svg>
